<?xml version="1.0" encoding="UTF-8" standalone="no"?>
<!-- Created with Inkscape (http://www.inkscape.org/) -->
<svg
   xmlns:svg="http://www.w3.org/2000/svg"
   xmlns="http://www.w3.org/2000/svg"
   version="1.0"
   width="757.91254"
   height="1020.8893"
   id="svg2284">
  <defs
     id="defs2286" />
  <g
     transform="translate(953.24198,-90.488981)"
     id="layer1">
    <g
       transform="translate(-952.11447,90.488981)"
       style="overflow:visible"
       id="Rhode_Island">
			<polygon
   points="756.14722,659.35107 748.41919,660.61035 747.0354,658.69629 748.65942,654.37842 751.80737,649.62305 756.13159,649.37207 756.14722,659.35107 "
   style="fill:#f6e1b9;fill-rule:evenodd"
   id="polygon7" />

			<polygon
   points="56.93237,1020.459 57.73218,1019.1841 60.16357,1017.9248 63.25391,1008.3779 63.41748,1007.8721 92.43091,993.67578 103.4939,988.26807 120.3147,984.33984 138.30786,975.70068 151.45703,959.06885 150.22681,956.58105 147.32861,955.52002 144.11353,956.2207 139.09595,954.45264 131.30591,955.32227 127.21118,952.74658 122.83301,947.45557 122.30908,947.67285 115.69116,950.43994 102.21558,952.30225 101.51367,954.07959 102.76831,957.14893 109.3667,960.40869 111.96655,963.81836 114.74463,972.27832 112.78857,976.24609 104.45044,972.26562 96.76099,965.1582 95.54468,963.05908 96.13135,958.17725 94.12231,955.32568 89.38843,956.28564 82.25659,959.46826 81.42505,962.80957 83.65015,970.66992 84.91919,975.13672 83.92896,979.45752 81.74243,982.26367 78.52734,982.96777 72.73145,980.84912 66.68066,976.79102 63.25391,978.61426 61.2019,988.68359 59.4187,992.06055 50.96045,1000.5566 48.7207,1001.812 39.00806,1001.9873 31.90015,1000.313 28.70923,1001.6011 28.39185,1003.3691 38.38818,1010.9668 39.65698,1014.4248 37.70581,1018.3921 37.07129,1018.9438 35.3457,1020.459 56.93237,1020.459 "
   style="fill:#f6e1b9;fill-rule:evenodd"
   id="polygon9" />

			<polygon
   points="24.5105,1020.459 24.04248,1019.6929 26.97388,1011.4048 25.12402,1007.7778 22.46606,1008.0728 19.96216,1012.4526 17.43896,1011.187 12.55151,1012.9356 10.97583,1020.459 24.5105,1020.459 "
   style="fill:#f6e1b9;fill-rule:evenodd"
   id="polygon11" />

			<polygon
   points="0.25513,954.57275 2.35327,959.21191 0.2395,968.46289 0.25513,972.16211 1.36328,973.45947 4.36694,972.17822 8.53369,961.30713 8.95679,957.20068 6.36621,949.12598 7.88989,944.00391 13.03687,938.74219 6.73169,933.34375 0.25513,930.51562 0.25513,954.57275 "
   style="fill:#f6e1b9;fill-rule:evenodd"
   id="polygon13" />

			<polygon
   points="545.55298,414.31201 543.75903,416.57031 538.90552,422.74658 536.3772,421.84814 536.94946,414.62695 534.86841,409.0376 525.78052,400.72949 523.51685,395.53564 526.16479,386.89404 524.57397,385.1875 522.69946,386.98779 522.19019,389.68408 520.85425,396.77832 521.98853,402.97754 526.5061,412.97559 531.72046,420.42041 535.50757,432.18994 539.74146,439.08008 538.46802,448.84814 531.97534,450.58984 526.8811,461.24658 525.78052,470.04102 519.28247,464.77588 517.95142,457.79785 517.02905,452.96143 511.67505,447.27783 509.6897,438.37939 507.60425,439.41113 501.01538,458.48291 501.64966,460.41309 499.95337,461.62646 498.18481,460.31885 495.75806,442.67139 497.01685,439.51807 499.87622,438.46729 502.43774,440.53027 503.01978,420.26514 505.90796,412.48584 508.20972,406.29346 508.95483,398.48145 507.55591,389.7583 512.43921,392.15234 513.12134,389.01904 511.21313,382.8418 510.78101,374.2876 511.46802,372.53271 512.29517,370.41455 515.15942,372.44971 525.53052,377.99707 531.07153,383.28809 535.52661,391.14844 542.10132,407.00537 543.98022,411.54688 545.55298,414.31201 "
   style="fill:#fefee9;fill-rule:evenodd"
   id="polygon15" />

			<polygon
   points="614.15259,559.23486 617.37134,561.47021 619.38013,562.8584 624.97925,571.46826 625.80103,580.98584 622.56177,581.85254 620.58667,587.15967 627.43481,584.8335 629.42017,587.31543 627.3772,589.90088 617.08813,595.33447 614.15259,559.23486 "
   style="fill:#f6e1b9;fill-rule:evenodd"
   id="polygon17" />

			<path
   d="M 564.84302,439.56348 L 567.72144,441.21729 L 580.60035,444.33838 L 580.60035,447.11279 L 607.72144,453.72558 L 608.4148,460.33837 L 605.98755,470.7661 L 607.37427,479.11278 C 607.37427,479.11278 605.64087,482.60448 603.88257,485.03221 C 602.12427,487.45946 601.45532,491.645 601.802,496.87059 C 602.14868,502.09666 608.76147,509.03221 608.76147,509.03221 L 611.76293,550.60252 L 609.74926,554.35936 L 610.96996,557.04881 L 614.13695,559.23338 L 617.10375,595.33445 L 611.46996,598.30613 L 610.59496,594.23826 L 612.23851,590.88719 L 604.19847,577.0869 L 603.35716,581.58641 L 605.17405,592.43748 L 604.25608,594.02049 L 602.09788,594.33836 L 601.00755,594.49754 L 603.05003,599.11375 L 600.65648,603.07469 L 600.56517,606.96727 L 595.36058,613.33885 L 589.2473,614.2827 L 586.09935,618.65575 L 582.69701,620.49852 L 581.55785,628.11864 L 573.29174,627.37548 L 570.27856,629.60058 L 565.86157,629.32861 L 564.46802,627.42431 L 564.40064,624.89404 L 568.81275,617.76367 L 569.53345,608.98535 L 565.94361,603.82373 L 564.62134,597.63428 L 561.07495,594.22803 L 560.44556,592.10645 L 560.68579,590.08545 L 562.01196,579.02051 L 558.60962,566.84863 L 559.8064,561.36279 L 559.11402,557.10058 L 553.46705,554.333 L 552.63111,551.83251 L 557.90308,526.57128 L 557.21119,522.30517 L 554.05836,519.47656 L 553.60182,516.76172 L 558.22975,510.20508 L 555.20192,505.03418 L 553.83229,497.09277 L 555.07741,493.35888 L 556.10085,493.40771 L 557.58083,493.48242 L 560.88747,501.95556 L 563.20436,502.2832 L 563.69411,499.1499 L 561.61794,493.36865 L 556.63894,487.08496 L 555.05789,478.36865 L 557.29715,461.75927 L 561.1326,447.04736 L 562.59598,444.16015 L 564.84302,439.56348 z "
   style="fill:#fefee9;fill-rule:evenodd"
   id="path19" />

			<path
   d="M 191.823,159.90576 L 292.52027,155.93213 L 298.08521,155.82178 L 398.91333,153.92676 L 404.42114,153.65088 L 450.49536,151.80615 L 448.8728,257.47461 L 476.40259,251.73486 C 476.40259,251.73486 477.94507,255.80713 476.3938,257.89941 C 474.84204,259.9917 475.51148,267.6206 476.22925,270.41894 C 476.94702,273.21728 481.70532,288.02978 478.27368,292.97021 C 474.84204,297.91113 475.93774,300.29101 475.93774,300.29101 C 475.93774,300.29101 478.81274,306.8955 476.30737,309.53662 C 473.802,312.17724 472.50317,318.03711 472.80591,320.3208 C 473.10816,322.60449 475.04614,324.6123 475.11743,327.26172 C 475.18921,329.91113 475.18921,334.07227 475.18921,334.07227 C 475.18921,334.07227 474.10083,336.03614 475.87085,337.66748 C 477.64087,339.29834 480.4148,342.41894 480.4148,342.41894 L 483.58765,351.16796 L 508.07642,367.40087 L 507.41675,371.69579 L 505.48023,384.56493 L 503.63941,387.53954 L 490.64429,377.78808 L 490.38941,375.65331 L 492.23462,372.87645 L 497.21362,371.56297 L 498.35278,369.26951 L 498.48755,368.99314 L 494.13843,365.22703 L 493.0232,365.52879 L 490.12037,366.31688 L 489.03932,362.25243 L 487.96217,358.20067 L 485.86256,358.84618 L 485.81422,359.08934 L 484.67994,364.72118 L 487.0398,379.84472 L 488.86109,382.9038 L 499.45338,389.41112 L 504.15358,399.01024 L 503.91335,404.08055 L 501.82302,405.11522 L 499.87624,404.39208 L 498.58376,406.3745 L 499.49685,411.4121 L 498.23269,414.36718 L 495.09499,412.51171 L 492.09597,408.50878 L 492.78298,407.16601 L 493.91726,404.95361 L 493.29714,403.41552 L 488.03005,401.03466 L 479.91726,400.29833 L 474.80886,396.94384 L 470.95437,390.24169 L 464.59597,370.18065 L 463.10671,371.97508 L 457.70437,365.32127 L 456.08523,362.64158 L 458.09841,358.88523 L 453.92702,348.10544 L 454.78737,344.57273 L 452.71608,342.60007 L 451.61549,341.55222 L 450.16871,338.28562 L 450.62525,334.1821 L 447.95337,335.04148 L 442.83032,337.91892 L 445.6897,343.4824 L 442.30152,352.73484 L 444.45923,360.65281 L 443.36841,362.83006 L 441.2732,363.6699 L 440.75855,365.82713 L 447.31861,372.64305 L 449.37134,376.86375 L 444.66138,380.70408 L 448.71265,380.77586 L 449.92408,382.6865 L 448.41969,390.52048 L 445.08912,388.66843 L 443.23365,391.0654 L 451.84595,402.29636 L 454.80152,404.54441 L 461.56861,405.31687 L 463.39478,408.57371 L 457.89673,409.31297 L 459.32935,414.53318 L 459.10767,426.80808 L 455.00806,431.40818 L 453.2063,442.36326 L 449.99097,444.21238 L 446.10767,443.16111 L 444.30103,440.68259 L 446.59302,426.79197 L 445.94458,424.46922 L 440.75854,424.82274 L 439.24975,432.46239 L 437.31323,432.13134 L 433.86743,426.20165 L 429.5227,422.63329 L 427.60961,423.08104 L 427.66283,424.82958 L 433.58324,429.71142 L 430.32982,430.39599 L 431.37767,433.28613 L 429.3015,434.71045 L 427.27806,434.37305 L 416.34007,432.57276 L 407.97288,429.71485 L 405.30052,430.3794 L 404.71409,436.62794 L 406.80979,442.21095 L 407.19944,448.82179 L 405.45921,454.90773 L 401.41771,461.26271 L 402.04222,462.99855 L 404.17113,463.31935 L 407.90062,459.31349 L 410.37572,452.03029 L 417.9597,448.10207 L 421.05931,448.78615 L 427.93675,453.63918 L 428.77757,455.94924 L 422.28001,457.50979 L 418.39183,462.63528 L 415.26341,463.35891 L 414.04759,464.98342 L 416.56566,464.91555 L 423.92357,460.96438 L 432.06468,463.05325 L 433.69407,466.11575 L 432.90598,471.9844 L 435.17893,483.79251 L 434.46799,485.76126 L 429.06125,485.14847 L 426.44699,487.75638 L 426.91281,490.46878 L 432.82931,488.92776 L 434.6506,491.99026 L 428.22482,502.30911 L 430.20529,504.19095 L 433.85763,504.27542 L 433.78536,514.79251 L 428.69112,518.06204 L 416.21016,522.75979 L 414.05196,523.57034 L 409.76534,521.56253 L 407.92501,524.34232 L 405.34884,515.26908 L 403.39767,520.78031 L 400.15841,521.6597 L 405.89669,527.12943 L 406.58858,531.00541 L 410.06368,531.47953 L 410.61641,537.11088 L 418.06514,542.1392 L 418.00752,546.61918 L 415.20088,549.23393 L 416.44063,552.11772 L 420.66036,551.7935 L 422.47237,554.65776 L 425.75948,555.33891 L 427.1628,557.43461 L 424.78389,567.82865 L 426.64375,578.8682 L 426.46113,579.50052 L 422.81367,592.02884 L 426.80244,616.63138 L 425.91328,618.99954 L 419.33857,617.251 L 418.6706,620.57961 L 422.0539,631.1841 L 413.61005,643.90383 L 404.758,636.58205 L 403.97919,629.7925 L 405.63202,618.65578 L 406.21356,614.7339 L 405.73358,605.01124 L 404.7287,603.48683 L 399.74042,635.57033 L 396.59247,639.17092 L 390.758,641.23391 L 389.95038,641.51907 L 390.77753,643.6343 L 392.90644,644.15334 L 400.84101,640.20852 L 404.71406,641.4512 L 408.3332,646.98538 L 399.86054,652.30862 L 397.55829,658.60891 L 399.20184,662.25832 L 402.34979,664.88625 L 404.28192,671.83449 L 401.16278,676.40871 L 399.04315,682.50783 L 391.87274,686.23488 L 385.50506,703.76564 L 385.50994,710.18556 L 383.03924,710.84718 L 381.39617,710.27003 L 378.97381,709.41993 L 375.17254,704.08692 L 368.73699,700.39503 L 372.31756,685.87501 L 373.80731,684.46681 L 376.71991,685.73829 L 373.63934,691.48048 L 374.49481,694.37403 L 377.89227,692.7129 L 380.21405,687.18507 L 378.69501,681.39161 L 379.97333,672.97999 L 378.96405,671.26026 L 374.5329,670.6211 L 376.30194,665.69727 L 379.49774,663.64991 L 379.90155,657.99268 L 378.4743,655.11817 L 376.55194,654.98243 L 375.06659,656.5879 L 374.85028,662.04395 L 372.93768,661.60352 L 370.40985,661.0127 L 369.11688,662.61524 L 370.2077,667.05958 L 368.55975,669.44386 L 368.84295,672.55128 L 363.78729,688.87208 L 360.57196,690.33546 L 358.04901,689.24855 L 354.59833,682.93263 L 351.46015,680.69728 L 348.83613,682.53371 L 348.91328,685.06057 L 353.27656,689.79055 L 352.75752,691.55813 L 347.8459,693.85501 L 348.86494,695.77249 L 351.38789,696.85892 L 363.196,694.53958 L 365.16182,696.22659 L 362.36446,698.64993 L 351.13301,700.95608 L 348.8791,700.66751 L 343.82344,700.02151 L 333.69746,700.93362 L 330.16523,698.31887 L 326.50312,703.69436 L 301.01728,709.39407 L 288.38203,715.65481 L 286.08027,715.53469 L 284.10957,713.84817 L 287.4499,710.42874 L 297.63838,705.60843 L 306.79854,704.53079 L 301.97823,697.48831 L 301.54561,697.79007 L 292.04415,704.43362 L 288.37276,703.38626 L 283.02852,703.95364 L 281.84151,702.82815 L 280.41426,694.30911 L 277.95821,695.36331 L 277.45382,703.36331 L 272.35958,711.71048 L 268.32247,711.26224 L 263.03097,713.58206 L 254.96212,712.68655 L 248.58468,722.63577 L 250.73263,723.9302 L 258.04757,719.20071 L 270.6965,714.69485 L 277.35763,712.31985 L 278.02072,715.02542 L 276.93967,717.2056 L 261.65647,724.14115 L 252.35715,726.79154 L 238.33811,737.19828 L 236.03147,736.88383 L 233.16233,731.14506 L 236.52659,728.69242 L 238.093,723.96635 L 237.42991,721.26371 L 227.96214,724.50785 L 224.89622,729.58451 L 218.67259,732.27055 L 216.02952,731.64164 L 214.01048,734.55766 L 217.35081,734.98295 L 227.65452,732.50102 L 228.27952,734.03862 L 216.25511,740.877 L 212.0598,741.41216 L 209.1472,740.15044 L 205.2307,731.91704 L 203.67308,731.19048 L 201.2224,732.25152 L 197.69457,729.84381 L 194.89769,732.08258 L 191.42748,731.42389 L 189.51049,734.78766 L 183.08471,736.59479 L 178.62475,739.586 L 176.75512,741.42536 L 178.03393,743.16706 L 185.35815,738.64802 L 192.34106,735.6739 L 198.62231,734.67439 L 201.70288,735.15437 L 203.32251,737.82429 L 200.92407,740.43904 L 192.35034,741.70759 L 188.23657,744.58161 L 175.85669,746.3819 L 166.5813,749.43756 L 152.33643,758.12213 L 142.11426,755.96149 L 130.50318,757.74274 L 129.32105,756.81159 L 131.41626,751.08893 L 142.23462,753.81403 L 146.21851,752.89264 L 151.17359,746.67438 L 156.41187,743.18024 L 154.91749,738.75544 L 163.77955,734.74274 L 165.01441,734.96637 L 166.47559,735.22907 L 167.50415,731.68708 L 166.10547,724.53376 L 166.74439,720.80964 L 165.71607,718.70417 L 165.27857,718.42194 L 161.99146,716.30671 L 160.45362,710.51814 L 160.03541,709.56111 L 164.61061,703.36189 L 165.55275,697.29207 L 164.23586,692.47176 L 158.96853,673.18905 L 160.37209,669.44247 L 167.73,665.86727 L 171.23317,661.84823 L 174.06422,660.57968 L 181.08082,663.83652 L 184.14674,663.92099 L 185.61744,661.92245 L 185.77613,655.66171 L 190.13502,643.05233 L 194.54713,549.51424 L 194.7151,545.93612 L 194.10963,533.69003 L 195.94996,491.57333 L 195.32057,442.56942 L 195.12819,427.54305 L 196.15651,423.80282 L 194.12868,398.17489 L 192.98024,335.79257 L 191.61061,261.76132 L 192.49928,231.15732 L 192.24,228.8082 L 191.37965,221.06845 L 191.823,159.90576 z "
   style="fill:#fefee9;fill-rule:evenodd"
   id="path21" />

			<path
   d="M 0.2395,757.64111 L 1.16162,753.84619 L 4.94849,747.66015 L 4.66016,745.13915 L 11.97974,746.21972 L 17.71802,751.25439 L 20.49073,748.61377 L 23.56177,748.88965 L 24.5857,745.53858 L 23.23975,740.1377 L 25.38355,739.45264 L 27.00782,743.82227 L 29.85743,745.45752 L 32.60181,741.57129 L 36.79712,739.229 L 37.04712,719.94336 L 33.67358,716.76074 L 32.94775,712.69922 L 34.24072,706.22461 L 34.94702,704.64111 L 37.10498,705.92236 L 35.85059,713.5625 L 37.05713,715.07422 L 40.07031,713.59815 L 43.29516,717.9546 L 40.39233,722.34718 L 39.59448,731.917 L 40.50757,735.97169 L 36.94165,743.11866 L 36.12915,744.92579 L 29.0022,747.77686 L 28.50708,749.29834 L 33.37573,750.26514 L 38.29199,753.77491 L 41.77173,754.61866 L 45.47217,751.167 L 46.67822,737.10059 L 48.29321,739.29053 L 52.99804,758.08643 L 55.37231,760.14014 L 58.01049,759.06592 L 60.28393,747.88428 L 63.2539,744.40332 L 65.60888,741.646 L 63.36913,738.02832 L 63.26366,735.11572 L 68.2954,731.22314 L 71.35692,725.84423 L 74.4182,720.47851 L 76.61937,696.6416 L 79.43553,689.72217 L 81.12254,688.68408 L 81.75218,695.47705 L 78.1428,717.61377 L 78.48875,721.88965 L 80.99729,722.37647 L 86.21653,728.99756 L 88.13914,734.57422 L 92.54612,729.34473 L 95.52561,721.64307 L 97.03464,721.00098 L 97.76535,730.71045 L 99.54831,732.39697 L 108.50656,736.54638 L 109.62131,730.27245 L 113.19211,728.39061 L 116.52292,735.8618 L 122.3425,732.53026 L 124.72629,729.52635 L 128.18674,719.08055 L 132.91574,711.90135 L 137.84665,710.55516 L 137.58225,713.87401 L 133.27121,716.55956 L 132.06027,720.3037 L 133.51657,729.01366 L 134.72262,730.71971 L 138.91818,730.18114 L 141.55197,731.40135 L 142.09982,733.57176 L 139.14425,736.59813 L 142.85934,738.8037 L 145.09396,742.61229 L 149.10666,736.82176 L 156.9885,732.26072 L 160.4968,728.43308 L 161.53513,725.27976 L 160.22287,720.45896 L 156.26779,716.90037 L 155.61886,714.78221 L 157.95944,710.41551 L 160.46921,710.51951 L 160.03537,709.56101 L 164.61057,703.36179 L 165.55271,697.29197 L 164.23582,692.47166 L 158.96849,673.18895 L 160.37205,669.44237 L 167.72996,665.86717 L 171.23313,661.84813 L 174.06418,660.57958 L 181.08078,663.83642 L 184.1467,663.92089 L 185.6174,661.92235 L 185.77609,655.66161 L 190.13498,643.05223 L 194.54709,549.51414 L 194.71506,545.93602 L 194.10959,533.68993 L 195.94992,491.57323 L 195.32053,442.56932 L 195.12815,427.54295 L 196.15647,423.80272 L 194.12864,398.17479 L 192.9802,335.79247 L 191.61057,261.76122 L 192.49924,231.15722 L 192.23996,228.8081 L 191.37961,221.06835 L 191.80734,159.90575 L 292.52023,155.93212 L 298.08517,155.82177 L 398.91329,153.92675 L 404.4211,153.65087 L 450.49532,151.80614 L 448.87276,257.4746 L 476.40255,251.73485 C 476.40255,251.73485 477.94503,255.80712 476.39376,257.8994 C 474.842,259.99169 475.51144,267.62059 476.22921,270.41893 C 476.94698,273.21727 481.70528,288.02977 478.27364,292.9702 C 474.842,297.91112 475.9377,300.291 475.9377,300.291 C 475.9377,300.291 478.8127,306.89549 476.30733,309.53661 C 473.80196,312.17723 472.50313,318.0371 472.80587,320.32079 C 473.10812,322.60448 475.0461,324.61229 475.11739,327.26171 C 475.18917,329.91112 475.18917,334.07226 475.18917,334.07226 C 475.18917,334.07226 474.10079,336.03613 475.87081,337.66747 C 477.64083,339.29833 480.41476,342.41893 480.41476,342.41893 L 483.58761,351.16795 L 508.07638,367.40086 L 508.56564,364.03025 L 511.29025,364.92527 L 513.47726,367.39402 L 512.29513,370.41257 L 515.15939,372.44968 L 525.53048,377.99704 L 531.0715,383.28806 L 535.52658,391.14841 L 547.78146,409.25827 L 545.18673,398.81882 L 546.44064,395.47409 L 550.27121,394.58835 L 552.84738,390.2319 L 559.83517,384.97702 L 560.65646,386.90036 L 558.65744,392.18845 L 558.49875,392.60642 L 555.27902,394.64402 L 554.03439,398.37742 L 551.00168,400.21385 L 557.45139,403.53905 L 551.6843,411.09716 L 557.91282,413.45263 L 560.38743,412.41796 L 567.07737,389.06103 L 569.34592,387.43896 L 570.75901,389.93017 L 568.72581,393.10302 L 566.49143,403.09472 L 565.33811,410.32861 L 566.56809,413.02099 L 575.01243,412.00927 L 580.14622,408.95019 C 580.14622,408.95019 584.41477,406.17773 585.86839,402.53808 C 587.32151,398.89892 589.02318,395.50732 591.9304,394.0537 C 594.83714,392.60009 598.96116,389.4453 599.9304,387.02245 C 600.89915,384.60009 604.0427,372.96044 604.29075,371.50731 C 604.5388,370.0537 605.02317,367.86766 607.44554,365.92967 C 609.86839,363.99168 610.83714,359.86766 611.32152,357.92967 C 611.80638,355.99168 612.29076,349.20848 611.80638,346.05369 C 611.32152,342.8989 610.83714,340.96043 610.35277,339.5073 C 609.86839,338.05369 608.65111,337.32126 611.32152,334.8989 C 613.99242,332.47605 614.47679,331.27048 614.47679,328.60007 C 614.47679,325.92966 613.50804,325.92966 614.96117,323.99167 C 616.41478,322.05368 617.38402,320.60007 617.38402,320.60007 C 617.38402,320.60007 617.8684,326.66208 617.8684,330.05368 C 617.8684,333.44528 617.38402,335.86764 617.38402,335.86764 C 617.38402,335.86764 620.04271,337.5693 620.29076,339.99166 C 620.53881,342.41402 621.50805,342.89889 622.96117,341.44527 C 624.41478,339.99166 624.89916,338.53804 624.89916,338.53804 C 624.89916,338.53804 624.41478,347.74361 624.41478,349.92964 C 624.41478,352.11567 623.44554,355.02241 621.99242,356.9604 C 620.53881,358.89888 615.44554,366.89888 615.44554,366.89888 L 608.89915,372.47603 C 608.89915,372.47603 606.96116,375.14644 606.96116,378.05367 C 606.96116,380.96041 605.50804,392.11568 605.50804,392.11568 L 597.50804,403.99166 L 586.83714,415.38326 L 581.50804,419.99166 L 580.05345,420.43404 L 566.61156,435.99508 L 564.84301,439.56344 L 567.72143,441.21725 L 580.60034,444.33834 L 580.60034,447.11275 L 607.72143,453.72554 L 608.41479,460.33833 L 605.98754,470.76606 L 607.37426,479.11274 C 607.37426,479.11274 605.64086,482.60444 603.88256,485.03217 C 602.12426,487.45942 601.45531,491.64496 601.80199,496.87055 C 602.14867,502.09662 608.76146,509.03217 608.76146,509.03217 L 611.76292,550.60248 L 613.45921,550.93988 L 621.22581,552.48724 L 626.25755,561.50921 L 631.34202,565.07073 L 637.44554,578.34221 L 639.44505,574.00823 L 643.74144,576.8178 L 648.29271,559.37151 L 645.9475,550.28167 L 640.31957,538.09368 L 639.64184,536.62444 L 643.81372,511.79436 L 646.19263,507.05803 L 648.42701,496.68401 L 650.51295,495.46135 L 652.15162,499.50627 L 648.91773,508.34953 L 643.32837,537.89299 L 644.39526,542.14592 L 648.19653,540.49113 L 651.48364,541.37687 L 654.00708,546.71037 L 660.79761,552.62394 L 660.07202,554.39152 L 656.823,555.05998 L 656.10718,557.0258 L 659.30786,569.79094 L 658.38989,571.37444 L 649.29223,576.08782 L 650.47485,577.4179 L 657.15503,575.68841 L 666.28638,580.12347 L 668.89576,584.7265 L 668.37672,586.88373 L 666.27174,587.13031 L 657.8567,580.72992 L 655.75123,580.97992 L 652.74781,583.78265 L 646.3606,581.61224 L 636.35474,580.70697 L 633.90894,582.7182 L 634.34107,584.65521 L 635.47535,584.86957 L 650.54664,587.73383 L 654.82398,589.95942 L 661.29761,595.43501 L 665.82935,607.77827 L 667.51636,606.17573 L 667.03101,602.09809 L 668.20826,595.64594 L 679.26197,584.65864 L 684.40943,583.16645 L 698.88453,586.30317 L 701.55201,585.65083 L 701.22047,579.82466 L 702.60914,572.89253 L 703.10426,570.43013 L 701.85475,566.56636 L 700.26881,564.46773 L 697.01979,565.13277 L 695.7317,559.51705 L 692.80055,557.45064 L 689.9651,559.27437 L 687.26881,558.95308 L 684.90895,556.68208 L 683.43385,551.45942 L 684.49098,539.75141 L 685.81227,538.94037 L 687.18727,540.07269 L 689.32057,548.77972 L 691.50758,551.64398 L 696.15016,553.08441 L 701.45582,558.01214 L 703.69068,563.02093 L 705.37769,561.22357 L 705.86744,557.70697 L 707.0066,557.28851 L 708.26588,561.54193 L 712.20192,565.53461 L 713.83083,569.38568 L 714.09548,572.55511 L 714.36941,575.79583 L 716.14285,577.69671 L 717.4739,577.0805 L 718.66579,570.82269 L 723.06813,562.34271 L 727.60036,558.92328 L 732.42018,559.77338 L 733.52565,557.80463 L 730.5027,551.84174 L 730.96413,546.96625 L 729.87819,541.74018 L 725.22585,531.92377 L 719.54519,527.58295 L 718.9783,519.81391 L 715.32547,519.9018 L 713.0574,521.51703 L 711.64431,518.62982 L 712.76882,509.45257 L 714.84987,508.03802 L 718.29567,513.39691 L 724.8318,523.56097 L 728.36891,526.78509 L 731.25709,527.10296 L 735.90943,512.58294 L 731.58863,500.61858 L 733.82838,497.83879 L 736.33717,498.16984 L 740.27321,501.96525 L 745.11257,511.58048 L 747.67409,514.24357 L 752.67751,514.5131 L 753.78249,512.54044 L 744.0989,488.91153 L 738.68728,475.72452 L 736.97146,468.17276 L 737.94216,460.36417 L 736.94753,451.04728 L 738.47097,442.24308 L 740.58569,442 L 742.75805,444.47852 L 741.23461,453.27588 L 752.17748,484.9375 L 754.12865,486.06006 L 756.13158,483.81445 L 756.13158,0 L 0.2395,0 L 0.2395,757.64111 z "
   style="fill:#f6e1b9;fill-rule:evenodd"
   id="path23" />

			<polygon
   points="0.2395,968.46289 0.2395,954.57275 2.35327,959.21191 0.2395,968.46289 "
   style="fill:#c6ecff"
   id="polygon25" />

			<path
   d="M 748.41919,660.61035 L 756.13159,659.354 L 756.13159,1020.459 L 56.9165,1020.459 L 57.73217,1019.1841 L 60.16357,1017.9248 L 63.2539,1008.3779 L 63.41747,1007.8721 L 92.4309,993.67577 L 103.49389,988.26806 L 120.31469,984.33984 L 138.30785,975.70068 L 151.45702,959.06884 L 150.2268,956.58105 L 147.32861,955.52001 L 144.11352,956.22069 L 139.09594,954.45262 L 131.3059,955.32225 L 127.21117,952.74657 L 122.833,947.45555 L 122.30907,947.67284 L 115.69115,950.43993 L 102.21556,952.30223 L 101.51366,954.07957 L 102.7683,957.14891 L 109.36669,960.40868 L 111.96654,963.81835 L 114.74462,972.27831 L 112.78857,976.24608 L 104.45044,972.26561 L 96.76099,965.15819 L 95.54468,963.05907 L 96.13135,958.17723 L 94.12232,955.32567 L 89.38843,956.28563 L 82.25659,959.46825 L 81.42505,962.80956 L 83.65015,970.66991 L 84.91919,975.13671 L 83.92896,979.45751 L 81.74244,982.26366 L 78.52735,982.96776 L 72.73145,980.84911 L 66.68067,976.791 L 63.25391,978.61424 L 61.20191,988.68358 L 59.41871,992.06053 L 50.96046,1000.5566 L 48.72071,1001.812 L 39.00806,1001.9873 L 31.90015,1000.313 L 28.70923,1001.6011 L 28.39185,1003.3691 L 38.38819,1010.9668 L 39.65699,1014.4248 L 37.70582,1018.3921 L 37.0713,1018.9438 L 35.34571,1020.459 L 24.49512,1020.459 L 24.04248,1019.6929 L 26.97388,1011.4048 L 25.12403,1007.7778 L 22.46607,1008.0728 L 19.96216,1012.4526 L 17.43897,1011.187 L 12.55152,1012.9356 L 10.97584,1020.459 L 0.2395,1020.459 L 0.2395,972.16211 L 1.36328,973.45947 L 4.36694,972.17822 L 8.53369,961.30713 L 8.95679,957.20068 L 6.36621,949.12597 L 7.88989,944.0039 L 13.03686,938.74218 L 6.73168,933.34374 L 0.25512,930.51562 L 0.2395,930.208 L 0.2395,757.64111 L 1.16162,753.84619 L 4.94849,747.66015 L 4.66016,745.13915 L 11.97974,746.21972 L 17.71802,751.25439 L 20.49073,748.61377 L 23.56177,748.88965 L 24.5857,745.53858 L 23.23975,740.1377 L 25.38355,739.45264 L 27.00782,743.82227 L 29.85743,745.45752 L 32.60181,741.57129 L 36.79712,739.229 L 37.04712,719.94336 L 33.67358,716.76074 L 32.94775,712.69922 L 34.24072,706.22461 L 34.94702,704.64111 L 37.10498,705.92236 L 35.85059,713.5625 L 37.05713,715.07422 L 40.07031,713.59815 L 43.29516,717.9546 L 40.39233,722.34718 L 39.59448,731.917 L 40.50757,735.97169 L 36.94165,743.11866 L 36.12915,744.92579 L 29.0022,747.77686 L 28.50708,749.29834 L 33.37573,750.26514 L 38.29199,753.77491 L 41.77173,754.61866 L 45.47217,751.167 L 46.67822,737.10059 L 48.29321,739.29053 L 52.99804,758.08643 L 55.37231,760.14014 L 58.01049,759.06592 L 60.28393,747.88428 L 63.2539,744.40332 L 65.60888,741.646 L 63.36913,738.02832 L 63.26366,735.11572 L 68.2954,731.22314 L 71.35692,725.84423 L 74.4182,720.47851 L 76.61937,696.6416 L 79.43553,689.72217 L 81.12254,688.68408 L 81.75218,695.47705 L 78.1428,717.61377 L 78.48875,721.88965 L 80.99729,722.37647 L 86.21653,728.99756 L 88.13914,734.57422 L 92.54612,729.34473 L 95.52561,721.64307 L 97.03464,721.00098 L 97.76535,730.71045 L 99.54831,732.39697 L 108.50656,736.54638 L 109.62131,730.27245 L 113.19211,728.39061 L 116.52292,735.8618 L 122.3425,732.53026 L 124.72629,729.52635 L 128.18674,719.08055 L 132.91574,711.90135 L 137.84665,710.55516 L 137.58225,713.87401 L 133.27121,716.55956 L 132.06027,720.3037 L 133.51657,729.01366 L 134.72262,730.71971 L 138.91818,730.18114 L 141.55197,731.40135 L 142.09982,733.57176 L 139.14425,736.59813 L 142.85934,738.8037 L 145.09396,742.61229 L 149.10666,736.82176 L 156.9885,732.26072 L 160.4968,728.43308 L 161.53513,725.27976 L 160.22287,720.45896 L 156.26779,716.90037 L 155.61886,714.78221 L 157.95944,710.41551 L 160.46921,710.51951 L 161.99143,716.30662 L 165.27854,718.42185 L 165.71604,718.70408 L 166.74436,720.80955 L 166.10544,724.53367 L 167.50412,731.68699 L 166.47556,735.22898 L 165.01438,734.96628 L 163.77952,734.74265 L 154.91746,738.75535 L 156.41184,743.18015 L 151.17356,746.67429 L 146.21848,752.89255 L 142.23459,753.81394 L 131.41623,751.08884 L 129.32102,756.8115 L 130.50315,757.74265 L 142.11423,755.9614 L 152.3364,758.12204 L 166.58127,749.43747 L 175.85666,746.38181 L 188.23654,744.58152 L 192.35031,741.7075 L 200.92404,740.43895 L 203.32248,737.8242 L 201.70285,735.15428 L 198.62228,734.6743 L 192.34103,735.67381 L 185.35812,738.64793 L 178.0339,743.16697 L 176.75509,741.42527 L 178.62472,739.58591 L 183.08468,736.5947 L 189.51046,734.78757 L 191.42745,731.4238 L 194.89766,732.08249 L 197.69454,729.84372 L 201.22237,732.25143 L 203.67305,731.19039 L 205.23067,731.91695 L 209.14717,740.15035 L 212.05977,741.41207 L 216.25508,740.87691 L 228.27949,734.03853 L 227.65449,732.50093 L 217.35078,734.98286 L 214.01045,734.55757 L 216.02949,731.64155 L 218.67256,732.27046 L 224.89619,729.58442 L 227.96211,724.50776 L 237.42988,721.26362 L 238.09297,723.96626 L 236.52656,728.69233 L 233.1623,731.14497 L 236.03144,736.88374 L 238.33808,737.19819 L 252.35712,726.79145 L 261.65644,724.14106 L 276.93964,717.20551 L 278.02069,715.02533 L 277.3576,712.31976 L 270.69647,714.69476 L 258.04754,719.20062 L 250.7326,723.93011 L 248.58465,722.63568 L 254.96209,712.68646 L 263.03094,713.58197 L 268.32244,711.26215 L 272.35955,711.71039 L 277.45379,703.36322 L 277.95818,695.36322 L 280.41423,694.30902 L 281.84148,702.82806 L 283.02849,703.95355 L 288.37273,703.38617 L 292.04412,704.43353 L 301.54558,697.78998 L 301.9782,697.48822 L 306.79851,704.5307 L 297.63835,705.60834 L 287.44987,710.42865 L 284.10954,713.84808 L 286.08024,715.5346 L 288.382,715.65472 L 301.01725,709.39398 L 326.50309,703.69427 L 330.1652,698.31878 L 333.69743,700.93353 L 343.82341,700.02142 L 348.87907,700.66742 L 351.13298,700.95599 L 362.36443,698.64984 L 365.16179,696.2265 L 363.19597,694.53949 L 351.38786,696.85883 L 348.86491,695.7724 L 347.84587,693.85492 L 352.75749,691.55804 L 353.27653,689.79046 L 348.91325,685.06048 L 348.8361,682.53362 L 351.46012,680.69719 L 354.5983,682.93254 L 358.04898,689.24846 L 360.57193,690.33537 L 363.78726,688.87199 L 368.84292,672.55119 L 368.55972,669.44377 L 370.20767,667.05949 L 369.11685,662.61515 L 370.40982,661.01261 L 372.93765,661.60343 L 374.85025,662.04386 L 375.06656,656.58781 L 376.55191,654.98234 L 378.47427,655.11808 L 379.90152,657.99259 L 379.49771,663.64982 L 376.30191,665.69718 L 374.53287,670.62101 L 378.96402,671.26017 L 379.9733,672.9799 L 378.69498,681.39152 L 380.21402,687.18498 L 377.89224,692.71281 L 374.49478,694.37394 L 373.63931,691.48039 L 376.71988,685.7382 L 373.80728,684.46672 L 372.31753,685.87492 L 368.73696,700.39494 L 375.17251,704.08683 L 378.97378,709.41984 L 381.39614,710.26994 L 383.03921,710.84709 L 385.50991,710.18547 L 385.50503,703.76555 L 391.87271,686.23479 L 399.04312,682.50774 L 401.16275,676.40862 L 404.28189,671.8344 L 402.34976,664.88616 L 399.20181,662.25823 L 397.55826,658.60882 L 399.86051,652.30853 L 408.33317,646.98529 L 404.71403,641.45111 L 400.84098,640.20843 L 392.90641,644.15325 L 390.7775,643.63421 L 389.95035,641.51898 L 390.75797,641.23382 L 396.59244,639.17083 L 399.74039,635.57024 L 404.72867,603.48674 L 405.73355,605.01115 L 406.21353,614.73381 L 405.63199,618.65569 L 403.97916,629.79241 L 404.75797,636.58196 L 413.61002,643.90374 L 422.05387,631.18401 L 418.67057,620.57952 L 419.33854,617.25091 L 425.91325,618.99945 L 426.80241,616.63129 L 422.81364,592.02875 L 426.4611,579.50043 L 426.64372,578.86811 L 424.78386,567.82856 L 427.16277,557.43452 L 425.75945,555.33882 L 422.47234,554.65767 L 420.66033,551.79341 L 416.4406,552.11763 L 415.20085,549.23384 L 418.00749,546.61909 L 418.06511,542.13911 L 410.61638,537.11079 L 410.06365,531.47944 L 406.58855,531.00532 L 405.89666,527.12934 L 400.15838,521.65961 L 403.39764,520.78022 L 405.34881,515.26899 L 407.92498,524.34223 L 409.76531,521.56244 L 414.05193,523.57025 L 416.21013,522.7597 L 428.69109,518.06195 L 433.78533,514.79242 L 433.8576,504.27533 L 430.20526,504.19086 L 428.22479,502.30902 L 434.65057,491.99017 L 432.82928,488.92767 L 426.91278,490.46869 L 426.44696,487.75629 L 429.06122,485.14838 L 434.46796,485.76117 L 435.1789,483.79242 L 432.90595,471.98431 L 433.69404,466.11566 L 432.06465,463.05316 L 423.92354,460.96429 L 416.56563,464.91546 L 414.04756,464.98333 L 415.26338,463.35882 L 418.3918,462.63519 L 422.27998,457.5097 L 428.77754,455.94915 L 427.93672,453.63909 L 421.05928,448.78606 L 417.95967,448.10198 L 410.37569,452.0302 L 407.90059,459.3134 L 404.1711,463.31926 L 402.04219,462.99846 L 401.41768,461.26262 L 405.45918,454.90764 L 407.19941,448.8217 L 406.80976,442.21086 L 404.71406,436.62785 L 405.30049,430.37931 L 407.97285,429.71476 L 416.34004,432.57267 L 427.27803,434.37296 L 429.30147,434.71036 L 431.37764,433.28604 L 430.32979,430.3959 L 433.58321,429.71133 L 427.6628,424.82949 L 427.60958,423.08095 L 429.52267,422.6332 L 433.8674,426.20156 L 437.3132,432.13125 L 439.24972,432.4623 L 440.75851,424.82265 L 445.94455,424.46913 L 446.59299,426.79188 L 444.301,440.6825 L 446.10764,443.16102 L 449.99094,444.21229 L 453.20627,442.36317 L 455.00803,431.40809 L 459.10764,426.80799 L 459.32932,414.53309 L 457.8967,409.31288 L 463.39475,408.57362 L 461.56858,405.31678 L 454.80149,404.54432 L 451.84592,402.29627 L 443.23362,391.06531 L 445.08909,388.66834 L 448.41966,390.52039 L 449.92405,382.68641 L 448.71262,380.77577 L 444.66135,380.70399 L 449.37131,376.86366 L 447.31858,372.64296 L 440.75852,365.82704 L 441.27317,363.66981 L 443.36838,362.82997 L 444.4592,360.65272 L 442.30149,352.73475 L 445.68967,343.48231 L 442.83029,337.91883 L 439.91476,335.61658 L 434.85812,319.93201 L 436.01876,318.39148 L 439.89376,320.3241 L 442.21554,319.93836 L 445.32784,309.15516 L 446.88204,304.91639 L 448.81954,301.83778 L 448.82491,298.75282 L 449.60616,295.28553 L 449.99532,292.20301 L 453.49141,285.65711 L 457.35713,289.90174 L 456.96358,294.91004 L 456.57051,301.07703 L 453.85127,307.62342 L 449.57783,316.09608 L 446.47431,322.64198 L 445.30439,328.03553 L 446.07636,329.19129 L 450.71308,334.10633 L 450.42011,334.24793 L 450.62519,334.18201 L 450.16865,338.28553 L 451.61543,341.55213 L 452.71602,342.59998 L 454.78731,344.57264 L 453.92696,348.10535 L 458.09835,358.88514 L 456.08517,362.64149 L 457.70431,365.32118 L 463.10665,371.97499 L 464.59591,370.18056 L 470.95431,390.2416 L 474.8088,396.94375 L 479.9172,400.29824 L 488.02999,401.03457 L 493.29708,403.41543 L 493.9172,404.95352 L 492.78292,407.16592 L 492.09591,408.50869 L 495.09493,412.51162 L 498.23263,414.36709 L 499.49679,411.41201 L 498.5837,406.37441 L 499.87618,404.39199 L 501.82296,405.11513 L 503.91329,404.08046 L 504.15352,399.01015 L 499.45332,389.41103 L 488.86103,382.90371 L 487.03974,379.84463 L 484.67988,364.72109 L 485.81416,359.08925 L 485.8625,358.84609 L 487.96211,358.20058 L 489.03926,362.25234 L 490.12031,366.31679 L 493.02314,365.5287 L 494.13837,365.22694 L 498.48749,368.99305 L 498.35272,369.26942 L 497.21356,371.56288 L 492.23456,372.87636 L 490.38935,375.65322 L 490.64423,377.78799 L 503.63935,387.53945 L 505.48017,384.56484 L 507.41669,371.6957 L 508.07636,367.40078 L 508.56562,364.03017 L 511.29023,364.92519 L 513.47724,367.39394 L 512.31074,370.41445 L 511.46797,372.53261 L 510.78096,374.28749 L 511.21309,382.84169 L 513.12129,389.01894 L 512.43916,392.15224 L 507.55586,389.7582 L 508.95479,398.48134 L 508.20967,406.29335 L 505.90791,412.48573 L 503.01973,420.26503 L 502.4377,440.53017 L 499.87618,438.46718 L 497.0168,439.51796 L 495.75801,442.67128 L 498.18477,460.31874 L 499.95332,461.62636 L 501.64961,460.41298 L 501.01533,458.4828 L 507.6042,439.41102 L 509.68965,438.37928 L 511.675,447.27772 L 517.029,452.96131 L 517.95136,457.79774 L 519.28241,464.77577 L 525.78046,470.04091 L 526.88105,461.24648 L 531.97529,450.58974 L 538.46797,448.84804 L 539.74141,439.07997 L 535.50752,432.18983 L 531.72041,420.4203 L 526.50605,412.97548 L 521.98847,402.97743 L 520.85419,396.77821 L 522.19013,389.68397 L 522.69941,386.98768 L 524.57392,385.18739 L 526.16474,386.89393 L 523.51679,395.53553 L 525.78046,400.72938 L 534.86835,409.03749 L 536.9494,414.62685 L 536.37713,421.84804 L 538.90545,422.74648 L 543.75897,416.57021 L 545.55292,414.31191 L 545.79218,413.98769 L 547.78144,409.2582 L 545.18671,398.81875 L 546.44062,395.47402 L 550.27119,394.58828 L 552.84736,390.23183 L 559.83515,384.97695 L 560.65644,386.90029 L 558.65742,392.18838 L 558.49873,392.60635 L 555.279,394.64395 L 554.03437,398.37735 L 551.00166,400.21378 L 557.45137,403.53898 L 551.68428,411.09709 L 557.9128,413.45256 L 560.38741,412.41789 L 567.07735,389.06096 L 569.3459,387.43889 L 570.75899,389.9301 L 568.72579,393.10295 L 566.49141,403.09465 L 565.33809,410.32854 L 566.56807,413.02092 L 575.01241,412.0092 L 580.1462,408.95012 C 580.1462,408.95012 584.41475,406.17766 585.86837,402.53801 C 587.32149,398.89885 589.02316,395.50725 591.93038,394.05363 C 594.83712,392.60002 598.96114,389.44523 599.93038,387.02238 C 600.89913,384.60002 604.04268,372.96037 604.29073,371.50724 C 604.53878,370.05363 605.02315,367.86759 607.44552,365.9296 C 609.86837,363.99161 610.83712,359.86759 611.3215,357.9296 C 611.80636,355.99161 612.29074,349.20841 611.80636,346.05362 C 611.3215,342.89883 610.83712,340.96036 610.35275,339.50723 C 609.86837,338.05362 608.65109,337.32119 611.3215,334.89883 C 613.9924,332.47598 614.47677,331.27041 614.47677,328.6 C 614.47677,325.92959 613.50802,325.92959 614.96115,323.9916 C 616.41476,322.05361 617.384,320.6 617.384,320.6 C 617.384,320.6 617.86838,326.66201 617.86838,330.05361 C 617.86838,333.44521 617.384,335.86757 617.384,335.86757 C 617.384,335.86757 620.04269,337.56923 620.29074,339.99159 C 620.53879,342.41395 621.50803,342.89882 622.96115,341.4452 C 624.41476,339.99159 624.89914,338.53797 624.89914,338.53797 C 624.89914,338.53797 624.41476,347.74354 624.41476,349.92957 C 624.41476,352.1156 623.44552,355.02234 621.9924,356.96033 C 620.53879,358.89881 615.44552,366.89881 615.44552,366.89881 L 608.89913,372.47596 C 608.89913,372.47596 606.96114,375.14637 606.96114,378.0536 C 606.96114,380.96034 605.50802,392.11561 605.50802,392.11561 L 597.50802,403.99159 L 586.83712,415.38319 L 581.50802,419.99159 L 580.05343,420.43397 L 566.61154,435.99501 L 562.58029,444.16005 L 561.13254,447.04726 L 557.29709,461.75917 L 555.05783,478.36855 L 556.63888,487.08486 L 561.61788,493.36855 L 563.69405,499.1498 L 563.2043,502.2831 L 560.88741,501.95546 L 557.58077,493.48232 L 556.10079,493.40761 L 555.07735,493.35878 L 553.83223,497.09267 L 555.20186,505.03408 L 558.22969,510.20498 L 553.60176,516.76162 L 554.0583,519.47646 L 557.21113,522.30507 L 557.90302,526.57118 L 552.63105,551.83241 L 553.46699,554.3329 L 559.11396,557.10048 L 559.80634,561.36269 L 558.60956,566.84853 L 562.0119,579.02041 L 560.68573,590.08535 L 560.4455,592.10635 L 561.07489,594.22793 L 564.62128,597.63418 L 565.94355,603.82363 L 569.53339,608.98525 L 568.81269,617.76357 L 564.40058,624.89394 L 564.46796,627.42421 L 565.86151,629.32851 L 570.2785,629.60048 L 573.29168,627.37538 L 581.55779,628.11854 L 582.69695,620.49842 L 586.09929,618.65565 L 589.24724,614.2826 L 595.36052,613.33875 L 600.56511,606.96717 L 600.65642,603.07459 L 603.04997,599.11365 L 601.00749,594.49744 L 602.09782,594.33826 L 604.25602,594.02039 L 605.17399,592.43738 L 603.3571,581.58631 L 604.19841,577.0868 L 612.23845,590.88709 L 610.5949,594.23816 L 611.4699,598.30603 L 617.10369,595.33435 L 627.37713,589.90076 L 629.4201,587.31531 L 627.43475,584.83338 L 620.58661,587.15955 L 622.56171,581.85242 L 625.80097,580.98572 L 624.97919,571.46814 L 619.38007,562.85828 L 617.37128,561.4701 L 614.15253,559.23475 L 610.96991,557.04871 L 609.74921,554.35926 L 611.76288,550.60242 L 613.45917,550.93982 L 621.22577,552.48718 L 626.25751,561.50915 L 631.34198,565.07067 L 637.4455,578.34215 L 639.44501,574.00817 L 643.7414,576.81774 L 648.29267,559.37145 L 645.94746,550.28161 L 640.31953,538.09362 L 639.6418,536.62438 L 643.81368,511.7943 L 646.19259,507.05797 L 648.42697,496.68395 L 650.51291,495.46129 L 652.15158,499.50621 L 648.91769,508.34947 L 643.32833,537.89293 L 644.39522,542.14586 L 648.19649,540.49107 L 651.4836,541.37681 L 654.00704,546.71031 L 660.79757,552.62388 L 660.07198,554.39146 L 656.82296,555.05992 L 656.10714,557.02574 L 659.30782,569.79088 L 658.38985,571.37438 L 649.29219,576.08776 L 650.47481,577.41784 L 657.15499,575.68835 L 666.28634,580.12341 L 668.89572,584.72644 L 668.37668,586.88367 L 666.2717,587.13025 L 657.85666,580.72986 L 655.75119,580.97986 L 652.74777,583.78259 L 646.36056,581.61218 L 636.3547,580.70691 L 633.9089,582.71814 L 634.34103,584.65515 L 635.47531,584.86951 L 650.5466,587.73377 L 654.82394,589.95936 L 661.29757,595.43495 L 665.82931,607.77821 L 667.51632,606.17567 L 667.03097,602.09803 L 668.20822,595.64588 L 679.26193,584.65858 L 684.40939,583.16639 L 698.88449,586.30311 L 701.55197,585.65077 L 701.22043,579.8246 L 702.6091,572.89247 L 703.10422,570.43007 L 701.85471,566.5663 L 700.26877,564.46767 L 697.01975,565.13271 L 695.73166,559.51699 L 692.80051,557.45058 L 689.96506,559.27431 L 687.26877,558.95302 L 684.90891,556.68202 L 683.43381,551.45936 L 684.49094,539.75135 L 685.81223,538.94031 L 687.18723,540.07263 L 689.32053,548.77966 L 691.50754,551.64392 L 696.15012,553.08435 L 701.45578,558.01208 L 703.69064,563.02087 L 705.37765,561.22351 L 705.8674,557.70691 L 707.00656,557.28845 L 708.26584,561.54187 L 712.20188,565.53455 L 713.83079,569.38562 L 714.09544,572.55505 L 714.36937,575.79577 L 716.14281,577.69665 L 717.47386,577.08044 L 718.66575,570.82263 L 723.06809,562.34265 L 727.60032,558.92322 L 732.42014,559.77332 L 733.52561,557.80457 L 730.50266,551.84168 L 730.96409,546.96619 L 729.87815,541.74012 L 725.22581,531.92371 L 719.54515,527.58289 L 718.97826,519.81385 L 715.32543,519.90174 L 713.05736,521.51697 L 711.64427,518.62976 L 712.76878,509.45251 L 714.84983,508.03796 L 718.29563,513.39685 L 724.83176,523.56091 L 728.36887,526.78503 L 731.25705,527.1029 L 735.90939,512.58288 L 731.58859,500.61852 L 733.82834,497.83873 L 736.33713,498.16978 L 740.27317,501.96519 L 745.11253,511.58042 L 747.67405,514.24351 L 752.67747,514.51304 L 753.78245,512.54038 L 744.09886,488.91147 L 738.68724,475.72446 L 736.97142,468.1727 L 737.94212,460.36411 L 736.94749,451.04722 L 738.47093,442.24302 L 740.58569,442 L 742.75805,444.47852 L 741.23461,453.27588 L 752.17748,484.9375 L 754.12865,486.06006 L 756.13158,483.81445 L 756.13158,649.37207 L 751.80736,649.62305 L 748.65941,654.37842 L 747.03539,658.69629 L 748.41919,660.61035 z "
   style="fill:#c6ecff"
   id="path27" />

			<path
   d="M 318.41479,634.7417 C 317.16479,634.7417 316.66479,634.2417 316.16479,636.2417 C 315.66479,638.2417 315.41479,640.2417 315.41479,640.2417 C 315.41479,640.2417 314.66479,641.4917 315.66479,642.4917 C 316.66479,643.4917 321.66479,648.7417 321.66479,648.7417 C 321.66479,648.7417 323.66479,649.4917 324.66479,649.9917 C 325.66479,650.4917 329.41479,650.9917 329.41479,650.9917 C 329.41479,650.9917 331.16479,651.4917 332.41479,650.2417 C 333.66479,648.9917 335.16479,646.4917 335.16479,646.4917 C 335.16479,646.4917 335.91479,644.7417 335.91479,643.4917 C 335.91479,642.2417 336.91479,640.2417 336.91479,640.2417 C 336.91479,640.2417 338.91479,639.4917 338.91479,637.9917 C 338.91479,636.4917 338.91479,634.2417 338.91479,633.2417 C 338.91479,632.2417 338.41479,631.7417 336.66479,631.7417 C 334.91479,631.7417 334.66479,631.7417 332.41479,631.7417 C 330.16479,631.7417 327.16479,633.2417 327.16479,633.2417 C 327.16479,633.2417 326.41479,635.2417 324.91479,634.2417 C 323.41479,633.2417 320.66479,632.4917 320.16479,633.7417 C 319.66479,634.9917 319.66479,634.7417 318.41479,634.7417 z "
   style="fill:#c6ecff;fill-rule:evenodd;stroke:none;stroke-width:1.27559996;stroke-linejoin:round;stroke-miterlimit:3.8636899"
   id="path29" />

			<path
   d="M 247.91479,679.9917 C 246.41479,679.9917 246.16479,681.4917 246.16479,682.4917 C 246.16479,683.4917 245.91479,686.7417 246.41479,687.9917 C 246.91479,689.2417 247.41479,690.4917 248.91479,690.4917 C 250.41479,690.4917 252.66479,690.9917 252.66479,690.9917 C 252.66479,690.9917 254.16479,692.9917 254.41479,693.9917 C 254.66479,694.9917 256.66479,696.2417 258.91479,694.4917 C 261.16479,692.7417 262.41479,692.2417 262.66479,690.9917 C 262.91479,689.7417 263.41479,689.4917 262.16479,687.7417 C 260.91479,685.9917 257.66479,680.2417 256.66479,678.9917 C 255.66479,677.7417 253.91479,677.9917 253.16479,679.2417 C 252.41479,680.4917 251.16479,683.2417 250.41479,681.7417 C 249.66479,680.2417 249.41479,679.9917 247.91479,679.9917 z "
   style="fill:#c6ecff;fill-rule:evenodd;stroke:none;stroke-width:1.27559996;stroke-linejoin:round;stroke-miterlimit:3.8636899"
   id="path31" />

			<path
   d="M 175.66479,516.2417 C 173.91479,516.9917 173.16479,519.4917 175.41479,519.7417 C 177.66479,519.9917 180.66479,520.9917 182.16479,521.4917 C 183.66479,521.9917 185.91479,523.2417 186.91479,524.2417 C 187.91479,525.2417 195.41479,531.4917 196.91479,531.7417 C 198.41479,531.9917 199.66479,531.7417 200.91479,530.4917 C 202.16479,529.2417 202.66479,526.2417 201.66479,524.7417 C 200.66479,523.2417 198.91479,520.4917 197.66479,519.4917 C 196.41479,518.4917 191.91479,515.9917 189.91479,515.7417 C 187.91479,515.4917 180.91479,515.2417 179.66479,515.2417 C 178.41479,515.2417 177.41479,515.4917 175.66479,516.2417 z "
   style="fill:#c6ecff;fill-rule:evenodd;stroke:none;stroke-width:1.27559996;stroke-linejoin:round;stroke-miterlimit:3.8636899"
   id="path33" />

			<path
   d="M 298.91479,415.9917 C 297.66479,415.9917 296.16479,417.2417 296.91479,418.7417 C 297.66479,420.2417 298.66479,421.7417 299.91479,422.4917 C 301.16479,423.2417 303.16479,423.9917 304.41479,424.7417 C 305.66479,425.4917 305.66479,425.9917 305.16479,426.9917 C 304.66479,427.9917 304.91479,428.2417 305.91479,428.9917 C 306.91479,429.7417 307.16479,431.4917 307.16479,431.4917 L 306.41479,440.4917 C 306.41479,440.4917 306.91479,442.9917 308.41479,442.9917 C 309.91479,442.9917 310.41479,441.4917 311.66479,439.7417 C 312.91479,437.9917 313.16479,437.2417 312.41479,435.4917 C 311.66479,433.7417 311.41479,432.9917 311.91479,431.7417 C 312.41479,430.4917 312.91479,429.7417 312.41479,428.2417 C 311.91479,426.7417 310.91479,424.9917 312.91479,424.9917 C 314.91479,424.9917 316.66479,425.4917 316.91479,423.9917 C 317.16479,422.4917 317.41479,420.9917 315.41479,420.7417 C 313.41479,420.4917 303.91479,418.9917 303.91479,418.9917 C 303.91479,418.9917 302.16479,418.9917 301.66479,417.2417 C 301.16479,415.4917 300.16479,415.9917 298.91479,415.9917 z "
   style="fill:#c6ecff;fill-rule:evenodd;stroke:none;stroke-width:1.27559996;stroke-linejoin:round;stroke-miterlimit:3.8636899"
   id="path35" />

			<path
   d="M 279.91479,341.2417 C 277.16479,341.2417 276.16479,342.9917 277.41479,343.7417 C 278.66479,344.4917 279.41479,344.4917 280.66479,344.7417 C 281.91479,344.9917 282.91479,346.4917 280.91479,346.4917 C 278.91479,346.4917 277.16479,346.7417 277.16479,346.7417 C 277.16479,346.7417 275.41479,347.7417 277.41479,348.4917 C 279.41479,349.2417 278.91479,349.7417 280.16479,350.7417 C 281.41479,351.7417 282.91479,351.4917 284.41479,351.4917 C 285.91479,351.4917 288.41479,351.9917 289.16479,353.2417 C 289.91479,354.4917 292.66479,358.9917 293.91479,359.4917 C 295.16479,359.9917 300.16479,362.4917 300.16479,362.4917 C 300.16479,362.4917 301.41479,362.9917 302.91479,361.2417 C 304.41479,359.4917 305.41479,358.9917 305.66479,360.9917 C 305.91479,362.9917 308.41479,363.9917 309.41479,363.2417 C 310.41479,362.4917 310.66479,362.2417 311.41479,363.7417 C 312.16479,365.2417 312.66479,366.7417 311.91479,367.7417 C 311.16479,368.7417 311.16479,370.7417 311.16479,370.7417 L 309.66479,374.9917 L 307.91479,377.7417 C 307.91479,377.7417 310.16479,379.2417 311.41479,378.4917 C 312.66479,377.7417 314.91479,375.7417 315.91479,375.4917 C 316.91479,375.2417 317.91479,374.9917 318.66479,375.9917 C 319.41479,376.9917 320.41479,377.4917 321.41479,376.7417 C 322.41479,375.9917 328.66479,371.7417 328.66479,371.7417 C 328.66479,371.7417 328.66479,368.2417 330.16479,366.9917 C 331.66479,365.7417 332.41479,364.9917 332.16479,363.7417 C 331.91479,362.4917 330.41479,361.4917 329.16479,361.7417 C 327.91479,361.9917 323.66479,362.9917 323.66479,362.9917 C 323.66479,362.9917 323.16479,360.7417 321.41479,360.4917 C 319.66479,360.2417 319.66479,359.2417 319.16479,357.9917 C 318.66479,356.7417 317.66479,353.9917 317.66479,351.2417 C 317.66479,348.4917 317.41479,346.4917 317.91479,345.2417 C 318.41479,343.9917 321.91479,335.9917 322.41479,334.7417 C 322.91479,333.4917 323.16479,333.2417 322.91479,331.2417 C 322.66479,329.2417 321.91479,324.2417 321.91479,324.2417 C 321.91479,324.2417 321.91479,322.4917 322.66479,321.2417 C 323.41479,319.9917 324.16479,319.2417 323.16479,317.7417 C 322.16479,316.2417 321.91479,315.4917 321.91479,313.7417 C 321.91479,311.9917 322.16479,311.2417 321.41479,309.7417 C 320.66479,308.2417 319.16479,306.9917 318.16479,308.4917 C 317.16479,309.9917 316.16479,311.7417 316.91479,313.7417 C 317.66479,315.7417 316.91479,315.7417 315.91479,316.7417 C 314.91479,317.7417 311.91479,318.9917 312.91479,320.9917 C 313.91479,322.9917 314.66479,324.2417 313.66479,324.9917 C 312.66479,325.7417 310.16479,332.4917 310.91479,334.7417 C 311.66479,336.9917 312.66479,338.7417 311.41479,339.7417 C 310.16479,340.7417 309.91479,341.2417 310.66479,342.9917 C 311.41479,344.7417 310.16479,346.4917 310.16479,346.4917 C 310.16479,346.4917 310.41479,349.2417 308.91479,349.7417 C 307.41479,350.2417 306.16479,351.2417 305.91479,350.2417 C 305.66479,349.2417 305.41479,349.2417 304.41479,347.9917 C 303.41479,346.7417 302.16479,345.4917 301.66479,346.7417 C 301.16479,347.9917 299.91479,350.4917 299.91479,350.4917 C 299.91479,350.4917 299.66479,351.7417 299.91479,352.7417 C 300.16479,353.7417 299.41479,354.9917 298.66479,353.4917 C 297.91479,351.9917 297.91479,351.4917 296.41479,350.7417 C 294.91479,349.9917 293.41479,348.4917 293.41479,348.4917 C 293.41479,348.4917 292.41479,341.7417 291.91479,340.2417 C 291.41479,338.7417 288.41479,338.9917 288.41479,341.7417 C 288.41479,344.4917 288.91479,344.7417 287.66479,344.9917 C 286.41479,345.2417 285.66479,344.9917 285.16479,343.7417 C 284.66479,342.4917 283.16479,341.7417 283.16479,341.7417 C 283.16479,341.7417 282.66479,341.2417 279.91479,341.2417 z "
   style="fill:#c6ecff;fill-rule:evenodd;stroke:none;stroke-width:1.27559996;stroke-linejoin:round;stroke-miterlimit:3.8636899"
   id="path37" />

			<path
   d="M 242.91479,225.7417 C 241.66479,226.7417 241.41479,227.4917 242.66479,227.9917 C 243.91479,228.4917 244.16479,228.4917 244.91479,229.7417 C 245.66479,230.9917 246.91479,231.2417 247.16479,228.9917 C 247.41479,226.7417 248.41479,220.4917 249.41479,218.7417 C 250.41479,216.9917 252.16479,211.2417 252.16479,209.9917 C 252.16479,208.7417 251.91479,206.9917 250.16479,206.9917 C 248.41479,206.9917 246.91479,206.9917 246.66479,207.9917 C 246.41479,208.9917 246.66479,210.7417 246.16479,211.9917 C 245.66479,213.2417 245.66479,214.7417 244.66479,213.7417 C 243.66479,212.7417 242.91479,212.7417 242.16479,213.7417 C 241.41479,214.7417 242.16479,217.4917 242.16479,217.4917 C 242.16479,217.4917 242.66479,222.9917 242.91479,223.9917 C 243.16479,224.9917 244.16479,224.7417 242.91479,225.7417 z "
   style="fill:#c6ecff;fill-rule:evenodd;stroke:none;stroke-width:1.27559996;stroke-linejoin:round;stroke-miterlimit:3.8636899"
   id="path39" />

			<path
   d="M 255.16479,261.7417 C 253.16479,261.7417 252.66479,263.4917 254.41479,264.7417 C 256.16479,265.9917 258.41479,267.4917 259.16479,268.4917 C 259.91479,269.4917 260.66479,269.4917 261.41479,268.2417 C 262.16479,266.9917 262.16479,265.7417 261.91479,263.9917 C 261.66479,262.2417 262.16479,260.2417 263.91479,259.4917 C 265.66479,258.7417 267.91479,256.2417 267.91479,256.2417 C 267.91479,256.2417 269.41479,253.7417 269.91479,252.7417 C 270.41479,251.7417 270.91479,250.4917 268.91479,250.2417 C 266.91479,249.9917 266.16479,248.7417 265.41479,250.7417 C 264.66479,252.7417 264.41479,252.4917 263.16479,252.9917 C 261.91479,253.4917 261.16479,253.7417 260.91479,254.9917 C 260.66479,256.2417 257.41479,261.4917 257.41479,261.4917 C 257.41479,261.4917 257.16479,261.7417 255.16479,261.7417 z "
   style="fill:#c6ecff;fill-rule:evenodd;stroke:none;stroke-width:1.27559996;stroke-linejoin:round;stroke-miterlimit:3.8636899"
   id="path41" />

			<path
   d="M 208.16479,149.9917 C 207.16479,151.7417 207.41479,154.4917 207.66479,155.7417 C 207.91479,156.9917 208.41479,160.9917 207.66479,161.9917 C 206.91479,162.9917 205.66479,164.7417 208.16479,166.2417 C 210.66479,167.7417 213.41479,167.2417 213.91479,165.9917 C 214.41479,164.7417 214.41479,163.4917 214.16479,161.7417 C 213.91479,159.9917 213.91479,158.9917 213.16479,157.4917 C 212.41479,155.9917 212.16479,153.7417 212.16479,151.7417 C 212.16479,149.7417 211.66479,147.2417 210.41479,148.2417 C 209.16479,149.2417 209.16479,148.2417 208.16479,149.9917 z "
   style="fill:#c6ecff;fill-rule:evenodd;stroke:none;stroke-width:1.27559996;stroke-linejoin:round;stroke-miterlimit:3.8636899"
   id="path43" />

			<path
   d="M 374.66479,208.9917 C 373.16479,209.9917 372.66479,211.4917 372.66479,212.9917 C 372.66479,214.4917 372.91479,215.7417 374.41479,215.7417 C 375.91479,215.7417 377.41479,215.9917 377.41479,217.2417 C 377.41479,218.4917 378.66479,219.2417 380.16479,218.7417 C 381.66479,218.2417 384.16479,215.9917 383.41479,214.4917 C 382.66479,212.9917 381.41479,210.7417 380.41479,209.7417 C 379.41479,208.7417 377.66479,208.7417 377.66479,208.7417 C 377.66479,208.7417 376.16479,207.9917 374.66479,208.9917 z "
   style="fill:#c6ecff;fill-rule:evenodd;stroke:none;stroke-width:1.27559996;stroke-linejoin:round;stroke-miterlimit:3.8636899"
   id="path45" />

			<path
   d="M 437.66479,163.7417 C 436.41479,164.4917 436.41479,165.2417 436.41479,166.2417 C 436.41479,167.2417 436.91479,170.4917 437.41479,171.4917 C 437.91479,172.4917 439.66479,174.4917 439.66479,174.4917 C 439.66479,174.4917 440.41479,175.4917 441.66479,174.9917 C 442.91479,174.4917 443.91479,173.9917 443.91479,173.9917 L 444.91479,169.9917 C 444.91479,169.9917 444.91479,168.4917 445.91479,168.2417 C 446.91479,167.9917 448.66479,167.7417 446.91479,166.4917 C 445.16479,165.2417 444.41479,163.4917 444.16479,161.9917 C 443.91479,160.4917 443.41479,158.9917 442.16479,159.9917 C 440.91479,160.9917 438.91479,162.9917 437.66479,163.7417 z "
   style="fill:#c6ecff;fill-rule:evenodd;stroke:none;stroke-width:1.27559996;stroke-linejoin:round;stroke-miterlimit:3.8636899"
   id="path47" />

			<path
   d="M 588.91479,458.2417 C 587.66479,458.7417 587.16479,459.9917 586.41479,460.9917 C 585.66479,461.9917 585.16479,464.2417 586.16479,465.2417 C 587.16479,466.2417 587.66479,467.7417 587.16479,469.2417 C 586.66479,470.7417 586.91479,472.7417 587.66479,473.9917 C 588.41479,475.2417 591.16479,480.4917 591.16479,480.4917 C 591.16479,480.4917 592.91479,481.2417 594.41479,481.2417 C 595.91479,481.2417 596.91479,480.9917 597.66479,479.7417 C 598.41479,478.4917 598.66479,477.7417 598.91479,476.7417 C 599.16479,475.7417 599.66479,474.9917 598.41479,473.9917 C 597.16479,472.9917 596.91479,472.4917 597.41479,470.7417 C 597.91479,468.9917 597.41479,466.2417 596.16479,466.2417 C 594.91479,466.2417 594.91479,465.9917 594.91479,464.4917 C 594.91479,462.9917 595.16479,462.7417 593.66479,462.4917 C 592.16479,462.2417 591.91479,461.9917 591.66479,459.7417 C 591.41479,457.4917 590.16479,457.7417 588.91479,458.2417 z "
   style="fill:#c6ecff;fill-rule:evenodd;stroke:none;stroke-width:1.27559996;stroke-linejoin:round;stroke-miterlimit:3.8636899"
   id="path49" />

			<path
   d="M 253.16479,324.4917 C 251.91479,323.9917 250.41479,325.4917 251.16479,327.4917 C 251.91479,329.4917 253.41479,334.2417 253.41479,334.2417 C 253.41479,334.2417 254.16479,336.2417 255.66479,337.2417 C 257.16479,338.2417 259.41479,340.2417 260.16479,341.2417 C 260.91479,342.2417 262.66479,343.4917 264.16479,343.2417 C 265.66479,342.9917 265.66479,341.2417 265.91479,340.2417 C 266.16479,339.2417 266.41479,338.4917 264.66479,337.2417 C 262.91479,335.9917 258.16479,332.2417 257.66479,330.9917 C 257.16479,329.7417 254.66479,325.9917 254.66479,325.9917 C 254.66479,325.9917 254.41479,324.9917 253.16479,324.4917 z "
   style="fill:#c6ecff;fill-rule:evenodd;stroke:none;stroke-width:1.27559996;stroke-linejoin:round;stroke-miterlimit:3.8636899"
   id="path51" />

			<path
   d="M 150.66479,123.2417 C 150.41479,124.2417 149.16479,129.7417 149.16479,130.7417 C 149.16479,131.7417 149.16479,137.4917 152.41479,138.2417 C 155.66479,138.9917 161.16479,139.2417 163.41479,142.4917 C 165.66479,145.7417 168.66479,147.2417 170.66479,145.2417 C 172.66479,143.2417 173.41479,140.9917 172.41479,139.7417 C 171.41479,138.4917 166.41479,134.2417 165.41479,132.9917 C 164.41479,131.7417 162.66479,128.9917 162.41479,126.2417 C 162.16479,123.4917 160.41479,119.9917 159.16479,118.7417 C 157.91479,117.4917 153.16479,116.2417 152.41479,117.9917 C 151.66479,119.7417 150.91479,122.2417 150.66479,123.2417 z "
   style="fill:#c6ecff;fill-rule:evenodd;stroke:none;stroke-width:1.27559996;stroke-linejoin:round;stroke-miterlimit:3.8636899"
   id="path53" />

			<path
   d="M 104.66479,82.4917 C 106.41479,85.7417 106.66479,86.4917 105.66479,87.9917 C 104.66479,89.4917 101.91479,94.9917 103.91479,96.2417 C 105.91479,97.4917 107.66479,96.4917 109.16479,94.7417 C 110.66479,92.9917 112.16479,89.2417 112.16479,89.2417 C 112.16479,89.2417 112.91479,84.7417 112.91479,82.7417 C 112.91479,80.7417 112.16479,79.2417 111.16479,77.9917 C 110.16479,76.7417 108.66479,73.9917 107.16479,74.4917 C 105.66479,74.9917 103.91479,76.4917 103.91479,76.4917 C 103.91479,76.4917 102.91479,77.9917 103.66479,79.2417 C 104.41479,80.4917 102.91479,79.2417 104.66479,82.4917 z "
   style="fill:#c6ecff;fill-rule:evenodd;stroke:none;stroke-width:1.27559996;stroke-linejoin:round;stroke-miterlimit:3.8636899"
   id="path55" />

			<path
   d="M 198.16479,26.2417 C 197.16479,26.7417 196.41479,29.4917 197.66479,30.7417 C 198.91479,31.9917 199.41479,34.7417 199.16479,35.9917 C 198.91479,37.2417 197.91479,41.4917 197.91479,41.4917 C 197.91479,41.4917 196.66479,45.4917 198.66479,45.4917 C 200.66479,45.4917 203.16479,45.7417 204.41479,44.7417 C 205.66479,43.7417 206.41479,42.4917 206.41479,40.9917 C 206.41479,39.4917 206.16479,35.2417 206.16479,33.9917 C 206.16479,32.7417 206.16479,31.7417 205.41479,30.2417 C 204.66479,28.7417 202.66479,24.7417 200.91479,25.4917 C 199.16479,26.2417 199.16479,25.7417 198.16479,26.2417 z "
   style="fill:#c6ecff;fill-rule:evenodd;stroke:none;stroke-width:1.27559996;stroke-linejoin:round;stroke-miterlimit:3.8636899"
   id="path57" />

			<path
   d="M 615.16479,428.4917 C 615.16479,428.4917 615.16479,421.7417 615.16479,420.4917 C 615.16479,419.2417 614.66479,414.4917 615.91479,411.9917 C 617.16479,409.4917 624.91479,383.4917 625.16479,382.4917 C 625.41479,381.4917 627.16479,381.4917 627.41479,383.9917 C 627.66479,386.4917 628.91479,395.2417 628.91479,396.4917 C 628.91479,397.7417 628.41479,400.4917 627.41479,401.4917 C 626.41479,402.4917 624.91479,403.7417 626.16479,405.9917 C 627.41479,408.2417 627.16479,409.4917 627.16479,410.4917 C 627.16479,411.4917 627.16479,418.4917 627.16479,419.7417 C 627.16479,420.9917 624.16479,423.7417 623.41479,421.7417 C 622.66479,419.7417 620.91479,420.9917 619.66479,420.9917 C 618.41479,420.9917 618.41479,423.2417 618.41479,423.2417 C 618.41479,423.2417 618.91479,424.9917 618.16479,426.4917 C 617.41479,427.9917 615.16479,428.4917 615.16479,428.4917 z "
   style="fill:#c6ecff;fill-rule:evenodd;stroke:none;stroke-width:1.27559996;stroke-linejoin:round;stroke-miterlimit:3.8636899"
   id="path59" />

			<path
   d="M 603.16479,435.7417 C 601.66479,435.9917 599.16479,439.4917 601.16479,442.2417 C 603.16479,444.9917 606.16479,448.7417 606.16479,448.7417 C 606.16479,448.7417 608.41479,452.2417 608.91479,453.4917 C 609.41479,454.7417 609.91479,457.9917 609.91479,457.9917 C 609.91479,457.9917 609.66479,460.7417 609.41479,461.7417 C 609.16479,462.7417 606.91479,468.2417 608.91479,467.2417 C 610.91479,466.2417 612.66479,464.4917 612.66479,462.4917 C 612.66479,460.4917 613.16479,453.9917 612.91479,451.7417 C 612.66479,449.4917 611.91479,446.4917 613.41479,445.9917 C 614.91479,445.4917 616.41479,447.7417 616.41479,447.7417 C 616.41479,447.7417 617.66479,446.4917 617.66479,445.4917 C 617.66479,444.4917 616.66479,442.2417 616.16479,440.4917 C 615.66479,438.7417 615.91479,437.7417 614.41479,437.2417 C 612.91479,436.7417 612.41479,435.9917 610.41479,435.9917 C 608.41479,435.9917 604.66479,435.4917 603.16479,435.7417 z "
   style="fill:#c6ecff;fill-rule:evenodd;stroke:none;stroke-width:1.27559996;stroke-linejoin:round;stroke-miterlimit:3.8636899"
   id="path61" />

			<path
   d="M 722.41479,311.2417 C 719.66479,311.7417 719.41479,314.2417 719.16479,315.4917 C 718.91479,316.7417 718.16479,321.2417 717.91479,322.2417 C 717.66479,323.2417 717.91479,323.7417 716.16479,324.2417 C 714.41479,324.7417 712.91479,326.4917 714.66479,327.9917 C 716.41479,329.4917 716.66479,329.9917 716.41479,331.2417 C 716.16479,332.4917 716.66479,337.9917 716.66479,337.9917 C 716.66479,337.9917 718.66479,341.2417 719.16479,342.9917 C 719.66479,344.7417 720.16479,345.9917 719.41479,347.4917 C 718.66479,348.9917 717.66479,350.7417 717.41479,351.7417 C 717.16479,352.7417 717.16479,354.4917 718.66479,355.2417 C 720.16479,355.9917 722.16479,353.7417 722.66479,352.2417 C 723.16479,350.7417 722.16479,348.2417 724.41479,349.9917 C 726.66479,351.7417 726.91479,350.7417 728.16479,349.7417 C 729.41479,348.7417 728.41479,346.4917 728.16479,344.7417 C 727.91479,342.9917 725.91479,330.2417 724.41479,327.2417 C 722.91479,324.2417 723.16479,321.4917 724.41479,319.7417 C 725.66479,317.9917 726.91479,313.4917 726.91479,313.4917 C 726.91479,313.4917 726.66479,311.4917 725.41479,311.2417 C 724.16479,310.9917 725.16479,310.7417 722.41479,311.2417 z "
   style="fill:#c6ecff;fill-rule:evenodd;stroke:none;stroke-width:1.27559996;stroke-linejoin:round;stroke-miterlimit:3.8636899"
   id="path63" />

			<path
   d="M 727.16479,296.9917 C 725.66479,296.9917 721.66479,298.9917 724.16479,302.2417 C 726.66479,305.4917 733.41479,311.2417 734.91479,312.4917 C 736.41479,313.7417 740.16479,313.2417 741.41479,312.4917 C 742.66479,311.7417 745.41479,309.4917 746.41479,308.9917 C 747.41479,308.4917 748.66479,307.7417 749.66479,308.7417 C 750.66479,309.7417 752.41479,310.7417 753.41479,310.9917 C 754.41479,311.2417 755.41479,309.2417 755.41479,307.9917 C 755.41479,306.7417 754.91479,300.9917 754.91479,300.9917 C 754.91479,300.9917 756.16479,297.7417 753.66479,299.7417 C 751.16479,301.7417 750.91479,301.4917 749.41479,299.4917 C 747.91479,297.4917 746.41479,295.4917 744.91479,293.9917 C 743.41479,292.4917 742.66479,291.9917 741.66479,291.9917 C 740.66479,291.9917 739.66479,292.2417 738.91479,290.9917 C 738.16479,289.7417 737.41479,290.2417 736.66479,291.2417 C 735.91479,292.2417 735.16479,292.2417 734.16479,292.2417 C 733.16479,292.2417 731.91479,293.9917 732.16479,295.2417 C 732.41479,296.4917 732.66479,297.7417 730.91479,297.4917 C 729.16479,297.2417 728.66479,296.9917 727.16479,296.9917 z "
   style="fill:#c6ecff;fill-rule:evenodd;stroke:none;stroke-width:1.27559996;stroke-linejoin:round;stroke-miterlimit:3.8636899"
   id="path65" />

			<line
   style="fill:none;fill-rule:evenodd;stroke:#646464;stroke-width:2.83459997;stroke-linejoin:round;stroke-miterlimit:3.8636899"
   x1="617.08813"
   y1="595.33252"
   x2="614.13696"
   y2="559.2334"
   id="line67" />

			<polyline
   style="fill:none;fill-rule:evenodd;stroke:#646464;stroke-width:2.83459997;stroke-linejoin:round;stroke-miterlimit:3.8636899"
   points="512.29517,370.4126 515.15942,372.44971 525.53052,377.99707 531.07153,383.28809      535.52661,391.14844 547.78149,409.2583 "
   id="polyline69" />

			<path
   d="M 191.823,159.90576 L 292.52027,155.93213 L 298.08521,155.82178 L 398.91333,153.92676 L 404.42114,153.65088 L 450.49536,151.80615 L 448.8728,257.47461 L 476.40259,251.73486 C 476.40259,251.73486 477.94507,255.80713 476.3938,257.89941 C 474.84204,259.9917 475.51148,267.6206 476.22925,270.41894 C 476.94702,273.21728 481.70532,288.02978 478.27368,292.97021 C 474.84204,297.91113 475.93774,300.29101 475.93774,300.29101 C 475.93774,300.29101 478.81274,306.8955 476.30737,309.53662 C 473.802,312.17724 472.50317,318.03711 472.80591,320.3208 C 473.10816,322.60449 475.04614,324.6123 475.11743,327.26172 C 475.18921,329.91113 475.18921,334.07227 475.18921,334.07227 C 475.18921,334.07227 474.10083,336.03614 475.87085,337.66748 C 477.64087,339.29834 480.4148,342.41894 480.4148,342.41894 L 483.58765,351.16796 L 508.07642,367.40087"
   style="fill:none;fill-rule:evenodd;stroke:#646464;stroke-width:2.83459997;stroke-linejoin:round;stroke-miterlimit:3.8636899"
   id="path71" />

			<polyline
   style="fill:none;fill-rule:evenodd;stroke:#646464;stroke-width:2.83459997;stroke-linejoin:round;stroke-miterlimit:3.8636899"
   points="160.45361,710.51807 160.0354,709.56104 164.6106,703.36182 165.55273,697.29199      164.23584,692.47168 158.96851,673.18896 160.37207,669.44238 167.72998,665.86719 171.23315,661.84814 174.06421,660.57959      181.08081,663.83643 184.14673,663.9209 185.61743,661.92236 185.77612,655.66162 190.13501,643.05225 194.54712,549.51416      194.71509,545.93604 194.10962,533.68994 195.94995,491.57324 195.32056,442.56934 195.12817,427.54297 196.15649,423.80273      194.12866,398.1748 192.98022,335.79248 191.6106,261.76123 192.49927,231.15723 192.23999,228.80811 191.37964,221.06836      191.80737,159.90576 "
   id="polyline73" />

			<polygon
   points="484.79077,523.78809 480.49927,521.5791 478.57153,514.62646 479.23511,504.28809 484.49243,493.03467 485.31421,488.146 482.33472,484.92139 471.03149,479.80225 469.36353,475.1792 469.69507,466.79736 471.00708,465.60645 474.573,462.36914 470.01245,457.63623 470.87231,454.10645 473.18433,454.23291 476.75513,458.02197 478.83618,463.41357 475.77954,470.90088 477.62476,474.93652 482.53149,478.30029 494.00366,482.63428 496.0271,486.07959 498.4104,495.55176 497.36743,506.29297 492.50903,518.11377 488.42407,523.1001 484.79077,523.78809 "
   style="fill:#fefee9;fill-rule:evenodd;stroke:none;stroke-width:1.27559996;stroke-linejoin:round;stroke-miterlimit:3.8636899"
   id="polygon75" />

			<polygon
   points="474.16479,635.6543 470.83423,633.22119 466.97974,632.55664 462.27466,635.81299 461.26099,633.896 461.68384,628.62744 459.87183,625.56543 460.76099,623.20361 468.85913,617.8999 472.17017,612.93652 474.62134,611.49902 475.89478,615.74561 487.77075,608.19385 482.95483,600.93701 485.19458,585.10254 483.5603,574.92969 483.32495,573.47607 487.59253,574.91016 490.63452,573.84619 492.64331,570.28418 490.46655,561.19775 492.79224,555.0957 492.2395,549.26953 500.04956,533.27295 504.93237,529.23779 506.4895,522.96045 505.85034,514.02686 514.59204,503.45752 516.64429,487.43262 518.27368,485.875 528.82251,475.79297 530.98511,477.48633 535.98804,477.53809 546.00366,463.82275 547.9021,462.9917 550.15112,467.79639 549.66089,478.12842 543.4563,476.35059 540.8855,480.70752 544.44653,484.30811 543.92261,486.271 536.78101,492.31445 534.43579,511.84668 534.35864,513.70557 534.20532,517.50098 539.85181,534.0874 540.12134,544.00488 541.37036,547.47559 540.57788,560.53906 543.82642,574.07666 543.19214,578.96191 539.5061,584.51562 538.52563,590.77344 535.11353,599.2373 535.19507,602.35449 541.26978,606.854 537.56958,612.96533 535.39673,616.56006 532.89819,616.43018 532.70093,609.23486 529.71167,605.23535 525.42944,603.01953 520.26294,603.55811 516.3562,607.9502 513.69312,608.80713 509.30103,602.70166 503.02905,605.021 500.72681,618.52588 496.41626,622.15576 494.55151,630.96631 492.69165,632.97119 490.8894,630.29834 487.83765,630.96973 481.82056,628.41992 474.16479,635.6543 "
   style="fill:#fefee9;fill-rule:evenodd;stroke:none;stroke-width:1.27559996;stroke-linejoin:round;stroke-miterlimit:3.8636899"
   id="polygon77" />

			<polygon
   points="509.77661,475.75342 507.88794,470.16113 508.73364,466.0542 510.8772,466.9624 513.53491,472.53223 513.21753,474.87451 509.77661,475.75342 "
   style="fill:#fefee9;fill-rule:evenodd;stroke:none;stroke-width:1.27559996;stroke-linejoin:round;stroke-miterlimit:3.8636899"
   id="polygon79" />

			<polygon
   points="442.27759,634.07471 438.43286,633.80176 437.57251,630.51904 439.75415,613.31934 439.18726,607.10693 436.22681,597.85156 440.28296,598.00732 444.68481,598.17969 447.43921,587.39014 444.96899,581.62549 440.41284,576.89209 439.74927,573.98877 444.48364,551.85205 449.55347,541.37988 452.00903,533.3252 454.04712,530.7334 459.83325,531.33984 461.37134,544.72754 459.4397,554.61523 458.69458,558.43408 460.54468,569.28174 458.10327,577.72607 458.85767,583.93506 455.7146,594.7373 457.21411,600.14209 462.21216,607 462.27466,609.14111 458.11743,611.40527 454.10522,611.91455 450.49585,606.57178 447.19897,605.50439 446.48755,607.47021 447.83813,620.86475 444.46899,623.69043 442.27759,634.07471 "
   style="fill:#fefee9;fill-rule:evenodd;stroke:none;stroke-width:1.27559996;stroke-linejoin:round;stroke-miterlimit:3.8636899"
   id="polygon81" />

			<polygon
   points="332.03931,892.73535 321.3269,892.1123 312.91675,892.82324 310.09546,893.06348 303.41528,887.05225 299.7771,880.74902 307.03394,862.60205 311.72974,860.11035 312.46021,853.07715 314.37769,853.21045 318.85669,862.01807 323.31665,864.2041 327.69458,863.67578 329.10767,860.12695 326.70483,850.47266 324.70532,847.61768 320.10132,846.98828 321.78833,834.93701 323.69165,821.36719 326.95483,821.84717 329.94897,825.8374 333.63013,827.46924 336.21118,830.50244 336.76831,836.13086 331.38599,859.66309 331.52515,864.13623 339.00317,871.09814 343.20337,877.38477 345.31323,883.74023 343.73218,888.26855 339.62769,891.3208 332.03931,892.73535 "
   style="fill:#fefee9;fill-rule:evenodd;stroke:none;stroke-width:1.27559996;stroke-linejoin:round;stroke-miterlimit:3.8636899"
   id="polygon83" />

			<polygon
   points="722.41431,671.16943 719.86255,668.7041 720.55444,665.57373 724.68774,661.96631 724.90405,655.14746 731.01245,654.0249 734.01587,651.22559 736.89966,651.5498 743.61841,660.14014 736.95239,662.0542 727.56177,670.07031 722.41431,671.16943 "
   style="fill:#f6e1b9;fill-rule:evenodd;stroke:none;stroke-width:1.27559996;stroke-linejoin:round;stroke-miterlimit:3.8636899"
   id="polygon85" />

			<polygon
   points="76.76343,742.979 73.76929,734.32715 74.53345,729.04248 76.20581,727.61865 79.28174,727.89111 80.18994,731.94629 79.00757,741.53223 76.76343,742.979 "
   style="fill:#f6e1b9;fill-rule:evenodd;stroke:none;stroke-width:1.27559996;stroke-linejoin:round;stroke-miterlimit:3.8636899"
   id="polygon87" />

			<polygon
   points="63.25391,800.35596 56.86694,806.42188 48.71118,803.03223 39.38306,809.42285 37.40308,807.55078 38.95068,802.81787 41.23315,797.28027 43.76587,798.54541 45.61133,796.72559 46.87524,789.47217 49.69653,788.19385 54.33911,789.5791 54.97803,791.30811 53.79565,795.63916 55.01196,797.53662 59.02954,792.32031 63.25391,789.7998 63.89819,789.41357 64.73901,786.26367 63.65747,782.80273 65.09473,780.22021 74.12964,781.43359 80.86279,777.09277 92.91602,776.64893 94.61743,776.5835 99.35132,769.7876 107.19922,769.88818 108.58838,771.19873 102.22998,780.77832 95.54956,781.22266 89.3645,784.76221 77.57593,786.75684 63.25391,800.35596 "
   style="fill:#f6e1b9;fill-rule:evenodd;stroke:none;stroke-width:1.27559996;stroke-linejoin:round;stroke-miterlimit:3.8636899"
   id="polygon89" />

			<polyline
   style="fill:none;fill-rule:evenodd;stroke:#646464;stroke-width:2.83459997;stroke-linejoin:round;stroke-miterlimit:3.8636899"
   points="191.823,159.90723 190.55298,149.14062 101.94653,147.5835 95.00684,146.8667      88.91772,146.24023 63.25391,146.62305 53.69507,146.76611 29.82397,145.32227 0.28979,144.85596 "
   id="polyline91" />

			<polyline
   style="fill:none;fill-rule:evenodd;stroke:none;stroke-width:1.27559996;stroke-linejoin:round;stroke-miterlimit:3.8636899"
   points="160.46924,710.51953 157.95947,710.41553 155.6189,714.78223 156.26782,716.90039      160.2229,720.45898 161.53516,725.27979 160.49683,728.43311 156.98853,732.26074 149.10669,736.82178 145.09399,742.6123      142.85938,738.80371 139.14429,736.59814 142.09985,733.57178 141.552,731.40137 138.91821,730.18115 134.72266,730.71973      133.5166,729.01367 132.0603,720.30371 133.27124,716.55957 137.58228,713.87402 137.84668,710.55518 132.91577,711.90137      128.18677,719.08057 124.72632,729.52637 122.34253,732.53027 116.52295,735.86182 113.19214,728.39062 109.62134,730.27246      108.50659,736.54639 99.54834,732.39697 97.76538,730.71045 97.03467,721.00098 95.52563,721.64307 92.54614,729.34473      88.13916,734.57422 86.21655,728.99756 80.99731,722.37646 78.48877,721.88965 78.14282,717.61377 81.7522,695.47705      81.12256,688.68408 79.43555,689.72217 76.61938,696.6416 74.41821,720.47852 71.35693,725.84424 68.29541,731.22314      63.26367,735.11572 63.36914,738.02832 65.60889,741.646 63.25391,744.40332 60.28394,747.88428 58.0105,759.06592      55.37231,760.14014 52.99805,758.08643 48.29321,739.29053 46.67822,737.10059 45.47217,751.16699 41.77173,754.61865      38.29199,753.7749 33.37573,750.26514 28.50708,749.29834 29.0022,747.77686 36.12915,744.92578 36.94165,743.11865      40.50757,735.97168 39.59448,731.91699 40.39233,722.34717 43.29517,717.95459 40.07031,713.59814 37.05713,715.07422      35.85059,713.5625 37.10498,705.92236 34.94702,704.64111 34.24072,706.22461 32.94775,712.69922 33.67358,716.76074      37.04712,719.94336 36.79712,739.229 32.60181,741.57129 29.85742,745.45752 27.00781,743.82227 25.38354,739.45264      23.23975,740.1377 24.58569,745.53857 23.56177,748.88965 20.49072,748.61377 17.71802,751.25439 11.97974,746.21973      4.66016,745.13916 4.94849,747.66016 1.16162,753.84619 0.87817,755.13867 "
   id="polyline99" />

			<polyline
   style="fill:none;fill-rule:evenodd;stroke:none;stroke-width:1.27559996;stroke-linejoin:round;stroke-miterlimit:3.8636899"
   points="0.25513,930.51562 6.73169,933.34375 13.03687,938.74219 7.88989,944.00391 6.36621,949.12598      8.95679,957.20068 8.53369,961.30713 4.36694,972.17822 1.36328,973.45947 0.76001,972.7627 "
   id="polyline107" />

			<path
   d="M 564.84302,439.56348 L 567.72144,441.21729 L 580.60035,444.33838 L 580.60035,447.11279 L 607.72144,453.72558 L 608.4148,460.33837 L 605.98755,470.7661 L 607.37427,479.11278 C 607.37427,479.11278 605.64087,482.60448 603.88257,485.03221 C 602.12427,487.45946 601.45532,491.645 601.802,496.87059 C 602.14868,502.09666 608.76147,509.03221 608.76147,509.03221 L 611.76293,550.60252"
   style="fill:none;fill-rule:evenodd;stroke:#646464;stroke-width:2.83459997;stroke-linejoin:round;stroke-miterlimit:3.8636899"
   id="path113" />

			<polyline
   style="fill:none;fill-rule:evenodd;stroke:none;stroke-width:1.27559996;stroke-linejoin:round;stroke-miterlimit:3.8636899"
   points="508.09204,367.40088 507.41675,371.6958 505.48022,384.56494 503.6394,387.53955      490.64429,377.78809 490.3894,375.65332 492.23462,372.87646 497.21362,371.56299 498.35278,369.26953 498.48755,368.99316      494.13843,365.22705 493.02319,365.52881 490.12036,366.31689 489.03931,362.25244 487.96216,358.20068 485.86255,358.84619      485.81421,359.08936 484.67993,364.72119 487.03979,379.84473 488.86108,382.90381 499.45337,389.41113 504.15356,399.01025      503.91333,404.08057 501.823,405.11523 499.87622,404.39209 498.58374,406.37451 499.49683,411.41211 498.23267,414.36719      495.09497,412.51172 492.09595,408.50879 492.78296,407.16602 493.91724,404.95361 493.29712,403.41553 488.03003,401.03467      479.91724,400.29834 474.80884,396.94385 470.95435,390.2417 464.59595,370.18066 463.10669,371.9751 457.70435,365.32129      456.08521,362.6416 458.09839,358.88525 453.927,348.10547 454.78735,344.57275 452.71606,342.6001 451.61548,341.55225      450.1687,338.28564 450.62524,334.18213 446.07642,329.19141 445.30444,328.03564 446.47437,322.64209 449.57788,316.09619      453.85132,307.62354 456.57056,301.07715 456.96362,294.91016 457.35718,289.90186 453.49146,285.65723 449.99536,292.20312      449.6062,295.28564 448.82495,298.75293 448.81958,301.83789 446.88208,304.9165 445.32788,309.15527 442.21558,319.93848      439.8938,320.32422 436.0188,318.3916 434.85815,319.93213 439.91479,335.6167 442.84595,337.91895 445.6897,343.48242      442.30151,352.73486 444.45923,360.65283 443.36841,362.83008 441.27319,363.66992 440.75854,365.82715 447.3186,372.64307      449.37134,376.86377 444.66138,380.7041 448.71265,380.77588 449.92407,382.68652 448.41968,390.52051 445.08911,388.66846      443.23364,391.06543 451.84595,402.29639 454.80151,404.54443 461.5686,405.31689 463.39478,408.57373 457.89673,409.31299      459.32935,414.5332 459.10767,426.80811 455.00806,431.4082 453.2063,442.36328 449.99097,444.2124 446.10767,443.16113      444.30103,440.68262 446.59302,426.79199 445.94458,424.46924 440.75854,424.82275 439.24976,432.4624 437.31323,432.13135      433.86743,426.20166 429.52271,422.6333 427.60962,423.08105 427.66284,424.82959 433.58325,429.71143 430.32983,430.396      431.37769,433.28613 429.30151,434.71045 427.27808,434.37305 416.34009,432.57275 407.9729,429.71484 405.30054,430.37939      404.71411,436.62793 406.80981,442.21094 407.19946,448.82178 405.45923,454.90771 401.41772,461.2627 402.04224,462.99854      404.17114,463.31934 407.90063,459.31348 410.37573,452.03027 417.95972,448.10205 421.05933,448.78613 427.93677,453.63916      428.77759,455.94922 422.28003,457.50977 418.39185,462.63525 415.26343,463.35889 414.04761,464.9834 416.56567,464.91553      423.92358,460.96436 432.0647,463.05322 433.69409,466.11572 432.90601,471.98438 435.17896,483.79248 434.46802,485.76123      429.06128,485.14844 426.44702,487.75635 426.91284,490.46875 432.82935,488.92773 434.65063,491.99023 428.22485,502.30908      430.20532,504.19092 433.85767,504.27539 433.7854,514.79248 428.69116,518.06201 416.21021,522.75977 414.052,523.57031      409.76538,521.5625 407.92505,524.34229 405.34888,515.26904 403.39771,520.78027 400.15845,521.65967 405.89673,527.12939      406.58862,531.00537 410.06372,531.47949 410.61646,537.11084 418.06519,542.13916 418.00757,546.61914 415.20093,549.23389      416.44067,552.11768 420.6604,551.79346 422.47241,554.65771 425.75952,555.33887 427.16284,557.43457 424.78394,567.82861      426.6438,578.86816 426.46118,579.50049 422.81372,592.02881 426.80249,616.63135 425.91333,618.99951 419.33862,617.25098      418.67065,620.57959 422.05396,631.18408 413.61011,643.90381 404.75806,636.58203 403.97925,629.79248 405.63208,618.65576      406.21362,614.73389 405.73364,605.01123 404.72876,603.48682 399.74048,635.57031 396.59253,639.1709 390.75806,641.23389      389.95044,641.51904 390.77759,643.63428 392.90649,644.15332 400.84106,640.2085 404.71411,641.45117 408.33325,646.98535      399.8606,652.30859 397.55835,658.60889 399.2019,662.2583 402.34985,664.88623 404.28198,671.83447 401.16284,676.40869      399.04321,682.50781 391.8728,686.23486 385.50513,703.76562 385.51001,710.18555 383.03931,710.84717 381.39624,710.27002      378.97388,709.41992 375.17261,704.08691 368.73706,700.39502 372.31763,685.875 373.80737,684.4668 376.71997,685.73828      373.6394,691.48047 374.49487,694.37402 377.89233,692.71289 380.21411,687.18506 378.69507,681.3916 379.97339,672.97998      378.96411,671.26025 374.53296,670.62109 376.302,665.69727 379.4978,663.6499 379.90161,657.99268 378.47437,655.11816      376.552,654.98242 375.06665,656.58789 374.85034,662.04395 372.93774,661.60352 370.40991,661.0127 369.11694,662.61523      370.20776,667.05957 368.55981,669.44385 368.84302,672.55127 363.78735,688.87207 360.57202,690.33545 358.04907,689.24854      354.59839,682.93262 351.46021,680.69727 348.83618,682.53369 348.91333,685.06055 353.27661,689.79053 352.75757,691.55811      347.84595,693.85498 348.86499,695.77246 351.38794,696.85889 363.19604,694.53955 365.16187,696.22656 362.3645,698.6499      351.13306,700.95605 348.87915,700.66748 343.82349,700.02148 333.69751,700.93359 330.16528,698.31885 326.50317,703.69434      301.01733,709.39404 288.38208,715.65479 286.08032,715.53467 284.10962,713.84814 287.44995,710.42871 297.63843,705.6084      306.79858,704.53076 301.97827,697.48828 301.54565,697.79004 292.04419,704.43359 288.3728,703.38623 283.02856,703.95361      281.84155,702.82812 280.41431,694.30908 277.95825,695.36328 277.45386,703.36328 272.35962,711.71045 268.32251,711.26221      263.03101,713.58203 254.96216,712.68652 248.58472,722.63574 250.73267,723.93018 258.04761,719.20068 270.69653,714.69482      277.35767,712.31982 278.02075,715.02539 276.9397,717.20557 261.65649,724.14111 252.35718,726.7915 238.33813,737.19824      236.03149,736.88379 233.16235,731.14502 236.52661,728.69238 238.09302,723.96631 237.42993,721.26367 227.96216,724.50781      224.89624,729.58447 218.67261,732.27051 216.02954,731.6416 214.0105,734.55762 217.35083,734.98291 227.65454,732.50098      228.27954,734.03857 216.25513,740.87695 212.05981,741.41211 209.14722,740.15039 205.23071,731.91699 203.6731,731.19043      201.22241,732.25146 197.69458,729.84375 194.89771,732.08252 191.42749,731.42383 189.5105,734.7876 183.08472,736.59473      178.62476,739.58594 176.75513,741.42529 178.03394,743.16699 185.35815,738.64795 192.34106,735.67383 198.62231,734.67432      201.70288,735.1543 203.32251,737.82422 200.92407,740.43896 192.35034,741.70752 188.23657,744.58154 175.85669,746.38184      166.5813,749.4375 152.33643,758.12207 142.11426,755.96143 130.50317,757.74268 129.32104,756.81152 131.41626,751.08887      142.23462,753.81396 146.21851,752.89258 151.17358,746.67432 156.41187,743.18018 154.91748,738.75537 163.77954,734.74268      165.0144,734.96631 166.47559,735.229 167.50415,731.68701 166.10547,724.53369 166.74438,720.80957 165.71606,718.7041      165.27856,718.42188 161.99146,716.30664 160.45361,710.51953 "
   id="polyline121" />

			<polyline
   style="fill:none;fill-rule:evenodd;stroke:#646464;stroke-width:1.27559996;stroke-linejoin:round;stroke-miterlimit:3.8636899"
   points="194.98315,505.07422 277.96362,505.69238 284.13599,505.29736 296.87036,504.51025      384.49731,502.14697 385.26978,496.75342 382.56519,491.35986 383.34204,487.50732 386.04175,485.19531 387.58618,482.88379      388.74731,478.64941 393.76831,475.95312 399.17407,472.87012 401.49048,474.02979 403.80688,478.26709 404.96313,478.65283      406.12378,477.10791 406.90063,472.4917 409.21753,469.02441 414.04761,464.9834 "
   id="polyline123" />

			<polyline
   style="fill:none;fill-rule:evenodd;stroke:#646464;stroke-width:1.27559996;stroke-linejoin:round;stroke-miterlimit:3.8636899"
   points="442.57202,363.48291 439.07886,359.62695 437.91821,360.00928 436.7522,362.32031      432.10522,363.0874 428.62329,365.00781 426.68481,365.77832 424.7522,365.00439 422.42603,368.47168 418.56079,368.85352      416.23901,368.46826 414.30103,369.23877 413.14087,371.1626 411.98022,374.24414 411.59155,375.40039 410.43091,376.16992      408.88159,377.71143 408.88159,379.25244 409.65405,384.26123 408.10474,386.57227 405.01099,389.6543 401.14038,393.88867      305.62378,396.62158 194.23853,400.34473 "
   id="polyline125" />

			<line
   style="fill:none;fill-rule:evenodd;stroke:#646464;stroke-width:1.27559996;stroke-linejoin:round;stroke-miterlimit:3.8636899"
   x1="489.38257"
   y1="355.4043"
   x2="466.41479"
   y2="375.4917"
   id="line127" />

		</g>
  </g>
</svg>
