<?xml version="1.0" encoding="UTF-8" standalone="no"?>
<svg
   xmlns:svg="http://www.w3.org/2000/svg"
   xmlns="http://www.w3.org/2000/svg"
   version="1.0"
   width="787.38916"
   height="826.76172"
   viewBox="0 0 787.38916 826.76172"
   id="svg2"
   xml:space="preserve"><defs
   id="defs110" />
	
		<g
   id="US-Virgin_Islands">
			<rect
   width="787.38916"
   height="826.76172"
   x="0"
   y="0"
   style="fill:#c6ecff;fill-rule:evenodd"
   id="rect7" /> 
			<polygon
   points="0,451.91748 7.48389,452.42139 8.45459,452.48682 21.15186,453.67139 32.17676,456.5127 41.21631,460.70117 47.72852,460.15723 61.61279,464.396 66.61084,463.68701 71.32568,461.60889 73.73828,462.39258 79.57764,468.67773 82.60498,468.55811 82.89844,469.77539 82.00439,471.02295 79.98096,473.84521 69.24463,473.27979 67.42334,474.02051 65.02979,471.11133 62.15625,470.77979 60.63721,471.52246 59.3877,475.60986 49.09326,475.81055 45.90234,477.60205 41.90869,483.4834 35.07471,486.60547 34.19043,484.16699 37.70801,480.10254 33.18604,478.23535 28.08203,473.63037 26.42383,473.15869 25.04932,474.2085 24.33838,476.84521 24.1123,477.69141 22.14648,477.21729 19.26318,478.1001 17.73486,480.05957 18.30713,483.55664 15.99023,488.69727 12.39062,485.16992 6.46973,487.3916 0.73145,486.57812 0,486.98145 0,451.91748 "
   style="fill:#ede1ca"
   id="polygon9" />
			<polygon
   points="622.521,72.11108 620.14209,69.80371 619.2627,67.81543 619.74365,66 622.49268,65.13062 634.97803,63.19678 657.12354,65.36279 665.95703,63.98291 668.69189,62.58984 671.16162,61.33105 675.41016,61.70312 687.75635,68.73389 703.18848,82.34741 708.09521,89.26221 711.68066,92.96484 712.67529,97.38501 712.18994,99.2002 710.33936,100.8418 707.45117,101.25049 703.3667,100.12109 697.98389,94.86963 686.41553,86.6355 679.14453,85.45581 672.64697,83.22656 663.84229,82.78369 650.52539,79.5376 646.71924,79.00171 635.11279,77.36768 634.76221,77.31885 627.77881,77.21021 622.521,72.11108 "
   style="fill:#e0e0e0;fill-rule:evenodd;stroke:none;stroke-width:1.27559996;stroke-linejoin:round;stroke-miterlimit:3.8636899"
   id="polygon11" />
			<polygon
   points="648.3335,224.09326 644.30127,220.08154 644.34473,217.04492 652.93311,220.97607 653.82178,222.3562 651.97656,223.8457 648.3335,224.09326 "
   style="fill:#e0e0e0;fill-rule:evenodd;stroke:none;stroke-width:1.27559996;stroke-linejoin:round;stroke-miterlimit:3.8636899"
   id="polygon13" />
			<polygon
   points="619.39746,236.28467 620.47852,230.64844 617.82568,225.2915 618.15723,223.4751 620.72412,224.27368 627.23096,223.60889 628.4707,223.48145 632.40186,224.30151 634.62744,227.8291 638.73633,226.98096 640.50049,227.56396 641.14893,227.77832 640.05811,229.8877 640.62988,232.02222 642.28809,232.65576 651.3999,231.88721 655.07178,229.81812 655.73975,225.87988 661.06445,224.74805 661.78564,227.18945 664.35693,227.68652 669.8833,223.52051 677.93799,222.58569 678.81787,224.42139 671.30127,229.92163 666.87012,231.97803 662.03564,230.83887 659.58936,232.01465 658.02734,235.02832 654.34131,238.15967 653.13477,238.52783 649.61719,239.60425 643.8501,239.66602 636.60254,237.73193 635.36279,239.53467 636.00635,246.98682 635.36768,249.10254 626.58203,248.35938 620.78125,251.00342 614.19238,255.61084 611.56885,258.6084 612.88525,272.29736 611.04443,273.63574 604.67676,273.84277 602.67773,275.78662 600.54395,276.36084 599.81787,274.07251 600.88525,269.79053 603.36475,259.85107 602.21631,255.58057 604.3833,252.57568 608.78564,252.18799 611.54932,249.80029 617.02783,248.66846 619.03223,246.26904 618.99854,238.37158 619.39746,236.28467 "
   style="fill:#e0e0e0;fill-rule:evenodd;stroke:none;stroke-width:1.27559996;stroke-linejoin:round;stroke-miterlimit:3.8636899"
   id="polygon15" />
			<polygon
   points="543.81006,248.53857 544.55469,247.5835 542.49756,242.84521 543.62256,238.30591 541.13281,232.19531 546.02051,229.83594 548.12549,230.92969 546.28467,232.42212 546.41455,233.94214 549.125,235.19775 550.15869,237.48975 547.02979,244.12695 548.92334,248.05542 549.24072,248.71533 549.05811,250.68677 544.44434,255.47949 543.23779,254.85376 541.61865,251.33789 543.81006,248.53857 "
   style="fill:#e0e0e0;fill-rule:evenodd;stroke:none;stroke-width:1.27559996;stroke-linejoin:round;stroke-miterlimit:3.8636899"
   id="polygon17" />
			<polygon
   points="523.90869,249.25781 521.03467,248.60913 520.18408,244.19263 515.04639,242.90332 515.12354,237.28516 513.05225,233.76318 513.97949,232.40967 515.33936,232.73242 518.76611,237.33838 520.27539,237.81543 524.39404,236.05176 526.63818,238.36279 528.00781,237.7749 529.51709,238.40454 529.78174,241.29321 523.90869,249.25781 "
   style="fill:#e0e0e0;fill-rule:evenodd;stroke:none;stroke-width:1.27559996;stroke-linejoin:round;stroke-miterlimit:3.8636899"
   id="polygon19" />
			<polygon
   points="590.87402,242.95605 590.14404,241.12183 591.85449,238.11035 597.76611,238.50439 598.35693,239.5752 598.02051,241.69702 590.87402,242.95605 "
   style="fill:#e0e0e0;fill-rule:evenodd;stroke:none;stroke-width:1.27559996;stroke-linejoin:round;stroke-miterlimit:3.8636899"
   id="polygon21" />
			<polygon
   points="558.61182,247.25171 563.82178,246.95532 563.33643,249.07471 559.52002,250.84082 555.11816,251.23193 553.00342,250.59375 552.11914,248.90942 553.07568,247.70972 553.1958,247.55811 558.61182,247.25171 "
   style="fill:#e0e0e0;fill-rule:evenodd;stroke:none;stroke-width:1.27559996;stroke-linejoin:round;stroke-miterlimit:3.8636899"
   id="polygon23" />
			<polygon
   points="427.25684,266.96118 427.37207,267.65234 426.43994,269.31006 424.9209,269.44141 424.19531,268.95557 422.36914,267.73682 421.58594,269.396 417.32275,270.85791 413.38672,270.65356 409.0376,266.79834 407.08643,267.27246 403.7124,268.09375 399.80029,265.9165 390.54443,266.55371 388.74707,264.70776 389.06885,263.19287 399.71387,260.6001 402.47266,258.6626 404.50586,253.82935 407.83594,254.02515 412.05566,256.20752 420.37939,257.38208 423.07568,259.84863 424.55127,263.05811 426.81006,264.30273 427.25684,266.96118 "
   style="fill:#e0e0e0;fill-rule:evenodd;stroke:none;stroke-width:1.27559996;stroke-linejoin:round;stroke-miterlimit:3.8636899"
   id="polygon25" />
			<polygon
   points="437.48389,261.0874 432.63916,259.06641 428.68896,259.62109 425.37744,257.90576 425.25732,255.47461 428.90479,254.91553 429.64551,256.14062 434.43213,258.1377 437.8252,257.05762 438.68506,259.7749 437.63281,261.00635 437.5415,261.11133 437.48389,261.0874 "
   style="fill:#e0e0e0;fill-rule:evenodd;stroke:none;stroke-width:1.27559996;stroke-linejoin:round;stroke-miterlimit:3.8636899"
   id="polygon27" />
			<polygon
   points="529.80078,260.63452 531.9873,267.75049 531.35791,269.41211 527.89258,267.69141 524.85059,268.55957 523.30811,270.3584 523.87988,272.79688 526.13379,274.1958 525.94629,276.77612 521.32764,281.87256 516.2915,284.38184 505.83838,283.77637 495.34717,275.12329 490.63232,275.96729 489.55566,277.16699 490.12793,279.60547 494.31885,283.6123 495.19775,285.90332 493.64551,288.61426 489.07031,290.67676 482.26025,289.82178 482.18848,294.98389 473.79736,299.11816 467.57373,299.63916 463.28662,302.92041 459.17773,304.23145 452.7085,300.49707 437.69043,301.65771 432.09619,300.6709 431.35596,299.29346 432.89893,297.18896 437.30127,296.79297 440.54004,293.77686 447.64844,293.59375 451.9209,291.67773 455.29443,288.68652 457.20264,282.03174 466.66553,277.15063 466.53076,275.78174 463.5127,274.67651 462.79639,273.29907 462.479,272.68848 464.21436,267.85303 465.74756,266.35547 471.50977,266.28345 470.06299,261.09961 473.1001,260.68604 474.79248,259.19141 478.13721,258.47949 481.13135,261.10229 488.55615,261.6626 489.86328,261.40137 492.55029,260.86377 501.32568,259.10913 505.9873,262.06104 520.31885,256.34375 524.87939,255.49854 529.80078,260.63452 "
   style="fill:#e0e0e0;fill-rule:evenodd;stroke:none;stroke-width:1.27559996;stroke-linejoin:round;stroke-miterlimit:3.8636899"
   id="polygon29" />
			<polygon
   points="360.50732,267.83276 358.00342,261.87793 358.19092,259.14697 362.42529,259.96045 364.64502,264.39258 360.50732,267.83276 "
   style="fill:#e0e0e0;fill-rule:evenodd;stroke:none;stroke-width:1.27559996;stroke-linejoin:round;stroke-miterlimit:3.8636899"
   id="polygon31" />
			<polygon
   points="532.04004,261.11719 537.97559,262.52295 542.98779,261.68506 544.02637,263.37061 545.68896,263.8501 547.24609,260.83594 549.07227,260.55859 550.55713,262.70703 554.60889,265.50024 557.271,270.24756 553.2583,275.2002 551.43701,275.47632 549.9375,274.24023 549.6875,270.43921 547.8999,268.28662 545.02588,267.63721 542.43018,269.11841 538.79248,268.9126 532.04004,261.11719 "
   style="fill:#e0e0e0;fill-rule:evenodd;stroke:none;stroke-width:1.27559996;stroke-linejoin:round;stroke-miterlimit:3.8636899"
   id="polygon33" />
			<polygon
   points="416.25146,306.68359 413.69922,304.82666 409.7583,305.07764 408.42236,302.93408 409.96973,300.37354 424.08496,299.04395 424.51709,300.56787 416.25146,306.68359 "
   style="fill:#e0e0e0;fill-rule:evenodd;stroke:none;stroke-width:1.27559996;stroke-linejoin:round;stroke-miterlimit:3.8636899"
   id="polygon35" />
			<polygon
   points="581.75732,306.90674 578.76807,303.97754 575.13916,303.31494 574.24561,302.08789 575.17334,300.88721 578.35986,300.62939 580.34912,299.29346 585.65967,299.06885 586.24121,300.59668 582.57471,302.81934 583.91064,304.81396 581.75732,306.90674 "
   style="fill:#e0e0e0;fill-rule:evenodd;stroke:none;stroke-width:1.27559996;stroke-linejoin:round;stroke-miterlimit:3.8636899"
   id="polygon37" />
			<polygon
   points="565.10938,315.771 560.89014,313.88623 559.43896,309.46045 557.18457,308.21289 556.15625,305.76807 556.04102,303.48828 556.80518,302.8916 557.70361,303.81592 562.24072,304.49121 562.82178,306.01758 562.0293,308.58838 563.05273,311.03369 566.08545,311.07764 566.81592,313.06348 565.10938,315.771 "
   style="fill:#e0e0e0;fill-rule:evenodd;stroke:none;stroke-width:1.27559996;stroke-linejoin:round;stroke-miterlimit:3.8636899"
   id="polygon39" />
			<polygon
   points="435.36475,303.90186 445.23584,304.19092 445.96631,306.02246 444.74561,306.91748 441.25635,307.02148 435.36475,303.90186 "
   style="fill:#e0e0e0;fill-rule:evenodd;stroke:none;stroke-width:1.27559996;stroke-linejoin:round;stroke-miterlimit:3.8636899"
   id="polygon41" />
			<polygon
   points="552.04736,317.70459 550.23047,317.67822 549.04346,315.99023 545.27588,314.41553 544.99707,312.7417 547.12109,312.31641 547.61621,309.59033 552.4751,308.90283 553.21045,310.43164 551.52783,311.62256 551.20117,313.13672 552.68164,315.8916 552.04736,317.70459 "
   style="fill:#e0e0e0;fill-rule:evenodd;stroke:none;stroke-width:1.27559996;stroke-linejoin:round;stroke-miterlimit:3.8636899"
   id="polygon43" />
			<polygon
   points="523.85059,339.9209 522.6543,338.84082 520.38086,338.96094 519.3623,336.06006 520.00635,333.33496 518.94873,330.66846 517.22363,326.30957 513.59521,325.6499 509.94727,326.66064 505.3335,331.30322 501.59473,327.75684 497.94727,328.61572 496.30322,326.92285 496.93311,325.10889 500.26807,325.15674 503.18066,322.61572 505.46338,322.19336 509.39014,323.15967 511.81689,322.73975 513.08057,318.96094 514.604,318.67822 516.07471,321.73779 518.65576,321.47021 519.83789,323.61377 524.67725,324.44238 525.55225,326.58252 525.06689,339.63574 523.85059,339.9209 "
   style="fill:#e0e0e0;fill-rule:evenodd;stroke:none;stroke-width:1.27559996;stroke-linejoin:round;stroke-miterlimit:3.8636899"
   id="polygon45" />
			<polygon
   points="73.99805,373.26123 71.72949,372.7832 69.33105,370.17773 67.70215,366.36426 64.69385,364.20801 64.27539,360.55957 62.32422,358.56543 55.98047,356.37646 51.51123,348.5874 44.12402,344.86963 43.3457,342.32861 42.21143,338.625 35.93945,328.99561 36.40576,327.48291 38.83252,327.20166 52.80859,339.64062 54.625,339.9624 56.01416,337.24365 57.83545,336.65479 65.07764,339.91553 70.40283,337.69141 74.16602,340.31201 78.11182,339.28857 92.0293,347.38037 98.27734,353.46582 99.15186,356.5127 98.23389,357.71875 96.56592,357.85254 92.05859,354.16113 90.97705,356.27686 92.11621,363.57715 90.4292,365.83691 87.54102,366.41455 85.30127,363.20264 80.75977,362.85352 73.55078,356.55322 66.43311,356.48096 66.42383,357.54492 73.94482,362.93506 75.74219,365.23145 75.99707,369.78906 73.99805,373.26123 "
   style="fill:#ede1ca#ede1ca;fill-rule:evenodd;stroke:none;stroke-width:1.27559996;stroke-linejoin:round;stroke-miterlimit:3.8636899"
   id="polygon47" />
			<polygon
   points="96.93652,335.83789 95.85986,337.19336 92.07764,336.8501 85.43115,334.80762 84.38818,332.97412 86.07031,331.17041 94.68213,333.53564 96.93652,335.83789 "
   style="fill:#ede1ca;fill-rule:evenodd;stroke:none;stroke-width:1.27559996;stroke-linejoin:round;stroke-miterlimit:3.8636899"
   id="polygon49" />
			<polygon
   points="485.61475,355.32178 485.32666,354.10205 487.51318,349.12109 490.41162,347.94824 490.7334,346.58545 488.48438,344.88379 489.40674,343.83398 495.29443,345.28369 503.34863,343.42432 507.43408,343.9375 508.4624,346.22998 507.37598,348.18896 499.34521,348.37793 497.96143,349.57275 497.60596,353.5166 496.22656,354.56006 492.44922,354.05127 489.85889,355.22949 485.61475,355.32178 "
   style="fill:#e0e0e0;fill-rule:evenodd;stroke:none;stroke-width:1.27559996;stroke-linejoin:round;stroke-miterlimit:3.8636899"
   id="polygon51" />
			<polygon
   points="108.43213,352.50977 107.10107,349.61084 103.93359,347.90771 105.91846,346.40869 109.84521,347.81689 111.68115,346.1665 113.4834,347.40039 112.104,349.35938 113.13721,351.64795 108.43213,352.50977 "
   style="fill:#ede1ca;fill-rule:evenodd;stroke:none;stroke-width:1.27559996;stroke-linejoin:round;stroke-miterlimit:3.8636899"
   id="polygon53" />
			<polygon
   points="43.82617,360.50684 41.41846,358.66113 40.87061,352.58154 43.14355,352.30029 45.74854,349.44141 46.12354,357.64453 43.82617,360.50684 "
   style="fill:#ede1ca;fill-rule:evenodd;stroke:none;stroke-width:1.27559996;stroke-linejoin:round;stroke-miterlimit:3.8636899"
   id="polygon55" />
			<polygon
   points="491.93506,702.21729 484.24561,701.34912 483.96191,700.13086 487.61426,698.05664 490.94482,697.49658 494.70752,698.15771 496.03906,700.15088 491.93506,702.21729 "
   style="fill:#fefee9;fill-rule:evenodd;stroke:none;stroke-width:1.27559996;stroke-linejoin:round;stroke-miterlimit:3.8636899"
   id="polygon57" />
			<polygon
   points="409.91699,751.48975 399.83887,760.61572 396.66748,760.87695 392.61572,759.00098 385.82959,758.45605 372.52197,760.71045 363.28027,763.62695 355.22119,768.53223 353.74561,768.7959 352.04395,769.09863 347.70898,765.70361 345.00342,764.90869 331.58057,764.2832 323.10303,766.75732 315.03857,772.12158 311.56396,772.68506 310.38135,770.2417 310.41992,767.20459 315.14453,763.46973 317.18213,756.81494 320.08008,754.27002 321.97363,747.46289 321.72803,742.75342 320.58447,739.65771 316.75928,729.33203 316.99951,721.896 317.78271,719.3252 325.27979,711.22119 327.86572,709.5835 331.49365,709.02197 340.50977,712.78027 350.45312,714.57666 362.87646,711.09326 367.78369,704.78027 371.31592,704.76416 376.39111,704.7417 383.54248,700.58496 386.11328,700.16357 397.24854,703.04199 400.3916,705.36182 401.06934,711.5957 403.01562,712.68408 403.97217,708.74951 406.83643,709.24268 407.06689,702.86963 413.36279,705.10205 416.28467,714.07568 422.30225,715.67529 427.73242,721.10645 432.60596,724.31689 441.95312,725.2041 447.9126,723.51318 451.78125,724.12549 452.40576,722.7666 451.65186,722.45264 444.83691,722.08789 443.82764,720.52344 444.43799,720.07715 448.67188,719.52686 457.02441,715.84717 459.7251,716.94727 462.74854,716.68604 468.36182,714.79004 480.10254,717.53662 487.50342,717.18408 488.68115,716.7959 491.90137,715.72852 497.00488,717.92725 512.27295,716.47559 521.92334,717.37354 525.96045,720.31689 520.60693,725.40088 503.23828,725.91016 496.03906,733.24658 488.92139,735.12012 487.38818,735.896 478.43506,740.43701 470.4043,741.06592 466.63623,742.24512 458.875,746.99512 450.52686,750.6748 443.7124,752.40332 435.40771,752.74463 430.53955,755.56348 427.66504,755.97949 422.42676,752.87256 414.57422,753.22217 409.91699,751.48975 "
   style="fill:#fefee9;fill-rule:evenodd;stroke:none;stroke-width:1.27559996;stroke-linejoin:round;stroke-miterlimit:3.8636899"
   id="polygon59" />
			<path
   d="M 308.48877,286.97607 L 308.48877,286.65869 L 308.19531,286.34082 L 308.20019,286.02588 L 307.90722,285.71094 L 307.90722,284.76465 L 308.78271,283.81836 C 309.4331,284.08936 310.14257,284.29346 310.82714,284.45361 L 311.12109,284.76904 L 311.41455,284.76709 L 311.99707,285.39893 L 312.29053,285.39893 L 312.5791,285.71631 L 312.5791,286.34766 L 312.87256,286.34766 L 312.87256,286.66358 L 312.5791,286.97754 L 312.5791,287.61035 L 311.99219,288.24023 L 311.70362,288.24023 L 311.40967,288.55615 L 310.82324,288.55322 L 310.53418,288.23877 L 310.24072,288.23779 L 309.95166,287.92285 L 309.36523,287.92139 L 309.36523,287.60596 L 309.07128,287.60596 L 308.48877,286.97607 z "
   style="fill:#fefee9;fill-rule:evenodd;stroke:none;stroke-width:1.27559996;stroke-linejoin:round;stroke-miterlimit:3.8636899"
   id="path63" />
			<path
   d="M 307.60352,298.33447 L 307.60352,298.0166 L 307.31006,297.69971 L 307.31006,296.7544 L 307.021,296.7544 L 306.72803,296.43946 L 306.43457,296.438 L 306.43945,295.80763 L 306.1455,295.80763 L 306.1455,295.49171 L 305.85204,295.17579 L 305.85204,293.91261 L 306.1455,293.59816 L 306.43945,293.59816 L 306.43945,292.01906 L 306.15039,291.7051 L 305.56299,291.7051 L 305.2749,291.38674 C 304.76025,291.58108 303.75781,290.44338 303.52295,290.126 L 303.51807,289.49465 L 303.2295,289.17727 L 303.51807,289.17825 L 304.10498,288.54739 L 306.15039,288.54983 L 306.44385,288.86672 L 307.61328,289.17971 C 308.19775,289.33645 308.52148,289.04153 309.36523,289.49905 C 309.67724,289.668 310.05078,290.30178 310.52929,290.13235 C 311.08544,290.7261 313.08593,293.55471 313.15673,293.60549 L 313.15673,293.92043 C 313.43944,294.12551 313.92773,295.07375 314.32616,295.50051 L 314.32616,295.81545 L 314.61473,296.13088 L 314.61473,296.44777 L 314.90868,296.76369 L 314.9038,297.39406 C 314.26464,297.87844 313.33935,297.70754 312.56933,297.70754 L 312.27636,298.02199 L 311.98241,298.02297 L 311.98241,298.33742 L 311.68895,298.33742 L 311.69383,299.28371 L 311.39988,299.28371 L 311.39988,299.59963 L 311.10691,299.91457 L 311.10691,300.23 L 310.51951,300.85891 L 309.64402,300.85891 L 309.35545,300.22756 L 309.0615,300.22756 L 309.0615,298.96535 L 308.77293,298.64943 L 308.18602,298.64943 L 307.89207,298.33449 L 307.60352,298.33449 L 307.60352,298.33447 z "
   style="fill:#fefee9;fill-rule:evenodd;stroke:none;stroke-width:1.27559996;stroke-linejoin:round;stroke-miterlimit:3.8636899"
   id="path65" />
			<path
   d="M 268.46729,297.35889 C 267.94678,297.16162 267.65723,296.80762 267.29834,296.4126 L 267.29834,296.09717 L 267.00439,295.78076 L 267.00439,295.4668 L 267.58691,295.46582 L 267.88086,295.14941 L 267.88086,294.51757 C 267.70459,294.19189 267.30225,293.49364 267.0044,293.25732 L 267.0044,291.36523 L 267.5918,291.36523 L 268.76123,292.62597 L 268.75635,292.94286 C 269.19531,293.25829 269.19922,293.88671 269.63672,294.20458 L 269.63184,294.52099 C 270.34473,294.78954 270.87989,295.54833 271.38819,296.09911 L 271.38819,296.41356 L 271.67725,296.41258 L 271.97071,296.72801 L 271.97071,297.04539 L 271.67725,297.36228 L 271.09473,297.35984 L 270.80176,297.67576 C 270.46338,297.55662 270.04639,297.99119 269.63184,297.99119 C 269.21875,297.99119 268.80127,297.55271 268.46241,297.6743 L 268.46729,297.35889 z "
   style="fill:#fefee9;fill-rule:evenodd;stroke:none;stroke-width:1.27559996;stroke-linejoin:round;stroke-miterlimit:3.8636899"
   id="path67" />
			<path
   d="M 270.80176,302.72363 L 271.97071,302.72607 C 272.07618,303.25097 271.55811,303.78271 271.67725,304.30371 L 271.3833,304.30225 L 271.3833,304.93409 L 271.67725,305.24903 L 271.96631,305.24903 L 271.96631,305.56544 L 272.55274,305.56544 C 272.55274,305.98585 272.53956,306.40724 272.55274,306.82716 L 272.84131,306.82862 L 272.84131,308.09034 L 271.96631,308.09034 L 271.96631,307.77491 L 271.67236,307.45753 L 271.67724,307.14308 L 271.38329,307.14308 L 271.38329,306.51271 L 271.08983,306.51271 L 270.79686,306.19533 L 270.21434,306.19533 L 270.21434,305.88185 L 269.92528,305.88039 L 269.63182,305.56398 C 269.49608,305.61427 268.65575,305.25197 268.16942,305.24806 L 268.16942,304.9341 L 267.88085,304.93215 L 267.88085,304.61672 L 268.16942,304.61672 L 268.16942,304.30129 C 267.70702,303.79885 267.33739,303.33693 267.00438,302.72365 L 267.00438,302.40969 L 266.71141,302.40774 L 266.71141,302.09329 L 266.42284,302.09134 L 266.41796,301.77738 L 267.29833,301.14603 L 268.17382,301.14749 L 268.16943,301.46145 L 268.4624,301.46243 C 268.62109,302.03027 270.63916,302.15771 270.80176,302.72363 z "
   style="fill:#fefee9;fill-rule:evenodd;stroke:none;stroke-width:1.27559996;stroke-linejoin:round;stroke-miterlimit:3.8636899"
   id="path69" />
			<path
   d="M 296.78125,320.09717 C 297.30762,319.73389 298.83154,318.38672 299.11963,317.88965 C 299.17139,317.80078 299.47901,316.27197 299.50977,316.10254 L 299.70215,315.05029 C 299.70215,312.18506 294.06348,309.50732 292.11865,307.78613 C 291.59033,307.31933 291.1831,306.67285 290.65527,306.20556 C 289.91992,305.55468 288.89697,305.14501 288.32177,304.31201 L 288.61572,303.99658 L 289.19726,303.99658 C 292.24511,306.43213 296.15331,307.88086 299.41357,309.99853 C 301.4458,311.31884 302.92968,312.78417 305.25537,313.79199 C 306.9331,314.51904 309.00293,315.00976 310.79883,315.37646 C 311.44141,315.50732 312.22656,315.50341 312.84424,315.69482 C 313.53174,315.9082 314.21094,316.38183 314.88916,316.64502 C 316.16943,317.14111 317.54687,317.36914 318.68066,318.22803 C 319.60888,318.93067 320.17529,320.07959 320.72119,321.0708 C 321.25439,322.03857 324.00732,321.54834 325.1001,322.02295 C 326.19385,322.49805 327.1499,323.50147 328.31006,323.92041 C 329.37305,324.3042 330.50635,324.01904 331.51904,324.24023 C 331.74463,324.28955 333.96728,325.34082 334.14697,325.50683 C 334.79931,326.1123 335.1499,327.11279 335.89306,327.71826 C 336.57617,328.27392 337.63476,328.65527 338.23193,329.2998 C 338.46435,329.55029 338.59814,329.97265 338.81396,330.24609 C 339.50878,331.12597 340.38085,331.94873 341.14355,332.77636 C 342.29345,333.2329 343.30664,332.9165 344.35302,333.72753 C 345.87646,334.90868 345.82909,335.96093 348.14501,336.57616 L 348.72704,338.15331 C 348.28563,338.92333 345.52294,340.19481 344.6372,340.67235 C 344.68505,340.97264 344.91796,341.77098 345.21923,341.93651 C 348.10155,342.2534 351.90136,339.97801 354.26562,340.37255 L 354.85253,341.32177 C 354.6997,342.58251 353.95165,343.58056 353.67821,344.79296 C 353.9829,345.2788 354.17235,346.13329 354.26073,346.68603 C 353.57909,347.1333 352.687,347.35644 351.92235,347.63085 L 350.75243,347.31396 C 350.26757,347.45361 349.71825,347.66113 349.29442,347.94189 C 349.29442,348.03369 349.27733,348.83154 349.29442,348.88818 C 349.43456,349.34765 349.70946,349.59961 349.58348,350.15234 L 348.99657,350.78125 C 347.48046,349.89404 345.81298,348.58691 344.62743,347.30127 C 344.29198,346.93799 344.21581,346.41992 343.75097,346.03906 L 342.29296,345.71826 C 340.54735,346.34521 338.13378,347.73828 336.45605,346.34131 C 336.39453,345.85596 335.69677,345.26367 335.2915,345.07666 C 335.1997,345.07666 334.45263,345.06201 334.41113,345.07666 C 333.20898,345.50879 332.2041,346.30225 330.90771,346.65088 C 329.99511,346.896 328.92529,347.13428 327.99169,347.27686 C 326.84862,347.45166 326.47265,347.18018 325.35985,347.90381 C 325.27538,348.35791 325.47313,349.07666 325.65331,349.4834 C 326.41454,350.1626 327.56493,349.42188 328.28075,350.11572 C 328.56444,350.74511 328.83104,351.40381 329.15184,352.0122 C 329.78221,353.20751 330.83934,354.32372 330.60985,355.80419 L 330.02245,356.43407 C 327.77782,356.83593 326.93114,354.4287 325.64843,353.26952 C 324.90185,352.59423 321.7207,350.79052 320.69238,350.1079 C 319.74072,349.99071 317.53027,350.43602 316.60693,350.73436 C 316.35302,350.81639 315.30615,351.33495 315.14404,351.36424 L 313.10351,351.36131 C 312.62255,351.28611 310.05224,350.38865 309.60107,350.0952 C 309.08593,349.76024 308.6372,349.20653 308.14257,348.83153 C 307.25292,348.15575 301.99364,345.34227 300.84765,345.03563 C 300.35595,343.6245 300.81201,342.30565 300.55908,340.9326 C 300.38428,339.9868 299.84082,339.09129 299.6875,338.09031 C 299.86182,337.0659 300.61182,336.12107 301.14551,335.25095 C 301.04199,334.61618 300.67139,333.85691 300.2749,333.35593 C 299.86474,333.18113 296.46826,331.79734 296.18945,331.7739 L 294.82617,331.98484 C 293.96631,332.11765 292.92529,332.16404 292.09961,332.40134 C 290.51221,332.85642 289.01416,333.80417 287.43164,334.29148 C 285.60059,334.85593 283.49658,334.54978 281.58984,334.9199 C 278.35205,337.15232 280.48535,339.2324 278.37548,340.60008 C 277.77782,340.98826 276.96972,341.2036 276.33544,341.54735 C 275.48192,342.00878 275.10644,342.44969 273.99657,342.49217 L 273.12059,341.86082 C 272.33641,340.22215 273.70213,338.54978 273.41893,336.81053 C 272.97948,336.39744 272.26512,335.98094 271.66747,335.86131 C 271.28954,336.19139 270.62108,336.92674 270.49804,337.4409 L 269.32909,337.75682 C 268.3911,337.33055 266.75341,334.5703 266.41307,333.65135 C 265.96483,332.4409 266.39598,330.99998 265.83055,329.86571 C 265.37059,329.46874 264.86571,328.93798 264.36766,328.60155 C 264.04637,328.38475 262.76463,327.89354 262.32078,327.65428 C 261.39744,327.15623 259.90232,326.11619 259.11277,325.76024 L 257.06834,325.13036 C 255.87352,324.9785 254.49852,325.13134 253.27098,325.12792 C 252.41356,325.87108 251.33446,326.80614 250.35008,327.33837 C 248.56053,328.30663 245.3032,328.94189 244.2202,330.80956 L 243.05565,330.80956 C 242.98827,330.2705 242.00731,329.48095 241.59276,329.23339 C 240.47264,329.23339 239.47899,329.21972 238.3828,329.54735 C 237.35497,331.12792 235.15477,331.77587 233.42137,331.12645 L 231.66551,328.60545 C 231.16112,328.42332 230.36326,328.23826 229.91356,327.97313 C 229.69774,327.84618 229.61717,327.71678 229.42772,327.55321 C 228.61717,326.85204 227.83397,326.47655 226.99461,325.87108 L 226.41111,325.44969 C 226.08347,325.03709 225.79588,324.34227 225.53465,323.87205 C 225.87059,323.1284 228.40916,323.01756 229.03807,322.60935 C 229.62059,322.23142 230.26414,321.50339 230.78953,321.02927 L 230.78953,320.08152 L 231.37205,319.13572 C 232.25828,318.68552 233.93406,317.98191 234.87937,317.87351 L 237.21189,317.87205 C 239.74168,317.87059 242.03904,317.9365 244.51169,317.34275 L 246.25974,316.92283 C 247.78367,316.28953 247.50437,314.61277 248.89206,314.08347 L 250.93747,314.39695 C 252.08591,315.07713 252.60593,316.14841 253.27585,317.23826 L 254.15183,317.55369 L 255.02781,317.23826 C 255.38914,316.08103 256.08543,312.96971 256.77927,312.18846 C 257.57273,311.51561 261.00095,310.92723 262.03855,310.92723 C 263.87693,310.92723 267.20017,311.23924 269.0449,311.55907 C 270.3701,311.78856 271.80662,312.38768 273.13035,312.5078 C 274.02635,312.58885 275.13767,312.19432 276.05613,312.19432 C 277.70945,312.19432 279.38133,312.80565 281.01707,312.19578 L 281.60447,311.56687 C 281.39646,310.43113 282.15916,309.18113 283.35593,309.04197 C 284.57761,309.7407 286.35691,312.00437 287.14792,313.14744 C 287.28806,313.35008 288.55026,315.30906 288.60593,315.3574 C 289.69629,316.30127 295.04492,319.69043 296.78125,320.09717 z "
   style="fill:#fefee9;fill-rule:evenodd;stroke:none;stroke-width:1.27559996;stroke-linejoin:round;stroke-miterlimit:3.8636899"
   id="path71" />
			<path
   d="M 453.55615,326.76025 C 454.36865,327.48095 455.13427,326.85742 455.89502,326.45312 C 455.98633,326.17431 456.2334,325.68847 456.48193,325.50927 C 457.89941,325.50927 458.70849,325.66503 459.98095,326.46825 L 459.97558,328.04589 L 460.55761,328.67821 L 461.14013,328.68114 L 461.43359,328.3662 C 462.18603,328.20751 462.89404,328.84423 463.76709,328.69091 C 464.00732,329.0415 464.51709,329.50829 464.93164,329.64208 C 465.29639,330.22362 465.2207,330.57714 465.2207,331.22118 L 464.92724,331.53466 L 464.92724,331.85155 C 464.67089,332.07665 464.09619,332.25536 463.75781,332.1621 L 463.1709,332.79149 L 463.45947,333.4243 L 463.1709,333.73973 C 462.73486,333.58055 461.05371,334.98485 460.82764,335.30809 C 460.49756,335.77879 460.44043,336.52782 459.94629,336.88426 L 459.94629,337.51414 L 458.77246,338.77098 C 457.36182,339.02391 456.97607,338.39989 456.1499,337.49901 C 455.91064,337.56444 455.19726,337.2788 454.98584,337.18114 L 454.98584,336.86376 L 454.69189,336.86474 L 454.69189,336.54833 C 455.60498,335.88964 456.61181,333.23241 456.75146,332.13622 C 455.42285,330.66259 455.61376,330.6704 453.54687,329.91405 C 453.22802,329.79686 452.99707,328.61522 452.96923,328.33641 L 451.80517,327.69969 C 450.58154,328.42039 449.12792,327.43602 447.12744,329.57713 C 446.32959,329.6699 445.24512,329.57811 444.50049,329.25145 L 443.91748,327.99071 C 444.17627,326.40721 444.90967,324.80565 445.39062,323.25975 L 445.10156,322.62791 C 444.24951,322.39305 442.86718,323.2241 441.98877,323.45896 C 441.25732,323.65476 440.55664,323.43064 439.84717,323.55515 C 436.98096,324.05954 438.42383,327.50486 438.95215,329.23337 C 438.3501,330.26706 437.56104,331.75925 436.31494,332.06491 L 435.15088,331.74411 C 434.87842,330.85251 434.4292,329.84811 434.57276,328.90182 C 433.95704,328.22799 432.93702,327.42916 431.95069,327.63278 L 430.77686,328.89206 C 430.80567,330.03561 431.48243,330.51706 431.94092,331.41843 C 432.18897,331.90525 432.27051,332.51267 432.51856,332.99948 C 433.15186,334.24411 435.78663,336.76901 436.88282,337.43259 C 437.67237,337.91062 438.29346,337.60886 439.21632,338.7031 L 439.79933,338.70408 C 440.44679,339.36033 440.57521,340.50144 440.76613,341.33885 C 441.02883,342.49022 441.7422,344.53856 441.53127,345.65526 C 441.41359,346.27684 440.79689,346.92186 440.6509,347.5454 C 440.50344,348.17431 440.62258,349.37157 440.35207,350.38671 C 440.24416,350.79296 439.82326,351.24755 439.76027,351.64696 C 439.64064,352.41014 439.67922,353.72313 439.75588,354.48876 C 439.79738,354.90624 439.99758,355.33251 440.04445,355.75048 C 440.13332,356.54296 440.04103,357.47216 440.03468,358.27734 C 439.81495,358.85302 439.13527,359.59619 438.57179,359.85205 L 437.70118,358.58643 C 437.97657,356.81788 437.27052,354.65967 436.25733,353.21289 C 436.16553,353.1792 435.42872,352.896 435.38135,352.896 C 434.9624,352.89454 434.72901,352.95752 434.31153,352.99707 L 432.17188,353.19971 C 431.61622,353.24073 430.95948,353.09961 430.42042,353.19483 C 430.15431,353.24219 429.80421,353.41358 429.54444,353.50587 C 428.60059,353.31837 426.90333,352.24562 426.63331,351.28907 C 426.63331,349.70509 427.21632,347.34766 425.47804,346.55079 C 424.65236,346.70606 423.6255,346.85841 422.8462,347.17237 C 421.94483,347.53516 420.91554,348.33936 419.92579,348.4253 C 419.58106,348.45557 417.96534,348.02784 417.59474,347.89356 C 416.58351,347.52686 415.27492,347.11133 414.38673,346.51612 C 413.43116,345.87598 411.09034,342.94141 410.31105,342.71632 C 408.51417,342.83351 405.66798,348.90431 401.83205,348.06007 C 401.48488,347.68165 400.94338,347.2129 400.6675,346.792 C 400.39797,346.38087 400.23293,345.02003 399.21438,344.89503 C 398.39309,344.79493 397.42288,344.89112 396.58547,344.88868 C 395.44533,344.88526 394.22268,344.93556 393.37258,345.82764 L 393.07912,347.08741 C 392.00734,347.73048 390.76711,348.28858 389.57131,348.65772 L 389.57131,349.28956 L 390.15383,349.92237 L 389.57131,350.86768 C 389.22951,351.22364 388.25539,351.25782 387.81985,351.17774 C 387.34964,350.51612 386.95462,349.72022 386.6553,348.96827 C 385.46145,348.87061 383.72024,347.55958 382.8638,346.74708 C 382.46341,346.3672 382.12161,345.82716 381.69876,345.48292 C 380.72366,344.688 380.22708,344.94483 379.36966,343.2671 C 379.29349,343.11769 379.31107,343.01075 379.27347,342.84669 C 379.08695,342.03224 378.61868,341.22706 378.49857,340.42481 C 378.38236,339.64747 378.7056,339.43897 378.7974,338.84669 C 378.82914,338.64112 378.86234,336.92481 378.7974,336.63917 C 378.61283,335.83106 378.19242,334.53175 378.80717,333.79835 C 380.08744,333.40382 384.36869,331.60694 385.23051,330.34034 C 385.13188,329.54688 385.4268,328.89259 385.52934,328.13331 C 385.5435,328.02882 385.54789,326.31251 385.53422,326.23927 C 385.50395,326.07716 385.27934,325.77491 385.24027,325.60499 C 385.2222,325.52638 385.24515,324.51515 385.24515,324.34522 C 385.53275,323.88135 386.51126,323.54004 387.00199,323.40137 L 387.58353,324.03369 L 387.57865,325.29541 L 388.16166,326.24561 L 389.03715,326.24659 C 389.60209,325.71925 390.21537,325.67286 390.78861,325.30323 C 391.5308,324.82569 391.335,324.50733 392.8389,324.04639 C 393.36234,323.88623 394.01273,324.00196 394.58988,323.73584 C 394.87943,323.60254 395.19144,323.28369 395.46634,323.10693 C 396.23196,322.61377 397.17191,322.50439 398.00003,322.06152 C 398.15286,321.97998 398.2261,321.90283 398.39114,321.85254 C 399.3262,321.5669 402.62014,322.41553 403.64651,322.49756 C 405.42825,322.64014 409.07962,321.96485 410.65774,320.93945 C 411.45608,319.54052 412.44045,318.21875 413.29446,316.84472 C 413.39798,313.85986 409.50344,314.52294 408.92044,313.04492 L 408.92483,312.09863 C 409.16848,311.69482 410.27249,310.91943 410.68167,310.84033 C 411.82767,310.61865 416.147,311.0376 417.39407,311.4917 C 418.18997,311.78174 419.32425,312.26074 420.01712,312.76123 C 420.10013,312.8208 420.23099,313.03857 420.31009,313.07764 C 421.35697,313.59522 422.44241,314.2251 423.52005,314.66504 C 424.33304,314.99756 429.50638,315.16846 430.23245,315.00293 C 430.29983,314.98731 431.82766,314.14795 431.9888,314.06152 L 432.37747,314.16797 L 433.15335,314.38135 C 433.99759,314.79053 434.69095,315.36768 435.58353,315.75684 C 435.77298,315.83936 435.90189,315.84717 436.06937,315.96827 C 436.96732,316.61964 437.11332,317.40235 438.40384,317.8711 C 439.75247,318.36133 439.85989,318.0171 441.03079,317.87989 C 441.18606,317.86182 445.10745,317.88917 445.11624,317.8921 C 445.9722,318.17237 447.55081,319.24317 448.32132,319.79835 C 449.07669,322.8003 449.94974,322.53858 451.814,324.22999 C 452.55859,324.90479 453.03418,325.91113 453.55615,326.76025 z "
   style="fill:#fefee9;fill-rule:evenodd;stroke:none;stroke-width:1.27559996;stroke-linejoin:round;stroke-miterlimit:3.8636899"
   id="path73" />
			<path
   d="M 378.84033,316.43896 L 378.83545,316.7539 C 378.61865,316.67382 378.11963,316.94921 377.95996,317.06884 L 377.95996,317.38378 L 377.6665,317.38378 L 377.37255,317.69628 L 377.08446,317.69774 L 377.08446,318.01122 L 376.79051,318.01268 L 376.79051,318.32713 L 376.49705,318.32859 L 376.49705,318.64255 L 375.91453,318.64157 L 375.62156,318.32565 C 374.74607,318.311 373.86912,318.31979 372.99363,318.31979 L 372.70066,318.63473 L 372.4116,318.63473 L 372.4116,318.94967 L 372.11814,318.94869 L 372.11814,319.26363 L 371.82419,319.26461 L 371.82419,319.89596 L 371.24265,319.89498 L 370.9487,319.5776 L 370.9487,319.26168 L 370.65524,319.26168 L 370.66012,318.94576 L 370.36617,318.94478 L 370.07808,318.62984 L 369.78462,318.62789 L 369.2021,317.99459 L 368.90815,317.99313 L 368.90815,317.67917 L 369.2021,317.68063 L 369.49067,317.36569 L 370.37104,317.36569 L 370.6601,317.05221 L 370.95356,317.05221 L 370.95356,317.36959 C 371.43891,317.43746 372.74702,317.13961 373.28706,317.05709 L 373.87446,316.42818 L 375.33735,316.43209 L 375.62641,316.11666 L 375.62641,315.79977 L 375.91938,315.80075 L 375.91938,315.48483 L 376.21284,315.48581 L 376.21284,315.17233 C 377.51953,315.17773 377.81396,315.50684 378.84033,316.43896 z "
   style="fill:#fefee9;fill-rule:evenodd;stroke:none;stroke-width:1.27559996;stroke-linejoin:round;stroke-miterlimit:3.8636899"
   id="path75" />
			<path
   d="M 217.94189,318.82666 L 217.65283,318.51025 L 217.35937,318.51025 C 216.708,317.81347 215.97998,317.33056 215.31445,316.61914 L 215.60302,316.30225 L 217.06542,316.30225 L 217.64794,316.93213 L 218.81737,316.93408 L 218.81737,316.30127 L 219.39989,316.30127 L 219.39989,316.6167 L 219.69286,316.6167 L 219.98681,316.93115 L 219.98681,317.24658 L 220.28027,317.56299 L 220.27539,317.87842 L 219.98682,317.87842 L 219.98682,318.19287 L 219.69287,318.19433 L 219.69287,318.51025 L 219.3999,318.82568 L 219.40478,319.77295 L 219.11083,319.77295 L 218.81737,319.45654 L 218.23485,319.45752 L 218.23485,319.14307 L 217.94188,319.14161 L 217.94188,318.82666 L 217.94189,318.82666 z "
   style="fill:#fefee9;fill-rule:evenodd;stroke:none;stroke-width:1.27559996;stroke-linejoin:round;stroke-miterlimit:3.8636899"
   id="path77" />
			<path
   d="M 329.48389,318.55566 L 329.77686,318.5581 L 329.77686,318.24121 C 330.28223,318.24512 330.48291,318.21191 330.9419,318.55957 C 331.47461,318.1626 331.79053,318.24219 332.40479,318.24463 L 332.69776,317.92822 L 332.99171,317.93017 L 333.28028,317.61718 C 333.8584,317.6123 333.92628,317.78906 334.44971,317.93359 C 334.5752,317.96777 334.92188,317.89599 335.03223,317.93603 C 335.40577,318.0708 335.84571,318.37451 336.20166,318.56591 C 336.23047,318.58153 337.11768,318.56786 337.17139,318.56786 C 338.19727,318.56981 338.41114,318.61669 339.41114,318.88768 C 339.47364,318.90428 341.75684,318.88914 342.03858,318.89159 L 342.33204,318.57616 L 343.20753,318.5786 L 343.20753,318.26122 L 343.50148,317.94677 C 344.2964,317.95361 345.47951,318.34277 345.83498,318.26659 L 346.71047,319.21434 L 347.00442,319.21629 L 346.99954,320.16209 L 347.293,320.16355 L 347.293,320.47849 L 347.58157,320.47947 L 346.99954,321.10838 L 346.41751,321.1074 L 346.12356,321.42283 L 345.8301,321.42283 L 345.8301,321.73777 L 345.24807,321.73777 L 345.24807,322.05222 L 344.95461,322.0532 L 344.66066,322.36765 L 344.37209,322.05027 L 344.37209,321.42039 L 344.07863,321.42039 L 344.07863,321.10301 L 343.4966,321.10301 L 343.20265,320.78807 L 342.32716,320.78563 L 342.0337,321.10155 C 341.76808,320.99852 341.31544,320.72362 341.16212,320.46825 C 341.01271,320.46727 339.74952,320.44774 339.69923,320.46581 C 339.56398,320.51464 339.22999,320.75731 339.11769,320.78124 C 337.84962,321.05468 337.13087,320.5039 336.19679,319.83007 C 335.89699,319.61425 335.52882,319.54345 335.3257,319.19579 C 335.15138,319.19677 333.32424,319.17772 333.28029,319.19335 C 332.61623,319.43114 332.93605,319.50731 332.11134,319.50731 C 332.00587,319.50731 331.61085,319.52489 331.52882,319.50731 C 330.95655,319.3828 330.65821,319.19335 330.06593,319.18846 L 329.48389,318.55566 z "
   style="fill:#fefee9;fill-rule:evenodd;stroke:none;stroke-width:1.27559996;stroke-linejoin:round;stroke-miterlimit:3.8636899"
   id="path79" />
			<path
   d="M 224.07666,319.77051 L 223.7832,320.08643 L 223.7832,320.40186 L 223.49023,320.7168 L 223.49023,321.34668 L 223.7832,321.66309 L 222.90771,321.66553 L 222.90771,321.34864 L 222.61376,321.34864 L 222.32079,321.03516 L 222.03222,321.03418 L 222.03222,320.71777 C 221.56933,320.32226 221.18993,319.64599 220.86279,319.14062 L 220.27539,319.14062 L 220.27539,318.50927 L 220.86279,318.50927 L 221.15088,318.19286 L 221.15088,317.87743 L 221.44483,317.87743 L 221.73829,318.19432 C 221.98536,318.12547 222.92823,318.43553 223.1963,318.5078 L 223.49025,318.82372 L 223.78322,318.82372 L 223.78322,319.13817 L 224.07179,319.45555 L 224.07666,319.77051 z "
   style="fill:#fefee9;fill-rule:evenodd;stroke:none;stroke-width:1.27559996;stroke-linejoin:round;stroke-miterlimit:3.8636899"
   id="path81" />
			<path
   d="M 367.15234,320.20166 C 366.58593,320.09814 365.95312,320.03174 365.40039,319.88086 C 365.25244,319.84033 364.95752,319.5957 364.81787,319.56494 C 363.61523,319.30273 362.88574,319.83154 361.60889,319.24267 L 361.31543,318.61181 C 361.71631,318.72265 362.27979,318.29492 362.77344,318.29638 C 363.36865,318.29833 364.24121,318.17529 364.81787,318.30126 C 365.71728,318.49755 366.29492,318.94921 367.15723,318.3081 L 367.73926,318.62451 L 367.73926,319.25683 L 368.02783,319.25683 L 368.02783,319.57128 L 367.73926,319.56982 L 367.73389,319.88574 L 367.44532,319.88574 L 367.15234,320.20166 z "
   style="fill:#fefee9;fill-rule:evenodd;stroke:none;stroke-width:1.27559996;stroke-linejoin:round;stroke-miterlimit:3.8636899"
   id="path83" />
			<path
   d="M 352.25439,321.11865 L 352.25439,320.80371 L 352.54736,320.48682 L 353.12988,320.48926 L 353.42383,320.17383 L 354.01026,320.17529 L 354.29932,319.85937 L 354.59327,319.85937 L 354.88673,319.54638 L 355.17482,319.54638 L 355.1797,319.22997 L 356.34474,319.23388 L 356.34474,318.91747 L 356.93117,318.91991 L 357.22023,319.23387 C 357.53957,319.34764 357.82863,318.99217 358.1006,318.91991 C 358.32277,318.86083 358.72999,318.9204 358.98097,318.92235 L 359.27003,318.60741 L 361.02149,318.61034 L 360.72803,318.92479 L 360.72803,319.24022 L 359.56348,319.23778 L 359.56348,319.5537 L 358.97657,319.55224 L 358.68311,319.86669 L 357.51368,319.86571 L 357.22022,320.18114 L 356.92676,320.1787 L 356.63281,320.49511 L 356.34472,320.49609 L 356.05126,320.81005 C 355.74657,320.91454 355.43358,320.58544 355.1748,320.49267 C 355.00732,320.43212 354.20117,320.8081 353.71679,320.80371 L 353.42382,321.12109 L 352.25439,321.11865 z "
   style="fill:#fefee9;fill-rule:evenodd;stroke:none;stroke-width:1.27559996;stroke-linejoin:round;stroke-miterlimit:3.8636899"
   id="path85" />
			<path
   d="M 198.39502,335.25439 L 197.80811,335.25732 L 197.51465,334.93994 L 197.51465,334.62207 L 197.22559,334.62549 L 197.22559,333.99268 L 197.80811,333.36084 L 197.80811,333.04346 L 198.09717,333.0459 L 198.39014,332.72949 L 198.97266,332.72803 L 199.26612,332.41211 L 199.26612,330.8335 C 200.06251,330.40137 201.07227,330.01661 201.6001,329.25391 L 201.88867,329.25293 L 203.34668,327.67285 L 203.64063,327.67431 L 203.93409,327.35839 L 203.93409,327.67528 L 204.22706,327.6743 L 204.22706,328.62059 L 203.93409,328.93797 L 203.93409,329.56785 L 204.22706,329.88279 L 204.22706,330.1992 L 204.80958,330.82811 L 204.80958,331.14549 L 204.52101,331.46141 L 204.52101,331.77733 L 204.22706,331.77733 L 204.22706,332.72362 L 203.93849,333.04051 L 203.64552,332.72459 L 202.76906,332.72459 L 202.76906,333.04051 L 202.48049,333.04344 L 202.4761,333.67186 L 202.76907,333.98582 L 202.18704,334.61961 L 201.89358,334.61961 L 201.89358,334.93455 L 201.60501,334.62059 L 201.31106,334.62059 L 201.31106,334.30467 C 200.68313,334.2993 200.45559,334.27586 200.23635,334.30711 C 200.02444,334.33787 199.81985,334.42039 199.26614,334.62205 C 198.96536,334.73143 198.71585,334.69773 198.39505,334.93748 L 198.39505,335.25439 L 198.39502,335.25439 z "
   style="fill:#fefee9;fill-rule:evenodd;stroke:none;stroke-width:1.27559996;stroke-linejoin:round;stroke-miterlimit:3.8636899"
   id="path87" />
			<path
   d="M 291.22314,340.60889 C 291.22314,340.14649 291.32275,339.45948 291.22314,339.03174 C 291.1538,338.73145 290.8247,338.42578 290.93017,338.08496 L 290.63671,337.76855 L 290.64159,337.45117 L 290.34764,337.13525 L 289.76512,337.13427 L 289.47215,336.81835 L 289.47215,336.18651 C 289.77244,336.02049 290.00877,335.22606 290.05906,334.92626 C 290.21922,334.80419 290.7158,334.52929 290.93455,334.61034 L 291.22312,334.92479 L 291.51707,334.92625 L 292.39256,335.87596 C 292.37986,336.82225 292.38817,337.76903 292.38817,338.7158 L 292.97508,338.71726 L 293.26365,338.40085 L 293.5576,338.40085 L 294.43309,339.34812 L 294.43309,340.29734 L 295.30858,341.24461 L 295.30858,341.87498 C 294.97362,342.23924 293.56004,343.43797 293.55272,343.45018 L 293.55272,343.76659 L 293.25926,343.76659 C 292.65184,342.82225 292.08104,342.14794 291.60985,341.13573 C 291.52588,340.95459 291.39014,340.7334 291.22314,340.60889 z "
   style="fill:#fefee9;fill-rule:evenodd;stroke:none;stroke-width:1.27559996;stroke-linejoin:round;stroke-miterlimit:3.8636899"
   id="path89" />
			<path
   d="M 287.42188,346.604 C 287.42188,346.07617 287.44532,345.83691 287.13331,345.3413 L 286.84034,345.3413 C 286.72901,344.90722 286.30518,344.35253 285.96388,344.07665 L 285.67042,344.39257 L 285.38233,344.39403 L 285.08838,344.70751 C 284.35889,344.70751 283.4917,344.60302 283.04297,345.33886 L 282.7544,345.33691 L 282.7544,345.6538 L 282.17237,345.6538 L 281.87842,345.96874 L 281.58496,345.9702 C 281.53467,346.13231 282.01611,347.43846 281.87842,348.17821 C 281.81836,348.50194 281.64502,348.80419 281.58496,349.12792 C 281.54932,349.31933 281.62842,349.57274 281.58496,349.75927 C 281.46435,350.27734 281.07812,350.77001 281.00293,351.33447 C 280.79248,352.91748 281.11963,352.35302 280.41553,353.86084 C 279.12305,354.56689 279.27393,354.48486 277.78858,354.49121 L 276.9126,353.54248 L 276.33057,353.54248 L 276.33057,352.9126 L 276.62403,352.9126 L 276.33057,352.59571 L 276.33057,351.96436 L 276.9126,351.33301 L 277.49951,351.33301 L 277.49951,350.70069 L 277.20605,350.38575 C 276.73681,350.5127 276,350.16358 275.74804,349.7544 L 275.74804,349.43751 L 276.62402,348.49122 C 277.08935,348.61671 277.83789,348.27296 278.08203,347.86085 L 278.08203,347.229 L 277.79346,346.91357 L 277.79346,345.96777 C 278.21289,345.50195 279.01514,344.67724 279.54492,344.39111 C 280.00683,344.14257 280.55908,344.08056 281.00293,343.75976 C 281.59424,343.33203 282.24219,342.41992 282.75439,341.86474 L 282.75439,341.5498 L 284.79931,339.34082 C 285.45849,339.51855 285.89208,338.84863 286.55126,339.02588 C 287.17919,339.47998 286.80565,340.13281 288.00927,340.60645 L 288.00927,341.23829 L 287.71581,341.55421 L 287.71581,343.13282 C 288.1245,343.42774 288.40917,344.22608 288.29833,344.70997 L 288.5913,345.02638 C 288.46288,345.57765 288.87499,346.25294 288.87987,346.9214 L 287.71581,346.91896 L 287.42188,346.604 z "
   style="fill:#fefee9;fill-rule:evenodd;stroke:none;stroke-width:1.27559996;stroke-linejoin:round;stroke-miterlimit:3.8636899"
   id="path91" />
			<path
   d="M 330.90381,353.27734 L 330.90381,352.9624 L 330.60986,352.96142 L 330.60986,352.64746 L 331.19677,352.01465 L 331.48534,352.0166 C 331.48534,351.34814 331.52245,350.56787 330.9038,350.12158 C 331.00683,349.81347 330.47069,348.86084 330.32616,348.54199 L 330.03221,348.54199 L 330.32078,348.22705 L 330.32615,347.91113 L 330.61961,347.5957 C 330.93113,347.70752 333.22752,346.53955 333.53563,346.65332 L 333.53563,346.96924 L 333.8286,346.96924 C 333.46874,347.36133 333.17674,347.71436 332.65965,347.91358 L 332.65965,348.22999 C 332.50145,348.48438 332.05174,348.75636 331.78416,348.86134 L 331.77928,350.43849 L 332.07274,350.7549 L 332.07274,351.06984 L 332.3618,351.38625 L 332.3618,351.70266 L 332.07274,351.7012 L 332.07274,352.01809 L 332.3618,352.33352 L 332.3618,352.96536 L 332.65477,353.28128 L 332.94334,353.28128 L 332.94334,353.59671 L 332.3618,353.59671 L 332.06785,353.28128 L 330.90381,353.27734 z "
   style="fill:#fefee9;fill-rule:evenodd;stroke:none;stroke-width:1.27559996;stroke-linejoin:round;stroke-miterlimit:3.8636899"
   id="path93" />
			<path
   d="M 354.82861,355.2124 L 355.12256,354.89697 L 355.99805,354.89941 L 355.99805,354.58154 C 356.24756,354.48584 357.62647,353.52099 357.74951,353.32568 L 357.74951,353.00683 L 358.04297,352.69384 L 358.04785,350.47997 L 357.46094,349.85009 L 357.46582,349.53515 L 356.87842,349.5332 L 356.58936,349.21631 L 356.88331,349.21777 L 356.88331,348.90136 C 357.59913,348.36083 357.69679,348.7622 358.34132,348.58886 C 358.66993,348.50048 359.81739,347.86083 360.09327,347.96191 L 360.68458,347.33105 L 360.97364,347.64746 C 360.97364,348.14502 360.61719,349.02344 360.67969,349.2251 L 360.97364,349.54053 C 361.6294,349.54053 362.32423,349.52979 362.72022,350.17676 L 362.72022,350.80762 L 362.42676,351.12207 L 362.1333,351.12109 L 361.84473,351.43652 L 361.25733,351.43554 C 361.04639,351.75195 360.39698,352.18505 360.0835,352.38036 C 359.9961,352.65819 359.75,353.1494 359.50049,353.32567 L 359.50049,353.95653 C 359.65235,354.21385 360.11035,354.48973 360.37695,354.59081 L 360.37207,354.90673 C 359.77051,355.44189 357.65381,355.21679 356.86865,355.21679 C 356.48535,355.85986 355.76318,355.85156 355.11767,355.8413 L 354.82861,355.52685 L 354.82861,355.2124 L 354.82861,355.2124 z "
   style="fill:#fefee9;fill-rule:evenodd;stroke:none;stroke-width:1.27559996;stroke-linejoin:round;stroke-miterlimit:3.8636899"
   id="path95" />
			<path
   d="M 333.53076,353.28418 L 333.53076,352.9668 L 334.40625,352.96924 C 334.96631,353.90039 337.17041,353.60449 338.19824,353.60449 L 338.19824,353.92138 L 337.90478,354.23583 L 336.44677,354.23339 L 336.44189,354.54784 L 335.85937,354.54882 L 335.5708,354.23193 L 335.27783,354.23095 L 334.98877,353.91552 L 334.10791,353.91552 L 334.11279,353.59765 L 333.81982,353.60009 L 333.53076,353.28418 z "
   style="fill:#fefee9;fill-rule:evenodd;stroke:none;stroke-width:1.27559996;stroke-linejoin:round;stroke-miterlimit:3.8636899"
   id="path97" />
			<path
   d="M 363.87061,360.59521 L 363.57715,360.59521 L 363.28809,360.91064 L 363.28809,360.59521 L 362.99463,360.59521 C 361.93311,359.74267 361.61231,359.41015 360.36719,359.85253 C 360.17285,359.92187 359.87744,360.05419 359.77979,360.27245 L 359.19776,360.27147 L 359.19776,359.95604 L 358.9043,359.95458 L 358.90918,359.63964 L 359.19775,359.64257 L 359.20263,357.74609 L 359.78466,357.43115 L 360.07861,357.74463 L 360.95898,357.74707 L 361.24755,357.43311 L 361.5415,357.43457 L 361.5415,356.80273 L 361.83496,356.80419 L 361.83496,356.17235 L 362.41699,356.48973 L 362.41699,356.80516 L 362.71045,356.80516 C 362.84424,357.37889 362.29297,358.11668 362.4126,358.70018 L 362.70557,358.69872 L 362.70557,359.0161 L 363.28809,359.01756 L 363.28809,359.33104 L 363.58204,359.3325 L 363.57716,359.96434 L 363.87062,359.96532 L 363.87062,360.59521 L 363.87061,360.59521 z "
   style="fill:#fefee9;fill-rule:evenodd;stroke:none;stroke-width:1.27559996;stroke-linejoin:round;stroke-miterlimit:3.8636899"
   id="path99" />
			<polygon
   points="318.32959,374.41357 317.74707,374.4126 317.74707,375.35986 317.4541,375.67529 316.57764,375.67432 316.28906,375.35742 316.28906,374.41113 315.99609,374.09521 315.70703,374.09521 315.41357,373.77832 315.41357,373.46533 315.70703,373.14746 317.16553,373.14893 317.4585,373.46631 318.04053,373.46631 318.04053,373.1499 318.33447,373.1499 318.33447,372.20264 319.20996,372.20508 319.79248,372.8374 319.79248,373.15137 320.37451,373.78564 320.37451,374.41748 320.08154,374.41504 319.7876,374.10059 318.62305,374.09766 318.32959,374.41357 "
   style="fill:#fefee9;fill-rule:evenodd;stroke:none;stroke-width:1.27559996;stroke-linejoin:round;stroke-miterlimit:3.8636899"
   id="polygon101" />
			<polyline
   style="fill:none;fill-rule:evenodd;stroke:#646464;stroke-width:3.54329991;stroke-linejoin:round;stroke-miterlimit:3.8636899"
   points="473.97998,337.98584 473.97998,314.98584 448.97998,312.48584 "
   id="polyline103" />
			<polyline
   style="fill:none;fill-rule:evenodd;stroke:#646464;stroke-width:3.54329991;stroke-linejoin:round;stroke-miterlimit:3.8636899"
   points="341.97998,277.48584 341.97998,300.48584 366.97998,302.98584 "
   id="polyline105" />
			<line
   style="fill:none;fill-rule:evenodd;stroke:#646464;stroke-width:1.70079994;stroke-linejoin:round;stroke-miterlimit:3.8636899"
   x1="156.97998"
   y1="301.48584"
   x2="156.97998"
   y2="363.48584"
   id="line107" />
		</g>
	</svg>