<?xml version="1.0" encoding="UTF-8" standalone="no"?>
<!-- Created with Inkscape (http://www.inkscape.org/) -->
<svg
   xmlns:svg="http://www.w3.org/2000/svg"
   xmlns="http://www.w3.org/2000/svg"
   version="1.0"
   width="881.76129"
   height="1296.5516"
   id="svg2278">
  <defs
     id="defs2280" />
  <g
     transform="translate(90.880657,115.91361)"
     id="layer1">
    <g
       transform="translate(-89.647097,-114.35046)"
       style="overflow:visible"
       id="Nevada">
			<rect
   width="878.7251"
   height="1293.2852"
   x="0.049320001"
   y="0.045170002"
   style="fill:#f6e1b9;fill-rule:evenodd"
   id="rect7" />
 
			<rect
   width="878.7251"
   height="1293.2852"
   x="0.049320001"
   y="0.045170002"
   style="fill:#f6e1b9;fill-rule:evenodd"
   id="rect9" />
 
			<path
   d="M 759.68262,1096.8001 C 759.81836,1097.9612 759.48096,1099.4534 759.69532,1100.5164 C 760.26026,1103.3157 762.30421,1104.9358 761.53126,1108.1853 C 762.33253,1109.1541 763.62745,1110.0652 764.75733,1110.596 C 764.33448,1112.5813 765.48536,1115.6067 766.62452,1117.2053 C 767.54835,1118.5027 769.88966,1120.4133 771.17774,1121.4324 C 770.39844,1122.0056 768.48878,1123.2068 767.46583,1123.2493 C 766.72755,1124.073 765.95606,1124.9109 765.1255,1125.6443 C 765.47657,1126.1868 766.6089,1128.0437 766.58888,1128.7019 C 766.06544,1130.1126 765.51222,1131.5203 764.88576,1132.8889 L 766.32912,1136.4768 C 765.50295,1137.6765 766.41066,1139.1536 766.54641,1140.3762 C 766.85989,1143.1902 765.62502,1146.9465 765.89993,1149.3757 C 766.13968,1151.4924 767.25345,1152.9548 768.50149,1154.5964 C 768.71047,1155.5276 767.95413,1156.3879 767.71975,1157.2229 C 767.46291,1158.1384 767.41653,1159.6086 767.43459,1160.5735 C 768.81057,1160.8557 770.70852,1164.6941 771.41897,1165.8425 C 772.29446,1167.2571 772.36331,1168.6086 772.30813,1170.2971 L 771.56838,1171.6858 L 769.105,1172.8381 L 770.28566,1173.7639 C 770.3755,1174.156 771.34328,1178.2786 771.34328,1178.4001 C 771.34377,1178.5779 770.40139,1183.0271 770.30617,1183.4944 L 769.06056,1184.5124 C 768.97169,1186.8298 769.83546,1191.9578 770.64894,1193.9436 C 770.96388,1194.7117 772.62013,1196.2414 772.96632,1197.033 C 773.72462,1198.7649 773.81642,1200.9685 774.50294,1202.7473 C 775.5171,1205.3748 779.27394,1211.3953 779.81983,1214.0818 C 780.56055,1217.7253 780.23731,1221.7444 780.81348,1225.4392 C 781.46241,1229.5979 782.37305,1233.7673 783.14844,1237.907 C 783.53174,1239.9558 784.06348,1242.0403 784.14112,1244.135 C 784.22803,1246.4944 783.64014,1250.366 782.81739,1252.5779 C 781.65626,1254.092 778.50538,1254.7209 776.73585,1254.1291 L 774.81446,1254.9456 C 774.39258,1255.6316 773.86378,1257.0906 774.02491,1257.9246 C 775.45509,1258.8894 777.00538,1259.8586 778.58497,1260.5642 L 779.55616,1262.3674 L 779.14649,1264.2991 C 776.43897,1265.9919 774.59424,1266.9348 773.96045,1270.1287 C 774.40283,1271.6067 774.83252,1273.0984 775.20899,1274.5945 L 722.88135,1224.3953 L 695.41553,1198.0344 L 487.67139,994.10327 L 279.79395,798.78784 L 14.21997,567.08374 L 15.59643,389.77515 L 15.6809,378.93384 C 15.68236,378.75073 15.94921,378.17359 15.97826,377.95044 C 16.1848,376.3606 15.85912,374.38208 15.80516,372.77026 C 15.79954,372.60034 16.1013,372.09448 16.10667,371.90796 C 16.12107,371.43433 15.87376,370.89429 15.87547,370.41773 C 15.9116,360.68873 15.88621,350.97486 15.76194,341.24732 C 15.76048,341.13184 16.11082,339.7688 16.15769,339.56983 C 16.17258,339.50684 16.11667,339.26685 16.10666,339.19288 C 15.59958,335.42188 15.62155,331.51539 15.70578,327.71388 C 15.73605,326.33326 16.09494,324.9026 16.08298,323.52662 C 16.07688,322.82301 15.70188,322.02467 15.65061,321.31324 C 15.54929,319.90577 15.62546,318.41163 15.61277,316.99635 L 15.44285,298.05641 C 15.43357,297.00465 15.55247,295.90138 15.60618,294.84816 C 15.6157,294.66286 15.96678,294.06862 15.95213,293.94313 C 15.20237,287.49782 15.5327,280.94899 15.51878,274.46242 C 15.51829,274.27565 15.79734,273.73781 15.82029,273.51882 C 15.92063,272.56423 15.47678,271.38576 15.4763,270.40944 C 15.47606,269.60622 15.71629,268.77174 15.71556,267.96901 C 15.71336,266.35451 15.54954,264.68849 15.46776,263.07326 C 15.45751,262.86989 15.77513,262.20973 15.76415,262.00807 C 15.72558,261.31471 15.34496,260.57277 15.29052,259.87721 C 15.25732,259.45485 15.48779,258.92457 15.48827,258.49171 L 15.50023,250.42848 C 15.50243,248.90455 15.78563,247.36549 15.76952,245.87282 C 15.76513,245.47145 15.4641,244.98854 15.45897,244.58718 C 15.4221,241.68386 15.28539,238.73391 15.34764,235.83327 C 15.40208,233.29665 15.78441,230.74221 15.81053,228.20705 C 15.84178,225.16921 15.15965,221.97487 15.66356,218.95485 L 15.3391,218.35964 L 15.22118,185.88894 C 15.21605,184.42971 15.50243,182.99026 15.50243,181.574 C 15.50243,180.90237 15.24169,180.18728 15.24291,179.51614 L 15.27099,163.63455 L 15.27758,160.0076 C 15.27782,159.80789 15.05346,159.34085 15.06982,159.16409 C 15.20263,157.72513 15.48437,156.12259 15.48291,154.6868 C 15.48242,154.13992 15.05933,153.46439 15.06348,152.91922 C 15.18335,136.98904 14.94654,121.07523 14.97461,105.14212 C 14.97583,104.46854 15.44531,103.65726 15.48828,102.97269 C 15.85278,97.18167 14.625,91.43778 14.88159,85.67411 C 14.91846,84.85136 15.17895,84.01005 15.20825,83.18778 C 15.32715,79.84647 14.83911,76.41019 14.82007,73.06034 C 14.80029,69.62626 14.98877,66.18436 14.98657,62.74979 C 14.98559,61.03788 14.80298,59.31571 14.8103,57.60404 C 14.81225,57.18632 15.02759,56.71219 15.01465,56.29838 C 14.79834,49.3289 14.08569,42.19853 14.21997,35.22465 L 24.44507,34.40898 C 26.04932,34.24296 27.92407,34.82695 29.55762,34.7913 C 29.93116,34.78324 30.48194,34.46195 30.85083,34.46073 C 41.81348,34.42753 52.84009,34.07841 63.79028,34.66044 C 63.96801,34.66972 64.54297,34.38505 64.73852,34.38505 C 73.44091,34.38651 83.42578,33.85185 91.89208,34.85136 C 92.03075,34.86796 92.39062,34.65947 92.53856,34.66923 C 96.68919,34.93608 100.26561,34.92826 104.38768,34.75346 C 104.52806,34.7476 104.9868,35.09257 105.14061,35.09623 L 119.21727,35.41239 C 119.75218,35.42435 120.36498,35.18876 120.90721,35.16093 L 123.49681,35.13749 C 129.81297,35.08036 135.39549,35.03129 141.69041,35.51395 C 141.79759,35.52176 142.35887,35.18192 142.50682,35.16727 C 144.4763,34.97098 146.63133,35.12284 148.61864,35.12455 L 172.54857,35.14555 C 173.21068,35.14604 173.86253,35.40458 174.47533,35.3997 C 175.71288,35.38945 176.97338,35.14653 178.21239,35.10624 C 181.68749,34.99345 185.18065,34.98954 188.65819,34.93925 C 215.1787,34.5579 241.70311,34.36088 268.22557,34.19731 C 324.06639,33.85307 379.91112,33.8853 435.75243,34.28593 L 440.08495,34.26493 C 482.88085,34.10551 525.68065,34.09354 568.4746,34.32328 C 581.51415,34.39335 594.56884,35.03959 607.60155,35.0037 C 613.25487,34.98808 618.94481,34.55936 624.60009,34.4285 C 630.79394,34.28495 637.03564,34.47098 643.23144,34.49393 C 643.52197,34.49515 643.94628,34.71903 644.22949,34.71024 C 655.50635,34.35917 666.7749,34.78153 678.05566,34.75028 C 678.14599,34.74979 679.17334,34.4473 679.32519,34.40604 C 679.41796,34.45121 680.13525,34.82547 680.18798,34.82499 C 686.49804,34.77055 692.78173,35.25321 699.04247,35.20487 L 712.66063,35.10038 C 713.64012,35.09281 714.63719,35.27665 715.61717,35.27665 C 718.00291,35.27665 720.49315,34.99638 722.88133,34.85893 L 722.95262,34.85478 C 726.49315,34.65361 730.07957,34.33427 733.62205,34.24858 C 738.02195,34.14213 742.46238,34.27568 746.86521,34.27568 C 749.67332,34.27568 752.54587,34.18413 755.34812,34.30009 C 759.29587,34.46342 763.28318,35.05253 767.228,35.11845 C 770.00339,35.16484 772.84909,34.66191 775.63083,34.63945 C 787.38132,34.54375 799.21823,35.08476 810.9697,35.31767 C 814.6196,35.39018 818.27536,35.74296 821.9238,35.77739 C 827.47995,35.82988 833.05124,35.73369 838.60886,35.71196 C 839.48728,35.7083 840.39597,35.49004 841.27195,35.50444 C 841.43601,35.50713 841.79978,35.76836 841.95945,35.76738 L 852.23972,35.70293 C 852.40574,35.70195 852.94577,35.99346 853.14402,36.01397 C 855.16062,36.22198 857.47019,36.24761 859.46238,35.80987 C 859.50828,54.84063 859.50926,73.87383 859.53269,92.90484 L 859.5615,94.56793 L 859.73484,94.57428 C 859.20066,96.68585 859.65086,99.38824 859.71091,101.54816 C 859.72116,101.93048 859.47507,102.37726 859.49558,102.75763 C 859.88816,110.09381 859.66013,117.43756 859.60788,124.78302 C 859.60446,125.29156 859.46921,126.27716 859.83933,126.69366 C 859.75242,127.30987 859.55124,128.09991 859.55417,128.71246 C 859.58249,135.56183 859.67526,142.41388 859.63962,149.26251 L 859.25144,223.53863 C 859.18992,235.42755 859.31687,247.35186 859.06638,259.23663 C 859.01413,261.71319 858.63718,264.20074 858.57859,266.67755 C 858.28757,279.01446 858.48484,291.42779 858.48484,303.76984 C 858.48484,326.03669 858.37205,348.30622 858.31589,370.57404 C 858.31296,371.67511 858.4614,373.08722 858.3071,374.16095 C 857.90964,376.9339 856.06198,387.59845 856.06784,389.77521 L 857.50388,920.96076 L 858.36277,920.95148 L 857.29929,1063.6072 L 856.64206,1065.3904 C 855.82663,1067.6024 854.81198,1069.8118 853.3071,1071.6444 C 852.57419,1072.5364 848.27487,1077.1785 847.82272,1077.9676 C 847.27292,1078.9256 847.51217,1080.9642 848.01852,1081.8675 L 846.39547,1083.2181 C 845.53707,1086.3421 845.03463,1089.6707 844.62399,1092.8778 L 842.67526,1093.6839 L 840.42721,1093.24 C 838.22701,1094.49 833.47701,1095.8362 830.92477,1095.6941 C 829.27194,1094.8997 826.59176,1092.5931 826.06002,1090.7278 C 824.04342,1090.2781 821.44186,1088.2772 820.10787,1086.783 L 820.91598,1083.8065 C 820.7778,1083.4647 819.3901,1079.949 819.31979,1079.8533 C 818.65231,1078.9432 812.62252,1074.0428 811.52877,1073.5413 L 807.0317,1072.4876 C 805.50436,1072.3895 803.13668,1074.5477 802.37984,1075.6756 L 801.16011,1075.6302 L 798.95161,1073.9569 C 797.88325,1073.6546 793.55708,1073.5828 793.55708,1073.5828 L 793.25874,1072.1561 L 790.24214,1071.9295 L 784.20894,1071.4769 C 783.62007,1071.5198 778.72505,1073.887 777.82613,1074.4334 C 776.53902,1073.8362 773.76217,1074.2078 772.5815,1074.7801 L 769.86617,1077.6932 C 766.43209,1078.66 761.35396,1079.3587 758.415,1081.1927 L 757.64303,1083.4652 C 759.18502,1086.3807 760.27584,1089.5516 762.41158,1092.119 L 762.35299,1093.8851 L 759.68262,1096.8001 z "
   style="fill:#fefee9;fill-rule:evenodd"
   id="path11" />

			<path
   d="M 878.479,1081.6238 C 877.60693,1081.2126 876.66162,1080.9197 876.34814,1079.8542 C 876.81787,1078.6272 875.83642,1076.3577 874.51904,1076.0085 C 873.92236,1076.0066 873.15185,1076.1101 872.60644,1076.3723 C 872.45654,1076.8474 871.95703,1077.4739 871.52539,1077.7234 C 870.45654,1078.0193 867.39111,1077.573 866.74365,1076.5281 C 866.82666,1075.78 867.0459,1075.031 867.11816,1074.2932 C 867.28955,1072.5344 867.15966,1070.6116 867.15966,1068.8362 C 866.74853,1068.2097 865.70654,1067.575 865.57958,1066.8611 C 865.39989,1065.8513 865.82812,1064.9187 865.03905,1064.0027 L 863.9995,1063.7429 C 863.54833,1064.0271 863.10888,1064.551 862.66942,1064.782 C 861.23387,1065.5373 859.937,1064.3669 858.51122,1064.5222 C 857.99706,1064.8494 858.03222,1067.0915 857.72313,1067.6189 C 856.80858,1069.1775 854.41844,1074.51 853.93797,1076.6321 C 853.38328,1076.6506 852.66063,1076.8484 852.19139,1077.1516 C 852.33397,1078.0681 852.8701,1079.092 852.81493,1080.01 C 852.71337,1081.7048 850.80175,1084.5852 850.15429,1086.2986 C 849.9248,1086.906 849.89501,1087.6452 849.69677,1088.2737 C 849.48681,1088.9392 849.16015,1089.5784 848.94872,1090.2488 C 848.36669,1092.0911 848.81737,1093.5305 848.5327,1095.2898 C 847.83446,1095.5422 844.24217,1095.0823 843.16942,1095.0823 C 842.18846,1095.0823 836.17381,1095.8586 835.60204,1096.2776 C 834.17772,1096.8855 832.34716,1097.3313 830.82079,1097.4207 C 829.29345,1095.2712 824.72753,1093.1955 822.29735,1092.3279 C 820.6411,1091.7361 818.93505,1091.7463 817.3911,1090.8206 C 817.79735,1090.094 818.81151,1087.8919 818.88768,1087.1306 C 819.11864,1084.8235 818.5576,1080.6101 816.72557,1078.971 C 816.16551,1078.9617 815.29832,1078.6453 814.89598,1078.2429 C 814.25438,1077.0403 814.40575,1078.2385 813.84813,1076.9939 L 812.85008,1077.0979 C 812.17918,1078.637 809.91551,1078.6736 811.11278,1080.3743 C 810.04833,1079.5823 809.3037,1078.9509 808.03563,1078.4509 L 807.16258,1078.7629 L 806.95457,1079.8543 C 807.86228,1081.4378 809.62303,1082.6253 808.45164,1084.6878 L 807.6616,1085.1038 C 804.58445,1084.0427 804.3281,1087.6038 802.83885,1088.8455 C 802.64989,1089.0027 801.61766,1089.3919 801.34178,1089.4695 L 800.26073,1089.2615 C 798.5703,1087.865 800.47509,1084.4583 799.05516,1082.7127 C 797.74364,1082.0725 795.41746,1082.012 794.48192,1080.842 C 793.61522,1079.7585 793.40526,1077.9251 792.77684,1076.6838 C 791.8535,1074.8616 789.12987,1072.5491 786.84813,1073.0564 C 786.24022,1073.6956 785.00389,1072.6301 784.50292,1073.3577 C 783.52392,1073.4837 782.97704,1074.0828 781.88329,1074.1375 C 781.09813,1074.1765 779.52538,1075.9397 778.78563,1075.8689 C 777.14745,1075.7112 776.16405,1075.0139 775.22313,1076.6189 C 774.93163,1077.1155 774.0161,1076.802 773.81737,1077.3596 C 773.05565,1077.9417 772.07762,1077.7805 771.28124,1078.2952 C 770.47802,1079.3977 770.57763,1080.9392 769.78417,1081.8811 C 767.51562,1083.6174 765.083,1081.8523 763.42284,1086.4031 C 763.63329,1088.6316 765.47313,1089.5457 765.50194,1091.3924 C 764.56346,1093.0379 761.86278,1096.3201 760.01366,1096.8494 L 759.05712,1096.3816 C 759.43651,1095.4832 760.87353,1092.6316 761.01171,1092.0677 L 760.34618,1091.2884 C 758.64452,1091.3421 758.01366,1092.8909 756.68749,1093.471 C 754.8662,1094.2679 749.61962,1090.9329 748.9121,1089.2093 L 748.9121,1088.1697 C 749.59667,1087.1761 750.62646,1086.346 750.70019,1085.0515 C 750.4414,1084.5037 750.31445,1083.7908 750.03515,1083.2845 C 749.55566,1082.4158 745.69189,1078.5193 744.79638,1077.8792 C 744.11865,1077.3958 743.12255,1076.9768 742.63427,1076.2683 C 742.54784,1076.1433 742.33202,1075.555 742.26025,1075.3846 L 742.80029,1074.865 C 744.05615,1075.344 746.69629,1075.1556 748.03906,1074.8133 C 748.64355,1074.659 749.33398,1074.243 749.95166,1074.1892 C 751.98828,1074.012 753.47607,1076.365 755.48145,1075.8523 C 756.4961,1075.5931 757.03272,1074.1375 758.4751,1074.1375 C 759.86572,1074.1375 760.37891,1075.514 762.21729,1075.4886 L 762.63331,1074.7093 C 762.32667,1073.6243 761.68214,1072.0599 761.84327,1070.9671 C 762.36231,1070.7376 763.33692,1070.8455 763.79737,1071.1751 C 764.52784,1072.2996 765.48731,1073.1267 766.87403,1073.2537 C 770.41309,1071.9124 770.49122,1073.595 773.23536,1070.2913 L 774.1504,1069.9798 C 779.51026,1072.6224 780.70948,1068.3162 785.04347,1068.3162 C 786.78273,1068.3162 788.94923,1068.2151 790.65626,1068.4207 C 791.71241,1068.5472 792.7256,1069.0159 793.73292,1069.2522 C 795.32081,1069.6243 797.66407,1069.2317 799.20753,1068.7498 C 799.66065,1068.6082 800.09962,1068.4266 800.42726,1068.0564 C 801.0713,1066.4016 800.05665,1065.3963 800.30226,1063.8987 C 801.15236,1058.7195 806.10841,1057.3406 805.55519,1050.074 C 805.45949,1048.8147 805.43507,1047.8001 805.04249,1046.5921 C 804.72218,1045.6072 803.95558,1044.2918 802.88038,1043.9417 C 802.97804,1043.3348 803.22657,1042.5769 803.58692,1042.0706 L 803.3794,1041.0833 C 802.8667,1040.8157 802.36475,1040.5184 801.88233,1040.1995 L 801.59131,1039.3162 C 801.84717,1038.3724 802.44385,1037.596 802.71387,1036.6653 C 803.24756,1036.6575 804.05957,1036.4627 804.50196,1036.1458 C 805.26758,1035.2684 805.36915,1032.6961 806.16505,1031.3123 C 807.18702,1029.535 808.38185,1027.5921 809.57423,1025.907 C 810.29249,1024.8924 811.86036,1023.5799 812.27687,1022.4769 C 813.02101,1020.5071 812.08058,1017.5862 810.28126,1016.5003 C 809.78077,1016.4349 808.94044,1016.594 808.53517,1016.9158 L 807.45363,1016.7078 L 807.28761,1015.7205 L 807.78663,1014.785 L 807.66163,1013.9017 C 807.18018,1013.0955 806.23097,1012.9402 805.74903,1012.1346 C 805.68555,1010.97 805.89405,1008.6561 806.37305,1007.6131 L 807.37061,1007.4568 C 807.7876,1008.1746 808.18213,1008.9168 808.74268,1009.5359 C 809.46436,1009.7034 812.0337,1011.5223 812.35987,1012.1346 C 812.63184,1012.6443 812.72559,1013.2674 813.0254,1013.7977 L 813.98145,1014.1097 L 814.64698,1013.5897 L 814.896,1012.6541 C 814.61426,1011.7166 813.81543,1010.0403 813.77393,1009.1722 L 814.14795,1008.2366 C 816.95117,1007.4251 815.93506,1000.6819 815.97705,998.46562 C 815.99853,997.35136 816.28125,996.1082 816.39307,994.98369 C 816.96436,995.575 817.29834,996.31035 817.59912,997.06279 C 819.74609,1002.4305 815.04248,1007.9808 818.26416,1011.7186 C 817.73242,1013.0555 816.54932,1013.4378 816.68408,1015.1487 C 816.88769,1015.6639 817.31787,1016.2112 817.47412,1016.7078 C 817.66064,1017.2996 817.5083,1018.1121 817.72363,1018.6829 C 818.46533,1020.6531 820.37842,1021.6497 820.25976,1024.4002 C 820.12792,1027.4539 816.77441,1028.7674 815.52001,1030.7923 C 814.46581,1032.494 813.07519,1034.534 812.27685,1036.3533 C 811.82324,1037.388 811.2788,1038.7737 811.2788,1039.8875 C 811.27929,1042.7703 811.96532,1045.8123 811.65331,1048.6707 C 811.21874,1052.6526 809.20019,1056.6248 809.20019,1060.6248 C 809.20019,1063.0145 809.98339,1065.1253 811.15429,1067.1732 C 811.40185,1067.8841 811.82909,1068.1541 812.31835,1068.5247 C 814.82665,1070.4246 815.40966,1072.4988 817.30761,1074.3973 C 818.53906,1075.6287 820.49267,1075.4608 821.79833,1077.4637 C 824.38915,1081.4383 823.02489,1083.1282 824.08495,1085.4153 C 825.63134,1086.3475 827.88671,1086.4295 829.15722,1087.91 L 829.40722,1088.7938 L 828.20117,1088.6375 L 827.66064,1089.2615 C 827.88818,1091.1668 828.82373,1091.0433 830.15527,1091.6522 C 830.86474,1091.9764 831.51172,1092.8792 832.19287,1093.2112 C 833.90039,1094.0442 836.75244,1093.8152 838.51221,1093.3152 C 839.05957,1093.16 839.45069,1092.6141 839.92627,1092.3797 C 841.04346,1091.8284 842.16016,1091.7288 842.96143,1090.5608 C 844.82569,1087.8421 843.05225,1084.1419 843.91748,1081.2054 C 844.33838,1079.7781 844.75098,1079.9656 845.41455,1078.971 C 845.91016,1078.2273 846.37793,1077.2312 846.78662,1076.4241 C 847.78711,1074.4485 848.29932,1072.178 849.40576,1070.2913 C 850.53076,1068.3738 852.8042,1068.2029 853.89599,1066.3416 C 854.40771,1065.4695 855.43798,1062.4192 855.93359,1061.9236 C 857.23095,1060.6267 859.53027,1061.9192 860.88134,1059.949 C 862.48779,1057.6067 860.31396,1053.7722 863.74999,1052.0491 L 864.70653,1052.4129 C 865.312,1053.4212 865.04882,1054.3123 865.20555,1055.3753 C 865.4116,1056.7761 866.73973,1057.9627 866.95164,1059.3255 C 867.09129,1060.2205 866.72215,1060.5877 866.57762,1061.3523 C 866.09373,1063.9051 868.09617,1066.2449 870.0283,1067.5887 L 870.27781,1068.3162 C 869.13719,1070.6272 870.39597,1072.9295 872.85593,1073.4617 C 874.26267,1073.7664 875.63474,1073.0276 876.97214,1073.7215 C 878.87448,1076.0999 877.8989,1076.8103 878.2529,1078.5852 L 878.479,1081.6238 z "
   style="fill:#c6ecff;fill-rule:evenodd"
   id="path13" />

			<path
   d="M 66.9292,915.72192 L 65.9729,915.87768 L 65.26611,915.35815 L 64.39282,915.66967 C 63.79175,916.71459 63.33374,917.80151 62.48022,918.68432 C 61.32812,919.8767 58.11767,921.42455 56.49316,920.76342 C 56.21411,920.64965 55.37719,919.86938 55.16259,919.61987 C 55.24877,919.16235 55.62817,918.26684 55.99413,917.95678 C 56.60009,917.4436 57.60839,917.12719 58.28075,916.65746 C 60.1245,915.36937 61.73241,913.44066 63.60302,912.23998 C 65.70019,910.8933 66.61303,911.90307 68.4475,909.21215 C 67.22168,911.81079 70.69727,912.38159 66.9292,915.72192 z "
   style="fill:#c6ecff;fill-rule:evenodd;stroke:none;stroke-width:1.27559996;stroke-linejoin:round;stroke-miterlimit:3.8636899"
   id="path15" />

			<path
   d="M 202.12305,637.83081 C 201.56739,637.96362 200.59473,637.75854 200.16846,637.36255 C 199.38379,636.27857 199.15479,634.08374 198.33936,633.20484 C 197.27295,632.05591 195.86426,631.57593 194.63892,630.76246 C 192.96192,629.64869 190.59497,624.9026 190.35645,622.91432 C 190.07618,620.57741 191.26734,618.59987 191.18799,616.41774 C 191.10449,614.12038 189.39185,613.84645 189.98218,610.64919 C 190.18433,609.55398 190.67822,608.89382 191.14624,607.94655 C 191.57959,607.06911 192.52978,603.89967 192.60156,602.9568 C 192.89624,599.08864 190.16333,598.39674 190.86914,594.20826 C 190.95605,593.69312 191.0769,593.18043 191.4375,592.77076 C 192.12744,593.11012 194.2749,595.78053 194.80518,596.4607 C 195.98584,597.97535 196.21924,599.94068 197.0918,601.60572 C 198.10596,603.5398 200.1167,606.4148 201.58252,608.05054 C 202.36035,608.9187 203.21387,609.62866 203.53662,610.80493 C 203.8501,611.94848 203.51758,612.90063 203.45312,614.0271 C 203.35449,615.75659 203.95214,617.52319 203.95214,619.27612 C 203.95214,621.2102 203.38769,623.2146 203.61962,625.14917 C 203.86669,627.20825 205.979,630.89673 205.53222,632.52954 C 205.23682,633.60913 203.08154,637.22583 202.12305,637.83081 z "
   style="fill:#c6ecff;fill-rule:evenodd;stroke:none;stroke-width:1.27559996;stroke-linejoin:round;stroke-miterlimit:3.8636899"
   id="path21" />

			<path
   d="M 98.63574,405.46265 C 98.44287,406.22046 95.71948,411.66529 95.26806,412.16675 C 94.90112,412.57446 94.31664,412.93726 93.89575,413.3103 C 93.0542,413.49389 91.6626,413.20337 91.0271,412.58276 C 90.23047,411.80493 89.73901,410.46753 89.07275,409.56811 C 88.77417,409.16479 88.37793,408.84008 87.97802,408.54614 C 85.5874,406.78784 83.90917,403.68774 81.4641,402.23999 C 79.65844,401.17114 75.37084,400.81909 74.10497,399.17358 C 73.76171,398.72729 73.781,398.09253 73.5642,397.61499 C 72.48217,395.22778 70.78295,394.66968 70.36278,391.17017 C 70.05028,388.56568 70.00316,385.69117 68.65819,383.32251 C 66.45287,379.43823 61.74608,378.90308 60.25951,376.72192 C 58.93651,374.78051 59.63964,371.96313 58.22216,369.3938 C 57.52831,368.13599 56.20849,366.41773 57.47387,365.02808 C 58.57812,364.01831 60.36572,364.82032 61.25732,363.88477 C 62.583,362.22046 61.07324,359.08838 64.25097,356.66089 C 65.38818,355.79175 67.40771,355.3794 68.75512,354.58179 C 69.20727,354.31421 69.52734,353.98291 69.94701,353.698 C 72.2495,352.13599 75.60521,352.68482 78.17943,353.16138 C 79.64061,353.4314 81.77049,353.18189 83.00243,354.06201 C 83.90575,354.70727 84.77318,357.20679 84.91503,358.27173 C 84.99657,358.88257 84.87572,359.48071 84.98437,360.12549 C 85.2788,361.87036 85.8164,363.54346 86.03759,365.34009 C 86.25512,367.10669 86.18359,368.91089 86.45361,370.69312 C 86.85498,373.344 88.03344,375.64283 88.03344,378.43726 C 88.03344,379.29615 87.86352,382.29956 87.61767,383.0105 C 87.40893,383.61353 86.93969,384.15894 86.86913,384.82984 C 86.79882,385.49683 87.04662,386.27125 86.99413,386.9607 C 86.83812,389.00904 86.64306,391.36256 87.20189,393.40504 C 89.31201,401.11646 97.60059,401.63794 98.63574,405.46265 z "
   style="fill:#c6ecff;fill-rule:evenodd;stroke:none;stroke-width:1.27559996;stroke-linejoin:round;stroke-miterlimit:3.8636899"
   id="path23" />

			<path
   d="M 230.68701,439.08862 C 232.26172,438.10376 232.36865,435.73706 233.43115,434.30737 C 234.04638,433.47876 240.30322,428.58862 241.16455,428.38257 C 241.26904,428.35718 242.12744,428.38257 242.28711,428.38257 C 242.61816,428.8689 242.6875,429.85864 242.53662,430.40894 C 239.92187,433.80054 238.31445,435.61939 239.62598,440.12818 C 239.9043,441.08472 240.46924,441.95338 240.33301,442.98658 L 239.54297,443.40211 C 238.90869,444.82399 237.41113,449.86305 237.29785,451.35426 C 237.19287,452.73121 238.08105,453.91822 237.75488,455.30397 C 237.3789,455.72292 236.78662,456.14333 236.2583,456.34352 L 235.42676,455.82399 C 234.9375,454.20631 235.80811,452.40114 234.67822,450.88649 C 230.66894,449.40211 229.54541,452.89235 227.85937,453.38063 C 227.07128,452.72536 226.97021,451.81032 226.73681,450.88649 C 226.48144,449.87379 226.00683,449.0193 226.4873,447.97585 C 227.14257,446.55349 230.82861,446.32448 232.18359,446.41677 C 233.35986,446.49685 234.94726,447.09402 235.88427,447.82009 L 236.4248,447.30056 C 236.66503,445.7781 236.43115,444.25368 236.38281,442.72683 L 235.50976,442.25906 C 234.53564,442.4324 234.00292,443.29666 233.01513,443.45437 C 232.12109,443.21999 231.01122,442.82009 230.27099,442.25906 C 228.55663,442.18338 226.05908,443.08572 224.78271,442.77859 C 223.56787,442.4866 222.70947,441.28445 221.33203,441.1155 C 220.50098,441.01345 218.73779,440.9153 217.92236,441.0115 C 217.59814,441.04959 217.20117,441.21951 216.88281,441.21951 C 215.80664,441.21951 214.57275,440.63553 213.47363,440.49197 L 213.43213,439.40066 L 213.88916,438.56912 C 214.60596,438.70877 215.54395,438.98465 216.25928,438.98465 C 216.92823,438.98465 217.65918,438.65799 218.33838,438.62088 C 219.07471,438.58084 219.84668,438.7615 220.5835,438.77713 C 221.38916,438.79373 222.23682,438.61844 223.03662,438.67264 C 224.10205,438.74588 225.44238,439.19412 226.4873,439.14041 C 227.78809,439.07397 228.80664,438.0769 230.68701,439.08862 z "
   style="fill:#c6ecff;fill-rule:evenodd;stroke:none;stroke-width:1.27559996;stroke-linejoin:round;stroke-miterlimit:3.8636899"
   id="path25" />

			<path
   d="M 111.31689,349.9563 C 112.12988,352.02612 115.14428,352.13086 115.5996,355.51734 C 115.29149,356.43189 114.57836,357.00172 114.01952,357.7522 C 112.55858,359.71338 111.18163,362.31421 110.90111,364.76831 C 110.49974,368.28101 111.56664,371.75269 111.7744,375.2146 C 111.84544,376.39917 111.64964,377.52515 111.64964,378.69702 C 111.64964,380.54077 111.98216,382.41382 111.98216,384.25806 C 111.98216,384.59449 111.86009,385.0232 111.89915,385.34937 C 112.0825,386.87623 113.0803,388.30689 113.39598,389.76685 C 113.83275,391.78736 112.99193,395.24878 112.31468,397.19898 C 111.65721,397.948 108.44603,398.75171 107.49168,398.65406 C 106.01683,398.11011 105.18821,396.15015 104.94163,394.68726 C 104.70359,393.27222 104.10301,391.27662 104.29026,389.87085 C 104.46531,388.55884 105.49607,387.37134 105.49607,385.92065 C 105.49607,384.92358 105.20603,383.85571 105.28806,382.80249 C 105.37497,381.69116 105.87009,380.73999 105.87009,379.58032 C 105.87009,378.87085 105.68698,378.19702 105.62082,377.50171 C 105.42844,375.48413 105.63767,372.59351 105.78708,370.53735 C 105.92014,368.70874 106.53537,366.68139 106.53537,364.87231 C 106.53537,364.20776 106.2861,363.4895 106.2861,362.79321 C 106.2861,360.93042 106.09714,359.21801 105.99508,357.38842 C 105.90963,355.8601 106.36666,354.29467 106.2861,352.81469 C 106.24777,352.11498 106.02267,351.46557 106.03659,350.73559 C 106.05905,349.5559 106.34518,348.40283 106.41086,347.25366 C 106.53195,345.13379 105.98752,342.448 106.53537,340.39331 C 107.61545,336.34448 113.73605,335.6687 115.0173,338.36645 C 115.09665,338.5332 115.36081,340.12963 115.39157,340.39331 C 116.0249,345.80347 111.09839,345.98169 111.31689,349.9563 z "
   style="fill:#c6ecff;fill-rule:evenodd;stroke:none;stroke-width:1.27559996;stroke-linejoin:round;stroke-miterlimit:3.8636899"
   id="path27" />

			<path
   d="M 428.63867,546.46362 L 428.59717,545.32007 L 429.38721,544.9563 C 431.87696,545.80884 431.54932,547.29663 432.17285,549.26978 C 432.27295,549.5857 432.56543,549.94166 432.63037,550.25708 C 432.70703,550.63306 432.57959,551.11743 432.63037,551.50464 C 432.78955,552.7273 433.43799,553.91187 433.71142,555.09058 C 433.86425,555.75122 433.83398,556.49488 433.91894,557.16968 C 434.03808,558.11255 434.34033,559.13941 434.37646,560.07984 C 434.5083,563.53541 434.16162,569.39722 430.63427,571.25416 C 427.54491,572.88014 426.80712,569.96559 424.18993,569.90309 C 423.11278,569.87672 421.9663,570.32301 420.86376,570.21461 C 419.82909,570.11305 418.85937,569.23268 418.1748,568.49977 C 416.97412,567.21217 417.20849,565.7317 417.6206,564.18581 C 419.32519,557.7947 419.48828,559.44558 423.19189,554.98659 C 423.79248,554.26345 424.21289,553.37087 424.81347,552.64772 C 425.15868,552.23219 425.62206,551.90846 425.93603,551.4529 C 427.02295,549.87671 427.37402,547.98071 428.63867,546.46362 z "
   style="fill:#c6ecff;fill-rule:evenodd;stroke:none;stroke-width:1.27559996;stroke-linejoin:round;stroke-miterlimit:3.8636899"
   id="path29" />

			<path
   d="M 274.63477,578.37427 C 273.53565,579.28784 272.4751,580.25122 271.51612,581.28443 C 269.92383,583.00074 266.5171,584.84205 269.188,587.90259 C 270.0337,588.87134 270.72657,589.26587 272.05665,589.02857 C 273.46485,588.77711 275.66554,586.68628 277.33692,585.8064 L 278.41797,586.06617 C 279.84131,587.71851 280.49756,590.20191 279.24951,592.09498 C 278.68359,592.32008 278.20947,592.67359 277.66992,592.92652 C 276.48877,593.48023 275.30664,593.50464 274.17724,594.27759 L 273.96923,595.31714 C 274.60107,595.94995 275.18896,596.7771 275.1748,597.70776 C 274.8955,598.15405 274.41992,598.62964 273.96923,598.90307 C 271.06835,599.44653 268.41454,596.78149 266.27734,595.26537 C 265.29785,594.57055 261.44091,592.53783 260.33154,592.35473 C 255.45654,591.54955 254.39941,596.3269 251.47558,595.00561 C 248.93456,592.95288 251.32958,589.58129 250.93505,587.10571 C 250.31493,585.35815 247.7871,586.00415 246.61083,585.13061 C 246.2871,584.61108 246.04442,583.8684 245.98729,583.25952 C 246.94383,581.6228 248.75877,580.74341 250.03417,579.448 C 252.74315,576.698 256.66698,572.88452 260.58105,572.03345 C 263.2705,571.44898 267.32519,572.3396 270.06103,572.79566 C 270.60498,572.88648 271.24658,572.84205 271.76562,572.96949 C 273.51465,573.39771 275.25732,576.73169 274.63477,578.37427 z "
   style="fill:#c6ecff;fill-rule:evenodd;stroke:none;stroke-width:1.27559996;stroke-linejoin:round;stroke-miterlimit:3.8636899"
   id="path31" />

			<path
   d="M 296.33789,366.5354 C 295.56055,366.48315 294.78027,366.39624 294.00977,366.27563 C 293.38526,365.6604 292.56836,365.12622 292.30518,364.24853 L 292.4712,361.90991 C 293.0796,361.34399 294.12647,359.6084 294.5088,358.8435 C 294.63819,358.58422 294.65577,358.20532 294.79982,357.95971 C 294.94044,357.72021 295.25832,357.51562 295.42336,357.28442 C 296.02297,356.44482 296.68264,355.19751 297.16994,354.26977 C 299.38039,350.05981 300.69094,345.13745 300.50978,340.39331 C 300.44289,338.6355 298.96242,334.19507 299.33156,332.90942 C 299.69728,331.63696 300.55422,330.81518 301.28566,329.79077 C 301.81398,329.052 302.16164,328.13843 302.61623,327.34839 C 302.53078,326.61524 302.5801,325.78735 302.69973,325.06128 C 304.08059,324.49976 306.04739,325.82764 306.52493,327.14038 C 307.17532,328.9292 307.52395,333.7959 308.43753,335.40405 C 309.49319,337.26391 311.89407,338.07177 311.84671,340.44531 C 311.82474,341.55664 310.07816,344.90307 309.60159,346.21411 C 308.58743,349.00366 308.10891,352.031 306.89895,354.73755 C 305.75247,357.30225 300.22024,364.18506 297.91799,365.70386 C 297.43994,366.01929 296.84863,366.26636 296.33789,366.5354 z "
   style="fill:#c6ecff;fill-rule:evenodd;stroke:none;stroke-width:1.27559996;stroke-linejoin:round;stroke-miterlimit:3.8636899"
   id="path33" />

			<path
   d="M 266.40234,266.28101 L 265.94482,267.00855 C 262.37109,268.30689 259.04443,265.43531 257.46289,266.54078 C 256.85547,267.01734 256.86133,267.54688 256.54834,268.15186 C 255.81494,269.56885 254.37451,270.09034 253.7207,271.63404 C 253.2959,272.63843 253.62939,273.63746 253.09716,274.54468 C 252.41552,275.7063 251.5703,276.10938 250.93505,277.55884 C 251.29443,279.99634 252.21093,282.40943 255.25927,281.92456 L 256.00781,282.49634 C 256.10693,282.91187 257.11914,289.26441 257.13037,289.5647 C 257.20019,291.44556 255.88818,293.5625 255.42578,295.3855 C 254.97217,297.17359 254.71924,298.82691 254.09521,300.58252 C 252.93115,299.56958 254.62597,291.42358 254.55224,289.40845 C 254.3999,285.21997 249.05175,283.72364 249.18896,276.8833 C 249.22949,274.85669 249.46093,273.02368 250.38085,271.18384 C 251.84911,268.24634 252.43651,267.29859 255.55028,265.91724 C 256.27977,265.08472 256.1826,263.69019 257.21337,262.48682 C 257.83349,262.23609 258.67089,262.13745 259.33398,262.17505 C 260.02197,262.74341 260.40234,263.46069 260.99707,264.0979 C 262.15674,265.34058 264.71924,266.46851 266.40234,266.28101 z "
   style="fill:#c6ecff;fill-rule:evenodd;stroke:none;stroke-width:1.27559996;stroke-linejoin:round;stroke-miterlimit:3.8636899"
   id="path41" />

			<polygon
   points="266.19434,905.85132 266.60986,906.73462 266.90088,907.56616 267.10889,908.55396 267.27539,909.54126 267.31689,910.63257 266.85938,911.56812 266.36035,912.19165 265.32129,912.29565 264.28174,912.13989 263.4502,911.56812 262.86816,910.84058 262.57715,910.11304 262.36914,909.12573 262.32764,908.03394 262.28613,906.89087 262.49365,905.85132 262.90967,904.86401 263.57471,904.49976 264.44824,904.18823 265.2793,904.70776 265.82031,905.38354 266.19434,905.85132 "
   style="fill:#c6ecff;fill-rule:evenodd;stroke:none;stroke-width:1.27559996;stroke-linejoin:round;stroke-miterlimit:3.8636899"
   id="polygon49" />

			<polygon
   points="193.14209,803.72583 193.59937,804.66138 193.76587,805.59692 193.93213,806.53198 194.14014,807.46802 194.47266,808.29956 194.51416,809.33862 194.80518,810.22241 195.01294,811.20972 195.17944,812.19751 195.22095,813.28882 195.1377,814.48413 195.05469,815.7312 195.63672,816.35474 196.17725,816.97876 195.67822,817.65454 194.76367,817.96606 193.68262,818.01831 192.55981,817.8103 191.60376,817.55054 190.64746,817.08276 189.81592,816.71899 189.06738,816.14722 188.5271,815.52368 187.94482,814.79614 187.77856,813.91235 188.15283,813.08081 188.69312,812.40503 189.40015,811.83325 190.27319,811.41772 191.02148,811.10571 191.68701,810.53442 192.01953,809.59839 191.93628,808.45532 191.77002,807.51978 191.68701,806.53198 191.39575,805.64868 191.22949,804.66138 190.93848,803.82983 190.60596,802.94604 190.56421,801.90698 191.31274,801.33521 192.10254,801.02319 192.64307,801.69897 192.85107,802.63452 193.14209,803.72583 "
   style="fill:#c6ecff;fill-rule:evenodd;stroke:none;stroke-width:1.27559996;stroke-linejoin:round;stroke-miterlimit:3.8636899"
   id="polygon51" />

			<path
   d="M 624.0957,77.72583 L 623.63867,78.50513 C 623.46728,80.8064 625.71679,84.70191 624.88574,86.30103 C 623.55371,87.89673 621.19287,87.4773 619.48095,88.22413 C 618.36425,88.7107 617.01757,89.20924 615.98827,89.83521 C 614.48143,90.75147 613.59032,91.62964 611.70556,91.75806 C 609.81152,91.88745 607.84765,91.41333 606.17577,90.51099 C 604.67138,89.69898 603.0122,88.42847 601.81005,87.23658 C 601.437,86.86646 601.20019,86.27662 600.812,85.88526 C 599.24071,84.30128 593.55321,79.17481 592.82909,77.56983 C 592.96093,76.469 593.22411,75.18433 593.2036,74.08765 C 593.18309,73.02564 592.65087,72.39478 592.28856,71.48902 C 591.71044,70.04322 591.37206,68.41724 590.79198,66.96754 C 590.27098,65.66505 587.4243,61.38233 586.46825,60.3152 C 585.39891,59.12184 581.82323,57.12819 580.31444,56.20924 C 579.74803,55.86427 579.3701,55.39723 578.85936,55.01393 C 577.41747,53.93263 576.00682,52.84352 574.57665,51.73952 C 574.09032,50.78151 574.48241,49.68483 574.11962,48.77712 C 573.64355,47.58718 571.32616,47.05349 570.29442,46.12673 C 569.12596,45.07693 568.65428,43.76296 567.7578,42.54055 C 566.937,41.42068 565.31981,39.4407 564.34862,38.48659 C 563.02782,37.18971 561.53417,36.14113 560.10741,34.95241 C 558.55516,33.65895 557.27587,31.95583 555.65868,30.74294 C 553.30614,28.97854 550.15282,28.34694 547.75927,26.63698 C 546.44384,25.69753 546.26171,24.02883 545.63866,22.68703 C 544.97167,21.25173 542.93163,18.89431 541.64696,17.95754 C 537.63671,15.03396 535.42675,16.18313 531.11425,16.91823 C 530.60986,17.00417 529.78222,17.23512 529.29833,17.178 C 526.59325,16.85915 525.69726,11.59157 523.89306,10.21364 C 522.69482,9.29836 517.99609,9.24489 516.03515,8.4988 C 514.67187,7.98025 514.25585,7.04934 513.49902,5.95192 C 512.3164,4.23756 511.12695,2.21486 510.81103,0.09401"
   style="fill:none;fill-rule:evenodd;stroke:none;stroke-width:1.27559996;stroke-linejoin:round;stroke-miterlimit:3.8636899"
   id="path59" />

			<path
   d="M 23.62939,551.19263 C 23.39843,552.21363 22.85473,553.26831 22.79785,554.31128 C 22.66455,556.75366 23.72168,559.53784 23.29687,561.89868 C 23.06713,563.17554 22.33129,564.573 22.17431,565.84888 C 22.00512,567.22242 22.49999,568.76294 22.42358,570.16236 C 22.09765,576.14283 18.43164,577.40015 13.11035,576.97095 C 10.95288,578.63404 7.86792,578.26343 5.95898,576.39917 C 5.30102,575.75659 4.94775,574.90796 4.17114,574.37231 C 3.05371,574.1062 2.03442,574.66333 0.92798,574.32055 L 0.84473,573.22875 C 1.13648,572.81469 1.47852,571.80004 1.46851,571.3059 C 1.44312,570.04369 0.60547,568.90942 0.04932,567.7976 L 0.04932,536.03783 C 0.52149,535.7517 0.95118,535.40892 1.2605,534.92553 C 1.89771,533.92992 2.13745,532.44213 2.59107,531.33959 C 3.31812,529.57201 6.07618,525.90111 7.87134,525.20678 C 10.5398,524.17407 11.54273,526.25268 13.65064,526.45385 C 17.39576,525.39819 16.80713,521.10082 20.59449,521.10082 C 21.31983,521.10082 22.18165,521.52123 22.78394,521.8977 C 25.39747,523.531 24.32398,524.35815 24.46094,526.86987 C 24.68921,531.05493 26.18726,532.45971 25.00147,537.52417 C 24.344,540.33179 22.06788,544.48657 21.92481,546.93091 C 21.82129,548.69604 23.20312,549.65747 23.62939,551.19263 z "
   style="fill:#c6ecff"
   id="path67" />

			<path
   d="M 435.70752,0.2439 C 435.58057,11.58228 435.74121,22.94849 435.75244,34.28589"
   style="fill:none;fill-rule:evenodd;stroke:#646464;stroke-width:3.61409998;stroke-linejoin:round;stroke-miterlimit:3.8636899"
   id="path73" />

			<path
   d="M 435.75244,34.28589 C 379.91113,33.88526 324.0664,33.85303 268.22558,34.19727 C 241.70312,34.36084 215.1787,34.55787 188.6582,34.93921 C 185.18066,34.9895 181.6875,34.99341 178.2124,35.1062 C 176.97339,35.14648 175.71289,35.3894 174.47534,35.39966 C 173.86255,35.40454 173.21069,35.146 172.54858,35.14551 L 148.61865,35.12451 C 146.63135,35.1228 144.47632,34.97095 142.50683,35.16723 C 142.35888,35.18188 141.7976,35.52172 141.69042,35.51391 C 135.3955,35.03124 129.81298,35.08032 123.49682,35.13745 L 120.90722,35.16089 C 120.36498,35.18872 119.75219,35.42432 119.21728,35.41235 L 105.14062,35.09619 C 104.98681,35.09253 104.52807,34.74756 104.38769,34.75342 C 100.26562,34.92822 96.6892,34.93604 92.53857,34.66919 C 92.39062,34.65942 92.03076,34.86792 91.89209,34.85132 C 83.42578,33.85181 73.44092,34.38648 64.73853,34.38501 C 64.54297,34.38501 63.96802,34.66968 63.79029,34.6604 C 52.84009,34.07837 41.81348,34.42749 30.85084,34.46069 C 30.48194,34.46191 29.93116,34.7832 29.55763,34.79126 C 27.92409,34.8269 26.04933,34.24292 24.44508,34.40894 L 14.86647,35.3982"
   style="fill:none;fill-rule:evenodd;stroke:#646464;stroke-width:3.61409998;stroke-linejoin:round;stroke-miterlimit:3.8636899"
   id="path75" />

			<line
   style="fill:none;fill-rule:evenodd;stroke:#646464;stroke-width:3.61409998;stroke-linejoin:round;stroke-miterlimit:3.8636899"
   x1="878.7207"
   y1="35.535889"
   x2="859.4624"
   y2="35.809811"
   id="line77" />

			<path
   d="M 435.75244,34.28589 L 440.08496,34.26489 C 482.88086,34.10547 525.68066,34.0935 568.47461,34.32324 C 581.51416,34.39331 594.56885,35.03955 607.60156,35.00366 C 613.25488,34.98804 618.94482,34.55932 624.6001,34.42846 C 630.79395,34.28491 637.03565,34.47094 643.23145,34.49389 C 643.52198,34.49511 643.94629,34.71899 644.2295,34.7102 C 655.50636,34.35913 666.77491,34.78149 678.05567,34.75024 C 678.146,34.74975 679.17335,34.44726 679.3252,34.406 C 679.41797,34.45117 680.13526,34.82543 680.18799,34.82495 C 686.49805,34.77051 692.78174,35.25317 699.04248,35.20483 L 712.66064,35.10034 C 713.64013,35.09277 714.6372,35.27661 715.61718,35.27661 C 718.00292,35.27661 720.49316,34.99634 722.88134,34.85889 L 722.95263,34.85474 C 726.49316,34.65357 730.07958,34.33423 733.62206,34.24854 C 738.02196,34.14209 742.46239,34.27564 746.86522,34.27564 C 749.67333,34.27564 752.54588,34.18409 755.34813,34.30005 C 759.29588,34.46338 763.28319,35.05249 767.22801,35.11841 C 770.0034,35.1648 772.8491,34.66187 775.63084,34.63941 C 787.38133,34.54371 799.21824,35.08472 810.96971,35.31763 C 814.61961,35.39014 818.27537,35.74292 821.92381,35.77735 C 827.47996,35.82984 833.05125,35.73365 838.60887,35.71192 C 839.48729,35.70826 840.39598,35.49 841.27196,35.5044 C 841.43602,35.50709 841.79979,35.76832 841.95946,35.76734 L 852.23973,35.70289 C 852.40575,35.70191 852.94578,35.99342 853.14403,36.01393 C 855.16063,36.22194 857.4702,36.24757 859.46239,35.80983"
   style="fill:none;fill-rule:evenodd;stroke:#646464;stroke-width:3.61409998;stroke-linejoin:round;stroke-miterlimit:3.8636899"
   id="path79" />

			<path
   d="M 859.4624,35.80981 C 859.5083,54.84057 859.50928,73.87377 859.53271,92.90478 L 859.56152,94.56787 L 859.73486,94.57422 C 859.20068,96.68579 859.65088,99.38818 859.71093,101.5481 C 859.72118,101.93042 859.47509,102.3772 859.4956,102.75757 C 859.88818,110.09375 859.66015,117.4375 859.6079,124.78296 C 859.60448,125.2915 859.46923,126.2771 859.83935,126.6936 C 859.75244,127.30981 859.55126,128.09985 859.55419,128.7124 C 859.58251,135.56177 859.67528,142.41382 859.63964,149.26245 L 859.25146,223.53857 C 859.18994,235.42749 859.31689,247.3518 859.0664,259.23657 C 859.01415,261.71313 858.6372,264.20068 858.57861,266.67749 C 858.28759,279.0144 858.48486,291.42773 858.48486,303.76978 C 858.48486,326.03663 858.37207,348.30616 858.31591,370.57398 C 858.31298,371.67505 858.46142,373.08716 858.30712,374.16089 C 857.90966,376.93384 856.062,387.59839 856.06786,389.77515 L 857.5039,920.9607 L 858.32372,920.95142"
   style="fill:none;fill-rule:evenodd;stroke:#646464;stroke-width:3.61409998;stroke-linejoin:round;stroke-miterlimit:3.8636899"
   id="path81" />

			<line
   style="fill:none;fill-rule:evenodd;stroke:#646464;stroke-width:3.61409998;stroke-linejoin:round;stroke-miterlimit:3.8636899"
   x1="878.51611"
   y1="920.97046"
   x2="858.32373"
   y2="920.95142"
   id="line83" />

			<path
   d="M 777.29785,1276.5808 L 775.20898,1274.5945 L 722.88134,1224.3953 L 695.41552,1198.0344 L 487.67139,994.10327 L 279.79395,798.78784 L 14.21997,567.08374 L 15.59643,389.77515 L 15.6809,378.93384 C 15.68236,378.75073 15.94921,378.17359 15.97826,377.95044 C 16.1848,376.3606 15.85912,374.38208 15.80516,372.77026 C 15.79954,372.60034 16.1013,372.09448 16.10667,371.90796 C 16.12107,371.43433 15.87376,370.89429 15.87547,370.41773 C 15.9116,360.68873 15.88621,350.97486 15.76194,341.24732 C 15.76048,341.13184 16.11082,339.7688 16.15769,339.56983 C 16.17258,339.50684 16.11667,339.26685 16.10666,339.19288 C 15.59958,335.42188 15.62155,331.51539 15.70578,327.71388 C 15.73605,326.33326 16.09494,324.9026 16.08298,323.52662 C 16.07688,322.82301 15.70188,322.02467 15.65061,321.31324 C 15.54929,319.90577 15.62546,318.41163 15.61277,316.99635 L 15.44285,298.05641 C 15.43357,297.00465 15.55247,295.90138 15.60618,294.84816 C 15.6157,294.66286 15.96678,294.06862 15.95213,293.94313 C 15.20237,287.49782 15.5327,280.94899 15.51878,274.46242 C 15.51829,274.27565 15.79734,273.73781 15.82029,273.51882 C 15.92063,272.56423 15.47678,271.38576 15.4763,270.40944 C 15.47606,269.60622 15.71629,268.77174 15.71556,267.96901 C 15.71336,266.35451 15.54954,264.68849 15.46776,263.07326 C 15.45751,262.86989 15.77513,262.20973 15.76415,262.00807 C 15.72558,261.31471 15.34496,260.57277 15.29052,259.87721 C 15.25732,259.45485 15.48779,258.92457 15.48827,258.49171 L 15.50023,250.42848 C 15.50243,248.90455 15.78563,247.36549 15.76952,245.87282 C 15.76513,245.47145 15.4641,244.98854 15.45897,244.58718 C 15.4221,241.68386 15.28539,238.73391 15.34764,235.83327 C 15.40208,233.29665 15.78441,230.74221 15.81053,228.20705 C 15.84178,225.16921 15.15965,221.97487 15.66356,218.95485 L 15.3391,218.35964 L 15.22118,185.88894 C 15.21605,184.42971 15.50243,182.99026 15.50243,181.574 C 15.50243,180.90237 15.24169,180.18728 15.24291,179.51614 L 15.27099,163.63455 L 15.27758,160.0076 C 15.27782,159.80789 15.05346,159.34085 15.06982,159.16409 C 15.20263,157.72513 15.48437,156.12259 15.48291,154.6868 C 15.48242,154.13992 15.05933,153.46439 15.06348,152.91922 C 15.18335,136.98904 14.94654,121.07523 14.97461,105.14212 C 14.97583,104.46854 15.44531,103.65726 15.48828,102.97269 C 15.85278,97.18167 14.625,91.43778 14.88159,85.67411 C 14.91846,84.85136 15.17895,84.01005 15.20825,83.18778 C 15.32715,79.84647 14.83911,76.41019 14.82007,73.06034 C 14.80029,69.62626 14.98877,66.18436 14.98657,62.74979 C 14.98559,61.03788 14.80298,59.31571 14.8103,57.60404 C 14.81225,57.18632 15.02759,56.71219 15.01465,56.29838 C 14.79834,49.3289 14.08569,42.19853 14.21997,35.22465"
   style="fill:none;fill-rule:evenodd;stroke:#646464;stroke-width:3.61409998;stroke-linejoin:round;stroke-miterlimit:3.8636899"
   id="path85" />

			<path
   d="M 14.26685,35.22461 C 14.13062,35.18774 13.56006,35.01929 13.44898,35.01709 C 9.56348,34.93286 5.73365,35.08984 1.85718,34.927 C 1.7168,34.92138 0.57349,34.65747 0.57349,34.65747"
   style="fill:none;fill-rule:evenodd;stroke:#646464;stroke-width:3.61409998;stroke-linejoin:round;stroke-miterlimit:3.8636899"
   id="path87" />

			<path
   d="M 858.34717,920.95142 L 857.29932,1063.6072 L 856.64209,1065.3904 C 855.82666,1067.6023 854.81201,1069.8118 853.30713,1071.6443 C 852.57422,1072.5364 848.2749,1077.1785 847.82275,1077.9675 C 847.27295,1078.9255 847.5122,1080.9641 848.01855,1081.8674 L 846.3955,1083.218 C 845.5371,1086.342 845.03466,1089.6707 844.62402,1092.8777 L 842.67529,1093.6838 L 840.42724,1093.24 C 838.22704,1094.49 833.47704,1095.8362 830.9248,1095.6941 C 829.27197,1094.8997 826.59179,1092.593 826.06005,1090.7278 C 824.04345,1090.2781 821.44189,1088.2771 820.1079,1086.783 L 820.91601,1083.8064 C 820.77783,1083.4646 819.39013,1079.949 819.31982,1079.8533 C 818.65234,1078.9431 812.62255,1074.0427 811.5288,1073.5413 L 807.03173,1072.4876 C 805.50439,1072.3894 803.13671,1074.5476 802.37987,1075.6755 L 801.16014,1075.6301 L 798.95164,1073.9568 C 797.88328,1073.6545 793.55711,1073.5828 793.55711,1073.5828 L 793.25877,1072.156 L 790.24217,1071.9295 L 784.20897,1071.4768 C 783.6201,1071.5198 778.72508,1073.887 777.82616,1074.4334 C 776.53905,1073.8362 773.7622,1074.2078 772.58153,1074.78 L 769.8662,1077.6931 C 766.43212,1078.6599 761.35399,1079.3587 758.41503,1081.1926 L 757.64306,1083.4651 C 759.18505,1086.3806 760.27587,1089.5515 762.41161,1092.1189 L 762.35302,1093.885 L 762.01415,1096.5286 C 762.51708,1100.8293 761.33642,1098.6409 763.27392,1103.28 C 763.74462,1104.407 764.14355,1105.7351 764.02148,1107.3679 C 765.17578,1108.3308 767.47363,1109.0725 767.04541,1111.0832 C 765.61963,1117.7815 780.63916,1120.8606 769.2002,1125.2151 C 769.04737,1125.2732 768.87354,1125.3342 768.68506,1125.3899 L 768.06543,1126.0373 C 768.50635,1126.8723 768.95752,1127.802 768.92773,1128.7737 L 768.78271,1129.5164 C 768.35693,1130.6633 767.91162,1131.8083 767.42578,1132.9338 C 767.42578,1132.9338 768.5,1135.6033 768.32617,1137.6272 C 768.22412,1138.7703 769.04492,1140.7971 768.8706,1142.8279 C 768.42626,1148.0032 766.98828,1148.74 770.36425,1153.1804 C 771.16454,1154.2327 770.91161,1155.7717 770.41796,1156.8899 C 769.93066,1157.9187 769.85497,1158.0632 769.79296,1159.3044 C 773.18066,1162.3674 777.07958,1170.1116 772.67773,1173.7195 L 773.12793,1175.656 C 773.12793,1175.656 773.68311,1178.3445 773.68311,1178.3957 C 773.6836,1178.4656 773.63038,1178.9592 773.48975,1179.6638 L 773.15186,1181.3137 L 772.59913,1183.9612 C 772.49464,1184.4753 771.83155,1185.2698 771.42335,1185.6038 C 771.58155,1187.9333 772.36085,1191.783 772.94288,1193.2034 C 776.19239,1197.386 775.05079,1197.6682 776.68604,1201.905 C 778.20411,1205.8381 781.26514,1209.4431 782.1128,1213.616 C 782.86036,1217.2932 782.54395,1221.3494 783.1255,1225.0789 C 784.56007,1234.2732 788.43654,1244.1848 785.01075,1253.3938 L 784.67432,1254.0022 C 782.98975,1256.1985 779.45801,1256.9861 776.95215,1256.5798 L 776.54151,1256.7542 C 780.43604,1259.2224 782.58643,1259.3591 781.43506,1264.7849 C 780.99121,1266.8772 777.19385,1267.2327 776.38086,1270.0623 C 776.76465,1271.3757 777.12158,1272.698 777.45459,1274.0242 L 777.50928,1274.8694 C 777.36231,1276.1106 777.10791,1277.3967 777.11133,1278.6345 C 777.11475,1280.1409 777.3877,1281.4626 777.15625,1282.9578 C 777.17725,1283.0754 777.44922,1283.9343 777.44922,1283.9343 C 778.48779,1286.99 777.35596,1288.468 777.74854,1289.8484 L 777.97852,1290.6081 C 778.2002,1291.3552 778.17139,1292.2639 778.04981,1293.1814"
   style="fill:none;stroke:#646464;stroke-width:3.61409998;stroke-linejoin:round;stroke-miterlimit:3.8636899"
   id="path89" />

			<path
   d="M 396.64209,296.48022 C 396.61133,293.10376 396.78271,289.70874 396.73438,286.34082 C 396.72168,285.45776 396.5962,284.56811 396.56885,283.68481 C 396.48877,281.11572 396.62354,278.53002 396.58643,275.95849 C 396.54932,273.43383 396.50489,270.9187 396.51709,268.39282 C 380.36865,268.42822 364.22559,268.18091 348.07666,268.21875 C 348.01318,263.09595 348.18066,257.97095 348.13818,252.8457 C 348.09619,247.6958 347.99951,242.54077 348.02783,237.39135 C 338.25146,237.41991 328.48193,237.41064 318.70215,237.3811 C 308.61377,237.35083 298.5166,237.60424 288.42969,237.5166 C 265.81104,237.32031 243.17481,237.58374 220.55323,237.80981 C 213.49464,237.88012 206.39356,237.979 199.33546,237.88134 C 194.79029,237.8186 190.1587,237.54858 185.61964,237.72582 C 185.64845,232.03441 185.90943,224.72826 185.52125,219.05004 C 177.63209,219.08617 169.73927,218.98656 161.85108,219.04589 C 155.43116,219.09399 149.01221,219.26977 142.59254,219.33276 C 132.25856,219.43432 121.91456,219.35156 111.5796,219.36743 C 110.62989,219.36889 109.67921,219.40137 108.72999,219.41821 C 108.65138,216.98803 108.49269,214.5249 108.49269,212.09546 L 108.49489,170.38184 L 112.22267,170.31543 C 112.3047,159.78833 112.54103,149.26587 112.53029,138.73804 L 109.5757,138.79004 C 109.48634,128.2937 109.57961,117.78882 109.61916,107.29175 L 108.74831,107.30689 L 108.74294,107.06568 C 108.79445,100.05909 108.94582,93.04029 108.9153,86.03443 C 108.87721,77.3855 108.86452,68.73682 108.89894,60.08863 L 109.59645,59.99537 L 109.35499,35.76954"
   style="fill:none;fill-rule:evenodd;stroke:#646464;stroke-width:1.27559996;stroke-linejoin:round;stroke-miterlimit:3.8636899"
   id="path91" />

			<path
   d="M 436.86084,34.58472 C 436.88477,71.02515 436.81689,107.4646 436.85596,143.90284 C 436.87061,157.64527 436.87842,171.39112 436.8042,185.13087 C 436.75244,194.70582 436.99365,204.29982 436.99365,213.87379 C 436.99365,219.07545 436.85058,224.28663 436.82129,229.48902 C 436.80225,232.86597 436.93945,236.25562 436.93945,239.63257 C 436.93945,247.46021 436.76806,255.30152 436.72509,263.13501 C 436.72021,263.99072 436.61523,264.85571 436.62548,265.71021 C 436.63476,266.48414 436.74999,267.27076 436.78466,268.04566 C 436.89794,270.59009 436.91161,273.14478 437.00097,275.69166 C 434.59765,275.52857 432.18505,275.66871 429.77831,275.65943 C 421.31835,275.62623 412.86962,276.01856 404.41015,275.97632 C 403.30761,277.38013 398.75244,291.55835 397.66161,294.06763 C 397.54149,294.34449 397.17528,294.59424 397.05858,294.87134 C 396.63329,295.87769 396.40526,297.19361 396.05516,298.24951 C 395.36766,300.32397 394.52342,302.31421 393.77684,304.36108 C 383.47996,332.5852 373.15428,360.80029 362.75731,388.98657 C 352.44335,389.47778 342.062,389.41968 331.7368,389.35327 C 321.14647,389.2854 310.53807,389.10376 299.94823,389.14917 C 292.68016,389.17993 285.4038,389.67212 278.13475,389.67212 C 267.50487,389.67212 256.88719,389.33521 246.25926,389.42603 C 244.44383,389.44117 242.62352,389.59156 240.80711,389.63453 C 234.48045,389.78443 228.13377,389.81617 221.80516,389.81617 C 215.56639,389.81617 209.28954,389.82105 203.05467,389.69996 C 198.48631,389.61158 193.90257,389.48609 189.33128,389.54273 C 177.97142,389.68384 166.60936,389.84937 155.24461,389.84937 C 150.75608,389.84937 146.26414,389.65406 141.77488,389.65406 C 130.33079,389.65406 118.86961,389.50123 107.42698,389.67652 C 107.34959,358.96021 107.45457,328.24537 107.50071,297.52808 L 111.02073,297.54566 C 110.67942,271.48218 111.55833,245.43189 111.57957,219.36744"
   style="fill:none;fill-rule:evenodd;stroke:#646464;stroke-width:1.27559996;stroke-linejoin:round;stroke-miterlimit:3.8636899"
   id="path93" />

			<path
   d="M 858.34326,368.48706 C 830.63525,368.7688 802.90478,368.55395 775.19971,368.0564 C 759.62989,367.7771 744.042,367.78345 728.47022,367.61695 C 705.71485,367.37379 682.95508,367.07691 660.19825,367.09937 C 659.6294,367.10035 659.06055,367.06324 658.49171,367.06519 C 655.02394,367.07642 651.53956,367.15308 648.07374,367.09888 C 644.51905,367.04273 640.96144,366.80005 637.40675,366.73316 L 628.6421,366.67945 C 612.80909,366.58277 596.97169,366.72828 581.13819,366.67261 C 578.89649,357.60547 576.54932,348.54541 574.40821,339.45484 C 573.54102,335.77271 572.91065,332.0149 572.10548,328.31641 C 570.99708,323.22339 569.81105,318.14331 568.66359,313.05835 C 568.45021,312.11133 567.94533,311.16773 567.67921,310.22754 C 566.97804,307.74683 566.58692,305.08081 565.99855,302.55884 C 564.41066,295.75952 562.9673,288.9209 561.33253,282.13281 C 560.61915,279.16968 559.35304,275.52563 558.89698,272.68384 C 558.76221,271.84448 558.81202,271.35669 558.75733,270.5083 C 558.61182,268.23657 558.396,265.94189 558.43018,263.66211 C 558.45606,261.91773 558.59473,260.17993 558.59473,258.4314 C 558.59473,253.27979 558.74219,248.12818 558.74219,242.97779 C 558.74219,236.91529 558.70801,230.84595 558.75928,224.78443 L 558.86866,211.82398 C 552.27198,211.89747 545.66895,211.77955 539.07471,211.89844 C 529.97217,212.0625 520.8667,212.00171 511.7627,212.00537 C 495.4004,212.01196 479.03614,211.87671 462.67139,211.9248 C 454.09034,211.94995 445.49854,212.09741 436.91797,212.02172"
   style="fill:none;fill-rule:evenodd;stroke:#646464;stroke-width:1.27559996;stroke-linejoin:round;stroke-miterlimit:3.8636899"
   id="path95" />

			<path
   d="M 594.32617,538.31812 L 594.6416,514.6731 C 594.7749,504.67896 594.59033,494.66187 594.57861,484.66675 L 596.34521,485.25806 C 597.04248,485.10035 599.34863,484.49878 599.83691,483.94702 L 600.45459,482.5896 C 600.14258,482.1731 599.81641,481.42017 599.80762,480.88989 L 600.33106,480.01391 C 600.98975,479.90795 601.89502,478.95776 602.22168,478.43579 C 602.39014,477.99438 602.18262,477.71899 602.24268,477.30933 L 603.37207,475.71949 C 603.73877,475.65894 604.2998,475.24586 604.56982,475.0149 C 604.75488,473.78785 606.0249,472.69898 605.8208,471.49635 C 605.27832,470.96705 604.9624,470.08864 604.73047,469.38649 C 604.46387,468.57838 604.2002,467.7317 604.55029,466.88942 C 604.57812,466.82301 605.08203,466.19948 605.1582,466.09547 C 605.625,465.45582 606.07568,464.7859 606.52197,464.13356 C 607.90332,462.11598 608.51611,461.20778 606.89941,459.04469 L 607.33837,458.24733 C 607.29149,456.57887 605.58739,454.94508 606.00194,452.59303 L 605.67333,452.02418 C 605.89599,451.75074 606.43456,450.86256 606.46532,450.50904 C 606.55614,449.46558 606.38915,445.36109 606.15526,444.30933 L 605.23924,443.40894 C 605.18065,441.36548 605.52391,438.14722 605.20262,436.24781 C 605.74803,435.86842 606.47166,435.30494 606.50633,434.58033 C 606.8452,434.51099 607.27147,434.24293 607.5366,434.03394 C 607.87303,433.54371 608.13181,432.78736 608.16551,432.1941 C 607.65477,431.36207 607.79344,428.69459 607.99363,427.76588 C 608.16551,426.96559 608.52634,426.31422 608.46238,425.44068 C 608.41941,424.8523 607.5156,423.70338 607.50926,421.88404 C 608.08641,420.25123 610.00975,419.2273 610.14549,417.34302 L 609.89988,416.8562 C 610.12058,416.02368 610.35593,415.33667 610.37058,414.44995 L 609.12204,412.98071 C 610.06393,410.71167 608.83688,410.07934 608.70602,407.98462 C 608.64694,407.04273 609.27926,406.41138 609.34811,405.50171 C 608.82907,404.11206 607.7026,403.07788 607.37252,401.84692 C 606.96529,400.32592 607.97311,398.74438 607.46285,397.10131 C 607.40963,396.92992 607.27096,396.78539 607.21578,396.61449 C 606.89889,395.63304 606.62594,394.57885 606.24996,393.62133 C 605.94625,392.84789 605.06588,392.2224 604.92818,391.34643 C 604.66841,389.69164 604.81734,385.69067 605.65279,384.51928 L 605.58052,383.79369 C 605.1645,383.44652 604.84273,382.26244 604.76607,381.7683 C 605.06929,381.25316 605.39449,380.74828 605.73189,380.25512 L 605.75142,379.20922 C 605.45845,378.57494 604.94576,377.87914 604.42037,377.41674 L 604.34371,376.93285 L 604.7856,376.13549 C 604.87056,375.62572 604.57613,374.80053 604.21919,374.43627 L 604.33589,372.74828 L 604.76704,372.51439 C 606.18989,370.60668 605.37642,368.56468 604.36323,366.71361"
   style="fill:none;fill-rule:evenodd;stroke:#646464;stroke-width:1.27559996;stroke-linejoin:round;stroke-miterlimit:3.8636899"
   id="path97" />

			<path
   d="M 723.39795,624.16138 C 723.17822,641.21509 723.3584,658.27173 723.31934,675.32642 L 723.18213,735.41968 C 707.77295,735.40601 692.36719,735.35181 676.9585,735.28296 C 670.67969,735.25464 664.39649,735.44165 658.1167,735.44165 C 649.5708,735.44165 641.02393,735.37085 632.47803,735.3352 C 620.47559,735.2854 608.46729,735.56567 596.46338,735.42163 C 596.4292,754.80444 596.48193,774.19653 596.36182,793.57739 C 596.29834,803.81714 595.98194,814.05884 595.91211,824.29907 L 595.85449,856.26245 C 595.83545,866.7146 595.6289,877.23266 595.72461,887.69116 C 595.99951,917.656 596.29346,947.61499 596.30713,977.58081 C 596.31006,982.88354 596.05567,988.21411 596.19824,993.51245 C 596.41845,1001.7273 596.27734,1010.0002 596.26416,1018.2214 C 596.2207,1045.1609 596.29443,1072.0989 596.18604,1099.0388"
   style="fill:none;fill-rule:evenodd;stroke:#646464;stroke-width:1.27559996;stroke-linejoin:round;stroke-miterlimit:3.8636899"
   id="path99" />

			<path
   d="M 596.31006,949.81763 L 618.58447,949.72339 L 618.6206,947.79273 C 654.47021,947.77906 690.31494,947.77125 726.16455,947.84742 C 736.65918,947.86988 747.19971,948.17457 757.68896,947.9026 L 757.72021,949.59401 C 767.00683,949.69118 776.27929,949.65114 785.56542,949.6902 C 809.7578,949.79225 833.95214,949.84401 858.14257,949.75563"
   style="fill:none;fill-rule:evenodd;stroke:#646464;stroke-width:1.27559996;stroke-linejoin:round;stroke-miterlimit:3.8636899"
   id="path101" />

			<path
   d="M 856.79688,624.198 C 812.31592,624.19019 767.85792,624.01343 723.38233,624.16138 C 718.70264,621.07837 714.12354,617.86109 709.48438,614.72583 C 696.62647,606.03589 683.72364,597.40845 670.80469,588.82202 C 667.30567,586.49634 663.78565,584.19311 660.30371,581.84253 C 656.70068,579.4104 653.18652,576.84595 649.54687,574.4646 L 594.31054,538.31812 C 578.80615,538.08472 563.31152,538.29371 547.80761,538.29371 C 531.24072,538.29371 514.67236,538.30348 498.10546,538.23219 C 465.03319,538.09059 431.95214,538.07692 398.87548,537.99098 C 396.71679,537.98512 394.35497,537.81862 392.22021,538.05836 C 390.85351,538.21217 389.4541,538.62867 388.09179,538.85621 C 387.08935,539.02369 386.05908,539.07642 385.05956,539.25416 C 380.71239,540.02809 376.33642,540.73414 372.00341,541.5774 C 364.09081,543.11744 356.24071,544.96461 348.34618,546.57886 C 345.52294,547.15601 342.66552,547.59937 339.84764,548.20093 C 332.44383,549.78198 325.11278,551.719 317.81639,553.73218 L 269.37157,567.09741 L 269.40184,581.97729 C 288.09569,602.5852 306.96825,623.03295 325.81053,643.50463 C 331.90135,650.12182 335.39207,653.80443 341.42772,660.4724 C 361.64696,682.80931 381.59081,705.41478 401.66893,727.88158 C 402.84911,729.20238 403.98729,730.57006 405.14452,731.91185 C 405.47606,732.29613 405.34911,735.37572 405.29931,735.85326 L 408.11962,735.86058 L 415.80468,744.08812 C 415.7246,791.90257 415.85009,839.68529 416.02782,887.50511 C 416.07714,900.7429 416.09764,913.98216 416.05077,927.21947 L 416.06542,927.40648"
   style="fill:none;fill-rule:evenodd;stroke:#646464;stroke-width:1.27559996;stroke-linejoin:round;stroke-miterlimit:3.8636899"
   id="path103" />

			<path
   d="M 237.91406,762.87573 C 241.02392,763.47094 244.52392,763.55981 247.67285,763.34985 C 252.53955,757.67212 257.60889,752.21948 262.68896,746.73999 C 268.23681,740.75757 273.64013,734.63208 279.14501,728.60962 L 341.42772,660.47241"
   style="fill:none;fill-rule:evenodd;stroke:#646464;stroke-width:1.27559996;stroke-linejoin:round;stroke-miterlimit:3.8636899"
   id="path105" />

			<path
   d="M 133.59937,671.18384 C 140.0564,671.17163 146.56373,671.35474 153.01465,671.19165 L 168.51734,670.80005 C 168.86573,650.1687 169.00147,629.49585 168.48389,608.86792 L 169.32105,608.85571 L 169.25147,593.41284 L 153.06006,593.33032 L 153.02222,575.95581 L 166.95459,553.62964 L 168.04736,553.6145 L 190.34716,553.71802 C 203.33154,553.77808 216.31982,553.68286 229.30419,553.68286 C 244.28026,553.68286 259.25585,553.87427 274.23437,553.87427 C 288.7622,553.87427 303.28808,553.71216 317.8164,553.73218"
   style="fill:none;fill-rule:evenodd;stroke:#646464;stroke-width:1.27559996;stroke-linejoin:round;stroke-miterlimit:3.8636899"
   id="path107" />

			<path
   d="M 14.36963,547.15503 C 25.37109,546.99536 36.37012,546.9856 47.36987,546.67358 L 47.35376,549.40844 L 48.70215,549.45873 L 48.594,551.87475 C 69.41602,551.68969 89.68336,551.84155 110.54517,552.05395 L 110.62525,568.70434 L 107.77051,568.83715 L 107.62964,570.20727 C 104.55005,570.39282 101.38086,570.13403 98.2981,570.06176 L 98.31324,574.80737 L 96.13306,575.01049 C 96.11817,579.32543 96.07813,583.65404 95.90235,587.96654 L 93.21314,587.85765 L 93.32252,593.00365 L 95.92408,593.03392 C 95.90211,595.2058 95.91212,597.37816 95.89381,599.55052 L 96.89894,599.5305 L 96.8423,600.81907 L 98.35011,600.70921 C 98.48829,603.30931 98.47999,605.99876 98.26222,608.59495 L 97.42286,608.53099 L 97.55518,614.88304 L 100.2356,614.83128 L 100.21949,614.02708 L 105.66065,613.92356 C 105.76661,619.1804 105.87134,624.42844 105.89673,629.68626 L 108.57178,629.63597 L 108.48413,649.22826"
   style="fill:none;fill-rule:evenodd;stroke:#646464;stroke-width:1.27559996;stroke-linejoin:round;stroke-miterlimit:3.8636899"
   id="path109" />

			<path
   d="M 14.42896,537.60864 C 18.95679,537.61059 23.49268,537.59839 28.01929,537.71264 L 27.90967,536.74975 L 32.96533,536.70922 L 32.98193,534.13451 L 34.2456,534.10472 L 34.21411,532.89915 L 35.48022,532.94895 L 35.5205,531.25901 L 37.88134,531.28391 L 37.93554,530.07541 C 38.44604,530.07541 41.31298,529.96555 41.47167,529.91281 C 41.53539,529.89181 43.21264,528.7717 43.37987,528.66232 L 45.99242,528.60226 L 45.92968,526.10958 L 48.62865,526.12862 L 48.64696,523.47286 C 50.68138,523.58419 52.77074,523.66671 54.80736,523.57686"
   style="fill:none;fill-rule:evenodd;stroke:#646464;stroke-width:1.27559996;stroke-linejoin:round;stroke-miterlimit:3.8636899"
   id="path111" />

			<path
   d="M 123.48071,389.63501 C 123.26196,395.55884 123.5747,401.50024 123.36499,407.4187 L 125.7478,407.37817 C 125.69629,412.71362 125.8208,418.05835 125.71338,423.39038 L 128.43286,423.34399 C 128.29712,424.72827 128.1792,426.1394 128.17065,427.53149 L 130.88916,427.48608 C 130.625,429.45532 130.91846,431.60962 130.91846,433.60034 C 130.91846,437.63061 131.00757,442.00561 130.89331,445.99096 L 128.17725,445.95629 C 128.09351,448.87768 128.2024,451.80248 128.25733,454.72387"
   style="fill:none;fill-rule:evenodd;stroke:#646464;stroke-width:1.27559996;stroke-linejoin:round;stroke-miterlimit:3.8636899"
   id="path113" />

			<path
   d="M 116.34741,456.29761 L 115.14819,456.48023 C 113.05322,461.14332 110.15503,465.5647 107.70752,470.05054 L 88.32544,505.57642 C 88.04028,506.09888 87.73193,506.60913 87.42969,507.12232 C 83.43335,509.36548 79.21118,511.13013 75.1543,513.24488 C 74.21167,513.73658 73.3291,514.44947 72.40894,514.99146 C 68.47974,517.3064 64.34449,519.48707 59.9712,520.80835 L 54.27662,522.54224"
   style="fill:none;fill-rule:evenodd;stroke:#646464;stroke-width:1.27559996;stroke-linejoin:round;stroke-miterlimit:3.8636899"
   id="path115" />

			<path
   d="M 190.34717,553.71802 L 190.3374,546.88111 L 184.86596,546.95093 L 184.8811,542.0437 L 182.26977,542.07837 L 182.22973,539.34399 L 179.61865,539.2976 L 179.66504,536.72338 L 176.96948,536.76 L 177.01587,534.26537 L 174.31909,534.22142 L 174.28125,531.72874 L 170.91089,531.77513 L 171.00293,526.78685 L 168.22168,526.82591 L 168.43286,524.1682 L 165.56494,524.12914 L 165.5249,521.55541 L 162.82593,521.59398 L 162.95362,519.0183 L 160.1692,518.97826 L 160.21046,516.40355 L 157.42482,516.364 L 157.37721,513.46898 L 154.25587,513.51586 L 154.29689,510.94164 L 151.84914,510.97826 L 151.72145,508.40648 L 148.93581,508.44945 L 149.06057,505.87377 L 146.44167,505.83373 L 146.39699,503.26049 L 143.77858,503.22143 L 143.7339,500.72827 L 141.11427,500.6897 L 141.15309,498.11499 L 138.53322,498.07642 C 138.39211,490.29517 138.50319,482.52613 138.62209,474.74537 C 139.97683,474.75562 141.33449,474.77271 142.68776,474.84107 C 142.45583,472.21949 142.63356,469.58472 142.63356,466.95826 C 142.63356,462.58961 142.34254,458.30836 142.57301,453.92652 L 144.09889,453.90211 C 144.20143,450.80641 144.1111,447.69606 144.16212,444.59547 C 144.17921,443.56617 144.02882,442.1775 144.21583,441.18873 C 144.23243,441.10133 144.95021,439.43629 145.03028,439.24537 L 146.97462,438.73219 C 146.86793,437.9402 146.81617,437.03444 146.93116,436.23903 C 146.08961,437.03688 145.11549,437.83669 144.34156,438.69313 C 143.64503,439.46413 143.13331,440.44801 142.43433,441.21706 C 141.57911,442.15847 140.521,443.03688 139.59571,443.91726 L 139.17872,444.32595 C 137.5525,445.92165 135.83888,447.36892 134.17091,448.91384 C 131.49537,451.3904 129.04835,454.1863 126.25563,456.5281 C 125.08839,456.77224 117.69679,456.49929 116.33205,456.29763 L 115.28884,455.02908 L 114.71926,456.24637 C 114.47585,456.31424 110.5674,458.82059 109.94729,459.30936 C 109.69192,459.51102 109.53323,459.89139 109.19998,460.04666 C 108.67703,460.28982 107.86526,460.46756 107.26346,460.72537 L 107.09574,460.80935 C 105.68387,461.4363 105.30179,460.80251 104.22025,461.10378 C 103.19925,461.38845 103.63309,462.51882 102.13749,462.83181 C 101.90873,462.87966 101.68974,462.76003 101.45731,462.76443 C 100.61991,462.78005 99.63846,463.05447 98.83524,462.97488 C 98.12162,462.90408 97.43656,462.36502 96.70072,462.21121 C 96.4849,462.41922 92.59476,463.1448 91.88553,462.94705 C 91.57352,462.86014 90.79593,462.14432 90.59012,461.84646 L 90.00101,462.01834 C 90.07743,462.28201 90.13382,462.79813 90.02372,463.06424 C 88.85941,463.4202 88.7266,465.42703 88.82255,466.30594 L 88.40458,466.55545 C 87.01713,465.75272 84.01713,467.46072 82.38822,466.51443 C 81.77787,466.8948 81.48441,466.54373 81.11893,466.62039 L 80.8599,466.38455 C 80.47489,466.5535 80.07719,466.35818 79.67386,466.40848 C 79.46683,466.67655 79.38651,467.02225 79.09891,467.2244 C 78.491,467.18485 77.79007,467.58036 77.32718,467.50223 L 77.60648,468.62284 C 76.90726,470.04716 73.85233,470.73124 72.47831,470.33817 C 71.93461,471.28104 71.22245,471.6702 70.57963,472.46903 C 69.87699,473.34257 69.22172,474.51591 68.35844,475.25174 C 68.10698,475.4661 67.64897,475.66531 67.35649,475.83621 C 67.3123,475.86209 67.23881,475.90945 67.18877,475.91971 C 66.65923,476.03201 66.00713,476.09696 65.50444,476.27811 C 64.70781,476.56473 64.33647,477.15506 63.32646,477.28983 C 62.83549,477.35575 61.48759,476.78104 61.28496,476.85135 C 60.74101,475.61063 57.6812,474.46756 56.56182,474.13748 L 56.46538,487.57693 L 62.3897,487.68923 L 62.06035,495.17849 L 59.18828,495.24099 L 59.25542,498.05544 L 57.81816,498.00564 L 57.87651,500.41873 L 59.14262,500.39041 L 59.12211,503.04617 L 60.55937,503.09549 L 60.53666,505.67069 L 61.88822,505.64139 L 61.94779,508.13358 L 59.16019,508.11405 C 59.13333,511.13163 58.98905,514.19364 59.12552,517.20634 L 56.76322,517.2581 C 56.64725,518.49736 56.71268,519.79912 56.77079,521.03886 L 53.98856,521.10038 C 54.12918,522.28202 54.14823,522.46659 54.80741,523.57694 C 56.12723,525.7996 57.45585,528.01737 58.76371,530.24784 C 59.89945,530.91434 61.25541,531.36845 62.45805,531.90995 L 63.19658,532.24296 L 75.59087,532.3831 L 76.03496,533.41972 C 75.9168,535.20341 74.96807,538.19316 73.81475,539.49931 L 74.1646,540.05546 C 73.93389,541.42655 75.12651,542.61698 76.09356,543.39384 C 76.09869,544.73857 75.9334,546.66532 76.28204,547.97587 C 76.53521,548.92753 77.19415,548.61649 76.92535,550.37626 C 77.2835,550.79032 77.59771,551.25663 77.88165,551.72343"
   style="fill:none;fill-rule:evenodd;stroke:#646464;stroke-width:1.27559996;stroke-linejoin:round;stroke-miterlimit:3.8636899"
   id="path117" />

			<path
   d="M 362.77295,388.98657 L 362.67285,389.63012 C 363.63428,390.9558 365.09814,391.99194 365.74121,393.49047 L 365.5708,394.05395 L 365.82666,394.77807 C 366.14795,394.6892 366.61279,394.67455 366.93359,394.77807 C 367.06738,395.4226 367.27929,396.44702 367.70019,396.95043 L 367.70019,397.51342 C 368.52294,398.94653 369.18847,398.37426 370.08496,398.96166 C 370.27783,399.08764 371.36914,400.1809 371.44775,400.32934 C 371.64599,400.70385 371.59179,401.30541 371.78857,401.69653 C 372.11181,402.33862 372.5913,402.83471 372.80908,403.5476 C 372.61328,403.89233 372.63672,404.5686 372.80908,404.91528 L 373.14892,405.23755 L 372.89355,405.88062 C 372.91552,406.35035 373.27978,406.90894 373.65917,407.16822 C 373.5371,407.78394 373.29687,408.38697 373.48827,409.01832 C 374.48485,409.66041 373.43993,412.1775 373.91161,412.71852 L 373.23143,413.36207 L 373.14598,413.76393 L 373.40037,414.0862 L 373.3159,414.8904 C 373.03319,415.05739 372.77342,415.29567 372.55028,415.53395 L 372.55028,416.01686 L 372.88915,416.25758 C 372.58104,416.79274 372.1328,417.71852 372.3789,418.34938 C 371.89355,418.44704 371.38671,418.77858 370.9331,418.99245 L 370.67724,419.8777 L 370.16747,420.35963 C 370.50145,421.63502 370.43798,423.28639 369.82763,424.46315 C 370.92919,425.37086 369.67626,426.51588 370.25195,427.43922 C 370.0791,428.51442 369.11377,429.02613 368.97705,430.25465 C 368.9292,430.68824 368.86719,431.36354 368.8916,431.78297 C 368.94482,432.69459 369.45068,432.87135 369.06152,434.0359 L 369.40185,434.43824 L 370.16552,434.51832 L 370.50536,435.16236 C 370.66942,435.16236 371.33251,435.11207 371.43895,435.24293 L 371.86327,436.28883 C 371.54442,436.98854 371.24364,437.78199 371.09911,438.54078 C 370.72313,438.74683 370.35643,439.52662 370.24999,439.90797 C 370.61034,440.45973 370.58446,441.40699 370.33446,441.99977 L 371.35253,444.33278 C 372.15478,444.44362 373.10888,445.8528 373.3872,446.50514 C 373.25488,446.73073 372.48437,447.77711 372.45409,447.87233 C 372.09032,449.00465 372.48632,449.61305 371.35009,450.52663 L 371.43603,451.25075 L 370.50195,452.13552 L 370.58642,452.69802 L 372.02831,454.14675 C 372.47753,454.23708 372.92968,454.32497 373.38427,454.38845 L 373.72314,455.91677 C 372.83154,457.40896 371.95752,458.91238 371.09326,460.42068 L 371.51709,460.90359 L 371.34814,461.54666 C 371.64257,462.27371 371.91894,463.60477 371.68603,464.36258 C 371.5874,464.68338 371.26269,465.00662 371.17773,465.32694 C 370.69043,467.17557 372.38476,467.26786 370.49853,469.42899 L 370.58349,469.83133 C 370.3955,470.16922 369.81494,470.55447 369.4829,470.7161 C 369.48632,471.14774 369.35448,471.70438 369.14403,472.08329 C 368.75633,472.54765 367.58641,472.84501 367.02782,472.88847 L 366.01073,471.68144 L 365.67284,471.60039 C 365.24071,472.31279 364.69677,472.36016 364.06444,472.72783 C 363.87352,472.83867 363.6621,473.11992 363.47215,473.21025 C 362.35106,473.74296 361.11961,473.61406 359.91649,473.61406 C 359.5493,473.88701 359.21434,474.35185 358.98583,474.74052 L 357.71581,474.9832 C 357.2788,474.63164 356.27538,474.6082 355.76854,474.74345 L 355.51512,475.22636 C 355.80907,475.55009 355.79735,476.37284 355.68602,476.75468 L 356.02489,477.31718 C 355.35692,478.30741 354.19677,478.97978 353.8286,480.13456 C 353.38622,479.99882 352.50048,480.04081 352.13573,480.37724 L 352.05223,481.34257 L 351.12303,482.4705 C 350.86522,482.57841 350.29539,482.68241 350.02391,482.55155 C 349.1162,482.96757 348.23485,483.5369 347.40282,484.08329 C 347.14159,483.98905 346.62255,483.98759 346.38817,484.16581 C 346.16063,484.45536 345.84813,485.14872 345.96678,485.53397 C 347.15867,485.75711 348.10301,485.82352 349.01463,486.73563 L 348.67674,487.29959 L 348.76414,488.90799 L 348.00389,489.8743 L 348.25975,490.59793 L 347.92284,491.32205 C 346.64501,491.64334 345.32323,491.61404 344.03368,491.89139 L 343.44335,492.53592 L 343.52978,493.66141 L 342.60058,493.98514 L 342.43261,494.30741 L 342.77197,494.78934 C 342.99853,495.58768 341.04199,498.21903 340.41406,498.73514 C 339.80224,498.7869 339.10058,499.02957 338.55566,499.30155 C 337.17138,499.08475 336.97461,499.23173 335.60107,499.87137 C 334.89502,499.81131 334.6123,498.7908 333.82373,498.82987 C 333.27637,499.1038 332.70654,499.58182 332.30615,500.04081 C 332.29297,500.4744 332.06494,501.48661 331.63476,501.73075 L 331.80468,502.21268 C 331.67919,502.72782 331.47314,503.27713 331.21874,503.74295 C 331.4497,504.52566 331.69677,505.30936 331.98485,506.07303 L 331.64891,506.79813 C 331.66258,508.02811 333.32469,510.47001 332.67577,511.46073 C 332.69823,511.65897 334.01513,513.83475 334.20165,514.03104 C 334.2744,514.4412 334.1831,515.12235 333.95263,515.47879 L 334.20702,516.20242 L 334.96727,516.52273 C 335.82567,517.64627 335.33739,518.42361 335.65086,519.57791 C 335.90477,520.51248 336.66551,521.03836 336.83885,522.79178 L 337.93504,522.62821 L 338.02147,523.59354 C 337.57225,523.93192 337.2495,525.3411 337.18456,525.84696 L 337.43895,526.65116 L 337.10301,527.13456 L 337.27293,527.69706 C 337.06981,528.16386 336.90721,528.65556 336.77049,529.1453 C 336.31981,529.01542 335.42723,529.59842 335.08641,529.87382 C 335.05907,530.48222 334.54735,531.43095 333.99608,531.72587 C 333.92186,532.11601 333.88622,532.53593 333.91454,532.9329 L 333.74706,533.09403 C 333.19433,533.05887 332.69091,533.70487 332.48485,534.14335 L 331.22215,534.22636 L 330.04735,535.91874 L 329.03661,536.08231 C 328.90038,535.95682 328.62841,535.85672 328.44628,535.84256 L 328.27831,536.08475 L 328.27977,536.48661 C 328.16893,536.61893 328.01073,536.72977 327.85936,536.80936 L 327.3535,536.81082 L 327.187,537.05252 C 327.20067,537.34109 327.36473,537.7034 327.52587,537.93631 L 327.44237,538.25809 L 327.02196,538.50077 L 326.93895,538.74296 C 327.31346,539.02665 327.77293,539.50028 327.9536,539.9456 L 327.78563,540.18779 L 327.02879,540.43144 L 326.69383,541.07548 C 326.2827,541.21513 325.60301,541.28642 325.17772,541.16044 L 325.00975,541.32157 L 325.26659,542.28641 C 325.72557,542.25907 326.24608,542.26493 326.69823,542.36209 L 327.04052,544.2117 L 326.53906,545.25858 L 326.70898,545.82108 C 326.49853,546.30253 326.21728,547.10379 326.54687,547.5911 C 327.27148,547.67362 328.50585,548.21366 328.90673,548.87137 L 329.33349,550.63944"
   style="fill:none;fill-rule:evenodd;stroke:#646464;stroke-width:1.27559996;stroke-linejoin:round;stroke-miterlimit:3.8636899"
   id="path119" />

			<path
   d="M 497.8623,212.03516 C 497.76904,214.31519 497.95947,216.5979 497.86181,218.87867 C 497.52343,226.78053 497.4414,234.70972 497.36035,242.62232 C 497.27344,251.07178 497.12549,259.52466 497.10058,267.97437 C 497.09521,269.72461 497.26367,271.4629 497.30517,273.20826 C 497.40478,277.41749 497.23095,281.63429 497.34814,285.84473 C 497.42382,288.55542 497.01318,291.34058 497.09277,294.05103 C 497.26953,300.05933 497.08105,306.06836 497.08105,312.07813 C 497.08105,313.92066 497.32763,315.7273 497.36914,317.55298 C 497.40088,318.94702 497.25391,320.38745 497.23975,321.79004 C 497.18653,327.1311 497.00196,332.49121 496.99121,337.82739 C 496.98535,340.5039 497.14062,343.20141 497.08105,345.87524 C 496.98437,350.21264 496.70751,354.56958 496.52099,358.90551 C 496.2666,364.82641 496.14453,370.75658 496.08642,376.68383 L 497.53662,376.61596 C 497.42334,387.85326 497.31982,399.08666 497.28027,410.32397 C 497.26709,413.99487 497.37548,417.67602 497.33838,421.34643 C 497.2544,429.72631 497.39404,438.09594 497.53906,446.47436 C 497.58301,449.01342 497.52978,451.55248 497.60302,454.09057 L 497.09521,454.08569 C 497.11279,455.10424 497.14404,456.12475 497.14794,457.14331 C 497.20898,471.67651 497.17333,486.21167 497.38769,500.74341 L 496.5415,500.73609 L 496.70068,535.56519 L 496.02588,535.55933 L 496.16797,538.29517"
   style="fill:none;fill-rule:evenodd;stroke:#646464;stroke-width:1.27559996;stroke-linejoin:round;stroke-miterlimit:3.8636899"
   id="path121" />

		</g>
  </g>
</svg>
