<?xml version="1.0" encoding="UTF-8" standalone="no"?>
<svg
   xmlns:dc="http://purl.org/dc/elements/1.1/"
   xmlns:cc="http://creativecommons.org/ns#"
   xmlns:rdf="http://www.w3.org/1999/02/22-rdf-syntax-ns#"
   xmlns:svg="http://www.w3.org/2000/svg"
   xmlns="http://www.w3.org/2000/svg"
   xmlns:sodipodi="http://sodipodi.sourceforge.net/DTD/sodipodi-0.dtd"
   xmlns:inkscape="http://www.inkscape.org/namespaces/inkscape"
   color-interpolation="auto"
   color-rendering="auto"
   font-size="12"
   font-style="normal"
   font-weight="normal"
   height="1400"
   image-rendering="auto"
   shape-rendering="auto"
   stroke-miterlimit="10"
   text-rendering="auto"
   width="1372"
   id="svg2"
   sodipodi:version="0.32"
   inkscape:version="0.46"
   sodipodi:docname="USA Guam location map.svg"
   inkscape:output_extension="org.inkscape.output.svg.inkscape"
   version="1.0"
   style="font-size:12px;font-style:normal;font-weight:normal;fill:#000000;fill-opacity:1;stroke:#000000;stroke-width:1;stroke-linecap:square;stroke-linejoin:miter;stroke-miterlimit:10;stroke-dasharray:none;stroke-dashoffset:0;stroke-opacity:1;display:inline;enable-background:new;font-family:Dialog">
  <metadata
     id="metadata118">
    <rdf:RDF>
      <cc:Work
         rdf:about="">
        <dc:format>image/svg+xml</dc:format>
        <dc:type
           rdf:resource="http://purl.org/dc/dcmitype/StillImage" />
      </cc:Work>
    </rdf:RDF>
  </metadata>
  <sodipodi:namedview
     inkscape:window-height="480"
     inkscape:window-width="640"
     inkscape:pageshadow="2"
     inkscape:pageopacity="0.0"
     guidetolerance="10.0"
     gridtolerance="10.0"
     objecttolerance="10.0"
     borderopacity="1.0"
     bordercolor="#666666"
     pagecolor="#ffffff"
     id="base"
     showgrid="false"
     inkscape:zoom="0.545"
     inkscape:cx="667.29609"
     inkscape:cy="583.76895"
     inkscape:current-layer="layer1" />
<!--Generated by the Batik Graphics2D SVG Generator-->  <defs
     id="genericDefs">
    <inkscape:perspective
       sodipodi:type="inkscape:persp3d"
       inkscape:vp_x="0 : 700 : 1"
       inkscape:vp_y="0 : 1000 : 0"
       inkscape:vp_z="1372 : 700 : 1"
       inkscape:persp3d-origin="686 : 466.66667 : 1"
       id="perspective120" />
    <defs
       id="defs1">
      <clipPath
         id="clipPath1"
         clipPathUnits="userSpaceOnUse">
        <path
           id="path9"
           d="M 0,0 L 1372,0 L 1372,1400 L 0,1400 L 0,0 z" />
      </clipPath>
    </defs>
    <inkscape:perspective
       id="perspective6666"
       inkscape:persp3d-origin="372.04724 : 350.78739 : 1"
       inkscape:vp_z="744.09448 : 526.18109 : 1"
       inkscape:vp_y="0 : 1000 : 0"
       inkscape:vp_x="0 : 526.18109 : 1"
       sodipodi:type="inkscape:persp3d" />
  </defs>
  <g
     inkscape:groupmode="layer"
     id="layer2"
     inkscape:label="base"
     style="display:inline"
     sodipodi:insensitive="true">
    <rect
       style="opacity:1;fill:#c6ecff;fill-opacity:1;fill-rule:evenodd;stroke:none;stroke-width:1;stroke-linecap:butt;stroke-linejoin:miter;marker:none;marker-start:none;marker-mid:none;marker-end:none;stroke-miterlimit:4;stroke-dasharray:none;stroke-dashoffset:0;stroke-opacity:1;visibility:visible;display:inline;overflow:visible;enable-background:accumulate"
       id="rect2621"
       width="1372"
       height="1400"
       x="0"
       y="-2.9976022e-15" />
  </g>
  <g
     inkscape:groupmode="layer"
     id="layer1"
     inkscape:label="land"
     style="display:inline">
    <path
       style="opacity:1;fill:#fefee9;fill-opacity:1;fill-rule:evenodd;stroke:none;stroke-width:1.3;stroke-linecap:butt;stroke-linejoin:miter;marker:none;marker-start:none;marker-mid:none;marker-end:none;stroke-miterlimit:4;stroke-dasharray:none;stroke-dashoffset:0;stroke-opacity:1;visibility:visible;display:inline;overflow:visible;enable-background:accumulate"
       d="M 895.0625,127.6875 C 890.24089,128.86419 887.23682,133.60383 882.78125,135.71875 C 880.49231,139.00188 876.38332,140.57111 874.01426,143.92764 C 869.85082,147.55747 869.53017,154.10414 866.6875,158.78125 C 863.43333,166.66718 860.50573,174.96318 854.74791,181.66137 C 851.82775,186.80981 847.23057,190.72091 843.85517,195.58116 C 840.4697,199.79852 836.59266,203.6006 833.22771,207.7561 C 828.93028,213.08253 831.03361,220.19035 829.3125,226.25 C 828.44803,233.95972 828.75478,241.78617 826.5,249.28125 C 827.46663,250.99528 829.64954,254.26203 828.06008,257.5138 C 828.88216,260.44502 828.15863,262.9286 829.59375,265.78125 C 831.15894,268.08538 829.3106,272.36209 830.39267,273.95949 C 834.62322,273.98246 833.60894,280.59801 835.0082,284.28069 C 836.98544,287.52186 838.64874,293.53041 832.9765,293.65917 C 829.08044,295.18746 831.15795,299.6483 829.9835,302.49401 C 829.50009,305.39965 826.93435,307.7162 826.5,310.875 C 825.09052,314.83901 823.09072,318.26225 819.80615,320.92544 C 817.06651,323.95163 815.64628,328.37703 814.59375,332 C 813.68259,335.51015 814.23672,337.35367 816.24554,339.91079 C 815.5432,343.2928 812.97021,347.69302 809,345.90625 C 807.75288,343.45129 807.14618,347.91406 804.52249,349.30166 C 801.71812,350.94238 799.61876,352.63844 797.53125,354.5 C 795.30851,356.72597 793.26465,360.43888 794.76959,361.67281 C 792.18535,361.69923 788.94066,363.75328 788.40625,367.125 C 786.04379,370.22261 790.23839,373.19181 786.48647,375.97342 C 785.50161,381.17442 779.36731,383.4152 778.8125,389.0625 C 778.08283,394.4315 774.0414,399.75619 768.03125,399.1875 C 769.55371,402.56322 763.36172,407.08293 761.45985,404.73915 C 755.91012,406.96087 761.74188,408.49761 761.375,411.90625 C 759.41013,416.02373 758.73347,420.70209 758.1875,425.15625 C 756.95287,429.30508 754.02394,432.39936 751.03125,435.15625 C 753.84779,440.16158 745.72297,441.70655 745.59375,446.46875 C 742.91614,451.95892 736.88103,455.45208 733.40625,459.9375 C 731.35936,465.34563 738.72139,468.58936 736.77719,474.05818 C 736.14827,478.07027 738.01178,481.97171 737.34375,486.03125 C 741.31486,488.84348 737.28812,492.86065 738,496.53125 C 735.66907,499.43307 739.27222,501.1469 742.03809,501.58999 C 746.48896,500.7298 746.11505,505.9381 744.625,508.5625 C 743.14877,513.37536 741.6969,518.19029 737.9375,521.84375 C 733.04182,528.83928 729.71714,537.30514 721.86699,541.66473 C 716.60645,544.40064 710.62744,544.23123 705.5,547.15625 C 700.59176,548.78716 694.65754,548.18187 690.87324,544.58974 C 689.86615,540.77957 685.73579,539.07784 682.34375,537.6875 C 680.17026,536.24384 676.62463,537.84221 673.89379,537.97624 C 669.46983,539.85457 664.58268,542.19376 659.96875,540.84375 C 656.24591,540.96845 654.82787,544.01714 652.51063,546.18219 C 649.31073,547.59856 647.39447,550.5891 645,553.28125 C 636.86444,569.10298 641.2642,551.18956 641.83488,564.28125 C 644.21816,566.95924 641.59927,571.9171 644.8802,573.57997 C 647.82852,574.63929 650.44167,573.23455 653.31168,574.42681 C 658.4078,575.99183 658.72672,582.79474 658.0625,587.28125 C 657.26202,595.21982 650.34876,600.36085 646.71875,607.03125 C 643.61059,611.41763 640.01603,616.21045 634.125,616.75 C 630.85917,617.8743 627.55331,618.88175 624.32375,620.28917 C 617.38671,621.60175 610.26564,621.85662 603.3125,622.1875 C 599.80828,624.49334 601.31572,621.30184 600.53125,617.40625 C 601.06988,614.39202 596.14823,607.83822 596.4375,612.5625 C 594.44204,616.14402 592.15875,620.85377 589.1503,623.06641 C 586.3622,622.99443 585.97948,621.6776 588.93128,621.04136 C 585.01844,620.59809 583.41974,625.50531 583.74297,618.22303 C 582.59322,612.98708 588.44957,613.78076 591.96875,614.1875 C 591.65959,611.45612 593.10418,609.45465 588.80545,612.80737 C 585.31181,615.25593 580.37397,607.94137 579.10562,613.73376 C 581.22139,615.52192 585.0783,616.17635 583.28125,621.625 C 582.62239,623.72979 578.20465,621.93481 575.96875,622.46875 C 570.45407,623.4752 565.26456,621.60945 560.4821,619.13917 C 553.42004,617.67494 546.21613,618.88029 539.09375,618.9375 C 535.05704,620.17047 535.48166,619.8261 533.66456,615.89943 C 531.39813,613.10595 527.18119,611.55822 527.5625,615.46875 C 531.11284,618.27247 526.2838,620.07525 523.12149,620.00759 C 517.81277,620.28288 512.91615,622.73264 509.3125,626.375 C 504.84426,629.14731 500.06332,631.18874 495.71875,634.21875 C 492.42936,635.33031 488.49148,632.47672 485.5,634.15625 C 482.37081,632.40478 477.48835,633.17935 474.25,630.5625 C 469.99906,627.15959 474.53724,629.1105 470.9375,625.3125 C 468.49294,622.99681 463.15096,630.88991 466.25,628.125 C 466.84053,630.90038 466.83986,634.22675 466.65625,637.25 C 466.73289,641.3606 461.63296,643.36764 458.82049,645.83372 C 455.27916,649.5304 450.0656,649.35219 445.375,649.53125 C 441.79221,652.64291 437.41999,654.95146 432.65625,655.59375 C 429.70546,655.87968 425.99274,657.12504 424.53404,659.96201 C 421.91507,662.41071 418.67835,661.89791 416.78125,659.6875 C 413.8243,659.6458 410.0042,655.66907 410.9375,653.125 C 412.76018,650.20476 411.35003,648.04129 408.40625,650.0625 C 404.69879,650.66732 400.86167,652.10441 397.13111,654.02926 C 391.79449,658.24645 385.50833,661.42943 379.05604,663.27161 C 371.94453,662.6787 364.46224,662.22416 357.8125,658.9375 C 353.76462,658.6664 349.74935,656.65139 345.65625,655.65625 C 340.41339,654.42355 344.089,658.10932 340,658.625 C 318.25812,658.49308 296.47618,658.73215 274.75,658.71875 C 266.54975,660.5364 261.40907,667.76551 254.625,672.15625 C 249.00891,676.12203 241.35169,677.08253 237.625,683.5 C 232.50606,685.84019 239.0206,690.21885 238.06651,685.42659 C 241.71507,678.83182 249.33232,677.00067 255.46875,673.9375 C 260.10255,670.24909 264.52835,665.42083 269.78125,662.65625 C 274.07677,659.6477 279.25265,659.62382 284.35052,659.875 C 290.7211,660.0896 297.56,658.51605 303.1875,662.34375 C 303.29026,663.48549 305.25936,657.98921 305.87901,662.39534 C 307.6966,656.70745 311.30191,663.86461 314.87288,661.2199 C 317.74465,658.18771 322.62552,660.30047 326.25,660.4375 C 328.95118,657.83809 331.84667,663.9319 333.6875,659.65625 C 336.49623,661.28335 337.47864,663.93706 339.90036,659.9247 C 344.84242,660.07972 342.38416,665.22271 344.15932,667.9632 C 346.01577,671.07561 335.56928,672.80514 341.71875,673 C 344.18213,670.31699 348.17962,668.57818 351.125,666.0625 C 353.5067,670.91283 357.5729,671.25339 362.47954,670.68476 C 367.84816,671.18995 372.70159,669.55782 377.99823,670.01163 C 382.01986,669.03646 381.52446,671.85449 384.5,670.53125 C 386.17158,669.28859 393.94552,666.57069 390.84657,666.53525 C 390.28356,665.58671 395.99265,662.538 398.5625,662.0625 C 401.09856,660.77643 405.99747,658.91902 404.19819,663.71793 C 406.95799,661.99014 407.19175,664.16797 411.21875,661.8125 C 416.44843,660.20782 411.23236,664.97902 408.58293,665.54486 C 406.68033,668.73837 401.22914,667.61071 403.78125,669.625 C 404.02693,674.67768 402.83717,671.29392 402.28125,668.02448 C 402.90124,665.66778 395.71413,666.65796 395.6875,667.96875 C 399.07838,668.40081 401.7574,667.89453 401.84375,671.90625 C 403.12811,677.05851 400.74299,676.56489 399.84771,677.60917 C 394.57536,678.60083 388.90609,676.26841 383.5,677.8125 C 379.782,679.56276 377.6537,675.82692 374.6875,677 C 370.26194,678.44524 365.86231,676.71777 361.2437,676.91096 C 357.67852,676.03096 351.83866,678.95915 354.54555,683.04041 C 358.04071,686.64755 350.6851,689.33739 353.0625,692.03125 C 356.79997,693.72842 359.10195,691.86781 358.2809,687.87085 C 359.49469,685.22771 354.46285,680.83424 358.5,680.28125 C 360.00369,683.90489 362.13622,686.45377 365.8125,688.03125 C 368.45077,688.93369 372.20139,690.95113 374.17058,688.25134 C 378.50486,687.4956 378.9279,682.47453 382.46875,680.84375 C 386.71324,680.8769 390.38915,682.02751 394.78125,681.4375 C 398.88566,682.06236 397.84296,687.52101 395.90625,689.78125 C 394.6788,693.14917 397.00358,695.60222 397.75424,698.60003 C 398.51825,701.70189 399.38144,703.46955 398.09375,706.5625 C 394.78675,708.64119 398.13599,714.08272 394.90625,716.65625 C 388.54305,716.0638 398.30537,722.04167 393.24482,719.12404 C 391.31681,716.96461 385.48782,715.97402 386.625,720.15625 C 386.77124,726.06756 386.14737,723.12408 384.49318,719.72706 C 381.82355,717.45024 380.95334,715.40849 376.84375,715.46875 C 375.06718,713.81817 374.57654,708.18689 371.85737,711.91571 C 372.93738,712.98196 366.79721,712.43333 364.78234,711.7589 C 358.71448,710.48742 365.71238,713.43134 365.375,716.125 C 365.07171,720.91371 358.00737,718.32845 355.9375,721.40625 C 356.70064,726.08515 356.58392,730.90533 356.28125,735.59375 C 361.89754,735.437 367.11449,733.13502 372.84375,733.28125 C 373.20532,737.63326 375.95526,736.8142 379.11978,738.78852 C 379.42482,743.25855 381.72912,748.22711 379.84574,752.46264 C 378.56385,755.09741 383.27087,759.25821 379.4375,759.625 C 375.43583,760.91183 375.79811,765.74251 373.25,768.4375 C 373.06763,768.25332 367.76746,772.82507 367.10526,776.28382 C 365.32263,778.43606 362.71589,785.75214 365.37715,783.9356 C 367.76387,784.54259 373.01651,785.27833 372.58847,787.33627 C 370.70287,789.25828 365.15107,788.93435 364.7673,785.43036 C 365.28084,787.12069 360.94803,789.46561 357.87924,788.46517 C 353.74242,787.92898 352.83003,781.89031 350.05783,779.12468 C 346.85907,774.2201 343.66348,769.31345 340.46875,764.40625 C 342.89609,761.22143 350.70894,757.05178 343.00338,755.71995 C 336.99161,754.23049 335.31659,751.535 340.19457,747.01718 C 342.8533,743.17429 347.67236,738.45052 339.77813,738.91066 C 332.27039,737.03697 343.16712,736.48991 343.375,732.125 C 349.63012,733.63446 349.52223,727.67068 348.77625,723.26922 C 347.83809,718.61258 347.81854,724.0473 343.78125,719.875 C 341.77203,718.21127 336.66431,717.7067 334.93514,720.17831 C 330.26517,724.90747 334.72974,719.22964 334.03125,716.6875 C 331.79466,720.91246 328.27877,715.03451 326.96005,719.94751 C 321.3618,722.76505 330.89789,726.18525 324.25411,727.09662 C 320.07165,728.83327 324.9766,733.43304 325.625,736.15625 C 321.91421,739.33143 321.36543,733.69091 319.375,730.875 C 319.30472,725.55051 325.50252,722.40274 326.65625,717.46875 C 321.76454,718.12079 320.19141,723.63167 318.28125,727.625 C 317.28333,731.68537 316.99653,722.04216 320.00561,720.83946 C 322.77958,717.43816 316.06882,718.3237 313.875,718.1875 C 310.90114,720.28068 306.00664,717.12772 304.52197,720.05542 C 301.69375,720.39108 298.65372,721.17615 295.53125,720.5 C 292.50729,718.68544 293.91232,716.96393 290.76739,721.58742 C 288.26261,721.98968 285.40144,723.17975 282,723.375 C 276.66533,722.09134 271.65014,720.09756 266.15625,719.875 C 263.04112,718.3846 258.8895,718.78415 256.46875,716.15625 C 254.36666,713.29541 253.45419,710.51134 249.26052,712.44913 C 247.10108,709.62016 244.51137,706.36518 240.40625,707.1875 C 235.89158,705.9311 230.89682,703.73218 226.625,707.03125 C 223.16778,710.29216 230.67507,708.50493 229.84459,710.16952 C 226.55952,710.21856 223.16959,709.80087 220.09982,710.46422 C 218.3173,712.56722 223.01165,714.14424 223.5625,716.90625 C 225.04142,720.21901 225.70916,722.43654 227.34803,725.63834 C 230.05081,729.08539 233.69637,732.21957 237.1875,734.9375 C 240.48739,736.04524 237.77618,746.96965 238.79821,737.77325 C 238.73844,733.56102 244.17856,738.133 246.70151,738.28285 C 251.96667,740.1962 257.28692,742.44254 262.05324,745.04483 C 264.96877,746.61112 266.05175,749.34608 268.9375,750.8125 C 270.83524,753.27044 274.60274,751.78921 276.48064,754.93951 C 276.16499,757.95713 276.18848,760.68606 277.29517,763.79989 C 279.82874,766.27151 279.71602,769.1376 280.1875,772.25 C 282.23331,775.34681 278.15638,777.84815 279.5,781.125 C 283.03954,783.30322 285.08403,787.70122 288.9375,788.59375 C 293.30929,793.0023 291.26761,789.65776 295.71875,788.46875 C 298.93382,786.57164 303.87097,792.0928 302.06476,794.83624 C 297.70705,794.05301 300.81811,798.30768 304.1931,799.17677 C 307.30468,796.21107 310.7171,798.20335 314.32434,797.24844 C 317.66926,797.61823 320.60251,799.68688 324.125,799.65625 C 329.91431,802.65057 333.2629,808.22447 336.65625,813.46875 C 340.14795,817.04828 339.2374,822.28521 339.15625,826.8125 C 336.75377,829.61588 345.26863,829.39637 343.11865,832.64419 C 340.14531,834.37573 350.31574,838.02883 344.81418,837.8078 C 345.75932,844.32676 340.93784,850.25477 339.25,856.46875 C 336.41065,859.10358 340.57912,863.49315 337.53125,866.8125 C 335.26654,869.39811 333.83589,874.08842 330.125,873.875 C 327.0294,876.54282 323.78735,878.00866 324.125,881.96875 C 320.15097,886.15556 319.40516,892.27215 315.6875,896.6875 C 315.30476,899.91049 310.94833,902.13932 312.81437,905.18638 L 313.5625,905.96875 C 315.61368,912.00514 314.82605,919.33671 311.03125,924.4375 C 310.15871,927.3868 307.71351,930.19507 309.95975,932.19394 C 309.44533,935.99733 302.38959,936.38448 305.92471,940.90172 C 306.54775,944.23097 305.79225,946.82419 303.46875,949.1875 C 300.8754,952.99311 302.05769,952.08648 299.91156,956.55187 C 297.45259,959.69533 297.27761,963.7653 294.90165,966.95307 C 292.05057,971.40199 290.79475,976.15106 289.53125,981.16302 C 288.93121,984.64283 284.88424,985.74763 284.375,989.5 C 280.42575,993.33403 279.70074,1001.2515 272.90625,1001.5312 C 267.4317,1007.1931 267.92923,1006.1877 272.7536,1009.2458 C 275.46744,1011.7913 279.16892,1010.8815 282.34375,1012.1562 C 283.91078,1014.8097 287.96122,1013.2745 290.59043,1013.3717 C 294.92066,1014.8458 290.72646,1019.9318 295.90625,1018 C 299.85928,1019.4013 297.94371,1023.3831 301.22791,1024.6136 C 301.87678,1027.4408 306.48523,1028.8293 304.9375,1032 C 305.56046,1034.4376 308.06369,1037.7632 307.08698,1038.5938 C 305.05269,1039.4793 311.74947,1037.7188 313.20937,1039.799 C 317.01805,1042.7093 312.59433,1046.808 312.09375,1049.6875 C 311.18189,1052.1674 308.76547,1056.9292 308.58362,1058.769 C 312.54765,1061.2266 311.03818,1063.2758 313.16628,1066.9252 C 310.11012,1061.4023 317.3787,1068.4494 320.1853,1068.4967 C 323.6487,1071.0642 329.49228,1071.8675 329.4375,1077.1875 C 327.1746,1081.3743 321.72187,1081.3037 317.78125,1079.9688 C 316.42489,1081.2695 316.52665,1079.2795 316.65625,1084.4375 C 318.9003,1086.3882 316.40247,1087.6079 318.20346,1091.3178 C 321.17629,1092.2322 321.07059,1096.5146 321.34375,1097.9688 C 320.3284,1105.0392 320.71854,1096.8146 323.125,1099.9688 C 324.32386,1101.8378 330.58359,1098.7529 330.27201,1102.887 C 332.6993,1106.296 326.5669,1106.6955 327.375,1110.2812 C 325.89367,1114.5946 328.02029,1114.859 329.31542,1116.7411 C 329.27792,1120.5037 331.08628,1119.4348 330.3125,1124.0625 C 330.44008,1122.3123 333.9727,1122.9216 337.2547,1122.0691 C 340.01833,1121.81 346.40537,1122.7682 343.00109,1126.6808 C 341.35446,1130.7053 337.26177,1130.2943 334.94345,1132.826 C 330.89088,1134.3029 331.24261,1136.2231 329.59375,1138.9375 C 325.74242,1136.8613 330.84372,1143.7492 328.99453,1146.083 C 329.03174,1148.8425 331.43624,1151.6441 332.65625,1154.1943 C 335.6777,1164.9841 342.90463,1158.1534 342.96875,1164.3438 C 340.79846,1167.676 341.51911,1172.0734 342.25,1175.6562 C 344.38019,1180.8276 342.05711,1183.3206 343.7761,1178.8165 C 347.22227,1180.9615 345.20362,1184.4648 346.71875,1187.4688 C 346.67406,1190.8054 342.29178,1193.0052 342.58159,1196.8176 C 341.07921,1200.1842 342.39509,1202.0541 345.90625,1204.6562 L 355.11998,1214.008 C 360.08027,1216.7327 365.37665,1219.6126 368.68139,1224.2168 C 372.9136,1223.7709 373.13171,1225.7884 374.65625,1228.0938 C 378.21192,1227.8715 373.17557,1233.4921 375.51571,1236.0495 C 377.23613,1241.0849 381.79175,1244.6345 385.78125,1247.6875 C 388.85386,1248.7488 392.80077,1246.0856 394.84375,1249.0938 C 393.97708,1245.5924 400.26504,1249.9083 402.53125,1248.9688 C 404.31511,1245.7973 404.48797,1244.1985 404.85946,1243.7682 C 410.47058,1247.9735 408.13553,1241.2438 410,1243.4062 C 410.55497,1246.8444 413.07497,1248.1856 413.14088,1251.3152 L 412.3125,1256.125 C 414.16459,1251.5631 417.15867,1258.9855 420.86257,1258.0217 C 423.80131,1258.8613 426.99825,1256.8 429.5061,1258.0325 C 435.46196,1259.7204 440.60234,1263.3184 445.78125,1266.7188 C 446.0195,1266.7279 450.79304,1268.2136 453.3181,1268.3857 C 457.70561,1268.4557 461.9191,1269.2401 466.09375,1270.4062 C 469.25905,1269.0836 471.46262,1269.2528 475.15026,1267.8272 C 477.93755,1266.2332 482.66053,1266.5977 483.78442,1267.8133 C 486.7975,1265.9638 490.31144,1265.8284 492.0625,1262.4375 C 495.40403,1260.8624 497.42206,1256.9163 501.84375,1257 C 505.07225,1259.2161 507.91081,1262.0547 505.9375,1265.7188 C 508.5795,1269.8074 510.70687,1266.5537 512.3125,1270 C 514.34468,1272.2685 521.29486,1269.1591 516.9375,1267.5312 C 517.72744,1264.2479 522.68911,1265.0563 521.81175,1268.7532 C 522.78205,1272.247 526.60762,1267.6673 523.65625,1265.3438 C 521.21789,1260.5246 528.72298,1259.3766 531.66987,1257.6214 C 538.28865,1258.5541 532.09246,1254.3201 536.75,1252.7812 C 541.25394,1255.5964 540.54456,1250.5659 541.70142,1247.8564 C 543.26167,1244.5548 545.35172,1241.6276 547.002,1238.4647 C 548.31973,1234.5777 551.87547,1235.0562 553.8125,1233.8125 C 551.79907,1231.8653 551.53729,1227.541 554.25402,1225.373 C 555.08818,1221.7316 559.56767,1224.0282 562.09375,1223 C 564.5861,1226.1179 565.86737,1221.6747 567.66978,1219.0266 C 572.37755,1218.4175 567.84595,1215.8686 567.5,1213.0625 C 564.76346,1212.839 561.88872,1213.5675 558.625,1213.4375 C 555.12445,1214.9903 553.00291,1208.5396 556.72279,1209.6824 C 559.64309,1209.5952 562.79703,1208.6435 565.8125,1208.4375 C 570.88032,1206.8764 573.10571,1201.2727 578.46875,1200.9375 C 582.88953,1201.1896 580.63043,1199.4366 584.30576,1198.6535 C 587.21231,1200.8919 590.48838,1195.6023 590.53028,1193.1108 C 590.34301,1188.3706 584.5726,1191.6763 583.54015,1187.3305 C 579.13602,1185.5017 582.10749,1176.5133 586.5645,1179.504 C 589.66551,1181.5481 591.89948,1184.4072 594.25,1186.875 C 598.06128,1186.8957 596.72498,1190.1646 598.9375,1189.875 C 602.91954,1189.488 602.35777,1183.8074 606.75677,1184.0312 C 609.42523,1181.9363 611.72134,1179.2985 614.3125,1177.0938 C 616.75764,1174.7568 613.98037,1172.7596 611.79756,1170.7579 C 608.1164,1167.2715 614.84101,1164.9439 615.15625,1169.0312 C 618.72072,1171.4503 620.75821,1167.4211 623.28557,1165.5611 C 625.99177,1163.298 625.20052,1158.8491 627.9375,1156.2188 C 624.7544,1161.4573 627.03891,1153.3402 623.65625,1152.8438 C 626.09014,1150.793 624.37359,1145.8161 627.48075,1144.272 C 630.50569,1143.8894 632.6352,1140.2473 635.69294,1138.944 C 639.69972,1135.8826 642.94434,1131.8066 645,1127.3438 C 642.76702,1124.547 646.16597,1120.381 647.74479,1117.9579 C 648.64709,1114.0313 651.94031,1110.2816 650.3125,1105.9062 C 652.08163,1100.4401 647.04992,1095.2683 649.17174,1090.0246 C 648.33748,1082.4513 646.2421,1074.5041 650.9144,1067.778 C 653.20639,1063.0592 650.96322,1057.7406 651.21875,1052.9062 C 650.25482,1049.8983 652.27467,1047.2482 651.49676,1044.025 C 653.41533,1038.8372 646.49148,1035.8179 646.90625,1030.5938 C 646.61522,1027.4757 649.0333,1024.348 645.63306,1022.1458 C 645.08966,1017.6183 640.4917,1024.5588 640.625,1023.4062 C 637.37196,1026.8403 636.91671,1021.8713 640.09375,1020.5312 C 641.19183,1017.9779 635.85991,1021.1906 633.8551,1018.6783 C 630.876,1017.1215 627.4141,1019.8716 625.86168,1018.8082 C 622.54856,1016.7701 629.45042,1017.8268 624.22438,1016.4533 C 620.51807,1014.7644 615.53521,1012.7755 612.0625,1016.5938 C 607.84102,1017.592 608.24754,1023.5303 603.90625,1023.2812 C 599.55968,1024.0193 599.07076,1017.4192 594.5625,1017.8438 C 590.89447,1015.8622 601.2028,1017.6857 600.71875,1021.5312 C 604.67859,1024.4457 608.10628,1021.1787 606.811,1016.7489 C 608.78616,1011.7551 616.59597,1011.0776 620.90625,1013.3438 C 621.96655,1009.9476 626.09486,1011.281 628.69107,1010.6632 C 633.16887,1009.1744 637.50547,1011.2663 641.96875,1011.8125 C 644.76304,1014.719 646.05735,1014.267 648.86361,1010.8346 C 649.14493,1008.7111 653.79649,1003.6008 649.375,1003.3438 C 645.70801,1000.1364 653.01763,1000.9575 650.59208,997.02693 C 651.44398,997.88323 645.51494,994.34564 649.34036,990.85859 C 651.06923,985.71522 647.95762,979.57306 650.0625,974.53125 C 651.18147,969.25577 650.24522,973.15774 648.875,968.40625 C 648.0786,963.93837 649.91096,959.50987 648.5,955 C 647.94532,950.59768 649.49118,946.69248 648.625,942.59375 C 648.36606,946.07533 645.18664,938.80661 645.125,936.96875 C 643.73545,934.20901 642.25228,931.99945 644.26284,928.82159 C 645.15568,926.95214 649.29606,919.48957 649.85873,923.10719 C 649.52198,925.19755 651.45537,917.55586 651,915.25 C 651.80171,911.68887 650.42569,907.50417 651.89258,904.32649 C 653.03594,901.61912 654.17568,898.75151 655.5,895.65625 C 657.15218,892.72626 656.45968,889.97685 657.45307,887.10017 C 656.76563,883.76786 658.75926,881.90365 659.625,879.125 C 658.29033,874.87784 663.49637,875.52685 666.03125,874.8125 C 663.71672,872.85877 659.33267,875.11924 660.30632,870.21986 C 658.26509,864.65543 660.3402,869.32915 656.91589,869.05604 C 655.36639,866.37474 655.54567,862.99404 652.5,861.34375 C 650.20299,861.20067 644.85548,857.43728 646.125,857.09375 C 650.15761,859.28893 650.37692,852.4215 654.05918,853.4342 C 656.91727,852.8504 662.69232,853.22132 661.94518,855.56746 C 663.02782,852.08198 666.41366,849.54567 667.90328,846.08559 C 670.85897,843.23605 675.18399,841.96712 676.65625,837.65625 C 678.19559,834.90463 678.23231,830.70194 675.59375,828.6875 C 676.0044,823.9782 681.63065,821.10961 681.90625,816.1875 C 680.04239,811.77887 684.6831,810.08352 687.875,808.90625 C 691.4503,808.09578 693.06947,805.68455 695.00636,803.19692 C 698.36019,801.80352 695.27779,798.96379 694.96875,796.90625 C 691.82844,795.08552 686.43183,795.63649 685.90625,791.15625 C 682.24408,788.59641 684.41181,783.35052 682.78125,779.6875 C 685.52318,775.68625 688.44068,770.5071 693.99836,769.89638 C 698.17875,767.9519 703.17774,769.43799 706.75,765.90625 C 710.12769,766.69138 712.85684,765.15404 715.21875,762.75 C 717.48366,760.29425 725.42282,758.31249 720.96418,763.59327 C 721.23833,760.34074 727.04841,762.93482 729.53138,764.58748 C 732.24628,765.14059 735.1745,765.1422 737.96875,766 C 740.90394,765.92392 743.76977,765.96281 746.38132,764.65108 C 752.38324,762.53712 753.77637,755.87533 755,750.375 C 756.71039,747.82143 757.62514,744.71245 760.05426,742.77073 C 762.36712,741.03906 763.13015,737.555 765.5,736.25 C 767.07452,733.37765 770.01826,732.37193 772.18017,730.0794 C 775.57192,728.36997 776.02591,726.16492 778.6875,723.40625 C 781.20834,720.75529 784.71341,722.34662 787.67142,722.15086 C 791.51423,720.47018 796.32855,722.6848 800.28125,720.3125 C 804.44728,718.82797 802.89903,713.40915 803.64622,712.24769 C 805.80681,714.66447 810.41835,711.28016 810.375,708.78125 C 810.36068,706.0618 816.41827,708.21655 817.62886,704.37114 C 819.40691,701.6053 822.42755,698.58385 822.125,695.53125 C 819.49498,691.37692 822.62806,691.74763 825.34176,691.41236 C 826.24764,687.8334 830.12902,687.47991 831.6875,684.65625 C 832.35252,686.78706 835.95785,680.19264 835.98625,678.11423 C 835.11605,674.0946 842.002,677.86769 842.53125,673.8125 C 838.38683,670.80378 846.08223,670.30106 847.74389,671.52926 C 851.1913,671.52797 851.65333,668.82181 853.5625,666.5 C 857.30561,664.2915 858.79957,667.04714 861.17926,663.55198 C 863.89938,663.53238 866.79687,663.2928 869.53125,662.875 C 872.23627,659.84602 875.71759,657.39728 878.28125,653.96875 C 881.75834,651.07445 883.2123,646.45149 886.875,643.40625 C 888.05149,639.62847 892.72575,641.45209 894.19666,638.29262 C 895.03057,635.35847 898.83431,634.10828 898.28125,630.75 C 900.17155,628.57917 903.83387,626.8101 905.26715,624.1889 C 907.97176,622.05081 909.02018,618.80319 911.5625,616.6875 C 915.83838,614.42872 919.16643,610.25474 922.40625,606.71875 C 926.41648,603.39766 921.64717,600.39609 926.2687,597.77423 C 929.21029,594.95029 932.7539,596.01176 935.97881,593.14122 C 939.74345,590.96522 943.84084,587.86943 948.30621,587.85788 C 951.25906,586.83931 952.96598,586.3435 955.875,586.03125 C 959.17038,585.38694 963.3574,586.9233 965.5,583.875 C 968.22515,583.25124 971.42274,581.50328 972.375,578.46875 C 975.5812,572.98253 983.53303,570.93844 985.0993,564.55788 C 984.04738,561.80346 982.65768,558.35399 983.46012,555.98433 C 983.29232,553.17532 983.65016,550.01596 983.375,547.09375 C 983.8906,543.43392 986.46839,540.87415 990.21875,540.53125 C 992.90229,538.99418 997.9172,542.93332 998.13543,537.80753 C 998.83686,535.28439 1000.8991,532.47201 1003.5938,532.375 C 1006.5479,531.47732 1008.0326,528.39447 1010.625,526.75 C 1013.584,524.94291 1016.4304,523.13067 1019.504,523.16179 C 1022.7435,522.44449 1025.3413,523.51987 1027.5312,520.40625 C 1029.6343,518.40608 1032.496,518.0142 1035.4576,517.51286 C 1038.3049,514.33785 1040.8433,518.53602 1043.5938,517.03125 C 1046.8439,516.4528 1049.0896,515.1995 1051.4617,513.02197 C 1054.3352,511.99622 1057.0622,511.7843 1059.9375,509.78125 C 1062.856,507.01837 1066.8288,506.76019 1070.5625,506.90625 C 1076.7179,503.96221 1083.4692,499.85127 1085.0625,492.6875 C 1086.4188,489.86312 1086.6284,488.05032 1087.8163,485.0892 C 1087.429,481.80154 1089.6732,480.52855 1091.125,477.625 C 1091.0533,475.0747 1094.4178,472.36956 1094.8581,470.14817 C 1094.8227,467.04988 1099.9058,465.095 1097.0625,461.8125 C 1098.3925,458.39644 1098.4562,454.2298 1098.8125,450.375 C 1101.4196,448.73402 1100.8225,443.9518 1104.2188,442.4375 C 1105.1657,439.79146 1107.0899,437.16946 1108.0729,434.59919 C 1110.824,434.44258 1111.4592,429.91335 1112.2812,428.15625 C 1114.8495,426.13261 1114.3147,422.63624 1116.2531,419.87446 C 1117.564,416.98426 1119.8556,414.69259 1120.1875,411.84375 C 1119.3123,409.75613 1119.3933,407.42708 1119.3566,403.82159 C 1118.2685,401.52936 1114.3436,399.90793 1115.4375,396.6875 C 1118.2451,394.37671 1114.2785,390.32721 1116.0497,387.68579 C 1116.396,385.2048 1118.8699,382.53933 1118.3125,379.53125 C 1119.5423,376.47069 1120.6453,373.54707 1120.9017,370.88107 C 1121.5086,367.80104 1125.3684,367.89946 1127.625,365.84375 C 1131.5626,365.67618 1133.2919,361.69006 1135.25,359.34375 C 1139.0451,358.20579 1140.5283,355.24925 1141.875,351.90625 C 1142.2198,351.28234 1145.0246,348.41501 1146.2844,345.7195 C 1146.8571,343.47853 1149.4801,340.53309 1148.6875,338.1875 C 1148.3423,335.59252 1150.2905,332.37686 1149.6164,329.55766 C 1150.1553,325.48235 1151.5281,321.62618 1152.6875,317.6875 C 1152.7754,314.0098 1155.0487,310.80293 1156.5135,307.83908 C 1157.2894,305.29334 1160.0574,302.59283 1159.7812,300.96875 C 1160.5663,300.39803 1163.1279,299.5434 1163.8565,295.78714 C 1166.2573,293.06921 1166.9687,288.93064 1166.875,285.34375 C 1165.3101,282.40906 1163.5472,279.87168 1159.9045,279.17467 C 1156.0819,278.18511 1151.2698,276.00128 1147.4688,278.5625 C 1143.5968,279.28503 1139.4093,279.55191 1135.5,279.78125 C 1132.7362,279.73505 1129.0075,279.55471 1125.8876,278.86108 C 1122.9536,278.81243 1119.7246,277.37334 1117.3125,279.4375 C 1114.0111,279.47722 1110.8096,278.4625 1107.5312,279.28125 C 1104.9926,276.04933 1099.9921,277.16472 1096.4688,275.625 C 1093.5333,276.63703 1091.0746,279.39668 1087.7188,279.28125 C 1083.5078,280.86151 1079.528,277.95866 1075.3125,278.03125 C 1069.1579,276.03306 1062.2376,274.7297 1055.8057,273.09375 C 1051.8704,272.1808 1047.2105,271.85061 1043.9968,269.00075 C 1039.5268,268.09073 1034.6444,266.12511 1030,265.125 C 1025.2128,261.97209 1027.0145,262.68887 1023.4062,260.25 C 1021.391,256.5752 1021.8618,252.31721 1021.2188,248.46875 C 1019.3532,242.4678 1016.6909,236.76896 1013.625,231.25 C 1011.1174,229.05049 1010.7816,224.8962 1007.7944,222.94427 C 1006.1469,219.65765 1005.4562,216.76557 1002.2546,214.4816 C 996.08301,209.64766 992.89314,201.8704 985.9375,198.03125 C 979.24687,193.72588 976.33553,185.49805 971.08912,179.81289 C 964.8497,171.39742 958.98952,162.46329 951.78125,154.9375 C 948.09573,151.97571 943.62252,148.23652 938.53125,146.6875 C 934.24936,143.20202 930.1533,139.70416 925.53125,137 C 919.12826,131.48938 910.44515,129.10509 902.21198,128.28125 C 899.82211,128.42492 897.33629,128.45239 895.0625,127.6875 z M 507.78125,1267.625 C 502.34838,1271.1418 501.53368,1271.7347 507.3381,1267.9304 L 507.78125,1267.625 z M 647.03125,578.53125 C 639.61114,579.66054 645.85651,584.91438 647.03125,578.53125 z M 404.46875,651.03125 C 405.87413,652.43793 411.79198,657.87503 409.0625,655.90625 C 407.73968,654.05971 405.37823,653.13667 404.46875,651.03125 z M 402.125,665.75 C 403.85362,669.08821 405.3508,665.69099 402.125,665.75 z M 391.75,668.09375 C 387.85001,669.11726 384.58809,672.13332 380.4375,672.15625 C 384.74001,673.21425 388.45875,669.07099 392.6875,668.4375 L 391.97699,668.17698 L 391.75,668.09375 z M 395.1875,668.96875 C 396.13179,673.88627 397.71578,670.55938 395.1875,668.96875 z M 400.25,672.09375 C 396.64731,672.41784 393.48268,674.61715 389.625,673.8125 C 387.14873,674.20712 380.55007,674.04661 380.71769,674.38979 C 385.14091,674.80407 389.63769,674.37278 394.0625,674.15625 C 394.94517,676.20966 402.03433,676.24321 401.15625,673.34375 C 401.07646,672.56418 401.36374,672.05771 400.25,672.09375 z M 343.375,698.84375 C 337.83419,699.1243 340.99165,702.5789 344.96793,700.63569 C 348.198,700.27251 345.70137,698.17049 343.375,698.84375 z M 226.84375,703.5 C 224.59759,705.65734 220.0976,705.17952 218.77308,706.81019 C 220.25998,711.18707 225.18688,707.33976 227.29205,705.63021 C 227.62549,705.02289 226.73998,704.1807 226.84375,703.5 z M 315.65625,718.78125 C 321.63362,717.60703 315.40608,728.12475 313.0625,723.9375 C 308.76242,723.60496 305.82743,718.96336 311.98417,719.12896 C 313.16752,718.79157 314.44078,718.92314 315.65625,718.78125 z M 399.96875,723.96875 C 396.73258,728.12326 396.17592,723.3248 399.96875,723.96875 z M 297.8125,798.125 C 294.00768,801.16885 299.0088,805.01545 302.2638,802.56008 C 305.04552,802.11417 298.93119,797.67268 297.8125,798.125 z M 319.90625,875.125 C 318.73474,877.12356 327.70018,879.90135 320.875,875.34375 L 320.13682,875.17706 L 319.90625,875.125 z M 300.34375,891.75 C 296.89791,894.91367 299.45541,898.61854 302.25,893.15625 C 303.02227,891.82288 300.9784,892.04897 300.34375,891.75 z M 649.1875,933.4375 C 648.36138,937.09545 648.69066,936.56251 649.1875,933.4375 z M 458.875,941.4375 C 464.68671,941.3622 466.39486,949.70401 463.46875,953.5 C 463.19465,957.35741 458.73091,957.10967 456.375,954.09375 C 455.36966,956.96594 460.4007,961.88583 457.37547,964.53394 C 453.57367,968.93822 450.89932,964.43874 448.27354,967.84036 C 448.58797,971.45774 446.68083,975.77358 441.625,974.28125 C 439.07128,976.91532 447.01437,976.98996 447.96552,977.06383 C 450.53317,980.99575 443.54565,983.00635 446.1296,985.05391 C 445.18127,989.05735 443.10565,991.598 446.00967,995.29436 C 449.3731,998.02506 440.82106,998.36603 439.74654,1000.9065 C 437.3046,1003.9168 446.87955,1008.8198 442.375,1006.6875 C 438.89632,1004.7986 441.73408,1014.2631 439.23103,1011.7094 C 439.67262,1007.2145 436.8715,1004.8562 437.60257,1000.5806 C 441.56975,996.90045 433.01045,998.04744 436.56682,993.62359 C 443.10466,998.77499 438.69707,988.67625 436.23054,991.83822 C 430.7441,991.85027 435.4702,989.88594 438.45812,989.27594 C 443.51688,991.55689 438.42938,980.86408 436.03125,983.53125 C 432.3941,982.38125 432.62737,978.31365 433.8125,974.46875 C 439.35731,975.47967 438.70304,971.28779 442.88974,968.73568 C 447.69732,968.39517 449.39369,959.46147 444.90625,963.65625 C 441.85059,962.53229 442.95474,957.06498 446.15625,957.21875 C 451.83608,960.68178 447.27509,954.74508 448.26504,951.45834 C 448.05627,945.88834 455.03956,949.12345 454.90625,945.21875 C 456.72261,944.20702 456.01682,941.71194 458.875,941.4375 z M 273.6875,954.9375 C 272.38076,956.78465 265.44358,959.3325 269.91959,961.19178 C 271.40506,962.00782 278.36944,955.8266 273.6875,954.9375 z M 644.6875,1017.1875 C 644.55993,1018.8501 644.63923,1018.6391 644.6875,1017.1875 z M 322.9375,1100.4375 C 322.18694,1102.0391 323.33019,1100.8826 322.9375,1100.4375 z M 594.9375,1193.4688 C 593.77297,1194.3239 592.32366,1195.8873 594.9375,1193.4688 z M 592.5625,1193.9062 C 591.50091,1196.2605 592.00416,1196.7219 592.5625,1193.9062 z M 573.125,1205.8125 C 570.87539,1210.3514 579.44746,1208.7748 573.125,1205.8125 z M 496.5625,1262.9688 C 494.5629,1264.0517 491.04557,1271.1176 496.09342,1268.8966 C 498.16486,1267.8983 499.10415,1264.3736 496.5625,1262.9688 z M 520.875,1265.9688 C 519.17722,1267.8138 517.18576,1273.7998 519.625,1269.5938 C 519.60994,1268.157 522.09218,1267.5895 520.875,1265.9688 z M 471.0625,1273.2812 C 468.18684,1275.9867 472.91574,1282.8863 472.53125,1276.7812 C 472.42263,1275.6314 472.59213,1273.4982 471.0625,1273.2812 z M 464.0625,1274.125 C 464.22256,1279.0024 470.02837,1275.6833 464.0625,1274.125 z M 467.84375,1276.7188 C 461.83054,1276.1695 464.74144,1279.1216 467.84375,1276.7188 z M 328.15625,1280.6562 C 318.73206,1285.9507 309.90456,1292.9706 299.25,1295.9062 C 295.55775,1297.6702 290.85726,1298.9943 290.09375,1303.7188 C 288.41783,1307.2306 296.86943,1304.0275 299.15143,1303.4678 C 308.84987,1301.0437 316.6601,1294.8225 325.0625,1289.8125 C 327.45635,1287.768 336.62877,1287.5111 332.76623,1283.7684 C 331.62519,1282.1909 330.40358,1280.3082 328.15625,1280.6562 z M 389.15625,1285.125 C 383.2503,1286.5006 376.70351,1287.2535 370.40625,1287.2188 C 369.73432,1289.5417 377.60647,1288.2201 380.30276,1287.9231 C 383.39311,1287.671 386.74565,1287.2985 389.15625,1285.125 z"
       id="rect3393"
       sodipodi:nodetypes="cccccccccccccccccccccccccccccccccccccccccccccccccccccccccccccccccccccccccccccccccccccccccccccccccccccccccccccccccccccccccccccccccccccccccccccccccccccccccccccccccccccccccccccccccccccccccccccccccccccccccccccccccccccccccccccccccccccccccccccccccccccccccccccccccccccccccccccccccccccccccccccccccccccccccccccccccccccccccccccccccccccccccccccccccccccccccccccccccccccccccccccccccccccccccccccccccccccccccccccccccccccccccccccccccccccccccccccccccccccccccccccccccccccccccccccccccccccccccccccccccccccccccccccccccccccccccccccccccccccccccccccccccccccccccccccccccccccccccccccccccccccccccccc" />
  </g>
  <g
     inkscape:groupmode="layer"
     id="layer5"
     inkscape:label="_rivers">
    <path
       style="opacity:1;fill:none;fill-opacity:1;fill-rule:nonzero;stroke:none;stroke-width:0.89999998;stroke-linecap:butt;stroke-linejoin:miter;marker:none;marker-start:none;marker-mid:none;marker-end:none;stroke-miterlimit:1;stroke-dasharray:none;stroke-dashoffset:0;stroke-opacity:1;visibility:visible;display:inline;overflow:visible;enable-background:accumulate"
       d="M 482.2804,791.73358 C 484.41168,791.94334 485.29561,794.6331 483.60469,796.02427 C 483.38683,799.42369 485.95663,797.43346 486.738,799.2249 C 489.13598,799.17593 489.13437,801.83995 490.6496,803.15198 C 492.09735,804.80246 494.92589,801.84629 494.97757,805.15619 C 495.97116,806.64758 498.8178,808.46054 499.43514,805.81454 C 498.94949,804.03429 497.0398,802.31171 498.38599,800.31561 C 499.25805,797.71183 495.37614,796.98551 495.68399,794.53638 C 493.46561,793.02676 496.49273,791.32348 497.36142,790.35519 C 497.73595,788.35167 499.04695,786.91316 499.26801,784.92401 C 497.8445,783.69241 497.73592,780.97843 496.314,780.31238"
       id="path7954" />
    <path
       style="opacity:1;fill:none;fill-opacity:1;fill-rule:nonzero;stroke:none;stroke-width:0.89999998;stroke-linecap:butt;stroke-linejoin:miter;marker:none;marker-start:none;marker-mid:none;marker-end:none;stroke-miterlimit:1;stroke-dasharray:none;stroke-dashoffset:0;stroke-opacity:1;visibility:visible;display:inline;overflow:visible;enable-background:accumulate"
       clip-path="url(#clipPath1)"
       d="M 441.45081,1012.5444 C 443.55699,1012.1311 445.74828,1014.773 443.70393,1016.0589 C 441.67356,1017.4529 439.21304,1013.4722 438.47163,1016.5146 C 436.3203,1016.3507 436.53675,1018.7722 434.55517,1019.3629 C 433.72229,1020.7517 429.91762,1017.7093 430.3859,1021.2639 C 429.73445,1023.1643 431.37372,1025.1554 430.77878,1026.685 C 429.01516,1028.6059 430.80304,1030.5582 432.24966,1031.975 C 434.22344,1032.9199 434.31497,1035.3789 432.91848,1036.9154 C 431.58255,1038.3834 430.11655,1039.2998 428.56187,1040.2517 C 426.35911,1040.5212 425.05149,1042.5548 422.92319,1043.0392 C 422.97703,1045.0812 422.13071,1047.9022 420.02528,1045.1248 C 418.18979,1044.472 416.23553,1047.1289 416.67597,1048.9308 C 415.52291,1050.5607 412.61159,1049.8393 411.03386,1051.3534 C 409.59948,1051.8814 407.7322,1050.9884 406.056,1051.1368"
       id="path7501" />
    <path
       style="opacity:1;fill:none;fill-opacity:1;fill-rule:nonzero;stroke:none;stroke-width:0.89999998;stroke-linecap:butt;stroke-linejoin:miter;marker:none;marker-start:none;marker-mid:none;marker-end:none;stroke-miterlimit:1;stroke-dasharray:none;stroke-dashoffset:0;stroke-opacity:1;visibility:visible;display:inline;overflow:visible;enable-background:accumulate"
       clip-path="url(#clipPath1)"
       d="M 595.63843,1018.1136 C 594.88787,1020.5904 591.78517,1019.4274 590.72016,1021.1918 C 589.86706,1022.9855 588.15234,1024.2591 587.6416,1026.2532 C 585.82197,1026.9337 584.25388,1026.9211 582.36359,1027.74 C 581.93315,1029.2915 578.90602,1030.8359 581.95701,1030.4609 C 584.10124,1027.8762 584.3416,1031.5485 583.13699,1033.0948 C 581.70538,1034.9688 586.79777,1034.0866 586.02394,1035.718 C 584.78031,1036.2267 590.35969,1037.0816 589.04186,1038.8227 C 587.69562,1040.1637 587.24749,1043.8066 584.7942,1042.3102 C 582.31571,1041.948 580.61016,1039.7446 577.99398,1040.0376 C 575.44813,1038.806 576.97378,1044.4779 574.40601,1042.566 C 572.92556,1044.3309 569.83361,1041.4553 569.46906,1043.9855 C 569.39825,1046.7175 566.05225,1045.7556 565.11104,1044.1567 C 564.32939,1041.9224 561.89338,1041.3558 559.79308,1041.8695 C 557.70314,1042.1756 556.02333,1043.8637 554.09479,1044.7136 C 553.06197,1046.819 557.35586,1048.3712 555.60927,1050.3072 C 554.2136,1052.3808 551.91522,1050.9013 551.67732,1053.6908 C 551.63202,1056.2371 549.23006,1056.8338 547.12154,1056.8059 C 545.17366,1056.005 543.58525,1055.4945 541.51451,1057.1327 C 539.23917,1058.6219 544.59833,1059.2655 543.60917,1060.7158 C 541.83071,1061.963 539.12032,1061.7963 537.58382,1062.8306 C 536.71286,1065.7635 537.00105,1069.2704 534.38,1071.3333 C 535.63922,1073.7588 532.78866,1075.291 530.92102,1076.0822 C 528.69701,1076.5544 527.99726,1079.3524 528.70798,1081.2372 C 529.97495,1082.9987 527.915,1086.5004 526.52414,1083.5877 C 523.65092,1081.9723 526.7689,1085.8363 526.97173,1087.1008 C 528.14535,1088.8223 525.70286,1091.6071 523.62422,1090.1006 C 521.41541,1089.5549 519.71838,1090.6084 518.10746,1091.8358 C 515.4846,1092.362 513.43062,1095.1278 510.5632,1094.1281 C 509.52519,1095.714 512.50116,1099.6483 509.55622,1097.5892 C 508.35268,1095.9458 505.4812,1097.8116 503.86019,1097.9585 C 503.04769,1101.461 502.42274,1099.2904 500.07343,1100.2626 C 498.01177,1101.1593 495.88398,1100.1798 495.96331,1102.8944 C 494.44183,1105.4637 493.07532,1105.634 492.67582,1102.8486 C 491.46061,1100.4647 489.40497,1101.9732 487.65494,1100.6082 C 486.52061,1098.9382 485.42943,1096.371 483.3863,1096.0033 C 481.29203,1096.2431 483.77019,1100.0657 480.40884,1099.5627 C 479.22967,1101.1148 476.88464,1102.5146 477.7948,1104.7904 C 475.70548,1105.0944 474.07826,1107.0024 471.93761,1106.4244 C 469.09551,1107.6903 472.71782,1108.6659 469.79993,1110.1539 C 467.17246,1111.2445 469.41387,1114.5037 466.99414,1114.9486 C 463.48921,1116.0619 460.14669,1117.8033 457.5816,1120.4705 C 455.08289,1121.8859 455.00929,1118.7155 454.2548,1117.1925 C 452.79887,1115.9198 452.72683,1113.4487 449.87942,1113.8381 C 448.09499,1112.8973 446.13971,1113.2285 444.32721,1112.2708 L 444.00321,1112.1296 L 443.88681,1112.0789"
       id="path7605" />
    <path
       style="opacity:1;fill:none;fill-opacity:1;fill-rule:nonzero;stroke:none;stroke-width:0.89999998;stroke-linecap:butt;stroke-linejoin:miter;marker:none;marker-start:none;marker-mid:none;marker-end:none;stroke-miterlimit:1;stroke-dasharray:none;stroke-dashoffset:0;stroke-opacity:1;visibility:visible;display:inline;overflow:visible;enable-background:accumulate"
       clip-path="url(#clipPath1)"
       d="M 555.5788,673.60437 C 554.04271,671.66722 556.16006,669.21574 557.28932,669.37228 C 555.40003,667.5729 558.32958,666.18508 559.89917,665.93518 C 563.06295,667.01485 563.84497,663.18029 564.54163,660.96521 C 565.38833,658.66109 566.31871,656.45613 565.57625,653.98206 C 564.52116,652.18053 565.26525,650.17854 564.82438,648.22091 C 563.12633,646.56578 560.63724,645.87967 559.43138,643.64511 C 558.00633,642.16743 555.18162,642.6796 554.35261,640.33748 C 553.23015,638.73942 550.94292,638.85816 550.02917,636.99158 C 547.46832,636.91077 547.04456,633.35866 544.37651,633.71061 C 541.73611,633.3667 539.46257,631.45815 538.10681,629.2356 C 540.34481,626.40173 534.56501,627.93796 535.62524,626.32289 C 534.90867,624.66983 537.23703,622.91467 536.4006,621.17654 C 536.2068,620.73903 536.01301,620.30152 535.81921,619.86401"
       id="path7491" />
    <path
       style="opacity:1;fill:none;fill-opacity:1;fill-rule:nonzero;stroke:none;stroke-width:0.89999998;stroke-linecap:butt;stroke-linejoin:miter;marker:none;marker-start:none;marker-mid:none;marker-end:none;stroke-miterlimit:1;stroke-dasharray:none;stroke-dashoffset:0;stroke-opacity:1;visibility:visible;display:inline;overflow:visible;enable-background:accumulate"
       d="M 598.63159,838.24438 C 596.52033,838.74552 596.48876,841.4517 594.776,842.54797"
       id="path7966" />
    </g>
</svg>
