<?xml version="1.0" encoding="UTF-8"?>

<!DOCTYPE svg PUBLIC '-//W3C//DTD SVG 1.0//EN' 'http://www.w3.org/TR/2001/REC-SVG-20010904/DTD/svg10.dtd'>
<svg color-interpolation="auto" color-rendering="auto" fill="black" fill-opacity="1" font-family="&apos;Dialog&apos;" font-size="12" font-style="normal" font-weight="normal" height="1248" image-rendering="auto" shape-rendering="auto" stroke="black" stroke-dasharray="none" stroke-dashoffset="0" stroke-linecap="square" stroke-linejoin="miter" stroke-miterlimit="10" stroke-opacity="1" stroke-width="1" text-rendering="auto" width="1500" xmlns="http://www.w3.org/2000/svg" xmlns:xlink="http://www.w3.org/1999/xlink">
  <!--Generated by the Batik Graphics2D SVG Generator-->
  <defs id="genericDefs" />
  <g>
    <defs id="defs1">
      <clipPath clipPathUnits="userSpaceOnUse" id="clipPath1">
        <path d="M0 0 L1500 0 L1500 1248 L0 1248 L0 0 Z" />
      </clipPath>
    </defs>
    <g fill="rgb(224,224,224)" shape-rendering="crispEdges" stroke="rgb(224,224,224)" text-rendering="geometricPrecision">
      <rect clip-path="url(#clipPath1)" height="1248" stroke="none" width="1500" x="0" y="0" />
      <path clip-path="url(#clipPath1)" d="M210.2195 1192.4323 L162.0166 1192.7629 L154.0907 1192.3091 L51.3399 1191.8517 L51.5293 1030.8446 L51.2564 789.5356 L51.483 742.3549 L51.9837 703.5594 L51.8676 553.9217 L51.3032 347.4424 L51.213 340.386 L50.8628 334.654 L50.8841 205.4818 L49.62 163.1116 L49.2793 94.5479 L49.5987 75.4294 L49.4406 72.5624 L49.6218 56.3526 L104.3903 55.89 L120.553 58.9045 L136.6699 58.9657 L164.5824 58.894 L181.8391 58.483 L189.9937 56.5591 L205.3845 57.6207 L223.0737 57.8085 L241.1953 55.6197 L288.7024 55.7984 L314.0412 56.272 L387.8854 55.3411 L445.2477 55.0527 L449.8581 56.8861 L554.2052 56.5633 L618.376 56.881 L624.6326 56.5738 L669.2351 56.2735 L744.8007 56.55 L800.384 56.3282 L844.4232 56.6964 L854.4045 57.6919 L860.3716 57.7611 L1023.5297 58.5176 L1088.8818 58.5292 L1091.8821 56.4604 L1273.3046 56.6028 L1468.0344 57.4704 L1468.396 92.1858 L1468.4537 237.8356 L1468.6851 289.201 L1468.5608 463.7412 L1469.0706 723.2177 L1469.1395 1078.3671 L1468.936 1190.8739 L1378.9563 1190.7543 L1342.7029 1191.0013 L1311.587 1191.4797 L1306.3635 1191.8264 L1226.5946 1191.715 L1129.1613 1192.1727 L1034.7584 1191.9597 L1010.6315 1191.5782 L981.9496 1190.672 L871.4988 1190.2959 L659.4854 1190.6873 L632.1837 1191.1437 L562.2914 1191.3884 L431.0104 1191.0291 L419.1922 1190.6887 L415.3915 1190.9866 L357.7853 1191.7994 L259.0358 1191.9041 L224.0475 1192.4878 L210.2195 1192.4323 Z" fill="rgb(254,254,233)" fill-rule="evenodd" stroke="none" />
      <path clip-path="url(#clipPath1)" d="M1520.2703 1190.8718 L1468.936 1190.8739 L1469.1395 1078.3671 L1468.9808 623.834 L1486.5811 623.5158 L1494.9598 623.7396 L1520.2703 623.7656 L1520.2703 1190.8718 Z" fill="rgb(246,225,185)" fill-rule="evenodd" stroke="none" />
      <path clip-path="url(#clipPath1)" d="M1471.6162 -28.3636 L1471.6865 57.2832 L1344.8978 57.1193 L1273.3046 56.6028 L1092.6978 56.4575 L1088.8818 58.5292 L1023.5297 58.5176 L860.3716 57.7611 L854.4045 57.6919 L844.4232 56.6964 L800.384 56.3282 L744.8007 56.55 L669.2351 56.2735 L624.6326 56.5738 L618.376 56.881 L554.2052 56.5633 L449.8581 56.8861 L445.2477 55.0527 L387.8854 55.3411 L314.0412 56.272 L288.7024 55.7984 L241.1953 55.6197 L223.0737 57.8085 L205.3845 57.6207 L189.9937 56.5591 L181.8391 58.483 L164.5824 58.894 L136.6699 58.9657 L120.553 58.9045 L104.3903 55.89 L49.6218 56.3526 L49.4406 72.5624 L49.5987 75.4294 L49.2793 94.5479 L49.62 163.1116 L50.8836 205.8996 L48.0955 205.332 L44.7385 203.8409 L40.6419 202.0935 L37.3944 200.2989 L34.9861 198.828 L32.5445 193.6927 L34.1098 189.3043 L30.1338 188.6465 L28.4615 185.3915 L24.9231 184.0982 L24.3523 179.6127 L19.9664 177.0716 L16.4876 177.2256 L14.118 175.932 L13.8855 173.4144 L13.5227 170.1656 L12.6738 168.0789 L13.1584 165.493 L16.3711 163.7671 L11.5016 157.8133 L9.4845 156.1055 L5.9876 156.8926 L3.9116 154.5291 L6.4368 152.1247 L4.7765 148.8827 L3.7474 146.4851 L1.6818 145.7188 L0.5495 143.4916 L0.7581 141.174 L-3.5329 137.8481 L-4.7891 133.5723 L-7.5229 132.4003 L-9.767 134.5971 L-12.5611 131.9502 L-13.4331 129.8391 L-15.1541 127.5527 L-17.4312 126.1796 L-19.8253 128.5616 L-19.3279 130.6472 L-19.6845 133.6571 L-20.2703 -28.3636 L1471.6162 -28.3636 Z" fill="rgb(246,225,185)" fill-rule="evenodd" stroke="none" />
      <path clip-path="url(#clipPath1)" d="M-20.2703 135.321 L-20.1085 131.8662 L-19.1471 129.1742 L-19.0245 126.9134 L-15.1541 127.5527 L-13.4331 129.8391 L-12.5611 131.9502 L-11.3043 133.9893 L-8.382 133.5076 L-4.7891 133.5723 L-4.5722 136.506 L0.7581 141.174 L0.5495 143.4916 L1.6818 145.7188 L3.7474 146.4851 L4.7765 148.8827 L6.8165 151.2766 L4.6711 154.4043 L5.9876 156.8926 L9.5919 155.6903 L11.5016 157.8133 L14.8569 162.0942 L14.9949 165.0364 L11.7 166.3763 L13.2934 168.9409 L13.8797 171.5401 L14.2291 174.9012 L16.4876 177.2256 L19.9664 177.0716 L24.1676 178.9638 L24.1198 182.9545 L26.9814 185.1521 L30.1338 188.6465 L32.1476 188.4429 L32.5445 193.6927 L34.1799 198.5667 L37.3944 200.2989 L39.208 202.4228 L44.7385 203.8409 L48.0955 205.332 L50.1748 205.3853 L50.8628 334.654 L51.213 340.386 L51.3807 365.7397 L51.9943 695.6035 L51.2791 773.1746 L51.3468 907.1919 L-20.2703 907.2651 L-20.2703 135.321 Z" fill="rgb(246,225,185)" fill-rule="evenodd" stroke="none" />
      <path clip-path="url(#clipPath1)" d="M456.3904 1276.3636 L456.0657 1191.0858 L562.2914 1191.3884 L632.1837 1191.1437 L659.4854 1190.6873 L871.4988 1190.2959 L981.9496 1190.672 L1010.6315 1191.5782 L1034.7584 1191.9597 L1129.1613 1192.1727 L1226.5946 1191.715 L1306.3635 1191.8264 L1311.587 1191.4797 L1342.7029 1191.0013 L1378.9563 1190.7543 L1520.2703 1190.7113 L1520.2703 1276.3636 L456.3904 1276.3636 Z" fill="rgb(246,225,185)" fill-rule="evenodd" stroke="none" />
      <path clip-path="url(#clipPath1)" d="M1520.2703 623.7656 L1494.9598 623.7396 L1486.5811 623.5158 L1468.9808 623.834 L1468.5608 463.7412 L1468.6851 289.201 L1468.4537 237.8356 L1468.396 92.1858 L1468.0259 57.9106 L1471.6865 57.2832 L1471.6162 -28.3636 L1520.2703 -28.3636 L1520.2703 623.7656 Z" fill="rgb(246,225,185)" fill-rule="evenodd" stroke="none" />
      <path clip-path="url(#clipPath1)" d="M210.1157 1192.4342 L224.0475 1192.4878 L259.0358 1191.9041 L357.7853 1191.7994 L415.3915 1190.9866 L419.1922 1190.6887 L431.0104 1191.0291 L456.0657 1191.0858 L456.3904 1276.3636 L-20.2703 1276.3636 L-20.2703 907.2651 L51.3468 907.1919 L51.5293 1030.9592 L51.3399 1191.8517 L154.0907 1192.3091 L162.0166 1192.7629 L210.1157 1192.4342 Z" fill="rgb(246,225,185)" fill-rule="evenodd" stroke="none" />
    </g>
    <g fill="rgb(9,120,171)" shape-rendering="crispEdges" stroke="rgb(9,120,171)" stroke-dasharray="1,0" stroke-linecap="butt" stroke-miterlimit="1" text-rendering="geometricPrecision">
      <path clip-path="url(#clipPath1)" d="M680.6558 -28.3636 L664.1649 -19.0896 L656.488 -14.1583 L649.6635 -8.5273 L644.7485 -2.9312 L639.2501 5.3917 L634.6208 14.4211 L618.082 54.9598" fill="none" />
      <path clip-path="url(#clipPath1)" d="M83.7784 96.4988 L78.6859 85.5633 L76.6188 82.4407 L72.8611 79.7043 L70.4657 79.0932 L58.03 78.7098 L54.2984 77.8915 L51.2897 75.9357 L47.1553 69.9132 L41.8565 60.2529 L33.0038 48.8079 L20.8588 37.6554 L16.0546 27.3696 L11.8533 14.9303 L8.9417 1.8848 L7.5427 -10.978 L7.7953 -21.7364 L8.6953 -23.7735 L14.7099 -28.3636" fill="none" />
      <path clip-path="url(#clipPath1)" d="M777.9852 109.387 L809.2312 94.0442 L817.4993 90.6386 L824.7408 88.2629 L832.1602 86.5151 L841.0067 85.152 L875.1199 82.2868 L887.4266 65.2244 L890.6985 61.4061 L894.21 58.1436 L896.3526 57.2883 L903.7643 59.5503 L908.1567 53.9226 L909.9623 48.0636 L914.8022 24.6654 L916.8076 16.9532 L919.5114 9.745 L922.5164 4.3235 L927.1619 -1.4328 L932.7255 -6.5988 L940.0079 -12.1128 L959.6673 -25.6496 L962.9808 -28.3636" fill="none" />
      <path clip-path="url(#clipPath1)" d="M486.344 -28.3636 L484.6449 -22.1805 L483.2136 -18.7103 L481.2593 -15.4597 L470.47 -2.3195 L466.5757 4.2342 L462.7122 16.3527 L456.92 42.8295 L453.2567 53.4852 L450.9423 56.4966 L441.9529 62.9229 L439.6616 65.6315 L439.0537 67.7719 L439.2186 70.1763 L443.6213 82.1275 L444.0643 85.6948 L443.4334 87.7312 L437.546 93.4483 L423.2575 101.6215 L407.2885 100.7093 L403.5594 101.044 L400.1466 102.0517 L396.3917 105.6658 L390.3059 116.1057 L386.0791 117.0303 L382.001 113.8372 L374.6155 105.6537 L361.5569 93.4925 L347.8896 97.0504 L325.6296 83.5794 L319.3822 78.8999 L302.743 65.0415 L297.9266 60.6023 L293.7719 55.9729 L291.1109 52.0799" fill="none" />
      <path clip-path="url(#clipPath1)" d="M87.133 160.3533 L59.2803 158.7849 L53.2184 157.3527 L47.8065 154.7085 L40.1372 148.4264 L32.9956 140.8474 L12.3496 114.0573 L4.8848 105.2569 L-2.0542 98.6977 L-7.5575 94.9801 L-12.7854 96.0781 L-20.2703 101.8555" fill="none" />
      <path clip-path="url(#clipPath1)" d="M1279.0448 176.8431 L1290.8433 173.6577 L1295.0587 171.5572 L1297.0686 169.1541 L1298.2898 164.9385 L1298.4728 158.7982 L1297.6484 151.9881 L1294.8292 136.1991 L1294.2545 128.0615 L1294.5948 124.3444 L1295.5028 120.953 L1296.4789 118.907 L1298.5414 116.1852 L1307.0448 108.0578 L1318.1372 100.114 L1328.7798 93.9548 L1338.0813 85.3196 L1347.6807 80.2484 L1361.6251 71.1707 L1387.8099 60.4106 L1392.8252 56.3312 L1394.8904 53.4574 L1396.119 50.0201 L1396.854 44.8181 L1397.1917 35.0063 L1397.7832 29.6032 L1398.8368 25.9192 L1400.6698 22.7166 L1407.2625 15.192 L1414.7142 8.134 L1443.5516 -14.9871 L1452.3752 -22.6035 L1457.9742 -28.3636" fill="none" />
      <path clip-path="url(#clipPath1)" d="M94.8927 -28.3636 L88.0287 -19.0456 L83.1032 -10.5295 L80.7082 -3.2717 L80.4657 0.1975 L80.7393 2.4145 L82.4373 7.8903 L88.2229 14.1093 L96.5965 19.8077 L102.3519 28.1261 L106.4384 36.3421 L112.6565 43.3046 L121.5663 48.294 L131.3125 52.2054 L143.0799 56.5077 L158.9445 61.0935 L168.6958 64.2902 L174.0741 66.9571 L177.8555 69.5893 L181.1196 72.8031 L183.9448 76.788 L186.3411 81.4152 L188.3055 86.5265 L190.9294 97.5681 L191.5842 103.1813 L191.783 109.97 L190.649 119.5767 L189.1231 122.6234 L185.4773 126.3019 L180.6293 129.6662 L173.1818 133.2862 L167.5956 135.9093 L164.4558 138.8527 L163.9452 143.5191 L166.254 148.9317 L169.4294 154.8671 L174.0337 159.5085 L181.6126 166.1484 L186.0968 172.3941 L188.0154 181.8171" fill="none" />
      <path clip-path="url(#clipPath1)" d="M625.6827 95.5139 L615.897 94.2704 L603.5042 95.356 L589.9871 98.9957 L583.165 101.2773 L579.1422 104.173 L574.5003 109.2392 L566.3943 114.966 L559.8901 120.155 L556.1958 123.9241 L550.1956 129.5153 L544.0656 131.7413 L535.6787 135.4395 L521.6878 139.3123 L506.1814 140.9839 L494.4077 140.2866 L489.4781 142.3638 L484.039 146.2481 L481.6536 149.1356 L480.5826 151.2891 L479.4745 156.3262 L478.4774 170.0936 L477.4135 173.6143 L475.4508 176.4461 L468.8621 181.5116 L460.1837 186.402 L423.7207 201.218" fill="none" />
      <path clip-path="url(#clipPath1)" d="M632.6005 104.4726 L637.8763 148.3596 L639.7971 159.6323 L642.1672 169.4864 L653.4474 184.0531 L659.7559 207.4035" fill="none" />
      <path clip-path="url(#clipPath1)" d="M476.8391 306.3395 L485.713 302.7624 L488.9172 300.2771 L493.2258 291.3183 L495.3522 283.6729 L512.7489 261.5474 L525.3311 248.133 L537.1758 238.4794 L549.1704 230.1265 L560.4088 223.0774 L565.7148 221.7541 L569.4743 222.1231 L581.95 227.8825 L585.8456 230.1925 L595.1741 229.1203 L602.6932 229.869 L610.4736 231.2669 L613.5899 232.9375 L616.9565 232.799 L634.8202 223.3187 L653.4788 209.8457 L659.7559 207.4035" fill="none" />
      <path clip-path="url(#clipPath1)" d="M414.4981 214.6411 L410.9921 222.6485 L400.1452 233.5373 L384.6448 245.8789 L374.64 253.3742 L367.9553 259.036 L358.7753 274.0708 L354.2603 282.6772 L348.5593 287.8579 L340.9235 300.1159 L336.1907 311.2743 L335.1873 321.9878 L333.1763 330.5521 L328.1913 339.4741 L314.6971 359.2642 L310.2943 366.6091 L308.6537 378.16 L307.4447 381.86 L305.3314 383.4864 L296.788 386.5266" fill="none" />
      <path clip-path="url(#clipPath1)" d="M960.7925 426.6945 L950.9914 409.2405 L947.9922 405.3584 L944.4932 402.4834 L942.3886 401.7685 L939.9425 401.7525 L926.1235 404.872 L922.6889 404.3058 L915.3568 392.2339 L906.7546 380.9348 L893.8099 364.5752 L889.2301 358.2864 L885.0923 353.4862 L878.0256 347.78 L859.5583 336.8533 L855.7259 333.8687 L853.3453 331.4042 L851.1061 327.6843 L850.7932 323.1801 L851.9625 318.0853 L856.3793 304.4366" fill="none" />
      <path clip-path="url(#clipPath1)" d="M971.7667 434.1507 L980.8221 432.5275 L1001.3036 429.9164 L1008.9866 428.4717 L1016.9182 425.9668 L1020.7569 423.9839 L1023.209 422.1592 L1024.6102 419.5831 L1024.8988 416.2027 L1022.0018 399.1018 L1022.0361 395.0452 L1022.597 392.6211 L1024.0577 389.2211 L1026.7275 384.8708 L1038.9285 369.2082 L1041.3257 364.8657 L1042.506 361.4731 L1043.0909 356.7339 L1042.7438 351.802 L1041.4159 345.4529 L1037.2233 330.0204 L1036.4673 325.0152 L1036.3951 321.3657 L1037.6467 318.0218 L1044.1245 310.9959 L1045.609 307.6186 L1045.9292 298.9289 L1045.6443 290.1 L1042.5729 252.9127 L1042.464 243.9968 L1042.8971 236.4352 L1043.9884 228.9622 L1046.0117 220.3308 L1056.5714 186.0453 L1058.8953 175.767 L1059.5297 170.5299 L1059.0593 165.7611 L1051.4167 160.2834 L1049.3741 158.7025 L1048.7371 156.6085 L1048.9377 153.0402 L1050.0305 143.3271 L1051.7694 133.3829 L1061.6973 89.4193 L1080.2823 79.2692 L1084.3352 76.3065 L1087.662 72.8219 L1089.4869 69.7455 L1090.7201 66.2771 L1093.5123 49.3434 L1095.5421 43.2672 L1101.8486 32.2546 L1108.8562 21.4788 L1116.5094 11.0752 L1124.7629 1.187 L1133.614 -8.055 L1143.2119 -16.7086 L1160.0262 -28.3636" fill="none" />
      <path clip-path="url(#clipPath1)" d="M971.7667 434.1507 L960.7925 426.6945" fill="none" />
      <path clip-path="url(#clipPath1)" d="M1520.2703 144.3835 L1515.996 145.8855 L1508.7482 150.4311 L1497.6462 146.953 L1494.4899 144.9754 L1489.7935 138.3753 L1487.0098 136.3331 L1483.2347 136.7553 L1479.1061 138.1403 L1475.5367 138.2055 L1472.9551 135.952 L1468.8195 128.9404 L1466.4484 125.8592 L1463.1353 122.6401 L1458.3589 119.9197 L1453.3009 118.2017 L1448.2502 116.6492 L1443.4781 114.0972 L1438.8555 108.0853 L1428.7791 94.3004 L1418.6195 80.0298 L1414.9294 76.2773 L1411.2139 75.1584 L1408.1373 76.6376 L1404.822 80.6446 L1403.184 83.9008 L1401.9238 91.6725 L1400.1624 95.0126 L1395.0579 100.8694 L1391.9357 103.0541 L1386.1078 114.2781 L1380.1757 116.8643 L1379.6282 120.6624 L1378.366 125.2536 L1366.6412 132.6873 L1353.8877 148.478 L1348.8145 152.5348 L1345.384 158.7601 L1338.5895 165.5887 L1337.1935 167.9894 L1335.7886 171.5408 L1332.7607 182.6601 L1327.6417 212.7947 L1325.1763 224.0405 L1323.9264 227.6198 L1321.083 232.6673 L1315.8606 236.5276 L1311.2507 238.6957 L1301.5205 242.3562 L1291.1306 245.4473 L1288.7279 246.2782 L1284.8647 250.3962 L1283.5746 253.7826 L1280.7345 268.0509 L1279.1691 272.994 L1270.4183 283.4481 L1263.7358 290.0219 L1254.2581 300.9195 L1244.4979 310.8938 L1231.599 319.5377 L1207.9923 335.86 L1197.5844 343.9178 L1195.4248 346.9045 L1197.1631 352.2038 L1197.4208 354.5154 L1193.5653 357.0334 L1181.2809 360.8852 L1171.6478 364.6209 L1162.2848 368.8177 L1153.4647 374.7547 L1148.8044 378.5408 L1145.3376 385.8683 L1142.8448 397.5329 L1139.6943 402.9666 L1138.3657 407.5615 L1139.3728 411.9915 L1140.5564 419.0151 L1141.1996 428.4458 L1141.1346 434.3729 L1136.8091 439.6536 L1130.6606 442.2223 L1117.1599 445.0485" fill="none" />
      <path clip-path="url(#clipPath1)" d="M842.3269 461.41 L872.8918 459.1439 L880.2635 457.8167 L886.6643 455.7856 L889.5685 453.8523 L896.3583 445.7217 L903.4626 441.3412 L911.5397 440.6552 L926.2064 436.4011 L933.8828 429.7227 L945.0891 422.1653 L960.7925 426.6945" fill="none" />
      <path clip-path="url(#clipPath1)" d="M1479.7296 503.1905 L1475.6733 492.4762 L1473.7825 489.2219 L1469.0876 483.2165 L1463.725 477.8526 L1457.6144 473.327 L1449.8186 465.0191 L1443.6879 460.7181 L1442.0819 453.194" fill="none" />
      <path clip-path="url(#clipPath1)" d="M659.7559 207.4035 L667.2815 241.3954 L678.3642 260.3669 L681.7308 271.1234 L684.3812 281.9304 L686.0034 291.5988 L686.4157 299.0624 L686.1489 305.4387 L685.1709 313.195 L679.762 325.8876 L673.244 340.1456 L667.1352 353.9174 L660.8444 359.631 L655.3547 364.3693 L649.8535 368.9612 L642.288 376.3041 L636.9837 379.9716 L632.6661 384.0469 L630.2067 387.7387 L629.1849 391.9898 L629.584 396.7596 L636.6117 418.9812 L627.6002 437.1748 L625.9191 441.8966 L625.0759 446.6618 L625.1456 450.265 L626.0695 455.0786 L633.9727 475.7789 L635.1498 480.7426 L635.4789 484.4975 L634.0377 505.7291" fill="none" />
      <path clip-path="url(#clipPath1)" d="M1425.2157 519.0152 L1435.0354 504.5585 L1438.5604 501.3273 L1441.6508 499.9883 L1447.3702 499.1401 L1453.4944 499.2782 L1479.7296 503.1905" fill="none" />
      <path clip-path="url(#clipPath1)" d="M1381.7501 499.8521 L1380.8815 512.482 L1388.4777 511.9644 L1392.0676 512.8848 L1405.9724 519.2657 L1409.4806 520.5248 L1413.057 521.2378 L1416.7504 520.9597 L1425.2157 519.0152" fill="none" />
      <path clip-path="url(#clipPath1)" d="M1479.7296 503.1905 L1511.7755 532.9933 L1520.2703 540.18" fill="none" />
      <path clip-path="url(#clipPath1)" d="M-20.2703 492.7414 L-14.8992 496.2216 L3.0714 513.9955 L11.4016 519.7625 L14.9286 523.2874 L20.6294 531.7101 L25.3755 534.4254 L28.6276 534.8934 L31.5713 538.1752 L33.3352 549.7018 L34.488 553.2343 L36.8472 557.2908 L38.995 559.7613 L42.9917 565.8985 L47.4778 574.0458 L49.8907 577.3956 L61.006 575.4706 L79.8128 569.3534 L85.0069 569.1046 L98.21 567.5369 L101.0424 566.5757 L103.7504 563.7612 L105.8149 560.521 L106.9692 556.9858 L107.9517 549.2543 L108.9494 545.638 L111.2287 542.5965 L114.2241 539.8945 L116.4238 536.9673 L117.0122 533.3827 L116.6725 529.417 L115.6364 525.5656 L114.0348 522.2208 L111.7009 519.1891 L105.9139 514.1147 L98.76 511.0626 L95.5906 509.191 L93.2601 506.3395 L91.4229 502.8386 L90.1611 499.0833 L89.6227 495.4406 L90.5252 491.7927 L101.1312 467.1252 L102.411 463.5417 L105.2432 452.429 L108.5352 445.6177 L113.0335 439.4376 L121.3332 431.5359 L123.5074 428.5126 L126.0452 421.2604 L127.6953 417.849 L132.1778 411.6562 L137.6557 406.3983 L149.8537 397.2129 L152.4784 394.3237 L155.1254 390.5072 L156.711 386.7962 L156.0029 384.3775 L153.1093 383.1329 L141.6171 381.7277" fill="none" />
      <path clip-path="url(#clipPath1)" d="M261.8542 408.5182 L265.4994 415.3489 L272.7314 430.8879 L277.1516 438.6606 L279.6559 441.7048 L286.6614 445.9396 L295.9742 448.5775 L316.2047 461.2404 L321.3805 465.2123 L339.3988 472.36 L354.1771 479.5246 L359.404 482.8536 L362.0996 485.522 L365.202 489.8066 L372.1958 501.1625 L374.5548 503.9147 L377.2402 506.003 L379.3529 506.6103 L381.777 506.375 L389.8666 503.7223 L392.4849 503.2277 L395.9752 503.9209 L403.1881 508.4878 L411.2185 514.3357 L447.4008 544.8112 L456.4799 551.7136 L464.8125 557.2337 L470.2638 560.1585 L476.1459 562.262 L501.2393 567.4536 L506.0021 568.8788 L512.5969 571.9487 L515.3333 574.3624 L524.2759 587.2052 L526.855 589.9661 L545.6498 602.462 L556.3355 608.4897 L561.8147 615.0303 L565.2493 615.3983 L570.3359 616.7896 L574.7912 618.9601 L593.0925 621.1998 L596.9031 621.0559 L598.6707 618.2125 L599.5507 615.1126 L600.7972 608.6586 L600.0223 605.1788 L601.7885 600.786 L606.0908 595.0947 L614.0862 589.1362 L618.7891 587.3174 L624.0054 588.4654 L627.0613 587.6842 L628.962 585.1004 L630.3642 574.8727 L631.7334 569.8704" fill="none" />
      <path clip-path="url(#clipPath1)" d="M793.2004 644.5234 L803.6441 629.1976 L806.1817 626.5259 L809.0413 624.5163 L813.4158 623.0099 L818.1727 622.3535 L826.8856 620.3404 L836.1421 620.3636 L847.8358 623.144 L852.5757 622.1116 L861.6296 618.1301 L870.5273 612.6641 L879.7531 605.2546 L886.7136 597.9888 L889.5649 594.2277 L890.576 590.8571 L890.5422 586.9178 L889.3137 575.7356 L889.9155 572.0745 L891.0574 570.0173 L895.9077 564.5499 L902.5026 558.5974 L928.1757 539.6985 L936.1207 533.1996 L942.9039 526.2302 L947.4819 519.5711 L948.873 515.2972 L948.9667 510.5466 L947.804 504.1244 L943.8705 490.5749 L942.6904 485.2317 L942.2736 480.1154 L942.9786 475.3486 L945.6434 468.6677 L950.1225 461.2308 L971.7667 434.1507" fill="none" />
      <path clip-path="url(#clipPath1)" d="M1520.2703 785.6825 L1516.8237 782.9839 L1511.3546 777.824 L1506.2998 772.2245 L1497.0055 760.3339 L1491.2733 743.1089 L1484.9783 734.6626 L1478.5088 727.6874 L1468.1619 720.5943" fill="none" />
      <path clip-path="url(#clipPath1)" d="M468.5255 787.0186 L481.037 798.756 L486.8628 803.364 L490.1601 805.384 L493.7997 806.9624 L497.4134 807.6087 L500.7011 806.7779 L506.8564 801.9617 L510.12 800.1324 L513.6773 799.6047 L524.9687 800.1599 L535.7766 797.4013 L543.2256 796.804 L546.8487 796.1302 L553.7266 793.2728 L573.7346 783.1138 L580.2925 779.5222 L589.8326 773.5759 L596.7867 770.9399 L611.2877 767.1026 L614.7207 765.7736 L617.827 763.7676 L632.6035 751.9632 L635.8181 750.1382 L646.7532 747.6543 L650.0038 745.801 L656.0508 741.0762 L659.4707 740.2643 L663.2679 740.5059 L667.0541 741.48 L670.4315 742.983 L673.3795 745.2261 L687.2496 758.1953 L693.9823 761.4788 L697.6225 762.4885 L701.2621 762.9446 L704.9594 762.7472 L730.8666 757.7191 L734.5795 757.5327 L737.9752 758.3949 L741.0759 760.4426 L746.5857 765.9119 L750.8544 772.6799 L753.4036 774.9772 L756.7692 775.5591 L760.6163 775.0379 L768.1078 773.13 L775.1023 770.4026 L778.7043 769.5464 L786.1948 768.8493 L789.8702 769.1535 L793.4731 770.0212 L800.4152 772.9767 L803.5188 775.0689 L809.3079 779.938 L816.56 781.8215 L820.3848 782.092 L824.0568 781.7924 L827.4506 780.6649 L843.171 770.0338 L846.4666 768.363 L868.1784 762.8373 L875.7492 762.0749 L879.5078 762.2942 L882.8395 763.4758 L885.7019 765.7753 L889.7416 770.5497" fill="none" />
      <path clip-path="url(#clipPath1)" d="M1370.5106 848.9701 L1361.1718 844.1576 L1357.698 842.9189 L1335.5083 839.0069 L1332.2484 837.5685 L1329.963 834.8362 L1326.4452 827.8631 L1322.1399 821.3279 L1319.5807 818.6644 L1316.3378 817.4261 L1308.5514 817.5374 L1305.2728 816.3157 L1302.5266 813.8085 L1298.1302 807.3842 L1294.0425 796.7449 L1288.1129 787.0046 L1286.8983 783.5003 L1284.2758 759.5269 L1282.5098 752.2906 L1280.7172 749.2724 L1271.1335 742.8932 L1257.6295 729.5524 L1254.6925 727.3293 L1251.3495 725.9126 L1247.6606 725.1685 L1236.3994 724.3192 L1217.7135 724.6243 L1206.5289 721.7864 L1203.0834 720.3345 L1200.0991 718.5357 L1198.9528 715.1175 L1198.5577 711.01 L1196.0497 699.8785 L1192.1716 688.8679 L1191.4891 685.2927 L1192.942 681.8448 L1195.5131 678.6986 L1194.2838 675.864 L1191.4076 673.1431 L1187.9714 670.8338 L1184.6279 669.1478 L1177.299 667.1291 L1173.6144 666.8649 L1162.5183 668.7784 L1140.1265 666.9739 L1129.0625 668.9933 L1121.6086 669.4222 L1114.1663 668.4301 L1110.6667 667.1652 L1103.8865 663.7578 L1100.3339 662.7791 L1096.5997 662.5049 L1089.0807 663.0248 L1078.0391 665.0746 L1055.6494 663.1369 L1051.9171 663.1981 L1040.7211 664.7718 L1037.1176 664.248 L1026.6499 659.8172 L1023.0015 659.5275 L1015.5048 660.6769 L1004.6607 663.8375 L1001.3037 665.4611 L992.4186 672.474 L989.1773 674.3264 L982.2111 677.1899 L975.7173 681.0434 L970.0163 685.9213 L967.9454 689.0256 L961.0724 702.8027 L958.8254 705.7124 L955.4358 707.6105 L951.5784 709.0366 L948.6371 710.9551 L947.6774 714.0612 L949.6774 730.0443 L949.5879 733.8306 L948.0045 736.7315 L941.122 740.3931 L938.3198 742.8989 L933.4774 748.7764 L930.6051 751.102 L923.483 753.9462 L920.4908 755.9956 L916.2842 762.1407 L910.7885 772.2793 L908.2155 774.8508 L900.1685 776.0306" fill="none" />
      <path clip-path="url(#clipPath1)" d="M895.1367 869.0953 L890.1631 863.0868 L891.8521 860.0284 L897.1479 855.9281 L896.9969 849.5746 L892.6627 837.0373 L890.3742 834.6868" fill="none" />
      <path clip-path="url(#clipPath1)" d="M316.6601 569.1796 L302.4724 550.7769 L295.751 538.8643 L291.0178 530.261 L286.9546 525.6638 L280.8068 522.601 L273.8829 519.3821 L268.3383 519.3086 L264.7696 521.0298 L262.1257 524.1661 L260.309 532.778 L259.7607 540.3763 L259.3221 546.9598 L262.0458 559.4203 L261.8651 567.1738 L261.2682 570.956 L259.8821 574.3357 L254.4241 579.8098 L252.1992 582.8065 L251.1272 586.3564 L250.1231 594.0422 L249.103 597.7 L244.6646 608.2173 L241.0185 619.0211 L235.0554 633.0326 L233.7265 636.7022 L233.1763 640.3912 L234.278 648.2776 L235.7863 651.727 L238.2309 654.1814 L241.5618 655.9365 L249.1028 658.1063 L252.8879 658.2189 L256.8094 657.7117 L260.404 657.9489 L263.5312 659.7748 L266.3492 662.5862 L268.5091 665.8604 L269.6944 669.2974 L270.0433 673.1132 L269.8268 680.9061 L268.7051 688.5062 L268.5898 692.255 L271.2198 699.4996 L270.9133 703.1526 L267.2141 714.1815 L266.8017 717.8292 L267.5318 721.4542 L269.0194 725.0505 L275.9408 738.9461 L276.0451 742.4259 L274.7201 746.0521 L272.5933 749.4725 L267.4391 754.936 L261.2287 759.2942 L257.7323 760.7372 L253.9438 761.6937 L250.7108 763.2622 L248.5287 766.0838 L241.2898 783.9103 L240.6183 787.6249 L240.2905 795.3064 L239.5048 798.9673 L229.6639 819.4799 L226.5787 830.7744 L226.8724 838.7608 L228.6482 844.2152 L229.3501 848.8054 L227.8778 854.1779 L226.092 858.2538 L226.2576 862.4117 L228.7481 866.8521 L233.2831 872.8228 L245.9217 886.7803 L249.5516 893.4676 L250.8286 897.0573 L251.4312 900.7648 L250.8355 908.6241 L251.6752 912.0599 L253.8408 915.058 L259.8586 919.9162 L263.0964 921.6429 L291.4242 931.2958 L294.3669 933.3466 L298.8219 939.1923 L306.051 951.859 L305.1263 959.6244 L305.1976 963.3452 L306.3773 966.7444 L308.4776 969.8915 L313.457 975.7409 L329.4038 991.5854 L331.3702 994.7308 L332.8687 998.2191 L337.6455 1012.6886 L339.6793 1015.769 L355.1872 1032.0845 L359.3998 1034.9552 L364.2849 1036.6525 L374.3299 1044.11 L374.9172 1049.604 L383.8508 1055.5643 L386.9758 1059.9349 L386.2075 1063.5807" fill="none" />
      <path clip-path="url(#clipPath1)" d="M1370.5106 848.9701 L1374.2843 852.9824 L1379.4393 854.757 L1383.8489 858.2133 L1389.381 860.6333 L1392.1526 863.1971 L1394.0449 865.6367 L1399.5718 867.5441 L1403.3464 870.6202 L1406.3717 874.8595 L1413.382 879.1208 L1418.9004 880.1329 L1423.9213 882.5659 L1428.3154 885.6441 L1434.2168 890.7814 L1438.2283 892.1892 L1442.6135 892.5668 L1456.902 900.1439 L1460.4119 904.0052 L1463.5475 911.0856 L1468.9432 910.8994 L1472.6046 912.0874 L1477.2701 918.2739 L1487.2467 923.8282 L1492.4761 925.8535 L1499.8486 925.5322 L1502.3396 925.0807 L1520.2703 928.6689" fill="none" />
      <path clip-path="url(#clipPath1)" d="M90.5761 1203.8313 L83.5142 1194.8394 L77.6724 1185.588 L74.0031 1177.0376 L73.556 1173.6304 L74.1613 1168.827 L76.2728 1162.5309 L82.9094 1147.1062 L84.1765 1142.1818 L84.2851 1137.5157 L82.9698 1133.1824 L80.523 1129.1444 L76.3454 1124.3801 L62.8671 1111.3173 L59.2224 1106.2291 L57.4049 1101.8083 L56.3317 1095.7465 L56.0717 1089.2023 L56.6571 1079.5493 L59.3048 1055.1375 L59.2457 1048.1357 L58.0817 1042.1887 L55.0643 1040.8699 L41.8372 1045.5717 L38.3049 1045.7729 L36.1963 1043.9127 L33.3961 1038.8508 L31.6785 1033.7363 L30.5469 1028.1208 L30.1135 1022.4165 L30.4907 1017.0341 L32.3326 1009.8526 L35.0373 1001.6027 L42.143 984.0503 L61.9298 940.9454 L66.8501 928.0198 L70.3529 916.1643 L70.908 911.3261 L70.3867 905.1393 L64.329 881.4661 L60.0179 870.9494 L56.1549 860.0394 L54.0265 857.1796 L50.6227 855.2005 L46.9455 854.5344 L43.4437 855.3793 L39.9812 857.1725 L36.9039 859.431 L34.3852 863.0151 L31.475 863.9055 L27.6506 858.8622 L23.811 855.4031 L14.9974 849.2173 L5.8379 840.4393 L0.2029 833.9873 L-3.1313 827.169 L-8.4728 810.907" fill="none" />
      <path clip-path="url(#clipPath1)" d="M1263.0153 1090.4886 L1270.1188 1089.8235 L1277.1866 1089.7548 L1284.2113 1090.3605 L1291.1886 1091.5934 L1305.027 1095.5934 L1318.7583 1101.0729 L1353.0175 1116.788 L1370.3446 1123.207 L1377.4749 1124.6355 L1399.677 1124.942 L1406.6361 1126.6631 L1413.1693 1130.3562 L1428.7991 1142.1826 L1431.9937 1143.8911 L1435.2666 1145.0591 L1438.6418 1145.5496 L1452.6046 1144.1857 L1466.7097 1141.3073 L1480.9275 1137.4229 L1516.8043 1126.4059 L1520.2703 1125.5483" fill="none" />
      <path clip-path="url(#clipPath1)" d="M990.3651 1276.3636 L993.0703 1272.6718 L996.7635 1256.0446 L1005.517 1226.5769 L1005.0542 1203.7817 L1004.5272 1196.1953 L1003.4337 1188.6859 L1001.4047 1181.3817 L998.6782 1174.3333 L991.5502 1161.0708 L983.5048 1148.2064 L981.2172 1145.3109 L978.3007 1143.2542 L971.2311 1140.7615 L968.1821 1138.791 L963.0626 1133.2683 L960.986 1130.1313 L957.0256 1119.0426 L955.1495 1116.168 L952.0487 1114.9736 L948.0932 1114.9331 L944.3557 1114.3274 L937.7609 1110.7578 L935.0651 1108.2665 L933.0344 1105.2061 L931.4244 1101.7351 L917.2168 1066.6042 L910.4282 1053.1055 L905.8633 1047.1826 L900.4886 1041.9734 L881.8721 1029.2688 L880.0166 1026.3165 L878.9941 1022.5667 L878.6455 1018.5121 L878.9363 1014.7004 L880.6308 1011.7239 L883.8329 1009.3124 L889.6934 1003.9653 L892.1286 1001.13 L893.0454 997.9515 L892.3548 994.3282 L889.0681 986.9999 L885.1305 980.5843 L869.2634 959.5668 L862.5662 950.0223 L861.0935 946.7437 L861.6068 943.243 L864.3282 940.2164 L867.5483 938.6567 L878.2602 935.223 L897.3564 926.7881" fill="none" />
      <path clip-path="url(#clipPath1)" d="M1370.5106 848.9701 L1351.9075 850.8555 L1348.2646 851.5797 L1345.066 853.16 L1337.3507 861.5587 L1334.3047 863.5792 L1327.1233 865.8222 L1323.8232 867.4523 L1318.5062 873.2134 L1315.4789 874.7045 L1311.9438 874.3918 L1304.4231 872.6019 L1300.7356 872.6116 L1278.6053 874.8481 L1271.071 874.638 L1267.4844 875.1188 L1264.0782 876.4749 L1257.7769 880.7379 L1255.1914 883.3828 L1249.2759 893.1224 L1246.7981 895.9235 L1241.0878 900.8365 L1237.9827 902.8538 L1228.0054 907.1575 L1220.3282 905.2126 L1216.8336 905.0588 L1214.0719 906.675 L1211.947 909.8506 L1208.2271 916.9877 L1204.9711 924.2213 L1202.5062 926.4467 L1199.0713 927.2115 L1191.2595 926.7574 L1180.3882 924.5717 L1169.3254 923.0469 L1161.9716 924.1972 L1158.3884 925.5661 L1155.3738 927.5581 L1153.197 930.4213 L1147.1107 944.7485 L1146.2841 948.3833 L1146.7422 952.1231 L1149.4987 959.7753 L1149.8259 963.2059 L1147.9463 965.8494 L1144.3943 967.8694 L1141.2523 970.2368 L1139.7905 973.5583 L1138.4725 981.2716 L1137.3702 984.8669 L1135.1168 987.7551 L1129.439 992.8268 L1127.7567 996.1708 L1126.428 999.8965 L1125.6161 1003.7285 L1125.5245 1007.403 L1126.5668 1010.8765 L1130.807 1017.4371 L1138.7377 1025.8666 L1139.3182 1029.049 L1138.1152 1032.5913 L1131.2134 1046.922 L1130.7155 1050.3424 L1132.3409 1053.6355 L1137.5994 1059.3438 L1143.1498 1064.3459 L1157.0446 1082.2013 L1158.202 1085.6135 L1158.5261 1089.4517 L1157.4817 1097.1118 L1156.2319 1100.73 L1154.4794 1104.1877 L1152.2928 1107.2257 L1149.5865 1109.6204 L1143.0991 1113.3827 L1133.9377 1119.7515 L1131.2566 1122.2855 L1124.5956 1131.3578 L1115.2728 1137.3845 L1112.5754 1139.9231 L1107.8043 1145.7986 L1105.0446 1148.1781 L1098.3945 1151.8134 L1094.8799 1152.7911 L1091.3647 1152.5935 L1084.1306 1149.3416 L1080.9995 1149.3955 L1078.2803 1151.5624 L1075.9381 1154.9011 L1074.0541 1158.4752 L1072.7534 1161.9487 L1067.9703 1180.3948 L1068.5908 1184.0009 L1069.8817 1187.6029 L1074.3656 1198.1305 L1091.4968 1231.6539 L1096.2556 1241.9081 L1100.3032 1252.4888 L1103.4738 1263.3931 L1105.074 1270.8124 L1105.8698 1276.3636" fill="none" />
      <path clip-path="url(#clipPath1)" d="M487.465 1276.3636 L488.2287 1273.5521 L489.3745 1266.5106 L489.5972 1259.9885 L488.6965 1254.0981 L487.0195 1250.8091 L484.006 1248.3364 L478.7575 1246.1288 L453.9825 1241.1536 L448.874 1239.5807 L444.4857 1237.452 L441.5588 1233.725 L438.2873 1225.6753 L435.3685 1221.9899 L429.9267 1220.6176 L421.6404 1220.4801 L416.9443 1218.1282 L411.6638 1216.2952 L399.4844 1217.5299 L389.6829 1217.1434 L382.2514 1214.9167" fill="none" />
      <path clip-path="url(#clipPath1)" d="M625.1432 1276.3636 L628.7131 1270.8431 L630.8579 1262.0411 L631.373 1257.5249 L632.4076 1254.2822 L634.2047 1251.9225 L636.4224 1251.9982 L638.2209 1249.897 L639.9298 1243.5499 L638.7466 1240.1028 L637.6456 1234.7242 L641.7438 1224.8468 L645.0688 1218.9769 L650.9084 1209.4469 L656.2686 1206.2355 L671.9501 1194.6897 L674.1616 1194.2557 L678.484 1194.4203 L685.8237 1187.7303 L690.7648 1185.1616 L695.7027 1183.8806 L700.1459 1185.0459 L702.8569 1186.2091 L714.1323 1193.4335 L716.1443 1195.5812 L720.9463 1194.9752 L724.2465 1193.11 L728.4034 1187.9468 L730.5144 1184.2225 L733.9817 1180.1165 L738.5532 1180.0039 L756.825 1180.3392 L775.9258 1187.5183 L796.1694 1191.3723 L811.1041 1191.6688 L817.0272 1191.3279 L823.0801 1191.8873" fill="none" />
      <path clip-path="url(#clipPath1)" d="M625.6827 95.5139 L624.8557 92.4809 L625.3777 90.1684 L626.1581 86.7118 L627.0457 82.7826 L626.054 78.486 L624.7513 76.2264 L621.4755 76.5038 L621.0223 74.136 L619.3147 71.9791 L617.2267 69.3428 L616.3107 66.7485 L615.9193 62.6597 L615.9852 59.3778 L616.0342 56.9358 L618.082 54.9598 L620.5576 57.3544 L621.0283 59.8551 L621.5018 62.3717 L623.8991 67.4877 L625.7554 70.675 L629.1276 74.4553 L630.9009 77.0096 L631.4962 79.8033 L632.3508 83.8175 L633.1192 87.428 L633.0546 89.5678 L632.9766 92.1493 L632.9028 94.5904 L632.8206 97.3114 L633.6047 100.6285 L634.0972 102.7123 L629.9362 101.6747 L627.5938 98.2812 L625.6827 95.5139 Z" fill="rgb(198,236,255)" fill-rule="evenodd" stroke="none" />
      <path clip-path="url(#clipPath1)" d="M188.0154 181.8171 L190.8567 181.7912 L199.4655 184.9393 L201.6923 186.2215 L204.959 191.6833 L206.0701 195.2424 L205.4919 200.9273 L204.3213 212.4421 L205.7876 220.5267 L211.0305 227.3802 L217.3154 235.6062 L219.067 242.5668 L220.2703 252.5938 L218.7089 255.66 L214.8106 256.6517 L210.4942 254.8766 L206.8847 249.7599 L206.4052 246.5974 L204.6773 243.2182 L199.6495 244.7884 L200.0184 248.787 L200.275 251.5695 L201.8227 253.7618 L201.9673 257.3803 L199.0418 259.4416 L193.8729 257.3947 L192.2645 254.8081 L191.8512 246.781 L189.733 238.2033 L186.6318 233.821 L184.4362 235.3686 L177.8846 237.5817 L174.9303 236.8188 L175.5061 233.3301 L181.924 230.544 L180.728 227.0327 L176.7701 222.3767 L172.3816 220.2148 L167.415 219.7901 L164.1946 221.9491 L161.572 225.3375 L153.9209 228.7278 L149.9107 228.1625 L147.6589 224.3199 L145.7432 218.0384 L147.662 214.3038 L151.4884 209.5248 L153.3083 207.2531 L155.4614 206.9727 L157.5668 208.0052 L164.4713 210.5923 L171.0835 207.5597 L178.609 203.1062 L178.6747 198.5262 L175.4121 190.2384 L177.6388 187.1216 L188.0154 181.8171 Z" fill="rgb(198,236,255)" fill-rule="evenodd" stroke="none" />
      <path clip-path="url(#clipPath1)" d="M423.7207 201.218 L424.0426 204.5441 L423.612 208.3599 L421.6592 212.3399 L414.4981 214.6411 L416.4341 208.4954 L416.1848 205.3521 L411.4792 203.844 L407.2846 203.565 L403.1389 202.2689 L402.1743 199.6526 L404.9046 199.0351 L409.3114 198.7537 L422.8469 199.1251 L423.7207 201.218 Z" fill="rgb(198,236,255)" fill-rule="evenodd" stroke="none" />
      <path clip-path="url(#clipPath1)" d="M141.6171 381.7277 L129.1721 393.6085 L126.5991 393.661 L117.3773 383.4382 L113.9907 377.4637 L116.7772 374.9339 L119.1846 365.1789 L120.2013 353.9686 L120.4454 346.4386 L120.103 337.9137 L117.3997 328.9092 L122.3732 335.2921 L128.694 348.0571 L131.8217 355.8672 L135.1286 377.3911 L137.9688 377.4517 L141.5218 378.4977 L141.6171 381.7277 Z" fill="rgb(198,236,255)" fill-rule="evenodd" stroke="none" />
      <path clip-path="url(#clipPath1)" d="M634.0377 505.7291 L639.1658 517.3366 L638.9338 531.9207 L633.8659 552.4471 L633.8954 568.189 L631.7334 569.8704 L629.8173 567.1643 L629.6641 554.649 L627.8671 548.7175 L622.351 520.1912 L631.4843 506.5081 L634.0377 505.7291 Z" fill="rgb(198,236,255)" fill-rule="evenodd" stroke="none" />
      <path clip-path="url(#clipPath1)" d="M546.5151 578.5695 L538.9533 579.1804 L537.0892 574.5502 L540.8575 564.761 L545.063 562.2875 L547.8393 563.2309 L553.5662 567.9276 L553.9213 573.2026 L553.4438 575.8059 L550.4077 577.631 L546.5151 578.5695 Z" fill="rgb(198,236,255)" fill-rule="evenodd" stroke="none" />
      <path clip-path="url(#clipPath1)" d="M889.7416 770.5497 L897.546 773.4637 L900.1685 776.0306 L900.8007 781.7073 L891.613 808.1868 L888.9714 813.7704 L887.6058 818.2447 L888.5944 822.9192 L892.8029 827.2126 L893.2244 830.9958 L890.3742 834.6868 L887.8633 833.0676 L879.1794 822.12 L879.0564 816.8634 L880.4731 812.8617 L886.6382 805.4217 L886.2147 801.6382 L878.6855 801.0938 L878.3491 793.9453 L881.4877 784.4667 L883.0503 777.5718 L882.5724 773.3152 L889.7416 770.5497 Z" fill="rgb(198,236,255)" fill-rule="evenodd" stroke="none" />
      <path clip-path="url(#clipPath1)" d="M895.1367 869.0953 L899.124 871.4982 L904.4471 877.576 L904.8131 883.2902 L905.0863 887.5599 L910.7056 892.166 L918.8657 894.5609 L932.1821 905.9345 L931.7812 910.7696 L928.0124 910.2518 L921.9957 906.1664 L909.403 901.4189 L905.3824 902.8505 L902.97 914.6299 L902.4319 922.3562 L900.1031 926.4626 L897.3564 926.7881 L895.3157 925.1144 L895.2607 907.8793 L897.0804 903.353 L897.2632 896.6263 L887.8989 900.1318 L884.6382 900.0413 L880.6019 897.1688 L880.6378 893.3323 L883.1774 891.1135 L889.7402 887.4587 L891.3645 885.3504 L892.8313 881.8232 L892.0953 875.2044 L889.9437 872.5848 L890.0867 869.694 L895.1367 869.0953 Z" fill="rgb(198,236,255)" fill-rule="evenodd" stroke="none" />
      <path clip-path="url(#clipPath1)" d="M-3.8184 873.7963 L2.0082 875.0601 L4.6709 876.7741 L8.5074 887.6183 L5.9809 916.5228 L0.1703 947.3876 L-2.2468 950.2056 L-5.4369 951.2993 L-7.6747 951.0328 L-12.168 946.4988 L-13.3362 934.1713 L-17.1287 923.8756 L-20.2703 916.6577 L-20.2703 898.0092 L-14.426 876.6357 L-7.9607 873.6732 L-3.8184 873.7963 Z" fill="rgb(198,236,255)" fill-rule="evenodd" stroke="none" />
      <path clip-path="url(#clipPath1)" d="M386.2075 1063.5807 L386.6282 1066.6549 L381.6728 1087.5063 L373.4188 1100.7462 L369.05 1100.0868 L363.8357 1102.4292 L353.1422 1125.1906 L356.945 1129.0651 L358.2478 1131.223 L359.1355 1150.428 L358.9727 1178.4111 L354.8458 1201.2369 L351.6927 1203.7998 L349.0999 1204.9725 L345.2102 1205.8182 L342.4787 1207.7969 L342.2029 1211.2351 L345.2205 1214.9617 L347.3585 1215.9467 L355.4865 1216.8173 L357.5876 1215.7186 L361.4048 1210.7065 L365.9246 1208.9862 L381.9829 1212.5752 L382.2514 1214.9167 L378.2554 1218.6447 L375.6628 1219.8136 L357.9772 1224.0205 L349.5737 1224.7587 L344.9857 1224.1421 L340.2209 1222.2465 L334.2554 1215.3076 L332.8491 1212.3845 L336.2647 1200.8939 L345.4058 1192.7241 L346.6311 1190.7109 L348.6201 1179.6992 L351.9356 1156.4684 L352.1686 1139.9702 L351.2516 1136.9713 L349.6668 1134.5948 L346.0764 1132.2578 L344.0339 1130.2114 L342.1657 1127.6168 L340.6123 1123.6677 L340.432 1120.5582 L342.3626 1116.3483 L345.7435 1104.4464 L341.1295 1089.3495 L339.5725 1085.4006 L339.0053 1083.1328 L339.1068 1080.2424 L340.6542 1076.8739 L344.2528 1077.3815 L346.8658 1079.866 L350.7509 1086.0824 L351.917 1089.0444 L350.6154 1092.3751 L352.6166 1100.6494 L354.9937 1104.0061 L369.7553 1094.2335 L374.5508 1086.9899 L375.7154 1084.4661 L372.4368 1080.7692 L372.1203 1076.6348 L373.25 1073.8544 L386.2075 1063.5807 Z" fill="rgb(198,236,255)" fill-rule="evenodd" stroke="none" />
      <path clip-path="url(#clipPath1)" d="M1220.6278 1005.0215 L1220.4784 980.816 L1221.9434 911.5803 L1221.6195 905.6055 L1221.5371 882.4426 L1219.978 816.4484 L1219.8793 805.2326 L1219.5087 799.6937 L1219.4777 785.2751" fill="none" stroke="rgb(100,100,100)" />
      <path clip-path="url(#clipPath1)" d="M1059.4453 784.7549 L1058.949 784.76" fill="none" stroke="rgb(100,100,100)" />
      <path clip-path="url(#clipPath1)" d="M1059.4453 784.7549 L1059.5907 792.2809 L1059.1381 883.0596 L1059.5144 914.105 L1059.499 980.7031 L1059.8679 1049.762 L1060.4583 1079.2284 L1032.147 1079.5861 L1008.8746 1079.1964 L1008.7818 1155.8262 L1009.2233 1191.5215" fill="none" stroke="rgb(100,100,100)" />
      <path clip-path="url(#clipPath1)" d="M1219.4777 785.2751 L1209.6005 785.359 L1209.6327 788.7626 L1207.6906 792.7838 L1205.683 792.7943 L1205.6293 800.8776 L1203.8856 813.0354 L1204.3392 817.0829 L1200.2676 817.151 L1200.9037 825.3421 L1175.5643 825.3841 L1170.3246 825.7054 L1170.2635 823.6411 L1162.7428 823.3132 L1155.5238 823.2443 L1155.5216 821.1815 L1152.595 821.2819 L1152.4346 800.5818 L1160.3429 800.6164 L1160.3623 792.4153 L1164.287 792.4083 L1164.3158 785.5074 L1059.4453 784.7549" fill="none" stroke="rgb(100,100,100)" />
      <path clip-path="url(#clipPath1)" d="M1058.949 784.76 L1009.0164 784.7549 L989.6511 785.1539" fill="none" stroke="rgb(100,100,100)" />
      <path clip-path="url(#clipPath1)" d="M765.6237 784.4372 L765.6645 833.3928" fill="none" stroke="rgb(100,100,100)" />
      <path clip-path="url(#clipPath1)" d="M989.6511 785.1539 L947.644 785.5343 L880.5736 784.6967 L813.3414 784.3235 L765.6237 784.4372" fill="none" stroke="rgb(100,100,100)" />
      <path clip-path="url(#clipPath1)" d="M51.2831 781.049 L51.3212 768.6104" fill="none" stroke="rgb(100,100,100)" />
      <path clip-path="url(#clipPath1)" d="M1219.4777 785.2751 L1219.3987 765.6386 L1219.3137 743.8352 L1218.9504 735.8021 L1245.4243 735.5366 L1257.511 735.0405 L1298.8303 734.9191" fill="none" stroke="rgb(100,100,100)" />
      <path clip-path="url(#clipPath1)" d="M1346.83 734.7691 L1347.1172 837.9282 L1346.954 846.1483 L1347.3134 897.0054 L1347.2029 925.0094" fill="none" stroke="rgb(100,100,100)" />
      <path clip-path="url(#clipPath1)" d="M1346.83 734.7691 L1324.8203 734.5501 L1302.782 734.6497 L1298.8303 734.9191" fill="none" stroke="rgb(100,100,100)" />
      <path clip-path="url(#clipPath1)" d="M1469.0585 907.149 L1469.0193 734.1522" fill="none" stroke="rgb(100,100,100)" />
      <path clip-path="url(#clipPath1)" d="M1469.0193 734.117 L1428.4183 734.0611 L1387.8031 734.7745 L1346.83 734.7691" fill="none" stroke="rgb(100,100,100)" />
      <path clip-path="url(#clipPath1)" d="M1468.9808 623.834 L1468.9808 623.8342" fill="none" stroke="rgb(100,100,100)" />
      <path clip-path="url(#clipPath1)" d="M1468.9808 623.834 L1468.9808 623.834" fill="none" stroke="rgb(100,100,100)" />
      <path clip-path="url(#clipPath1)" d="M51.5915 739.2888 L51.9837 703.5594 L51.9752 697.669 L51.9752 697.669 M51.896 642.7584 L51.8607 618.3125 L51.8607 618.3125" fill="none" stroke="rgb(100,100,100)" />
      <path clip-path="url(#clipPath1)" d="M51.8505 618.3126 L51.8607 618.3125" fill="none" stroke="rgb(100,100,100)" />
      <path clip-path="url(#clipPath1)" d="M249.5838 830.839 L221.5711 830.8727 L200.0838 829.4832 L177.3805 829.3136 L153.7228 828.9298 L153.3793 780.4152 L143.8924 780.4439 L143.9039 706.2299 L137.133 706.2032 L137.1418 686.6255 L144.3928 686.6303 L144.1204 612.6015 L144.3257 588.2202 L146.2184 557.2819" fill="none" stroke="rgb(100,100,100)" />
      <path clip-path="url(#clipPath1)" d="M121.7061 557.2783 L121.7378 557.2783" fill="none" stroke="rgb(100,100,100)" />
      <path clip-path="url(#clipPath1)" d="M121.7481 557.278 L121.7061 557.2783" fill="none" stroke="rgb(100,100,100)" />
      <path clip-path="url(#clipPath1)" d="M121.7378 557.2783 L146.2184 557.2819" fill="none" stroke="rgb(100,100,100)" />
      <path clip-path="url(#clipPath1)" d="M51.8607 618.3125 L51.7668 534.4503" fill="none" stroke="rgb(100,100,100)" />
      <path clip-path="url(#clipPath1)" d="M51.7668 534.4503 L98.5159 534.3976 L98.5149 557.295 L121.7061 557.2783" fill="none" stroke="rgb(100,100,100)" />
      <path clip-path="url(#clipPath1)" d="M1468.7068 531.5402 L1468.9808 623.834" fill="none" stroke="rgb(100,100,100)" />
      <path clip-path="url(#clipPath1)" d="M1468.6973 529.6674 L1468.7068 531.5402" fill="none" stroke="rgb(100,100,100)" />
      <path clip-path="url(#clipPath1)" d="M253.0601 492.1707 L313.233 492.6196 L313.2847 520.2161 L315.7267 520.5073 L319.0533 519.0753 L322.1439 517.806 L325.515 520.3715 L325.4165 522.6774 L325.2687 525.2432 L324.0493 527.577 L324.5931 530.2298 L327.0853 533.585 L329.9246 536.0685 L330.017 538.6598 L328.0587 540.8279 L327.2301 542.9551 L328.4372 545.6647 L327.6132 547.7875 L327.8603 550.5651 L328.6133 552.9136 L329.1332 555.436 L329.8403 557.8648 L329.2342 560.4484 L329.1689 562.9445 L331.4633 565.546 L332.8776 568.6486 L333.4796 571.04 L333.312 574.0618 L334.1653 576.6225 L336.5238 577.3069 L338.3629 580.1047 L338.8413 583.6235 L339.5522 586.0551 L340.2251 588.1132 L343.5505 590.0118 L347.6487 593.0998 L348.4066 595.2143 L350.6003 595.735 L350.6406 598.0223 L352.6922 600.509 L352.9911 602.8954 L354.3736 604.905 L354.0912 607.3834 L352.0028 609.5263 L352.5724 612.7584 L354.992 613.5872 L353.5786 616.1713 L354.207 620.4438 L356.8204 620.2864 L358.9814 620.0696 L361.2643 620.8678 L363.6134 620.9849 L365.354 623.0019 L366.4034 625.254 L368.9631 625.4403 L371.6234 626.283 L372.8599 628.3538 L373.8655 631.0674 L376.3204 632.4092 L378.5749 633.0335 L379.306 635.1577 L382.8636 636.6334 L385.1037 639.3893 L387.9406 641.3412 L391.1471 639.4372 L393.3261 642.8751 L393.9706 645.345 L396.2112 647.004 L396.6632 650.0934 L397.3954 652.7003 L399.1968 656.1862 L399.4879 658.8773 L400.4526 662.2986 L402.2919 664.8065 L405.1307 666.0675 L408.4137 667.5453 L410.0637 670.4744 L411.5925 673.5998 L413.4375 676.2118 L415.952 678.9812 L418.201 678.0262 L422.4626 680.4766 L423.5789 682.6722 L421.1177 683.1041 L418.9964 685.6639 L418.4289 688.1722 L419.3499 690.3599 L421.4141 691.3066 L423.6898 689.1161 L426.6371 689.6513 L428.7946 691.98 L429.8378 694.6127 L432.3418 695.454 L436.547 696.9291 L439.3956 698.4588 L437.1726 699.6668 L438.3803 703.046 L439.4082 706.1902 L439.0299 709.1723 L451.4491 710.9306 L451.843 746.2374 L451.7497 761.1771 L452.0151 765.8318 L452.133 784.6865 L457.3376 784.6392 L457.4811 823.06 L457.3249 832.846" fill="none" stroke="rgb(100,100,100)" />
      <path clip-path="url(#clipPath1)" d="M146.2184 557.2819 L146.2759 541.2817 L193.7921 541.415 L193.7396 516.8087 L251.8966 516.8513 L251.863 492.4242 L253.0601 492.1707" fill="none" stroke="rgb(100,100,100)" />
      <path clip-path="url(#clipPath1)" d="M1468.621 488.4743 L1468.6973 529.6674" fill="none" stroke="rgb(100,100,100)" />
      <path clip-path="url(#clipPath1)" d="M1468.6257 488.4742 L1468.621 488.4743" fill="none" stroke="rgb(100,100,100)" />
      <path clip-path="url(#clipPath1)" d="M933.5759 484.4634 L933.5731 484.4634" fill="none" stroke="rgb(100,100,100)" />
      <path clip-path="url(#clipPath1)" d="M933.5759 484.4634 L969.5082 484.5159 L1058.4998 483.75" fill="none" stroke="rgb(100,100,100)" />
      <path clip-path="url(#clipPath1)" d="M1058.4998 483.75 L1058.4657 489.9821 L1059.4932 553.0858 L1059.3713 588.0726 L1059.5941 686.9205 L1058.8846 698.4078 L1059.2495 702.8608 L1058.986 707.3423 L1059.3915 710.4056 L1058.8008 755.5245 L1059.1733 767.7773 L1059.1632 780.702 L1058.949 784.76" fill="none" stroke="rgb(100,100,100)" />
      <path clip-path="url(#clipPath1)" d="M1070.8042 483.6088 L1058.4998 483.75" fill="none" stroke="rgb(100,100,100)" />
      <path clip-path="url(#clipPath1)" d="M1224.212 482.7579 L1070.8042 483.6088" fill="none" stroke="rgb(100,100,100)" />
      <path clip-path="url(#clipPath1)" d="M1260.8519 482.6229 L1224.212 482.7579" fill="none" stroke="rgb(100,100,100)" />
      <path clip-path="url(#clipPath1)" d="M1297.3092 482.2839 L1260.8519 482.6229" fill="none" stroke="rgb(100,100,100)" />
      <path clip-path="url(#clipPath1)" d="M1298.8303 734.9191 L1298.6191 685.6002 L1297.6479 681.6462 L1297.4244 679.4441 L1297.7737 659.787 L1297.5815 590.5981 L1297.907 586.6494 L1297.9124 582.6926 L1297.6001 535.1135 L1297.7366 523.3914 L1297.3092 482.2839" fill="none" stroke="rgb(100,100,100)" />
      <path clip-path="url(#clipPath1)" d="M849.1755 482.1007 L849.1378 484.3482 L933.5731 484.4634" fill="none" stroke="rgb(100,100,100)" />
      <path clip-path="url(#clipPath1)" d="M51.7668 534.4503 L51.6053 486.506" fill="none" stroke="rgb(100,100,100)" />
      <path clip-path="url(#clipPath1)" d="M765.6237 784.4372 L761.7517 784.4372 L761.5364 705.5891 L761.4474 685.9581 L769.9814 685.9865 L769.7986 587.6776 L766.8795 587.7059 L766.8387 563.5401 L766.8181 489.9367 L763.1692 489.9084 L763.1965 481.7955" fill="none" stroke="rgb(100,100,100)" />
      <path clip-path="url(#clipPath1)" d="M750.9922 481.7856 L763.1965 481.7955" fill="none" stroke="rgb(100,100,100)" />
      <path clip-path="url(#clipPath1)" d="M763.1965 481.7955 L820.8195 481.7212 L824.8723 481.7606 L849.1755 482.1007" fill="none" stroke="rgb(100,100,100)" />
      <path clip-path="url(#clipPath1)" d="M1468.6067 481.2379 L1330.994 481.6897 L1297.3092 482.2839" fill="none" stroke="rgb(100,100,100)" />
      <path clip-path="url(#clipPath1)" d="M1468.621 488.4743 L1468.6217 486.9632" fill="none" stroke="rgb(100,100,100)" />
      <path clip-path="url(#clipPath1)" d="M738.6138 440.7204 L750.9817 440.6498 L750.9922 481.7856" fill="none" stroke="rgb(100,100,100)" />
      <path clip-path="url(#clipPath1)" d="M402.7806 393.3205 L403.4791 395.5439 L406.1967 396.6907 L408.4581 396.2278 L410.5547 397.9778 L411.0803 400.5966 L413.0807 404.424 L415.9488 405.3935 L418.6006 407.333 L421.0729 412.0309 L423.7636 416.0659 L424.2856 418.7304 L426.3795 422.1451 L429.1472 423.8945 L431.4633 425.682 L431.4247 448.2124 L479.566 448.3828 L479.6288 452.4797 L503.863 452.3277 L503.863 460.7517 L528.1071 460.6949 L528.0259 473.0331 L552.1283 472.9478 L552.1283 481.2583 L576.2915 481.2867 L576.2892 489.4772 L600.452 489.5391 L600.4336 493.5939 L618.1107 493.6591 L637.2355 493.6376 L637.2395 490.5128 L750.9807 490.0504 L750.9922 481.7856" fill="none" stroke="rgb(100,100,100)" />
      <path clip-path="url(#clipPath1)" d="M1468.5736 445.7191 L1468.4824 381.9232" fill="none" stroke="rgb(100,100,100)" />
      <path clip-path="url(#clipPath1)" d="M1468.4824 381.9232 L1468.619 381.9223" fill="none" stroke="rgb(100,100,100)" />
      <path clip-path="url(#clipPath1)" d="M1070.8042 483.6088 L1070.676 448.2637 L1070.7572 390.9958 L1072.403 376.8835" fill="none" stroke="rgb(100,100,100)" />
      <path clip-path="url(#clipPath1)" d="M51.2749 345.0524 L51.2914 352.2368" fill="none" stroke="rgb(100,100,100)" />
      <path clip-path="url(#clipPath1)" d="M51.244 345.0648 L51.2749 345.0524" fill="none" stroke="rgb(100,100,100)" />
      <path clip-path="url(#clipPath1)" d="M402.7806 393.3205 L410.9621 393.2473 L439.2221 392.5527 L447.2426 392.0935 L447.4875 386.2949 L447.3896 367.4583 L483.8953 367.3789 L483.2463 342.9578 L492.5615 342.8747" fill="none" stroke="rgb(100,100,100)" />
      <path clip-path="url(#clipPath1)" d="M253.0601 492.1707 L253.0871 392.9926 L252.734 338.0883" fill="none" stroke="rgb(100,100,100)" />
      <path clip-path="url(#clipPath1)" d="M252.734 338.0883 L256.2991 339.4747 L258.7016 344.349 L259.7355 349.3694 L263.1614 349.7665 L263.1006 352.9999 L265.5258 354.8104 L269.1957 352.9494 L271.8531 350.4126 L274.621 352.2137 L277.2381 354.3418 L279.3126 355.6559 L284.1059 355.4837 L286.9455 354.9502 L292.1445 352.2798 L292.9198 354.4714 L292.2063 356.8015 L290.1697 358.3615 L289.3597 360.8008 L292.5912 361.6826 L294.207 363.9154 L294.3484 366.4233 L292.0388 368.512 L294.3671 368.6617 L296.5313 370.2371 L298.5505 372.0435 L300.7745 373.8401 L297.9097 375.9356 L298.2436 378.1812 L301.2598 379.5732 L298.8371 381.3965 L295.7011 382.1393 L293.6649 383.113 L292.6026 385.2644 L292.6052 389.0444 L295.5918 391.6099 L297.7159 390.7151 L300.0523 392.7986 L302.1795 394.3941 L304.2645 395.3136 L306.6144 396.763 L308.102 393.7738 L310.3918 392.9722 L312.7383 392.1797 L315.6829 389.2898 L317.8871 387.6796 L320.3086 386.4319 L322.4816 386.9574 L325.3463 385.9414 L328.0218 384.9544 L331.3218 384.0623 L331.2665 380.8859 L329.9023 377.7764 L331.0484 374.2355 L333.2005 374.0302 L333.2301 369.8706 L333.5747 366.7089 L335.5816 362.841 L337.7704 361.5274 L340.5016 361.4287 L343.5089 357.7293 L343.4866 355.1235 L345.6083 355.7966 L347.072 357.8498 L349.4479 356.6492 L350.9242 354.2817 L354.192 351.5468 L356.2841 351.3256 L357.8787 353.4441 L362.4112 357.6603 L365.1661 356.6937 L369.7202 354.8759 L370.5081 357.2335 L370.4609 359.6007 L374.042 360.8828 L376.5484 360.0951 L377.3988 363.1107 L379.6901 365.8799 L382.4153 366.1031 L384.1313 368.1651 L384.7788 370.9941 L385.4465 373.1687 L389.1547 373.6061 L390.4867 376.171 L390.6793 380.2375 L390.9821 382.6626 L391.7676 384.759 L395.4083 385.7718 L398.1087 385.1501 L400.1753 386.3834 L400.9263 388.8388 L401.9864 391.6553 L402.7806 393.3205" fill="none" stroke="rgb(100,100,100)" />
      <path clip-path="url(#clipPath1)" d="M557.2788 317.8421 L569.5431 317.7408 L569.71 342.6707 L582.3519 342.6174 L581.8453 367.7757 L606.2108 367.804 L606.1429 383.8681 L631.3672 383.404 L630.0114 385.8947 L628.5649 388.0991 L630.9955 390.2323 L633.3505 390.6773 L677.747 391.7965 L677.7209 415.968 L726.5116 415.9973 L726.4423 440.8373 L738.6138 440.7204" fill="none" stroke="rgb(100,100,100)" />
      <path clip-path="url(#clipPath1)" d="M492.5615 342.8747 L508.4232 342.9013 L508.3222 317.7816 L557.2788 317.8421" fill="none" stroke="rgb(100,100,100)" />
      <path clip-path="url(#clipPath1)" d="M239.3181 302.5958 L252.6979 302.7455 L252.734 338.0883" fill="none" stroke="rgb(100,100,100)" />
      <path clip-path="url(#clipPath1)" d="M1468.6646 300.3479 L1468.4824 381.9232" fill="none" stroke="rgb(100,100,100)" />
      <path clip-path="url(#clipPath1)" d="M1468.6771 300.3479 L1468.6646 300.3479" fill="none" stroke="rgb(100,100,100)" />
      <path clip-path="url(#clipPath1)" d="M849.1755 482.1007 L849.1624 466.4199 L848.5834 392.5266 L845.7523 392.5638 L845.4711 340.3741 L845.5573 293.3674 L841.8632 293.3747" fill="none" stroke="rgb(100,100,100)" />
      <path clip-path="url(#clipPath1)" d="M557.3185 292.5837 L557.2788 317.8421" fill="none" stroke="rgb(100,100,100)" />
      <path clip-path="url(#clipPath1)" d="M841.8632 293.3747 L795.4808 292.7462 L733.0529 293.1952 L721.189 292.7082 L557.3185 292.5837" fill="none" stroke="rgb(100,100,100)" />
      <path clip-path="url(#clipPath1)" d="M1260.8519 482.6229 L1260.4523 456.0547 L1260.6659 411.2804 L1261.0573 389.4268 L1260.6791 315.8248 L1260.9565 290.392" fill="none" stroke="rgb(100,100,100)" />
      <path clip-path="url(#clipPath1)" d="M1468.6646 300.3479 L1468.6851 289.201" fill="none" stroke="rgb(100,100,100)" />
      <path clip-path="url(#clipPath1)" d="M1260.9565 290.392 L1388.2653 289.0949" fill="none" stroke="rgb(100,100,100)" />
      <path clip-path="url(#clipPath1)" d="M1388.2653 289.0949 L1403.6145 288.849 L1468.6851 289.201" fill="none" stroke="rgb(100,100,100)" />
      <path clip-path="url(#clipPath1)" d="M1468.6851 289.201 L1468.4901 260.8864" fill="none" stroke="rgb(100,100,100)" />
      <path clip-path="url(#clipPath1)" d="M1468.4901 260.8864 L1468.4868 258.5646" fill="none" stroke="rgb(100,100,100)" />
      <path clip-path="url(#clipPath1)" d="M557.3185 292.5837 L552.6087 292.58 L552.6685 229.0219" fill="none" stroke="rgb(100,100,100)" />
      <path clip-path="url(#clipPath1)" d="M51.2749 345.0524 L51.2377 344.1144" fill="none" stroke="rgb(100,100,100)" />
      <path clip-path="url(#clipPath1)" d="M841.8632 293.3747 L842.2296 248.4643 L840.1074 248.9397 L839.278 246.758 L836.6323 245.2992 L835.9405 243.1909 L833.3005 241.8014 L833.9219 239.4268 L836.5302 238.1258 L838.9046 235.8053 L836.5004 234.0096 L836.3386 231.9845 L837.1479 229.7281 L835.2963 225.9629 L831.1672 227.0796 L830.7 222.2413 L830.1985 219.4974 L830.3 216.7697 L830.668 213.7753 L828.0953 213.764 L825.5712 215.1314 L823.564 215.3611 L820.0248 215.1963 L817.3246 212.8461 L815.1225 212.495 L815.1436 210.119 L813.0497 209.9428 L810.6932 210.1516 L810.2527 208.1369 L810.568 205.8769 L809.7502 203.2691 L811.1069 199.6196 L810.52 196.7248 L808.2496 195.1713 L805.3269 192.2717 L806.1602 189.8849 L804.6722 186.1205 L799.9099 186.5783 L798.6158 184.2746 L796.3283 182.3941 L796.6984 181.5735" fill="none" stroke="rgb(100,100,100)" />
      <path clip-path="url(#clipPath1)" d="M796.6984 181.5735 L820.8188 181.9054 L864.8893 181.9973 L939.769 182.4139 L987.3857 182.4414 L1038.0031 180.9373 L1062.3083 180.6534 L1072.3629 180.3981" fill="none" stroke="rgb(100,100,100)" />
      <path clip-path="url(#clipPath1)" d="M1072.403 376.8835 L1072.3844 316.665 L1072.0247 304.915 L1072.0182 292.2206 L1070.9368 254.0074 L1071.3898 192.5948 L1072.3629 180.3981" fill="none" stroke="rgb(100,100,100)" />
      <path clip-path="url(#clipPath1)" d="M1468.4868 258.5646 L1468.4647 240.26 L1468.4647 240.26 M1468.4498 228.0008 L1468.3899 178.4002 L1468.3899 178.4002" fill="none" stroke="rgb(100,100,100)" />
      <path clip-path="url(#clipPath1)" d="M1468.3899 178.4002 L1468.4302 178.3699" fill="none" stroke="rgb(100,100,100)" />
      <path clip-path="url(#clipPath1)" d="M49.5951 151.3872 L49.6737 164.9287" fill="none" stroke="rgb(100,100,100)" />
      <path clip-path="url(#clipPath1)" d="M49.5951 151.3872 L128.1351 151.3793 L128.1286 175.0626 L187.4323 174.9991 L187.9956 177.3836 L185.9586 179.6797 L188.4387 181.6509 L190.5122 183.3573 L194.7367 184.8126 L199.0237 183.0524 L202.8227 184.413 L204.8909 187.078 L203.013 190.0103 L205.5833 191.0756 L207.4666 193.8984 L207.0006 196.4088 L207.1616 198.9732 L205.8768 201.4646 L206.3901 204.3569 L204.5232 206.9652 L204.6608 209.6549 L204.9705 212.295 L204.192 214.6032 L203.9895 216.7342 L204.7944 219.6528 L207.1573 222.9538 L210.8021 224.229 L211.8572 226.7903 L212.0568 229.807 L214.3115 230.547 L217.1384 234.0789 L217.5403 237.8098 L217.6141 239.9359 L218.0696 242.6753 L218.1714 245.1753 L222.4636 247.3981 L222.9288 249.5558 L222.2893 253.0476 L225.1486 255.1666 L225.6971 252.9242 L228.1563 253.9867 L228.778 256.3599 L231.9251 257.05 L234.1636 260.0415 L234.9878 262.0533 L233.7501 265.0687 L234.1768 267.1767 L235.7218 269.7334 L236.4989 272.22 L236.3544 274.7202 L237.5548 277.3135 L238.4252 279.4017 L240.5143 279.986 L238.4759 282.5676 L240.8114 283.6673 L240.6543 286.0192 L238.4242 285.771 L239.2131 287.8149 L241.7751 287.5012 L241.3822 289.7669 L239.2072 290.1779 L239.8616 292.331 L239.0151 294.4971 L237.9693 296.5166 L237.798 299.8521 L239.9585 301.7156 L239.3181 302.5958" fill="none" stroke="rgb(100,100,100)" />
      <path clip-path="url(#clipPath1)" d="M1468.3899 178.4002 L1468.3368 113.6097" fill="none" stroke="rgb(100,100,100)" />
      <path clip-path="url(#clipPath1)" d="M1072.3629 180.3981 L1072.16 143.752 L1071.2885 139.8095 L1071.4308 97.0649 L1070.7618 93.9446 L1069.2944 58.5485" fill="none" stroke="rgb(100,100,100)" />
      <path clip-path="url(#clipPath1)" d="M1071.0332 58.5474 L1069.2944 58.5485" fill="none" stroke="rgb(100,100,100)" />
      <path clip-path="url(#clipPath1)" d="M1069.2944 58.5485 L1029.1595 58.5269" fill="none" stroke="rgb(100,100,100)" />
      <path clip-path="url(#clipPath1)" d="M1029.1595 58.5269 L1027.254 58.5182" fill="none" stroke="rgb(100,100,100)" />
      <path clip-path="url(#clipPath1)" d="M1468.3368 113.6097 L1468.396 92.1858 L1468.0344 57.4704" fill="none" stroke="rgb(100,100,100)" />
      <path clip-path="url(#clipPath1)" d="M552.6685 229.0219 L552.6851 192.6427 L548.8188 192.6089 L548.8589 93.1904 L543.1496 93.1799 L542.808 61.5156 L542.9771 56.6487" fill="none" stroke="rgb(100,100,100)" />
      <path clip-path="url(#clipPath1)" d="M1468.0344 57.4704 L1269.2422 56.6294" fill="none" stroke="rgb(100,100,100)" />
      <path clip-path="url(#clipPath1)" d="M1260.9565 290.392 L1259.9054 278.9186 L1260.0577 263.9999 L1259.7819 248.4133 L1260.2639 190.7151 L1259.6757 122.211 L1259.7059 117.1983 L1261.9434 92.1379 L1258.8961 90.6034 L1258.9044 56.6016" fill="none" stroke="rgb(100,100,100)" />
      <path clip-path="url(#clipPath1)" d="M1269.2422 56.6294 L1258.9044 56.6016" fill="none" stroke="rgb(100,100,100)" />
      <path clip-path="url(#clipPath1)" d="M572.0616 56.6517 L542.9771 56.6487" fill="none" stroke="rgb(100,100,100)" />
      <path clip-path="url(#clipPath1)" d="M1258.9044 56.6016 L1091.8821 56.4604 L1089.6462 58.0021 L1089.6462 58.0021 M1088.8818 58.5292 L1071.0332 58.5474 L1071.0332 58.5474" fill="none" stroke="rgb(100,100,100)" />
      <path clip-path="url(#clipPath1)" d="M686.807 56.3571 L689.2362 57.7781 L692.8601 60.7282 L693.079 63.7586 L693.9426 67.1367 L693.3434 69.9532 L693.0209 72.4498 L692.8656 75.6104 L695.4039 78.057 L697.9415 80.3709 L698.6781 82.5617 L699.6213 85.5252 L697.0952 86.713 L697.1171 90.5126 L696.2802 92.5678 L698.3066 94.3156 L700.4534 96.2531 L701.2302 99.3161 L702.8542 102.5978 L702.826 106.3319 L705.6028 107.6006 L705.7764 110.8383 L703.0496 113.515 L702.9083 116.2452 L706.8594 116.4849 L709.4954 118.1337 L711.5623 119.9467 L716.5911 120.9848 L718.7051 121.796 L718.8865 124.3184 L720.4922 126.4077 L719.8076 128.759 L720.4597 131.8796 L720.0813 134.6859 L720.9188 137.4437 L724.0433 137.1606 L726.182 138.7977 L730.0662 140.3963 L732.659 140.2545 L733.5079 142.8004 L733.5357 145.1657 L735.87 147.6106 L738.5035 146.425 L739.7216 143.9982 L742.0561 144.3065 L745.4219 143.792 L746.7789 141.4503 L749.0542 143.2488 L751.6172 144.0444 L754.0451 144.7876 L756.8262 146.642 L760.303 147.8333 L760.5669 150.1347 L764.2224 151.4187 L766.3644 152.9781 L764.209 155.6276 L764.2721 157.7256 L764.5627 160.3164 L767.7864 160.718 L770.2356 158.2413 L772.2466 160.1448 L772.7767 162.499 L774.4283 164.8029 L777.616 166.7509 L780.7755 168.0852 L783.8979 167.9845 L785.9797 167.7686 L786.7233 169.968 L789.674 170.1946 L791.9793 171.3269 L794.1564 173.7661 L795.2802 175.856 L795.8275 177.8715 L796.3788 180.865 L796.6984 181.5735" fill="none" stroke="rgb(100,100,100)" />
      <path clip-path="url(#clipPath1)" d="M51.8361 56.3458 L49.6218 56.3526 L49.6218 56.3526 M49.2793 94.5479 L49.5951 151.3872 L49.5951 151.3872" fill="none" stroke="rgb(100,100,100)" />
      <path clip-path="url(#clipPath1)" d="M860.3716 57.7611 L857.8688 57.7321 L857.8688 57.7321 M848.8192 57.1348 L844.4232 56.6964 L844.4232 56.6964 L844.4232 56.6964 M807.8051 56.3902 L786.311 56.3844 L786.311 56.3844 M692.5262 56.3587 L686.807 56.3571 L686.807 56.3571" fill="none" stroke="rgb(100,100,100)" />
      <path clip-path="url(#clipPath1)" d="M686.807 56.3571 L648.7177 56.4116 L648.7177 56.4116 M635.2363 56.5024 L618.376 56.881 L618.376 56.881" fill="none" stroke="rgb(100,100,100)" />
      <path clip-path="url(#clipPath1)" d="M51.8361 56.3458 L104.3903 55.89 L104.3903 55.89 M152.9693 58.9238 L164.5824 58.894 L171.6748 58.7251 L171.6748 58.7251 M234.1661 56.4687 L241.1953 55.6197 L304.3202 56.1067 L304.3202 56.1067" fill="none" stroke="rgb(100,100,100)" />
      <path clip-path="url(#clipPath1)" d="M542.9771 56.6487 L449.8581 56.8861 L449.8581 56.8861 M447.2686 55.8563 L445.2477 55.0527 L421.4154 55.1725 L421.4154 55.1725 M314.0412 56.272 L304.3202 56.1067 L304.3202 56.1067" fill="none" stroke="rgb(100,100,100)" />
      <path clip-path="url(#clipPath1)" d="M304.3202 56.1067 L304.3202 56.0903" fill="none" stroke="rgb(100,100,100)" />
      <path clip-path="url(#clipPath1)" d="M1269.2422 56.6294 L1269.2422 56.5995" fill="none" stroke="rgb(100,100,100)" />
      <path clip-path="url(#clipPath1)" d="M51.836 56.3339 L51.8361 56.3458" fill="none" stroke="rgb(100,100,100)" />
      <path clip-path="url(#clipPath1)" d="M1035.6985 1191.9597 L1035.6975 1191.9618" fill="none" stroke="rgb(100,100,100)" />
      <path clip-path="url(#clipPath1)" d="M1035.6985 1191.9597 L1050.7833 1191.9958" fill="none" stroke="rgb(100,100,100)" />
      <path clip-path="url(#clipPath1)" d="M253.6871 1191.9401 L224.0475 1192.4878 L224.0475 1192.4878 M218.2726 1192.4646 L210.2195 1192.4323 L210.2195 1192.4323" fill="none" stroke="rgb(100,100,100)" />
      <path clip-path="url(#clipPath1)" d="M255.7883 1191.9583 L253.6871 1191.9401" fill="none" stroke="rgb(100,100,100)" />
      <path clip-path="url(#clipPath1)" d="M1085.1752 1192.0735 L1201.9788 1191.8306" fill="none" stroke="rgb(100,100,100)" />
      <path clip-path="url(#clipPath1)" d="M1288.5059 1191.8014 L1288.5059 1191.7795" fill="none" stroke="rgb(100,100,100)" />
      <path clip-path="url(#clipPath1)" d="M1288.5059 1191.7795 L1242.3264 1191.7369" fill="none" stroke="rgb(100,100,100)" />
      <path clip-path="url(#clipPath1)" d="M1009.2233 1191.5215 L1035.6985 1191.9597" fill="none" stroke="rgb(100,100,100)" />
      <path clip-path="url(#clipPath1)" d="M456.0657 1191.0858 L456.0657 1191.0858" fill="none" stroke="rgb(100,100,100)" />
      <path clip-path="url(#clipPath1)" d="M1468.936 1190.8739 L1468.936 1190.8739 L1468.936 1190.8739 M1362.2338 1190.8682 L1352.9353 1190.8677 L1344.941 1190.9861 L1344.941 1190.9861 M1309.3514 1191.6282 L1306.3635 1191.8264 L1288.5059 1191.7795 L1288.5059 1191.7795" fill="none" stroke="rgb(100,100,100)" />
      <path clip-path="url(#clipPath1)" d="M1468.936 1190.8739 L1468.936 1190.8739" fill="none" stroke="rgb(100,100,100)" />
      <path clip-path="url(#clipPath1)" d="M456.0657 1191.0858 L441.4636 1191.0527 L441.4636 1191.0527 M426.106 1190.8878 L419.1922 1190.6887 L416.994 1190.861 L416.994 1190.861 M391.34 1191.3259 L357.7853 1191.7994 L357.7853 1191.7994 L357.7853 1191.7994" fill="none" stroke="rgb(100,100,100)" />
      <path clip-path="url(#clipPath1)" d="M456.0657 1191.0858 L517.9586 1191.2621 L517.9586 1191.2621 M562.2914 1191.3884 L645.5861 1190.9197 L645.5861 1190.9197" fill="none" stroke="rgb(100,100,100)" />
      <path clip-path="url(#clipPath1)" d="M981.9496 1190.672 L1009.2233 1191.5215" fill="none" stroke="rgb(100,100,100)" />
      <path clip-path="url(#clipPath1)" d="M210.2195 1192.4323 L162.0166 1192.7629" fill="none" stroke="rgb(100,100,100)" />
      <path clip-path="url(#clipPath1)" d="M685.7481 1087.4618 L685.4554 1190.6394" fill="none" stroke="rgb(100,100,100)" />
      <path clip-path="url(#clipPath1)" d="M1469.131 1079.7429 L1468.936 1190.8739" fill="none" stroke="rgb(100,100,100)" />
      <path clip-path="url(#clipPath1)" d="M1469.1371 1079.7429 L1469.131 1079.7429" fill="none" stroke="rgb(100,100,100)" />
      <path clip-path="url(#clipPath1)" d="M1469.0797 1031.2241 L1469.131 1079.7429" fill="none" stroke="rgb(100,100,100)" />
      <path clip-path="url(#clipPath1)" d="M253.6871 1191.9401 L253.5647 1084.9219 L253.7838 1027.3267" fill="none" stroke="rgb(100,100,100)" />
      <path clip-path="url(#clipPath1)" d="M253.7838 1027.3267 L51.5231 1026.8076" fill="none" stroke="rgb(100,100,100)" />
      <path clip-path="url(#clipPath1)" d="M1347.2964 1006.0562 L1347.3665 1031.0142 L1469.0797 1031.2241" fill="none" stroke="rgb(100,100,100)" />
      <path clip-path="url(#clipPath1)" d="M1220.9067 1191.7417 L1220.9114 1178.3153 L1220.1334 1100.1027 L1220.2295 1079.1292 L1220.4575 1009.0999 L1220.6278 1005.0215" fill="none" stroke="rgb(100,100,100)" />
      <path clip-path="url(#clipPath1)" d="M1220.6278 1005.0215 L1265.6689 1005.1701 L1327.5969 1006.1487 L1347.2964 1006.0562" fill="none" stroke="rgb(100,100,100)" />
      <path clip-path="url(#clipPath1)" d="M1469.0797 1031.2241 L1469.0497 993.3076" fill="none" stroke="rgb(100,100,100)" />
      <path clip-path="url(#clipPath1)" d="M1469.0497 993.3076 L1469.1099 993.3075" fill="none" stroke="rgb(100,100,100)" />
      <path clip-path="url(#clipPath1)" d="M1347.1992 925.1002 L1347.2964 1006.0562" fill="none" stroke="rgb(100,100,100)" />
      <path clip-path="url(#clipPath1)" d="M1347.2029 925.0094 L1347.1992 925.1002" fill="none" stroke="rgb(100,100,100)" />
      <path clip-path="url(#clipPath1)" d="M1469.0497 993.3076 L1469.0585 907.149" fill="none" stroke="rgb(100,100,100)" />
      <path clip-path="url(#clipPath1)" d="M1469.0797 907.1492 L1469.0585 907.149" fill="none" stroke="rgb(100,100,100)" />
      <path clip-path="url(#clipPath1)" d="M765.6645 833.3928 L765.7457 882.6885 L769.4957 882.6885 L769.1574 981.2315 L768.3 1004.7954 L683.1616 1004.1873 L683.1324 1078.2351 L685.7222 1078.2439 L685.7481 1087.4618" fill="none" stroke="rgb(100,100,100)" />
      <path clip-path="url(#clipPath1)" d="M583.7564 832.9053 L765.6645 833.3928" fill="none" stroke="rgb(100,100,100)" />
      <path clip-path="url(#clipPath1)" d="M457.3249 832.846 L583.7564 832.9053" fill="none" stroke="rgb(100,100,100)" />
      <path clip-path="url(#clipPath1)" d="M253.7838 1027.3267 L254.0864 978.5488 L254.1065 905.6656 L252.6268 830.8435" fill="none" stroke="rgb(100,100,100)" />
      <path clip-path="url(#clipPath1)" d="M457.3249 832.846 L365.5214 832.9498 L314.0487 832.2676 L252.6268 830.8435" fill="none" stroke="rgb(100,100,100)" />
      <path clip-path="url(#clipPath1)" d="M252.6268 830.8435 L249.9943 830.8395" fill="none" stroke="rgb(100,100,100)" />
      <path clip-path="url(#clipPath1)" d="M249.9943 830.8395 L249.5838 830.839" fill="none" stroke="rgb(100,100,100)" />
      <path clip-path="url(#clipPath1)" d="M210.2195 1192.4323 L210.1157 1192.4342" fill="none" stroke="rgb(100,100,100)" stroke-width="2.5" />
      <path clip-path="url(#clipPath1)" d="M456.3904 1276.3636 L456.0657 1191.0858" fill="none" stroke="rgb(100,100,100)" stroke-width="2.5" />
      <path clip-path="url(#clipPath1)" d="M456.0657 1191.0858 L431.0104 1191.0291 L419.1922 1190.6887 L415.3915 1190.9866 L357.7853 1191.7994 L259.0358 1191.9041 L224.0475 1192.4878 L210.2195 1192.4323" fill="none" stroke="rgb(100,100,100)" stroke-width="2.5" />
      <path clip-path="url(#clipPath1)" d="M1520.2703 1190.8718 L1468.936 1190.8739" fill="none" stroke="rgb(100,100,100)" stroke-width="2.5" />
      <path clip-path="url(#clipPath1)" d="M1468.936 1190.8739 L1378.9563 1190.7543 L1342.7029 1191.0013 L1311.587 1191.4797 L1306.3635 1191.8264 L1226.5946 1191.715 L1129.1613 1192.1727 L1034.7584 1191.9597 L1010.6315 1191.5782 L981.9496 1190.672 L871.4988 1190.2959 L659.4854 1190.6873 L632.1837 1191.1437 L562.2914 1191.3884 L456.0657 1191.0858" fill="none" stroke="rgb(100,100,100)" stroke-width="2.5" />
      <path clip-path="url(#clipPath1)" d="M210.1157 1192.4342 L162.0166 1192.7629 L154.0907 1192.3091 L51.3399 1191.8517 L51.5293 1030.9592 L51.3468 907.1919" fill="none" stroke="rgb(100,100,100)" stroke-width="2.5" />
      <path clip-path="url(#clipPath1)" d="M51.3468 907.1919 L-20.2703 907.2651" fill="none" stroke="rgb(100,100,100)" stroke-width="2.5" />
      <path clip-path="url(#clipPath1)" d="M1468.936 1190.8739 L1469.1395 1078.3671 L1468.9808 623.834" fill="none" stroke="rgb(100,100,100)" stroke-width="2.5" />
      <path clip-path="url(#clipPath1)" d="M1468.9808 623.834 L1486.5811 623.5158 L1494.9598 623.7396 L1520.2703 623.7656" fill="none" stroke="rgb(100,100,100)" stroke-width="2.5" />
      <path clip-path="url(#clipPath1)" d="M51.3468 907.1919 L51.2791 773.1746 L51.9943 695.6035 L51.3807 365.7397 L51.213 340.386 L50.8628 334.654 L50.8836 205.8996" fill="none" stroke="rgb(100,100,100)" stroke-width="2.5" />
      <path clip-path="url(#clipPath1)" d="M1468.0344 57.4704 L1468.396 92.1858 L1468.4537 237.8356 L1468.6851 289.201 L1468.5608 463.7412 L1468.9808 623.834" fill="none" stroke="rgb(100,100,100)" stroke-width="2.5" />
      <path clip-path="url(#clipPath1)" d="M50.8836 205.8996 L49.62 163.1116 L49.2793 94.5479 L49.5987 75.4294 L49.4406 72.5624 L49.6218 56.3526 L104.3903 55.89 L120.553 58.9045 L136.6699 58.9657 L164.5824 58.894 L181.8391 58.483 L189.9937 56.5591 L205.3845 57.6207 L223.0737 57.8085 L241.1953 55.6197 L288.7024 55.7984 L314.0412 56.272 L387.8854 55.3411 L445.2477 55.0527 L449.8581 56.8861 L554.2052 56.5633 L618.376 56.881 L624.6326 56.5738 L669.2351 56.2735 L744.8007 56.55 L800.384 56.3282 L844.4232 56.6964 L854.4045 57.6919 L860.3716 57.7611 L1023.5297 58.5176 L1088.8818 58.5292 L1091.8821 56.4604 L1273.3046 56.6028 L1468.0344 57.4704" fill="none" stroke="rgb(100,100,100)" stroke-width="2.5" />
      <path clip-path="url(#clipPath1)" d="M1471.6162 -28.3636 L1471.6865 57.2832 L1468.0344 57.4704" fill="none" stroke="rgb(100,100,100)" stroke-width="2.5" />
      <path clip-path="url(#clipPath1)" d="M50.8836 205.8996 L48.0955 205.332 L44.7385 203.8409 L40.6419 202.0935 L37.3944 200.2989 L34.9861 198.828 L32.5445 193.6927 L34.1098 189.3043 L30.1338 188.6465 L28.4615 185.3915 L24.9231 184.0982 L24.3523 179.6127 L19.9664 177.0716 L16.4876 177.2256 L14.118 175.932 L13.8855 173.4144 L13.5227 170.1656 L12.6738 168.0789 L13.1584 165.493 L16.3711 163.7671 L11.5016 157.8133 L9.4845 156.1055 L5.9876 156.8926 L3.9116 154.5291 L6.4368 152.1247 L4.7765 148.8827 L3.7474 146.4851 L1.6818 145.7188 L0.5495 143.4916 L0.7581 141.174 L-3.5329 137.8481 L-4.7891 133.5723 L-7.5229 132.4003 L-9.767 134.5971 L-12.5611 131.9502 L-13.4331 129.8391 L-15.1541 127.5527 L-17.4312 126.1796 L-19.8253 128.5616 L-19.3279 130.6472 L-19.6845 133.6571 L-20.2703 135.321" fill="none" stroke="rgb(100,100,100)" stroke-width="2.5" />
      <path clip-path="url(#clipPath1)" d="M625.6827 95.5139 L624.8557 92.4809 L625.3777 90.1684 L626.1581 86.7118 L627.0457 82.7826 L626.054 78.486 L624.7513 76.2264 L621.4755 76.5038 L621.0223 74.136 L619.3147 71.9791 L617.2267 69.3428 L616.3107 66.7485 L615.9193 62.6597 L615.9852 59.3778 L616.0342 56.9358 L618.082 54.9598" fill="none" />
      <path clip-path="url(#clipPath1)" d="M618.082 54.9598 L620.5576 57.3544 L621.0283 59.8551 L621.5018 62.3717 L623.8991 67.4877 L625.7554 70.675 L629.1276 74.4553 L630.9009 77.0096 L631.4962 79.8033 L632.3508 83.8175 L633.1192 87.428 L633.0546 89.5678 L632.9766 92.1493 L632.9028 94.5904 L632.8206 97.3114 L633.6047 100.6285 L634.0972 102.7123 L632.6005 104.4726" fill="none" />
      <path clip-path="url(#clipPath1)" d="M632.6005 104.4726 L629.9362 101.6747 L627.5938 98.2812 L625.6827 95.5139" fill="none" />
      <path clip-path="url(#clipPath1)" d="M423.7207 201.218 L424.0426 204.5441 L423.612 208.3599 L421.6592 212.3399 L414.4981 214.6411" fill="none" />
      <path clip-path="url(#clipPath1)" d="M414.4981 214.6411 L416.4341 208.4954 L416.1848 205.3521 L411.4792 203.844 L407.2846 203.565 L403.1389 202.2689 L402.1743 199.6526 L404.9046 199.0351 L409.3114 198.7537 L422.8469 199.1251 L423.7207 201.218" fill="none" />
      <path clip-path="url(#clipPath1)" d="M188.0154 181.8171 L190.8567 181.7912 L199.4655 184.9393 L201.6923 186.2215 L204.959 191.6833 L206.0701 195.2424 L205.4919 200.9273 L204.3213 212.4421 L205.7876 220.5267 L211.0305 227.3802 L217.3154 235.6062 L219.067 242.5668 L220.2703 252.5938 L218.7089 255.66 L214.8106 256.6517 L210.4942 254.8766 L206.8847 249.7599 L206.4052 246.5974 L204.6773 243.2182 L199.6495 244.7884 L200.0184 248.787 L200.275 251.5695 L201.8227 253.7618 L201.9673 257.3803 L199.0418 259.4416" fill="none" />
      <path clip-path="url(#clipPath1)" d="M199.0418 259.4416 L193.8729 257.3947 L192.2645 254.8081 L191.8512 246.781 L189.733 238.2033 L186.6318 233.821 L184.4362 235.3686 L177.8846 237.5817 L174.9303 236.8188 L175.5061 233.3301 L181.924 230.544 L180.728 227.0327 L176.7701 222.3767 L172.3816 220.2148 L167.415 219.7901 L164.1946 221.9491 L161.572 225.3375 L153.9209 228.7278 L149.9107 228.1625 L147.6589 224.3199 L145.7432 218.0384 L147.662 214.3038 L151.4884 209.5248 L153.3083 207.2531 L155.4614 206.9727 L157.5668 208.0052 L164.4713 210.5923 L171.0835 207.5597 L178.609 203.1062 L178.6747 198.5262 L175.4121 190.2384 L177.6388 187.1216 L188.0154 181.8171" fill="none" />
      <path clip-path="url(#clipPath1)" d="M141.6171 381.7277 L129.1721 393.6085 L126.5991 393.661 L117.3773 383.4382 L113.9907 377.4637 L116.7772 374.9339 L119.1846 365.1789 L120.2013 353.9686 L120.4454 346.4386 L120.103 337.9137 L117.3997 328.9092 L122.3732 335.2921 L128.694 348.0571 L131.8217 355.8672 L135.1286 377.3911 L137.9688 377.4517 L141.5218 378.4977 L141.6171 381.7277" fill="none" />
      <path clip-path="url(#clipPath1)" d="M634.0377 505.7291 L639.1658 517.3366 L638.9338 531.9207 L633.8659 552.4471 L633.8954 568.189 L631.7334 569.8704" fill="none" />
      <path clip-path="url(#clipPath1)" d="M631.7334 569.8704 L629.8173 567.1643 L629.6641 554.649 L627.8671 548.7175 L622.351 520.1912 L631.4843 506.5081 L634.0377 505.7291" fill="none" />
      <path clip-path="url(#clipPath1)" d="M546.5151 578.5695 L538.9533 579.1804 L537.0892 574.5502 L540.8575 564.761 L545.063 562.2875 L547.8393 563.2309 L553.5662 567.9276 L553.9213 573.2026 L553.4438 575.8059 L550.4077 577.631 L546.5151 578.5695" fill="none" />
      <path clip-path="url(#clipPath1)" d="M889.7416 770.5497 L897.546 773.4637 L900.1685 776.0306" fill="none" />
      <path clip-path="url(#clipPath1)" d="M887.8633 833.0676 L879.1794 822.12 L879.0564 816.8634 L880.4731 812.8617 L886.6382 805.4217 L886.2147 801.6382 L878.6855 801.0938 L878.3491 793.9453 L881.4877 784.4667 L883.0503 777.5718 L882.5724 773.3152 L889.7416 770.5497" fill="none" />
      <path clip-path="url(#clipPath1)" d="M900.1685 776.0306 L900.8007 781.7073 L891.613 808.1868 L888.9714 813.7704 L887.6058 818.2447 L888.5944 822.9192 L892.8029 827.2126 L893.2244 830.9958 L890.3742 834.6868" fill="none" />
      <path clip-path="url(#clipPath1)" d="M890.3742 834.6868 L887.8633 833.0676" fill="none" />
      <path clip-path="url(#clipPath1)" d="M895.1367 869.0953 L899.124 871.4982" fill="none" />
      <path clip-path="url(#clipPath1)" d="M899.124 871.4982 L904.4471 877.576 L904.8131 883.2902 L905.0863 887.5599 L910.7056 892.166 L918.8657 894.5609 L932.1821 905.9345 L931.7812 910.7696 L928.0124 910.2518 L921.9957 906.1664 L909.403 901.4189 L905.3824 902.8505 L902.97 914.6299 L902.4319 922.3562 L900.1031 926.4626 L897.3564 926.7881" fill="none" />
      <path clip-path="url(#clipPath1)" d="M897.3564 926.7881 L895.3157 925.1144 L895.2607 907.8793 L897.0804 903.353 L897.2632 896.6263 L887.8989 900.1318 L884.6382 900.0413 L880.6019 897.1688 L880.6378 893.3323 L883.1774 891.1135 L889.7402 887.4587 L891.3645 885.3504 L892.8313 881.8232 L892.0953 875.2044 L889.9437 872.5848 L890.0867 869.694 L895.1367 869.0953" fill="none" />
      <path clip-path="url(#clipPath1)" d="M-3.8184 873.7963 L2.0082 875.0601 L4.6709 876.7741 L8.5074 887.6183 L5.9809 916.5228 L0.1703 947.3876 L-2.2468 950.2056" fill="none" />
      <path clip-path="url(#clipPath1)" d="M386.2075 1063.5807 L386.6282 1066.6549 L381.6728 1087.5063 L373.4188 1100.7462 L369.05 1100.0868 L363.8357 1102.4292 L353.1422 1125.1906 L356.945 1129.0651 L358.2478 1131.223 L359.1355 1150.428 L358.9727 1178.4111 L354.8458 1201.2369 L351.6927 1203.7998 L349.0999 1204.9725 L345.2102 1205.8182 L342.4787 1207.7969 L342.2029 1211.2351 L345.2205 1214.9617 L347.3585 1215.9467 L355.4865 1216.8173 L357.5876 1215.7186 L361.4048 1210.7065 L365.9246 1208.9862 L381.9829 1212.5752 L382.2514 1214.9167" fill="none" />
      <path clip-path="url(#clipPath1)" d="M382.2514 1214.9167 L378.2554 1218.6447 L375.6628 1219.8136 L357.9772 1224.0205 L349.5737 1224.7587 L344.9857 1224.1421 L340.2209 1222.2465 L334.2554 1215.3076 L332.8491 1212.3845 L336.2647 1200.8939 L345.4058 1192.7241 L346.6311 1190.7109 L348.6201 1179.6992 L351.9356 1156.4684 L352.1686 1139.9702 L351.2516 1136.9713 L349.6668 1134.5948 L346.0764 1132.2578 L344.0339 1130.2114 L342.1657 1127.6168 L340.6123 1123.6677 L340.432 1120.5582 L342.3626 1116.3483 L345.7435 1104.4464 L341.1295 1089.3495 L339.5725 1085.4006 L339.0053 1083.1328 L339.1068 1080.2424 L340.6542 1076.8739 L344.2528 1077.3815 L346.8658 1079.866 L350.7509 1086.0824 L351.917 1089.0444 L350.6154 1092.3751 L352.6166 1100.6494 L354.9937 1104.0061 L369.7553 1094.2335 L374.5508 1086.9899 L375.7154 1084.4661 L372.4368 1080.7692 L372.1203 1076.6348 L373.25 1073.8544 L386.2075 1063.5807" fill="none" />
    </g>
  </g>
</svg>
